<svg xmlns="http://www.w3.org/2000/svg" viewBox="0 0 24 24" width="48" height="48"><path d="M13.3 13.45l-1.08-.85c-.36-.3-.82-.69-.82-1.42s.55-1.29.97-1.62c1.31-1.02 2.57-2.1 2.57-4.34 0-2.07-1.27-3.26-2.04-3.92h1.75L15.9.05H9.67c-4.36 0-6.6 2.71-6.6 5.72 0 2.33 1.79 4.83 4.98 4.83h.8c-.13.35-.35.84-.35 1.3 0 1.01.42 1.43.92 2-1.42.1-4.01.43-5.92 1.6-1.86 1.1-2.3 2.63-2.3 3.75 0 2.3 2.06 4.5 6.57 4.5 5.35 0 8.03-2.96 8.03-5.88 0-2.16-1.13-3.27-2.5-4.42M5.65 4.31c0-2.21 1.31-3.21 2.69-3.21 2.66 0 4.01 3.45 4.01 5.53 0 2.57-2.07 3.07-2.89 3.07C7 9.7 5.65 6.64 5.65 4.31M9.3 22.3c-3.33 0-5.45-1.49-5.45-3.7 0-2.2 1.96-2.91 2.65-3.16 1.3-.44 3-.49 3.27-.49.3 0 .46 0 .73.02 2.34 1.69 3.35 2.44 3.35 4.03 0 1.77-1.82 3.3-4.55 3.3"></path><path d="M21 10V7h-2v3h-3v2h3v3h2v-3h3v-2h-3z"></path></svg>
