<svg xmlns:rdf="http://www.w3.org/1999/02/22-rdf-syntax-ns#" xmlns="http://www.w3.org/2000/svg" height="837" width="1674" xmlns:cc="http://creativecommons.org/ns#" xmlns:xlink="http://www.w3.org/1999/xlink" viewBox="0 0 70.000001 34.999999" xmlns:dc="http://purl.org/dc/elements/1.1/">
<title>Flag of Abkhazia</title>
<desc>hand shape probably wrong</desc>
<rect height="35" width="70" y="-7.5e-7" x="0" fill="#00993e"/>
<rect id="a" height="5" width="70" y="5" x="0" fill="#fff"/>
<use xlink:href="#a" height="35" width="70" y="10" x="0"/>
<use xlink:href="#a" height="35" width="70" y="20" x="0"/>
<rect height="15" width="26.6" y="-7.5e-7" x="0" fill="#c8312a"/>
<path fill="#fff" d="m11.241 8.3791s-0.2293 0.096-0.0722 1.9261c0.1282 1.5063 0.6649 1.997 0.6649 1.997l0.2344 0.9324 2.2232 0.0091s0.0403-0.5774 0.1264-0.76c0.2115-0.4486 1.0499-0.9613 1.4092-1.7355 0.3864-0.4719 0.1928-1.435 0.9685-2.3646 0.3851-0.4616-0.4512-0.2662-0.4512-0.2662-0.4586 0.3042-0.6827 0.6612-0.7984 0.9106-0.0778 0.4805-0.4375 0.8823-0.4715 0.5334 0 0-0.1307-0.6034-0.5228-1.7764-0.0388-0.3477-0.207-1.55-0.2429-2.4677-0.0256-0.5971-0.5482-0.633-0.5919-0.0269l-0.0631 2.4028-0.1249-2.775c-0.0531-0.7854-0.6473-0.669-0.6731-0.0181l-0.0255 2.8895-0.1083-2.8009c-0.161-0.535-0.584-0.2179-0.5918 0.3617l-0.0721 2.7253s-0.0911-1.4925-0.1117-2.1227c-0.0194-0.3791-0.4633-0.3511-0.5052 0.1909-0.0604 0.7834-0.1555 1.4231-0.2 2.2352z"/>
<g fill="#fff" transform="translate(13.3 11.833)">
<g transform="matrix(1.15,0,0,1.15,0,-9.5)">
<path fill="#fff" transform="scale(.0000019468)" d="m-3.0193e5 4.1557e5 3.0193e5 -9.2924e5l3.0193e5 9.2924e5 -7.9046e5 -5.743e5h9.7707e5z"/>
</g>
<g transform="matrix(1.15 0 0 1.15 3.9047 -8.67)">
<path fill="#fff" d="m0.58779 0.80902-1.5388-1.118h1.9021l-1.5388 1.118 0.58771-1.809z"/>
</g>
<g transform="matrix(1.15 0 0 1.15 7.2452 -6.1982)">
<path fill="#fff" d="m0.58779 0.80902-1.5388-1.118h1.9021l-1.5388 1.118 0.58771-1.809z"/>
</g>
<g transform="matrix(1.15 0 0 1.15 9.1805 -2.7068)">
<path fill="#fff" d="m0.58779 0.80902-1.5388-1.118h1.9021l-1.5389 1.118 0.58781-1.809z"/>
</g>
<g transform="scale(-1,1)">
<g transform="matrix(1.15,0,0,1.15,0,-9.5)">
<path fill="#fff" d="m0.58779 0.80902-1.5388-1.118h1.9021l-1.5389 1.118 0.58781-1.809z"/>
</g>
<g transform="matrix(1.15 0 0 1.15 3.9047 -8.67)">
<path fill="#fff" d="m0.58779 0.80902-1.5388-1.118h1.9021l-1.5388 1.118 0.58771-1.809z"/>
</g>
<g transform="matrix(1.15 0 0 1.15 7.2452 -6.1982)">
<path fill="#fff" d="m0.58779 0.80902-1.5388-1.118h1.9021l-1.5388 1.118 0.58771-1.809z"/>
</g>
<g transform="matrix(1.15 0 0 1.15 9.1805 -2.7068)">
<path fill="#fff" d="m0.58779 0.80902-1.5388-1.118h1.9021l-1.5388 1.118 0.58771-1.809z"/>
</g>
</g>
</g>
</svg>
