<svg xmlns:rdf="http://www.w3.org/1999/02/22-rdf-syntax-ns#" xmlns="http://www.w3.org/2000/svg" height="480" width="640" xmlns:cc="http://creativecommons.org/ns#" xmlns:dc="http://purl.org/dc/elements/1.1/">
<defs>
<clipPath id="a" clipPathUnits="userSpaceOnUse">
<rect fill-opacity=".67" height="512" width="682.67" y="3.5757e-8" x="-79.698"/>
</clipPath>
</defs>
<g fill-rule="evenodd" transform="matrix(.93750 0 0 .93750 74.717 -3.3522e-8)" clip-path="url(#a)">
<g stroke-width="1pt">
<rect height="511.49" width="763.27" y="-8.5115e-7" x="-120" fill="#fff"/>
<rect height="216.09" width="760.88" y=".61745" x="-118.31"/>
<rect height="113.82" width="505.01" y="203.23" x="21.299" fill="#0061ff"/>
</g>
<path fill="#e20000" d="m642.75 1.7529v510.25h-380.72l380.72-510.25z"/>
<path fill="#e20000" d="m-118.69 1.7529v510.25h380.72l-380.72-510.25z"/>
<path fill="#ffd600" d="m440.37 203.34-76.31-19.363 64.921-48.976-79.727 11.39 41.003-69.476-70.616 41.003 12.528-80.867-47.836 63.782-19.363-74.033-21.64 76.311-47.837-64.921 13.667 83.145-70.615-43.282 41.003 69.476-77.449-12.528 63.782 47.837-79.728 20.501h354.22z"/>
</g>
</svg>
