<svg xmlns:rdf="http://www.w3.org/1999/02/22-rdf-syntax-ns#" xmlns="http://www.w3.org/2000/svg" height="480" width="640" xmlns:cc="http://creativecommons.org/ns#" xmlns:dc="http://purl.org/dc/elements/1.1/">
<g stroke-width="1pt" transform="matrix(.75530 0 0 1.1329 -28.678 -260.35)" fill-rule="evenodd">
<rect height="141.61" width="847.35" y="229.8" x="37.969" fill="#00c4ff"/>
<rect height="141.61" width="847.35" y="370.83" x="37.969" fill="#fff"/>
<rect height="141.61" width="847.35" y="511.86" x="37.969" fill="#00c4ff"/>
</g>
<g transform="matrix(1.614 0 0 1.614 -223.61 -145.74)">
<g stroke="#000" stroke-opacity=".38662">
<path d="m382.49 221.33c0 14.564-11.864 26.37-26.499 26.37s-26.499-11.806-26.499-26.37 11.864-26.37 26.499-26.37 26.499 11.806 26.499 26.37z" fill-rule="evenodd" transform="matrix(1.0193 0 0 1.0038 -26.198 18.075)" stroke-width=".625" fill="#ffd600"/>
<path d="m364.43 195.28c-4.34-1.049-8.785 0.422-10.185 0.318-1.925 0-6.79-1.68-10.185 0" transform="matrix(.78705 0 0 .76270 57.458 72.384)" stroke-width=".5" fill="none"/>
<path d="m338.71 200.49c4.305-3.01 9.115 1.086 10.394 0.315 3.492-2.294 6.736-1.868 10.08 0.21 2.155 1.272 5.914-3.71 10.289 0.315" transform="matrix(.78705 0 0 .76270 57.458 72.384)" stroke-width=".5" fill="none"/>
</g>
<g stroke="#000" stroke-opacity=".38662" fill-rule="evenodd">
<path d="m333.88 205.63c2.275-1.855 9.694-1.925 17.324 2.414 1.155-0.28 1.89-1.084 0.945-2.204-5.74-1.995-12.424-4.515-18.584-2.625-1.68 1.19-1.26 1.96 0.315 2.415z" transform="matrix(.78705 0 0 .76270 57.458 72.384)" stroke-width=".5" fill="#efc000"/>
<path d="m333.88 205.63c2.275-1.855 9.694-1.925 17.324 2.414 1.155-0.28 1.89-1.084 0.945-2.204-5.74-1.995-12.424-4.515-18.584-2.625-1.68 1.19-1.26 1.96 0.315 2.415z" transform="matrix(-.78705 0 0 .76270 614.99 72.384)" stroke-width=".5" fill="#efc000"/>
<path stroke-linejoin="round" d="m330.84 211.83c7.525-4.83 17.464-2.31 21.629 0.315-6.09-1.155-6.195-1.68-10.605-1.785-3.115 0.106-7.699-0.21-11.024 1.47z" transform="matrix(.78705 0 0 .76270 57.458 72.384)" stroke-width=".625" fill="#f0bf00"/>
</g>
<path d="m348.06 211.3c-3.675 7.665-10.079 7.77-14.594-0.42" stroke-opacity=".38662" transform="matrix(.78705 0 0 .76270 57.458 72.384)" stroke="#000" stroke-width=".625" fill="none"/>
<path fill-opacity=".36803" fill-rule="evenodd" transform="matrix(.85295 .12338 -.92423 1.011 231.88 -22.52)" d="m345.54 212.88c0 0.92779-1.6453 1.6799-3.6748 1.6799s-3.6748-0.75212-3.6748-1.6799c0-0.92779 1.6453-1.6799 3.6748-1.6799s3.6748 0.75212 3.6748 1.6799z"/>
<path fill-rule="evenodd" fill="#ffd700" transform="matrix(1.0476 -.34283 .38138 .94175 -115.92 151.91)" d="m344.07 212.56c0 0.23194-0.32906 0.41997-0.73497 0.41997s-0.73497-0.18803-0.73497-0.41997c0-0.23195 0.32906-0.41998 0.73497-0.41998s0.73497 0.18803 0.73497 0.41998z"/>
<g stroke="#000" stroke-width=".625" stroke-opacity=".38662" fill="none">
<path d="m349.18 224.5c-4.239 7.127 1.537 2.1 2.475 4.164 1.65 1.913 3.301 1.462 4.276 0 0.976-1.651 7.127 3.113 2.926-3.938" transform="matrix(.78705 0 0 .76270 57.458 72.384)"/>
<path stroke-linejoin="round" d="m341.64 236.31c3.638-0.413 9.753-3.188 11.929-0.9 1.875-2.063 8.477 0.6 12.715 0.9-3.076 1.875-9.302 0.6-12.265 2.588-2.889-1.763-9.266-0.15-12.379-2.588z" transform="matrix(.78705 0 0 .76270 57.458 72.384)" stroke-linecap="round"/>
<path stroke-linejoin="round" d="m347.5 239.58c5.514 2.251 6.752 1.913 12.716 0.225-1.238 3.264-4.398 3.951-6.19 3.826-1.857-0.121-4.388 0.113-6.526-4.051z" transform="matrix(.78705 0 0 .76270 57.458 72.384)"/>
</g>
<path stroke-linejoin="round" d="m343.17 258.06c-3.977 10.41 0.379 15.358-1.567 20.964-1.874 5.398-10.025 18.776-3.821 24.589 4.931 0.228-0.852-7.376 9.012-21.455 4.575-6.595-1.196-10.769 3.625-23.707 0.449-1.107-6.622-2.031-7.249-0.391z" stroke-opacity=".38662" fill-rule="evenodd" transform="matrix(.78705 0 0 .76270 57.458 72.384)" stroke="#000" stroke-width=".625" fill="#ffd700"/>
<path stroke-linejoin="round" d="m342.97 258.16c-1.528 11.683-0.62 47.577 3.037 46.141 4.049 1.305 4.583-35.163 4.212-45.946-0.052-1.194-7.036-1.938-7.249-0.195z" stroke-opacity=".38662" fill-rule="evenodd" transform="matrix(.78705 0 0 .76270 64.243 72.907)" stroke="#000" stroke-width=".625" fill="#ffd700"/>
<g stroke="#000" stroke-width=".625" fill="none">
<g stroke-linejoin="round" stroke-opacity=".38662">
<path d="m343.17 258.06c-3.977 10.41 0.379 15.358-1.567 20.964-1.874 5.398-10.025 18.776-3.821 24.589 4.931 0.228-0.852-7.376 9.012-21.455 4.575-6.595-1.196-10.769 3.625-23.707 0.449-1.107-6.622-2.031-7.249-0.391z" transform="matrix(-.56256 -.53340 -.55044 .54515 657.14 309.12)"/>
<path d="m343.17 258.06c-3.977 10.41 0.379 15.358-1.567 20.964-1.874 5.398-10.025 18.776-3.821 24.589 4.931 0.228-0.852-7.376 9.012-21.455 4.575-6.595-1.196-10.769 3.625-23.707 0.449-1.107-6.622-2.031-7.249-0.391z" transform="matrix(.55074 .54486 -.56226 .53369 265.32 -69.993)"/>
<path d="m343.17 258.06c-3.977 10.41 0.379 15.358-1.567 20.964-1.874 5.398-10.025 18.776-3.821 24.589 4.931 0.228-0.852-7.376 9.012-21.455 4.575-6.595-1.196-10.769 3.625-23.707 0.449-1.107-6.622-2.031-7.249-0.391z" transform="matrix(-.0045306 -.76268 -.78704 .0043904 511.37 509.69)"/>
<path d="m342.97 258.16c-1.528 11.683-0.62 47.577 3.037 46.141 4.049 1.305 4.583-35.163 4.212-45.946-0.052-1.194-7.036-1.938-7.249-0.195z" transform="matrix(-.72199 -.30364 -.31333 .69965 656.38 192.05)"/>
<path d="m342.97 258.16c-1.528 11.683-0.62 47.577 3.037 46.141 4.049 1.305 4.583-35.163 4.212-45.946-0.052-1.194-7.036-1.938-7.249-0.195z" transform="matrix(-.56065 -.53529 -.55238 .54330 651.5 306.4)"/>
<path d="m342.97 258.16c-1.528 11.683-0.62 47.577 3.037 46.141 4.049 1.305 4.583-35.163 4.212-45.946-0.052-1.194-7.036-1.938-7.249-0.195z" transform="matrix(-.30753 -.70206 -.72448 .29802 602.06 417.74)"/>
</g>
<path d="m349.18 224.5c-4.239 7.127 1.537 2.1 2.475 4.164 1.65 1.913 3.301 1.462 4.276 0 0.976-1.651 7.127 3.113 2.926-3.938" stroke-opacity=".081784" transform="matrix(.78705 0 0 .76270 57.458 72.384)"/>
</g>
<path stroke-linejoin="round" d="m341.64 236.31c3.638-0.413 9.753-3.188 11.929-0.9 1.875-2.063 8.477 0.6 12.715 0.9-3.076 1.875-9.302 0.6-12.265 2.588-2.889-1.763-9.266-0.15-12.379-2.588z" stroke-opacity=".081784" fill-rule="evenodd" transform="matrix(.78705 0 0 .76270 57.458 72.384)" stroke="#000" stroke-linecap="round" stroke-width=".625" fill="#f0bf00"/>
<path stroke-linejoin="round" d="m347.5 239.58c5.514 2.251 6.752 1.913 12.716 0.225-1.238 3.264-4.398 3.951-6.19 3.826-1.857-0.121-4.388 0.113-6.526-4.051z" stroke-opacity=".081784" fill-rule="evenodd" transform="matrix(.78705 0 0 .76270 57.458 72.384)" stroke="#000" stroke-width=".625" fill="#f0bf00"/>
<g stroke-linejoin="round" stroke="#000" stroke-width=".625" fill="#ffd700" fill-rule="evenodd">
<g stroke-opacity=".1487">
<path d="m343.17 258.06c-3.977 10.41 0.379 15.358-1.567 20.964-1.874 5.398-10.025 18.776-3.821 24.589 4.931 0.228-0.852-7.376 9.012-21.455 4.575-6.595-1.196-10.769 3.625-23.707 0.449-1.107-6.622-2.031-7.249-0.391z" transform="matrix(-.56256 -.53340 -.55044 .54515 657.14 309.12)"/>
<path d="m343.17 258.06c-3.977 10.41 0.379 15.358-1.567 20.964-1.874 5.398-10.025 18.776-3.821 24.589 4.931 0.228-0.852-7.376 9.012-21.455 4.575-6.595-1.196-10.769 3.625-23.707 0.449-1.107-6.622-2.031-7.249-0.391z" transform="matrix(.55074 .54486 -.56226 .53369 265.32 -69.993)"/>
<path d="m343.17 258.06c-3.977 10.41 0.379 15.358-1.567 20.964-1.874 5.398-10.025 18.776-3.821 24.589 4.931 0.228-0.852-7.376 9.012-21.455 4.575-6.595-1.196-10.769 3.625-23.707 0.449-1.107-6.622-2.031-7.249-0.391z" transform="matrix(-.0045306 -.76268 -.78704 .0043904 511.37 509.69)"/>
<path d="m342.97 258.16c-1.528 11.683-0.62 47.577 3.037 46.141 4.049 1.305 4.583-35.163 4.212-45.946-0.052-1.194-7.036-1.938-7.249-0.195z" transform="matrix(-.72199 -.30364 -.31333 .69965 656.38 192.05)"/>
<path d="m342.97 258.16c-1.528 11.683-0.62 47.577 3.037 46.141 4.049 1.305 4.583-35.163 4.212-45.946-0.052-1.194-7.036-1.938-7.249-0.195z" transform="matrix(-.56065 -.53529 -.55238 .54330 651.5 306.4)"/>
<path d="m342.97 258.16c-1.528 11.683-0.62 47.577 3.037 46.141 4.049 1.305 4.583-35.163 4.212-45.946-0.052-1.194-7.036-1.938-7.249-0.195z" transform="matrix(-.30753 -.70206 -.72448 .29802 602.06 417.74)"/>
</g>
<g stroke-opacity=".38662">
<path d="m342.97 258.16c-1.528 11.683-0.62 47.577 3.037 46.141 4.049 1.305 4.583-35.163 4.212-45.946-0.052-1.194-7.036-1.938-7.249-0.195z" transform="matrix(0 -.76270 .78705 0 164.06 504.41)"/>
<path d="m343.17 258.06c-3.977 10.41 0.379 15.358-1.567 20.964-1.874 5.398-10.025 18.776-3.821 24.589 4.931 0.228-0.852-7.376 9.012-21.455 4.575-6.595-1.196-10.769 3.625-23.707 0.449-1.107-6.622-2.031-7.249-0.391z" transform="matrix(-.78705 0 0 .76270 616.04 72.778)"/>
<path d="m343.17 258.06c-3.977 10.41 0.379 15.358-1.567 20.964-1.874 5.398-10.025 18.776-3.821 24.589 4.931 0.228-0.852-7.376 9.012-21.455 4.575-6.595-1.196-10.769 3.625-23.707 0.449-1.107-6.622-2.031-7.249-0.391z" transform="matrix(.56256 -.53340 .55044 .54515 16.584 309.51)"/>
<path d="m343.17 258.06c-3.977 10.41 0.379 15.358-1.567 20.964-1.874 5.398-10.025 18.776-3.821 24.589 4.931 0.228-0.852-7.376 9.012-21.455 4.575-6.595-1.196-10.769 3.625-23.707 0.449-1.107-6.622-2.031-7.249-0.391z" transform="matrix(-.55074 .54486 .56226 .53369 408.41 -69.796)"/>
<path d="m343.17 258.06c-3.977 10.41 0.379 15.358-1.567 20.964-1.874 5.398-10.025 18.776-3.821 24.589 4.931 0.228-0.852-7.376 9.012-21.455 4.575-6.595-1.196-10.769 3.625-23.707 0.449-1.107-6.622-2.031-7.249-0.391z" transform="matrix(.0045306 -.76268 .78704 .0043904 162.13 509.69)"/>
<path d="m342.97 258.16c-1.528 11.683-0.62 47.577 3.037 46.141 4.049 1.305 4.583-35.163 4.212-45.946-0.052-1.194-7.036-1.938-7.249-0.195z" transform="matrix(.72199 -.30364 .31333 .69965 17.304 192.45)"/>
<path d="m342.97 258.16c-1.528 11.683-0.62 47.577 3.037 46.141 4.049 1.305 4.583-35.163 4.212-45.946-0.052-1.194-7.036-1.938-7.249-0.195z" transform="matrix(.56065 -.53529 .55238 .54330 21.69 306.4)"/>
<path d="m342.97 258.16c-1.528 11.683-0.62 47.577 3.037 46.141 4.049 1.305 4.583-35.163 4.212-45.946-0.052-1.194-7.036-1.938-7.249-0.195z" transform="matrix(.30753 -.70206 .72448 .29802 71.779 417.74)"/>
</g>
<g stroke-opacity=".1487">
<path d="m343.17 258.06c-3.977 10.41 0.379 15.358-1.567 20.964-1.874 5.398-10.025 18.776-3.821 24.589 4.931 0.228-0.852-7.376 9.012-21.455 4.575-6.595-1.196-10.769 3.625-23.707 0.449-1.107-6.622-2.031-7.249-0.391z" transform="matrix(.56256 -.53340 .55044 .54515 16.584 309.51)"/>
<path d="m343.17 258.06c-3.977 10.41 0.379 15.358-1.567 20.964-1.874 5.398-10.025 18.776-3.821 24.589 4.931 0.228-0.852-7.376 9.012-21.455 4.575-6.595-1.196-10.769 3.625-23.707 0.449-1.107-6.622-2.031-7.249-0.391z" transform="matrix(-.55074 .54486 .56226 .53369 408.41 -69.796)"/>
<path d="m343.17 258.06c-3.977 10.41 0.379 15.358-1.567 20.964-1.874 5.398-10.025 18.776-3.821 24.589 4.931 0.228-0.852-7.376 9.012-21.455 4.575-6.595-1.196-10.769 3.625-23.707 0.449-1.107-6.622-2.031-7.249-0.391z" transform="matrix(.0045306 -.76268 .78704 .0043904 162.13 509.69)"/>
<path d="m342.97 258.16c-1.528 11.683-0.62 47.577 3.037 46.141 4.049 1.305 4.583-35.163 4.212-45.946-0.052-1.194-7.036-1.938-7.249-0.195z" transform="matrix(.72199 -.30364 .31333 .69965 17.304 192.45)"/>
<path d="m342.97 258.16c-1.528 11.683-0.62 47.577 3.037 46.141 4.049 1.305 4.583-35.163 4.212-45.946-0.052-1.194-7.036-1.938-7.249-0.195z" transform="matrix(.56065 -.53529 .55238 .54330 21.69 306.4)"/>
<path d="m342.97 258.16c-1.528 11.683-0.62 47.577 3.037 46.141 4.049 1.305 4.583-35.163 4.212-45.946-0.052-1.194-7.036-1.938-7.249-0.195z" transform="matrix(.30753 -.70206 .72448 .29802 71.779 417.74)"/>
</g>
<g stroke-opacity=".38662">
<path d="m342.97 258.16c-1.528 11.683-0.62 47.577 3.037 46.141 4.049 1.305 4.583-35.163 4.212-45.946-0.052-1.194-7.036-1.938-7.249-0.195z" transform="matrix(0 .76270 -.78705 0 509.35 -23.965)"/>
<path d="m343.17 258.06c-3.977 10.41 0.379 15.358-1.567 20.964-1.874 5.398-10.025 18.776-3.821 24.589 4.931 0.228-0.852-7.376 9.012-21.455 4.575-6.595-1.196-10.769 3.625-23.707 0.449-1.107-6.622-2.031-7.249-0.391z" transform="matrix(.78705 0 0 -.76270 57.38 407.66)"/>
<path d="m343.17 258.06c-3.977 10.41 0.379 15.358-1.567 20.964-1.874 5.398-10.025 18.776-3.821 24.589 4.931 0.228-0.852-7.376 9.012-21.455 4.575-6.595-1.196-10.769 3.625-23.707 0.449-1.107-6.622-2.031-7.249-0.391z" transform="matrix(-.56256 .53340 -.55044 -.54515 656.83 170.93)"/>
<path d="m343.17 258.06c-3.977 10.41 0.379 15.358-1.567 20.964-1.874 5.398-10.025 18.776-3.821 24.589 4.931 0.228-0.852-7.376 9.012-21.455 4.575-6.595-1.196-10.769 3.625-23.707 0.449-1.107-6.622-2.031-7.249-0.391z" transform="matrix(.55074 -.54486 -.56226 -.53369 265.01 550.24)"/>
<path d="m343.17 258.06c-3.977 10.41 0.379 15.358-1.567 20.964-1.874 5.398-10.025 18.776-3.821 24.589 4.931 0.228-0.852-7.376 9.012-21.455 4.575-6.595-1.196-10.769 3.625-23.707 0.449-1.107-6.622-2.031-7.249-0.391z" transform="matrix(-.0045306 .76268 -.78704 -.0043904 511.29 -29.254)"/>
<path d="m342.97 258.16c-1.528 11.683-0.62 47.577 3.037 46.141 4.049 1.305 4.583-35.163 4.212-45.946-0.052-1.194-7.036-1.938-7.249-0.195z" transform="matrix(-.72199 .30364 -.31333 -.69965 656.11 288)"/>
<path d="m342.97 258.16c-1.528 11.683-0.62 47.577 3.037 46.141 4.049 1.305 4.583-35.163 4.212-45.946-0.052-1.194-7.036-1.938-7.249-0.195z" transform="matrix(-.56065 .53529 -.55238 -.54330 651.73 174.04)"/>
<path d="m342.97 258.16c-1.528 11.683-0.62 47.577 3.037 46.141 4.049 1.305 4.583-35.163 4.212-45.946-0.052-1.194-7.036-1.938-7.249-0.195z" transform="matrix(-.30753 .70206 -.72448 -.29802 601.64 62.696)"/>
</g>
<g stroke-opacity=".1487">
<path d="m343.17 258.06c-3.977 10.41 0.379 15.358-1.567 20.964-1.874 5.398-10.025 18.776-3.821 24.589 4.931 0.228-0.852-7.376 9.012-21.455 4.575-6.595-1.196-10.769 3.625-23.707 0.449-1.107-6.622-2.031-7.249-0.391z" transform="matrix(-.56256 .53340 -.55044 -.54515 656.83 170.93)"/>
<path d="m343.17 258.06c-3.977 10.41 0.379 15.358-1.567 20.964-1.874 5.398-10.025 18.776-3.821 24.589 4.931 0.228-0.852-7.376 9.012-21.455 4.575-6.595-1.196-10.769 3.625-23.707 0.449-1.107-6.622-2.031-7.249-0.391z" transform="matrix(.55074 -.54486 -.56226 -.53369 265.01 550.24)"/>
<path d="m343.17 258.06c-3.977 10.41 0.379 15.358-1.567 20.964-1.874 5.398-10.025 18.776-3.821 24.589 4.931 0.228-0.852-7.376 9.012-21.455 4.575-6.595-1.196-10.769 3.625-23.707 0.449-1.107-6.622-2.031-7.249-0.391z" transform="matrix(-.0045306 .76268 -.78704 -.0043904 511.29 -29.254)"/>
<path d="m342.97 258.16c-1.528 11.683-0.62 47.577 3.037 46.141 4.049 1.305 4.583-35.163 4.212-45.946-0.052-1.194-7.036-1.938-7.249-0.195z" transform="matrix(-.72199 .30364 -.31333 -.69965 656.11 288)"/>
<path d="m342.97 258.16c-1.528 11.683-0.62 47.577 3.037 46.141 4.049 1.305 4.583-35.163 4.212-45.946-0.052-1.194-7.036-1.938-7.249-0.195z" transform="matrix(-.56065 .53529 -.55238 -.54330 651.73 174.04)"/>
<path d="m342.97 258.16c-1.528 11.683-0.62 47.577 3.037 46.141 4.049 1.305 4.583-35.163 4.212-45.946-0.052-1.194-7.036-1.938-7.249-0.195z" transform="matrix(-.30753 .70206 -.72448 -.29802 601.64 62.696)"/>
</g>
<g stroke-opacity=".38662">
<path d="m342.97 258.16c-1.528 11.683-0.62 47.577 3.037 46.141 4.049 1.305 4.583-35.163 4.212-45.946-0.052-1.194-7.036-1.938-7.249-0.195z" transform="matrix(-.78705 0 0 -.76270 609.13 407.52)"/>
<path d="m343.17 258.06c-3.977 10.41 0.379 15.358-1.567 20.964-1.874 5.398-10.025 18.776-3.821 24.589 4.931 0.228-0.852-7.376 9.012-21.455 4.575-6.595-1.196-10.769 3.625-23.707 0.449-1.107-6.622-2.031-7.249-0.391z" transform="matrix(0 .76270 .78705 0 163.72 -30.464)"/>
<path d="m343.17 258.06c-3.977 10.41 0.379 15.358-1.567 20.964-1.874 5.398-10.025 18.776-3.821 24.589 4.931 0.228-0.852-7.376 9.012-21.455 4.575-6.595-1.196-10.769 3.625-23.707 0.449-1.107-6.622-2.031-7.249-0.391z" transform="matrix(-.55044 -.54515 .56256 -.53340 408.01 550.44)"/>
<path d="m343.17 258.06c-3.977 10.41 0.379 15.358-1.567 20.964-1.874 5.398-10.025 18.776-3.821 24.589 4.931 0.228-0.852-7.376 9.012-21.455 4.575-6.595-1.196-10.769 3.625-23.707 0.449-1.107-6.622-2.031-7.249-0.391z" transform="matrix(.56226 .53369 .55074 -.54486 16.589 170.74)"/>
<path d="m343.17 258.06c-3.977 10.41 0.379 15.358-1.567 20.964-1.874 5.398-10.025 18.776-3.821 24.589 4.931 0.228-0.852-7.376 9.012-21.455 4.575-6.595-1.196-10.769 3.625-23.707 0.449-1.107-6.622-2.031-7.249-0.391z" transform="matrix(-.78704 -.0043904 .0045306 -.76268 614.58 409.4)"/>
<path d="m342.97 258.16c-1.528 11.683-0.62 47.577 3.037 46.141 4.049 1.305 4.583-35.163 4.212-45.946-0.052-1.194-7.036-1.938-7.249-0.195z" transform="matrix(-.31333 -.69965 .72199 -.30364 287.2 549.74)"/>
<path d="m342.97 258.16c-1.528 11.683-0.62 47.577 3.037 46.141 4.049 1.305 4.583-35.163 4.212-45.946-0.052-1.194-7.036-1.938-7.249-0.195z" transform="matrix(-.55238 -.54330 .56065 -.53529 404.79 545.49)"/>
<path d="m342.97 258.16c-1.528 11.683-0.62 47.577 3.037 46.141 4.049 1.305 4.583-35.163 4.212-45.946-0.052-1.194-7.036-1.938-7.249-0.195z" transform="matrix(-.72448 -.29802 .30753 -.70206 519.7 496.95)"/>
</g>
<g stroke-opacity=".1487">
<path d="m343.17 258.06c-3.977 10.41 0.379 15.358-1.567 20.964-1.874 5.398-10.025 18.776-3.821 24.589 4.931 0.228-0.852-7.376 9.012-21.455 4.575-6.595-1.196-10.769 3.625-23.707 0.449-1.107-6.622-2.031-7.249-0.391z" transform="matrix(-.55044 -.54515 .56256 -.53340 408.01 550.44)"/>
<path d="m343.17 258.06c-3.977 10.41 0.379 15.358-1.567 20.964-1.874 5.398-10.025 18.776-3.821 24.589 4.931 0.228-0.852-7.376 9.012-21.455 4.575-6.595-1.196-10.769 3.625-23.707 0.449-1.107-6.622-2.031-7.249-0.391z" transform="matrix(.56226 .53369 .55074 -.54486 16.589 170.74)"/>
<path d="m343.17 258.06c-3.977 10.41 0.379 15.358-1.567 20.964-1.874 5.398-10.025 18.776-3.821 24.589 4.931 0.228-0.852-7.376 9.012-21.455 4.575-6.595-1.196-10.769 3.625-23.707 0.449-1.107-6.622-2.031-7.249-0.391z" transform="matrix(-.78704 -.0043904 .0045306 -.76268 614.58 409.4)"/>
<path d="m342.97 258.16c-1.528 11.683-0.62 47.577 3.037 46.141 4.049 1.305 4.583-35.163 4.212-45.946-0.052-1.194-7.036-1.938-7.249-0.195z" transform="matrix(-.31333 -.69965 .72199 -.30364 287.2 549.74)"/>
<path d="m342.97 258.16c-1.528 11.683-0.62 47.577 3.037 46.141 4.049 1.305 4.583-35.163 4.212-45.946-0.052-1.194-7.036-1.938-7.249-0.195z" transform="matrix(-.55238 -.54330 .56065 -.53529 404.79 545.49)"/>
<path d="m342.97 258.16c-1.528 11.683-0.62 47.577 3.037 46.141 4.049 1.305 4.583-35.163 4.212-45.946-0.052-1.194-7.036-1.938-7.249-0.195z" transform="matrix(-.72448 -.29802 .30753 -.70206 519.7 496.95)"/>
</g>
</g>
<g stroke="#000" stroke-width="1pt" fill="none">
<path d="m105.48 235.29" stroke-opacity=".078067" transform="matrix(.78705 0 0 .76270 57.865 72.976)"/>
<g stroke-opacity=".171">
<path d="m328.14 202.55h-3.151" transform="matrix(.78705 0 0 .76270 57.865 72.976)"/>
<path d="m328.14 202.55h-3.151" transform="matrix(.78705 0 0 .76270 57.245 74.52)"/>
<path d="m328.14 202.55h-3.151" transform="matrix(.87138 0 0 .76270 29.308 75.979)"/>
<path d="m328.14 202.55h-3.151" transform="matrix(.87137 0 0 .76270 28.514 77.353)"/>
<path d="m328.14 202.55h-3.151" transform="matrix(1.04 0 0 .76270 -27.004 78.812)"/>
<path d="m328.14 202.55h-3.151" transform="matrix(1.1524 0 0 .76270 -63.806 80.271)"/>
<path d="m328.14 202.55h-3.151" transform="matrix(1.0962 0 0 .76270 -45.89 81.901)"/>
<path d="m328.14 202.55h-3.151" transform="matrix(1.0681 0 0 .76270 -36.489 83.532)"/>
<path d="m328.14 202.55h-3.151" transform="matrix(1.0962 0 0 .76270 -45.713 85.077)"/>
<path d="m328.14 202.55h-3.151" transform="matrix(1.3773 0 0 .76270 -137.06 86.879)"/>
<path d="m328.14 202.55h-3.151" transform="matrix(1.1805 0 0 .76270 -72.849 88.939)"/>
</g>
<g stroke-opacity=".078067">
<path d="m328.14 202.55h-3.151" transform="matrix(1.1805 0 0 .76270 -72.76 90.398)"/>
<path d="m328.14 202.55h-3.151" transform="matrix(1.1805 0 0 .76270 -72.14 92.372)"/>
<path d="m328.14 202.55h-3.151" transform="matrix(1.1805 0 0 .76270 -72.052 94.089)"/>
<path d="m328.14 202.55h-3.151" transform="matrix(1.1805 0 0 .76270 -70.989 95.977)"/>
<path d="m328.14 202.55h-3.151" transform="matrix(1.1805 0 0 .76270 -69.926 97.522)"/>
<path d="m328.14 202.55h-3.151" transform="matrix(1.1805 0 0 .76270 -68.952 99.324)"/>
<path d="m328.14 202.55h-3.151" transform="matrix(1.1805 0 0 .76270 -67.8 101.04)"/>
<path d="m328.14 202.55h-3.151" transform="matrix(1.1805 0 0 .76270 -67.003 102.67)"/>
<path d="m328.14 202.55h-3.151" transform="matrix(1.1805 0 0 .76270 -65.321 104.65)"/>
<path d="m328.14 202.55h-3.151" transform="matrix(.75892 0 0 .76270 73.738 106.45)"/>
<path d="m328.14 202.55h-3.151" transform="matrix(1.1805 0 0 .76270 -72.76 90.398)"/>
<path d="m328.14 202.55h-3.151" transform="matrix(1.1805 0 0 .76270 -72.14 92.372)"/>
<path d="m328.14 202.55h-3.151" transform="matrix(1.1805 0 0 .76270 -72.052 94.089)"/>
<path d="m328.14 202.55h-3.151" transform="matrix(1.1805 0 0 .76270 -70.989 95.977)"/>
<path d="m328.14 202.55h-3.151" transform="matrix(1.1805 0 0 .76270 -69.926 97.522)"/>
<path d="m328.14 202.55h-3.151" transform="matrix(1.1805 0 0 .76270 -68.952 99.324)"/>
<path d="m328.14 202.55h-3.151" transform="matrix(1.1805 0 0 .76270 -67.8 101.04)"/>
<path d="m328.14 202.55h-3.151" transform="matrix(1.1805 0 0 .76270 -67.003 102.67)"/>
<path d="m328.14 202.55h-3.151" transform="matrix(1.1805 0 0 .76270 -65.321 104.65)"/>
<path d="m328.14 202.55h-3.151" transform="matrix(.75892 0 0 .76270 74.123 106.3)"/>
</g>
</g>
<g stroke-width="1pt" stroke="#000" fill-opacity=".86667" fill="#00699d" fill-rule="evenodd">
<path d="m105.48 235.29" stroke-opacity=".078067" transform="matrix(-.78705 0 0 .76270 615.44 72.581)"/>
<g stroke-opacity=".13383">
<path d="m328.14 202.55h-3.151" transform="matrix(-.78705 0 0 .76270 615.44 72.581)"/>
<path d="m328.14 202.55h-3.151" transform="matrix(-.78705 0 0 .76270 616.06 74.126)"/>
<path d="m328.14 202.55h-3.151" transform="matrix(-.87138 0 0 .76270 643.99 75.585)"/>
<path d="m328.14 202.55h-3.151" transform="matrix(-.87137 0 0 .76270 644.79 76.958)"/>
<path d="m328.14 202.55h-3.151" transform="matrix(-1.04 0 0 .76270 700.31 78.417)"/>
<path d="m328.14 202.55h-3.151" transform="matrix(-1.1524 0 0 .76270 737.11 79.876)"/>
<path d="m328.14 202.55h-3.151" transform="matrix(-1.0962 0 0 .76270 719.19 81.507)"/>
<path d="m328.14 202.55h-3.151" transform="matrix(-1.0681 0 0 .76270 709.79 83.138)"/>
<path d="m328.14 202.55h-3.151" transform="matrix(-1.0962 0 0 .76270 719.02 84.683)"/>
<path d="m328.14 202.55h-3.151" transform="matrix(-1.3773 0 0 .76270 810.36 86.485)"/>
<path d="m328.14 202.55h-3.151" transform="matrix(-1.1805 0 0 .76270 746.15 88.545)"/>
</g>
<g stroke-opacity=".063197">
<path d="m328.14 202.55h-3.151" transform="matrix(-1.1805 0 0 .76270 746.06 90.004)"/>
<path d="m328.14 202.55h-3.151" transform="matrix(-1.1805 0 0 .76270 745.44 91.978)"/>
<path d="m328.14 202.55h-3.151" transform="matrix(-1.1805 0 0 .76270 745.35 93.694)"/>
<path d="m328.14 202.55h-3.151" transform="matrix(-1.1805 0 0 .76270 744.29 95.583)"/>
<path d="m328.14 202.55h-3.151" transform="matrix(-1.1805 0 0 .76270 743.23 97.128)"/>
<path d="m328.14 202.55h-3.151" transform="matrix(-1.1805 0 0 .76270 742.25 98.93)"/>
<path d="m328.14 202.55h-3.151" transform="matrix(-1.1805 0 0 .76270 741.1 100.65)"/>
<path d="m328.14 202.55h-3.151" transform="matrix(-1.1805 0 0 .76270 740.31 102.28)"/>
<path d="m328.14 202.55h-3.151" transform="matrix(-1.1805 0 0 .76270 738.62 104.25)"/>
<path d="m328.14 202.55h-3.151" transform="matrix(-.75892 0 0 .76270 599.56 106.05)"/>
</g>
</g>
<g stroke="#000" stroke-width="1pt" stroke-opacity=".063197" fill="none">
<path d="m328.14 202.55h-3.151" transform="matrix(-1.1805 0 0 .76270 746.06 90.004)"/>
<path d="m328.14 202.55h-3.151" transform="matrix(-1.1805 0 0 .76270 745.44 91.978)"/>
<path d="m328.14 202.55h-3.151" transform="matrix(-1.1805 0 0 .76270 745.35 93.694)"/>
<path d="m328.14 202.55h-3.151" transform="matrix(-1.1805 0 0 .76270 744.29 95.583)"/>
<path d="m328.14 202.55h-3.151" transform="matrix(-1.1805 0 0 .76270 743.23 97.128)"/>
<path d="m328.14 202.55h-3.151" transform="matrix(-1.1805 0 0 .76270 742.25 98.93)"/>
<path d="m328.14 202.55h-3.151" transform="matrix(-1.1805 0 0 .76270 741.1 100.65)"/>
<path d="m328.14 202.55h-3.151" transform="matrix(-1.1805 0 0 .76270 740.31 102.28)"/>
<path d="m328.14 202.55h-3.151" transform="matrix(-1.1805 0 0 .76270 738.62 104.25)"/>
<path d="m328.14 202.55h-3.151" transform="matrix(-.75892 0 0 .76270 599.56 106.05)"/>
</g>
<path stroke-linejoin="round" d="m330.84 211.83c7.525-4.83 17.464-2.31 21.629 0.315-6.09-1.155-6.195-1.68-10.605-1.785-3.115 0.106-7.699-0.21-11.024 1.47z" stroke-opacity=".38662" fill-rule="evenodd" transform="matrix(-.78705 0 0 .76270 615.8 72.187)" stroke="#000" stroke-width=".625" fill="#f0bf00"/>
<path d="m348.06 211.3c-3.675 7.665-10.079 7.77-14.594-0.42" stroke-opacity=".38662" transform="matrix(.78705 0 0 .76270 78.009 71.99)" stroke="#000" stroke-width=".625" fill="none"/>
<path fill-opacity=".36803" fill-rule="evenodd" transform="matrix(.88114 .11814 -.95479 .96802 249.18 -11.902)" d="m345.54 212.88c0 0.92779-1.6453 1.6799-3.6748 1.6799s-3.6748-0.75212-3.6748-1.6799c0-0.92779 1.6453-1.6799 3.6748-1.6799s3.6748 0.75212 3.6748 1.6799z"/>
<path fill-rule="evenodd" fill="#ffd700" transform="matrix(1.0476 -.34283 .38138 .94175 -95.366 151.52)" d="m344.07 212.56c0 0.23194-0.32906 0.41997-0.73497 0.41997s-0.73497-0.18803-0.73497-0.41997c0-0.23195 0.32906-0.41998 0.73497-0.41998s0.73497 0.18803 0.73497 0.41998z"/>
</g>
</svg>
