<svg xmlns:rdf="http://www.w3.org/1999/02/22-rdf-syntax-ns#" xmlns="http://www.w3.org/2000/svg" height="480" width="640" xmlns:cc="http://creativecommons.org/ns#" xmlns:dc="http://purl.org/dc/elements/1.1/">
<defs>
<clipPath id="a" clipPathUnits="userSpaceOnUse">
<rect fill-opacity=".67" height="216" width="288" y="-.00006048" x="0"/>
</clipPath>
</defs>
<g clip-path="url(#a)" transform="matrix(2.2222 0 0 2.2222 0 .0001344)">
<path d="m0-0.000064185v216h324v-216h-324z" fill="#39c"/>
<path d="m0 144v12h324v-12h-324z" fill="#ff0"/>
<path d="m0 168v12h324v-12h-324z" fill="#ff0"/>
</g>
<g transform="matrix(2.9521 0 0 2.9521 .946 -7.3585)">
<path d="m48 12 1 1-1-1z" fill="#9cc"/>
<path d="m47 14 1 1-1-1m2 0 1 1-1-1z" fill="#9cc"/>
<path d="m47 15 1 1-1-1m2 0 1 1-1-1z" fill="#ccf"/>
<path d="m46 17 1 1-1-1z" fill="#6cc"/>
<path d="m48 17 1 1-1-1z" fill="#c66"/>
<path d="m50 17 1 1-1-1z" fill="#6cc"/>
<path d="m46 18 1 1-1-1z" fill="#ccf"/>
<path d="m50 18 1 1-1-1z" fill="#ccf"/>
<path d="m47 19 1 1-1-1m2 0 1 1-1-1z" fill="#fcc"/>
<path d="m45 20 1 1-1-1z" fill="#6cc"/>
<path stroke="#fff" stroke-width="1.25" fill="#c00" d="m47.835 14.032-7.01 26.574-26.652 7.238 26.575 6.936 7.087 26.574 7.086-26.574 26.575-7.087-26.575-7.087-7.086-26.574z"/>
<path d="m51 20 1 1-1-1z" fill="#6cc"/>
<path d="m45 21 1 1-1-1m6 0 1 1-1-1z" fill="#9cf"/>
<path d="m46 22 1 1-1-1m4 0 1 1-1-1z" fill="#fcc"/>
<path d="m44 23 1 1-1-1z" fill="#69c"/>
<path d="m46.333 23.667 0.3334 0.6666-0.3334-0.6666m4 0 0.3334 0.6666-0.3334-0.6666z" fill="#c33"/>
<path d="m52 23 1 1-1-1z" fill="#69c"/>
<path d="m44 24 1 1-1-1m8 0 1 1-1-1z" fill="#9cf"/>
<path d="m45 25 1 1-1-1m6 0 1 1-1-1z" fill="#fcc"/>
<path d="m43 26 1 1-1-1z" fill="#69c"/>
<path d="m53 26 1 1-1-1z" fill="#69c"/>
<path d="m43 27 1 1-1-1m10 0 1 1-1-1z" fill="#9cc"/>
<path d="m43 28 1 1-1-1m10 0 1 1-1-1z" fill="#cff"/>
<path d="m42 29 1 1-1-1z" fill="#69c"/>
<path d="m44 29 1 1-1-1m8 0 1 1-1-1z" fill="#fcc"/>
<path d="m54 29 1 1-1-1z" fill="#69c"/>
<path d="m42 30 1 1-1-1z" fill="#9cc"/>
<path d="m44.333 30.667 0.3334 0.6666-0.3334-0.6666m8 0 0.3334 0.6666-0.3334-0.6666z" fill="#c33"/>
<path d="m54 30 1 1-1-1z" fill="#9cc"/>
<path d="m42 31 1 1-1-1m12 0 1 1-1-1z" fill="#cff"/>
<path d="m43 32 1 1-1-1m10 0 1 1-1-1z" fill="#fcc"/>
<path d="m41 33 1 1-1-1z" fill="#9cc"/>
<path d="m43.333 33.667 0.3334 0.6666-0.3334-0.6666m10 0 0.3334 0.6666-0.3334-0.6666z" fill="#c33"/>
<path d="m55 33 1 1-1-1z" fill="#9cc"/>
<path d="m41 34 1 1-1-1m14 0 1 1-1-1z" fill="#ccf"/>
<path d="m42 35 1 1-1-1m12 0 1 1-1-1z" fill="#fcc"/>
<path d="m40 36 1 1-1-1z" fill="#9cc"/>
<path d="m42.333 36.667 0.3334 0.6666-0.3334-0.6666m12 0 0.3334 0.6666-0.3334-0.6666z" fill="#c33"/>
<path d="m56 36 1 1-1-1z" fill="#9cc"/>
<path d="m40 37 1 1-1-1m16 0 1 1-1-1z" fill="#ccf"/>
<path d="m41 38 1 1-1-1m14 0 1 1-1-1z" fill="#fcc"/>
<path d="m39 39 1 1-1-1z" fill="#9cc"/>
<path d="m41 39 1 1-1-1m14 0 1 1-1-1z" fill="#c33"/>
<path d="m57 39 1 1-1-1m-21 1 1 1-1-1z" fill="#9cc"/>
<path d="m37 40 1 1-1-1m22 0 1 1-1-1z" fill="#ccf"/>
<path d="m60 40 1 1-1-1m-27 1 1 1-1-1z" fill="#9cc"/>
<path d="m34 41 1 1-1-1z" fill="#ccf"/>
<path d="m38 41 1 1-1-1z" fill="#fcc"/>
<path d="m39 41 1 1-1-1m18 0 1 1-1-1z" fill="#c33"/>
<path d="m58 41 1 1-1-1z" fill="#fcc"/>
<path d="m62 41 1 1-1-1z" fill="#ccf"/>
<path d="m63 41 1 1-1-1z" fill="#9cc"/>
<path d="m29 42 1 1-1-1z" fill="#69c"/>
<path d="m30 42 1 1-1-1z" fill="#9cc"/>
<path d="m31 42 1 1-1-1z" fill="#cff"/>
<path d="m35 42 1 1-1-1z" fill="#fcc"/>
<path d="m36.667 42.333 0.6666 0.3334-0.6666-0.3334m23 0 0.6666 0.3334-0.6666-0.3334z" fill="#c33"/>
<path d="m61 42 1 1-1-1z" fill="#fcc"/>
<path d="m65 42 1 1-1-1z" fill="#cff"/>
<path d="m66 42 1 1-1-1z" fill="#9cc"/>
<path d="m67 42 1 1-1-1m-41 1 1 1-1-1z" fill="#69c"/>
<path d="m27 43 1 1-1-1z" fill="#9cc"/>
<path d="m28 43 1 1-1-1z" fill="#cff"/>
<path d="m32 43 1 1-1-1z" fill="#fcc"/>
<path d="m33.667 43.333 0.6666 0.3334-0.6666-0.3334m29 0 0.6666 0.3334-0.6666-0.3334z" fill="#c33"/>
<path d="m64 43 1 1-1-1z" fill="#fcc"/>
<path d="m68 43 1 1-1-1z" fill="#cff"/>
<path d="m69 43 1 1-1-1z" fill="#9cc"/>
<path d="m70 43 1 1-1-1m-47 1 1 1-1-1z" fill="#69c"/>
<path d="m24 44 1 1-1-1z" fill="#9cf"/>
<path d="m29 44 1 1-1-1z" fill="#fcc"/>
<path d="m30.667 44.333 0.6666 0.3334-0.6666-0.3334m35 0 0.6666 0.3334-0.6666-0.3334z" fill="#c33"/>
<path d="m67 44 1 1-1-1z" fill="#fcc"/>
<path d="m72 44 1 1-1-1z" fill="#9cf"/>
<path d="m73 44 1 1-1-1z" fill="#69c"/>
<path d="m20 45 1 1-1-1z" fill="#6cc"/>
<path d="m21 45 1 1-1-1z" fill="#9cf"/>
<path d="m25 45 1 1-1-1z" fill="#fcc"/>
<path d="m71 45 1 1-1-1z" fill="#fcc"/>
<path d="m75 45 1 1-1-1z" fill="#9cf"/>
<path d="m76 45 1 1-1-1m-59 1 1 1-1-1z" fill="#6cc"/>
<path d="m18 46 1 1-1-1z" fill="#ccf"/>
<path d="m22 46 1 1-1-1z" fill="#fcc"/>
<path d="m23.667 46.333 0.6666 0.3334-0.6666-0.3334m49 0 0.6666 0.3334-0.6666-0.3334z" fill="#c33"/>
<path d="m74 46 1 1-1-1z" fill="#fcc"/>
<path d="m78 46 1 1-1-1z" fill="#ccf"/>
<path d="m79 46 1 1-1-1z" fill="#6cc"/>
<path d="m14 47 1 1-1-1z" fill="#9cc"/>
<path d="m15 47 1 1-1-1z" fill="#ccf"/>
<path d="m19 47 1 1-1-1z" fill="#fcc"/>
<path d="m77 47 1 1-1-1z" fill="#fcc"/>
<path d="m81 47 1 1-1-1z" fill="#ccf"/>
<path d="m82 47 1 1-1-1m-70 1 1 1-1-1z" fill="#9cc"/>
<path d="m17 48 1 1-1-1z" fill="#c66"/>
<path d="m79 48 1 1-1-1z" fill="#c66"/>
<path d="m84 48 1 1-1-1m-70 1 1 1-1-1z" fill="#9cc"/>
<path d="m15 49 1 1-1-1z" fill="#ccf"/>
<path d="m19 49 1 1-1-1m58 0 1 1-1-1z" fill="#fcc"/>
<path d="m81 49 1 1-1-1z" fill="#ccf"/>
<path d="m82 49 1 1-1-1z" fill="#9cc"/>
<path d="m17 50 1 1-1-1z" fill="#6cc"/>
<path d="m18 50 1 1-1-1z" fill="#ccf"/>
<path d="m22 50 1 1-1-1z" fill="#fcc"/>
<path d="m23.667 50.333 0.6666 0.3334-0.6666-0.3334m49 0 0.6666 0.3334-0.6666-0.3334z" fill="#c33"/>
<path d="m74 50 1 1-1-1z" fill="#fcc"/>
<path d="m78 50 1 1-1-1z" fill="#ccf"/>
<path d="m79 50 1 1-1-1m-59 1 1 1-1-1z" fill="#6cc"/>
<path d="m21 51 1 1-1-1z" fill="#9cf"/>
<path d="m25 51 1 1-1-1z" fill="#fcc"/>
<path d="m71 51 1 1-1-1z" fill="#fcc"/>
<path d="m75 51 1 1-1-1z" fill="#9cf"/>
<path d="m76 51 1 1-1-1z" fill="#6cc"/>
<path d="m23 52 1 1-1-1z" fill="#69c"/>
<path d="m24 52 1 1-1-1z" fill="#9cf"/>
<path d="m29 52 1 1-1-1z" fill="#fcc"/>
<path d="m30.667 52.333 0.6666 0.3334-0.6666-0.3334m35 0 0.6666 0.3334-0.6666-0.3334z" fill="#c33"/>
<path d="m67 52 1 1-1-1z" fill="#fcc"/>
<path d="m72 52 1 1-1-1z" fill="#9cf"/>
<path d="m73 52 1 1-1-1m-47 1 1 1-1-1z" fill="#69c"/>
<path d="m27 53 1 1-1-1z" fill="#9cc"/>
<path d="m28 53 1 1-1-1z" fill="#cff"/>
<path d="m32 53 1 1-1-1z" fill="#fcc"/>
<path d="m33.667 53.333 0.6666 0.3334-0.6666-0.3334m29 0 0.6666 0.3334-0.6666-0.3334z" fill="#c33"/>
<path d="m64 53 1 1-1-1z" fill="#fcc"/>
<path d="m68 53 1 1-1-1z" fill="#cff"/>
<path d="m69 53 1 1-1-1z" fill="#9cc"/>
<path d="m70 53 1 1-1-1m-41 1 1 1-1-1z" fill="#69c"/>
<path d="m30 54 1 1-1-1z" fill="#9cc"/>
<path d="m31 54 1 1-1-1z" fill="#cff"/>
<path d="m35 54 1 1-1-1z" fill="#fcc"/>
<path d="m36.667 54.333 0.6666 0.3334-0.6666-0.3334m23 0 0.6666 0.3334-0.6666-0.3334z" fill="#c33"/>
<path d="m61 54 1 1-1-1z" fill="#fcc"/>
<path d="m65 54 1 1-1-1z" fill="#cff"/>
<path d="m66 54 1 1-1-1z" fill="#9cc"/>
<path d="m67 54 1 1-1-1z" fill="#69c"/>
<path d="m33 55 1 1-1-1z" fill="#9cc"/>
<path d="m34 55 1 1-1-1z" fill="#ccf"/>
<path d="m38 55 1 1-1-1z" fill="#fcc"/>
<path d="m39 55 1 1-1-1m18 0 1 1-1-1z" fill="#c33"/>
<path d="m58 55 1 1-1-1z" fill="#fcc"/>
<path d="m62 55 1 1-1-1z" fill="#ccf"/>
<path d="m63 55 1 1-1-1m-27 1 1 1-1-1z" fill="#9cc"/>
<path d="m37 56 1 1-1-1m22 0 1 1-1-1z" fill="#ccf"/>
<path d="m60 56 1 1-1-1m-21 1 1 1-1-1z" fill="#9cc"/>
<path d="m41 57 1 1-1-1m14 0 1 1-1-1z" fill="#c33"/>
<path d="m57 57 1 1-1-1z" fill="#9cc"/>
<path d="m41 58 1 1-1-1m14 0 1 1-1-1z" fill="#fcc"/>
<path d="m40 59 1 1-1-1z" fill="#ccf"/>
<path d="m42.333 59.667 0.3334 0.6666-0.3334-0.6666m12 0 0.3334 0.6666-0.3334-0.6666z" fill="#c33"/>
<path d="m56 59 1 1-1-1z" fill="#ccf"/>
<path d="m40 60 1 1-1-1m16 0 1 1-1-1z" fill="#9cc"/>
<path d="m42 61 1 1-1-1m12 0 1 1-1-1z" fill="#fcc"/>
<path d="m41 62 1 1-1-1z" fill="#ccf"/>
<path d="m43.333 62.667 0.3334 0.6666-0.3334-0.6666m10 0 0.3334 0.6666-0.3334-0.6666z" fill="#c33"/>
<path d="m55 62 1 1-1-1z" fill="#ccf"/>
<path d="m41 63 1 1-1-1m14 0 1 1-1-1z" fill="#9cc"/>
<path d="m43 64 1 1-1-1m10 0 1 1-1-1z" fill="#fcc"/>
<path d="m42 65 1 1-1-1z" fill="#cff"/>
<path d="m44.333 65.667 0.3334 0.6666-0.3334-0.6666m8 0 0.3334 0.6666-0.3334-0.6666z" fill="#c33"/>
<path d="m54 65 1 1-1-1z" fill="#cff"/>
<path d="m42 66 1 1-1-1m12 0 1 1-1-1z" fill="#9cc"/>
<path d="m42 67 1 1-1-1z" fill="#69c"/>
<path d="m44 67 1 1-1-1m8 0 1 1-1-1z" fill="#fcc"/>
<path d="m54 67 1 1-1-1z" fill="#69c"/>
<path d="m43 68 1 1-1-1z" fill="#cff"/>
<path d="m53 68 1 1-1-1z" fill="#cff"/>
<path d="m43 69 1 1-1-1m10 0 1 1-1-1z" fill="#9cc"/>
<path d="m43 70 1 1-1-1m10 0 1 1-1-1z" fill="#69c"/>
<path d="m45 71 1 1-1-1m6 0 1 1-1-1z" fill="#fcc"/>
<path d="m44 72 1 1-1-1z" fill="#9cf"/>
<path d="m46.333 72.667 0.3334 0.6666-0.3334-0.6666m4 0 0.3334 0.6666-0.3334-0.6666z" fill="#c33"/>
<path d="m52 72 1 1-1-1z" fill="#9cf"/>
<path d="m44 73 1 1-1-1m8 0 1 1-1-1z" fill="#69c"/>
<path d="m46 74 1 1-1-1m4 0 1 1-1-1z" fill="#fcc"/>
<path d="m45 75 1 1-1-1z" fill="#9cf"/>
<path d="m51 75 1 1-1-1z" fill="#9cf"/>
<path d="m45 76 1 1-1-1m6 0 1 1-1-1z" fill="#6cc"/>
<path d="m47 77 1 1-1-1m2 0 1 1-1-1z" fill="#fcc"/>
<path d="m46 78 1 1-1-1m4 0 1 1-1-1z" fill="#ccf"/>
<path d="m46 79 1 1-1-1z" fill="#6cc"/>
<path d="m48 79 1 1-1-1z" fill="#c66"/>
<path d="m50 79 1 1-1-1z" fill="#6cc"/>
<path d="m47 81 1 1-1-1m2 0 1 1-1-1z" fill="#ccf"/>
<path d="m47 82 1 1-1-1m2 0 1 1-1-1m-1 2 1 1-1-1z" fill="#9cc"/>
</g>
</svg>
