<!-- /Creative Commons Public Domain -->
<svg xmlns:rdf="http://www.w3.org/1999/02/22-rdf-syntax-ns#" xmlns="http://www.w3.org/2000/svg" height="480" viewBox="0 0 512 512" width="640" version="1.0" y="0" x="0" xmlns:cc="http://creativecommons.org/ns#" xmlns:dc="http://purl.org/dc/elements/1.1/">
<defs>
<clipPath id="a" clipPathUnits="userSpaceOnUse">
<rect fill-opacity=".67" height="512" width="682.67" y="7.1054e-15" x="-85.333"/>
</clipPath>
</defs>
<g clip-path="url(#a)" fill-rule="evenodd">
<rect height="512" width="682.67" y="0" x="-85.333" fill="#009"/>
<path fill="#fc0" d="m-85.333 0 682.67 512v-512h-682.67z"/>
<g fill="#fff">
<polygon points="381.84 62.857 326 22.287 270.16 62.857 291.49 -2.7868 235.65 -43.357 304.67 -43.357 326 -109 326 -109 347.33 -43.357 416.35 -43.357 360.51 -2.7868" transform="matrix(.43691 0 0 .43691 -188.29 47.624)"/>
<polygon points="326 22.287 270.16 62.857 291.49 -2.7868 235.65 -43.357 304.67 -43.357 326 -109 326 -109 347.33 -43.357 416.35 -43.357 360.51 -2.7868 381.84 62.857" transform="matrix(.43691 0 0 .43691 -112.34 102.24)"/>
<polygon points="270.16 62.857 291.49 -2.7868 235.65 -43.357 304.67 -43.357 326 -109 326 -109 347.33 -43.357 416.35 -43.357 360.51 -2.7868 381.84 62.857 326 22.287" transform="matrix(.43691 0 0 .43691 -36.397 156.85)"/>
<polygon points="291.49 -2.7868 235.65 -43.357 304.67 -43.357 326 -109 326 -109 347.33 -43.357 416.35 -43.357 360.51 -2.7868 381.84 62.857 326 22.287 270.16 62.857" transform="matrix(.43691 0 0 .43691 39.551 211.47)"/>
<polygon points="235.65 -43.357 304.67 -43.357 326 -109 326 -109 347.33 -43.357 416.35 -43.357 360.51 -2.7868 381.84 62.857 326 22.287 270.16 62.857 291.49 -2.7868" transform="matrix(.43691 0 0 .43691 115.5 266.08)"/>
<polygon points="304.67 -43.357 326 -109 326 -109 347.33 -43.357 416.35 -43.357 360.51 -2.7868 381.84 62.857 326 22.287 270.16 62.857 291.49 -2.7868 235.65 -43.357" transform="matrix(.43691 0 0 .43691 191.45 320.69)"/>
<polygon points="326 -109 326 -109 347.33 -43.357 416.35 -43.357 360.51 -2.7868 381.84 62.857 326 22.287 270.16 62.857 291.49 -2.7868 235.65 -43.357 304.67 -43.357" transform="matrix(.43691 0 0 .43691 267.39 375.31)"/>
<polygon points="326 -109 347.33 -43.357 416.35 -43.357 360.51 -2.7868 381.84 62.857 326 22.287 270.16 62.857 291.49 -2.7868 235.65 -43.357 304.67 -43.357" transform="matrix(.43691 0 0 .43691 343.34 429.92)"/>
<polygon points="347.33 -43.357 416.35 -43.357 360.51 -2.7868 381.84 62.857 326 22.287 270.16 62.857 291.49 -2.7868 235.65 -43.357 304.67 -43.357 326 -109 326 -109" transform="matrix(.43691 0 0 .43691 419.29 484.54)"/>
</g>
</g>
</svg>
