<svg xmlns:rdf="http://www.w3.org/1999/02/22-rdf-syntax-ns#" xmlns="http://www.w3.org/2000/svg" sodipodi:docname="Blason_St_Barthélémy_TOM_entire.svg" xmlns:sodipodi="http://inkscape.sourceforge.net/DTD/sodipodi-0.dtd" height="1152.2" sodipodi:version="0.32" width="1627.3" version="1.0" xmlns:cc="http://web.resource.org/cc/" xmlns:xlink="http://www.w3.org/1999/xlink" xmlns:dc="http://purl.org/dc/elements/1.1/">
<sodipodi:namedview bordercolor="#666666" height="660px" guidetolerance="10.0" pagecolor="#ffffff" gridtolerance="10.0" objecttolerance="10.0" borderopacity="1.0" showgrid="false" showguides="true"/>
<desc>Flag of Canton of Valais (Wallis)</desc>
<defs>
<radialGradient id="a" gradientUnits="userSpaceOnUse" cy="446.19" cx="565.08" gradientTransform="matrix(1.3532 0 0 1.3489 -591.29 -405.03)" r="300">
<stop stop-color="#fff" stop-opacity=".31373" offset="0"/>
<stop stop-color="#fff" stop-opacity=".25098" offset=".19"/>
<stop stop-color="#6b6b6b" stop-opacity=".12549" offset="0.6"/>
<stop stop-opacity=".12549" offset="1"/>
</radialGradient>
</defs>
<g transform="translate(513.66 319.29)">
<rect fill-rule="evenodd" height="1174.7" width="1640.8" y="-326.73" x="-513.66" stroke-width="0" fill="#fff"/>
<g fill-opacity=".94118" fill-rule="evenodd" transform="matrix(-4.1892 0 0 4.1892 1125.1 -386.2)" stroke="#000" fill="#fcef3c">
<path d="m70.471 190.55c-0.233 26.28-0.466 27.22-0.466 27.22 11.513 11.28 12.878 15.41 16.281 19.07 4.419-6.4 11.28-3.84 11.28-3.84 1.395-6.05 8.724-11.28 8.724-11.28-10.236-0.82-27.912-6.05-29.307-8.14-4.635-6.95 1.744-28.03 1.744-28.03l-8.256 5z" sodipodi:nodetypes="cccccccc" stroke-width="1px"/>
<path d="m95.714 231.72l-11.348-8.72 13.485 8.06" sodipodi:nodetypes="ccc" stroke-width=".5"/>
</g>
<path d="m794.73 359.85s-59.57-24.32-120.6 18.51c-5.83 1.71-10.1 1.21-14.74 0.4-11.8-12.65-38.56-49.85-59.23-45.02-1.52-31.43 2.07-157.08 2.07-157.08 8.95-0.34 12.05 17.22 12.05 17.22-5.16 35.83 15.5 253.53 100.24 109.54l59.94 6.2 20.27 50.23z" fill-rule="evenodd" sodipodi:nodetypes="ccccccccc" fill-opacity=".94118" stroke="#000" stroke-width="4.1892px" fill="#fcef3c"/>
<g transform="matrix(-4.1892 0 0 4.1892 871.43 -338.71)" stroke="#000">
<path d="m10.525 46.541c12.21 4.419 12.363 6.754 24.456 17.452 9.652 3.838 24.027 13.25 24.841 15.343l-0.782 3.057c1.86 1.162 3.618-3.125 3.618-3.125-1.861-10.582-35.847-42.458-35.847-42.458l-14.97 3.153-1.316 6.578z" fill-rule="evenodd" sodipodi:nodetypes="cccccccc" stroke-width="1px" fill="#fcef3c"/>
<path d="m22.005 41.805l38.259 35.119 0.814 2.559" stroke-width=".5" fill="none"/>
<path d="m30.378 54.829c3.837 6.745 10.931 9.187 10.931 9.187" sodipodi:nodetypes="cc" stroke-width=".5" fill="none"/>
</g>
<g fill-opacity=".94118" fill-rule="evenodd" transform="matrix(4.1892 0 0 4.1892 -526.75 -386.2)" stroke="#000" fill="#fcef3c">
<path d="m70.471 190.55c-0.233 26.28-0.466 27.22-0.466 27.22 11.513 11.28 12.878 15.41 16.281 19.07 4.419-6.4 11.28-3.84 11.28-3.84 1.395-6.05 8.724-11.28 8.724-11.28-10.236-0.82-27.912-6.05-29.307-8.14-4.635-6.95 1.744-28.03 1.744-28.03l-8.256 5z" sodipodi:nodetypes="cccccccc" stroke-width="1px"/>
<path d="m95.714 231.72l-11.348-8.72 13.485 8.06" sodipodi:nodetypes="ccc" stroke-width=".5"/>
</g>
<path d="m-196.35 359.85s59.56-24.32 120.6 18.51c5.833 1.71 10.098 1.21 14.734 0.4 11.802-12.65 38.566-49.85 59.234-45.02 1.523-31.43-2.0672-157.08-2.0672-157.08-8.9558-0.34-12.057 17.22-12.057 17.22 5.167 35.83-15.501 253.53-100.24 109.54l-59.93 6.2-20.27 50.23z" fill-rule="evenodd" sodipodi:nodetypes="ccccccccc" fill-opacity=".94118" stroke="#000" stroke-width="4.1892px" fill="#fcef3c"/>
<g transform="matrix(4.1892 0 0 4.1892 -273.06 -338.71)" stroke="#000">
<path d="m10.525 46.541c12.21 4.419 12.363 6.754 24.456 17.452 9.652 3.838 24.027 13.25 24.841 15.343l-0.782 3.057c1.86 1.162 3.618-3.125 3.618-3.125-1.861-10.582-35.847-42.458-35.847-42.458l-14.97 3.153-1.316 6.578z" fill-rule="evenodd" sodipodi:nodetypes="cccccccc" stroke-width="1px" fill="#fcef3c"/>
<path d="m22.005 41.805l38.259 35.119 0.814 2.559" stroke-width=".5" fill="none"/>
<path d="m30.378 54.829c3.837 6.745 10.931 9.187 10.931 9.187" sodipodi:nodetypes="cc" stroke-width=".5" fill="none"/>
</g>
<path d="m299.19 658.75s298.5-112.32 298.5-397.77v-258.55l-597-0.0024-0.00082 258.55c0 285.45 298.5 397.77 298.5 397.77z" fill-rule="evenodd" sodipodi:nodetypes="cccccc" fill="#2b5df2"/>
<path d="m0.68918 212.78v48.19c0 30.92 3.5033 59.81 9.7498 86.75h577.5c6.25-26.94 9.75-55.83 9.75-86.75v-48.19h-597z" fill-rule="evenodd" stroke="#000" stroke-width="3" fill="#e20909"/>
<rect height="660" width="600" y=".25111" x="-.81080" fill="none"/>
<g transform="translate(-10.207 .2511)">
<g transform="matrix(.18913 0 0 .18913 35.443 14.732)">
<path d="m407.03 608.7c1.42-61.96 16.75-119.54 45.29-174.11 74.71-157.19 302.92-153.43 252.61 38.81-18.53 70.84-81.5 112.48-156.31 119.62 5.39-18.67 35.1-84.66 11.12-97.56-38.34 1.44-85.94 67.7-97.39 99.3-1.66 4.53-1.19 9.77-3.04 14.24" fill-rule="evenodd" sodipodi:nodetypes="ccscscc" stroke="#000" stroke-width="6" fill="#fcef3c"/>
<g transform="translate(-38.532 -48.577)">
<g transform="translate(0,4)" stroke="#000" stroke-width="6" fill="#fcef3c">
<g>
<path d="m350.52 657.37c-1.42-61.95-16.75-119.54-45.29-174.11-74.71-157.18-302.92-153.43-252.61 38.81 18.535 70.84 81.51 112.48 156.32 119.62-5.4-18.67-35.1-84.65-11.13-97.56 38.34 1.45 85.95 67.7 97.4 99.3 1.65 4.54 1.19 9.78 3.03 14.24" fill-rule="evenodd" sodipodi:nodetypes="ccscscc"/>
<path d="m393.63 57.12c-78.72 84.85-131.57 182.96-108.79 298.03 12.57 63.49 43.05 122.28 64.54 183.44 13.43 38.37 16.87 78.45 15.28 118.78h66.78c-3.2-40.63 3.81-80 15.28-118.78 20.47-61.54 51.63-119.91 64.53-183.44 24.13-118.78-32.51-208.36-108.44-297.66l-4.64-5.913-4.54 5.543z" sodipodi:nodetypes="csccccsccc"/>
<path d="m331.34 704.4c-13.96 39.13-70.88 110.79-101.12 131.22-7.84 5.3 37.49-3.05 57.78-7.5 26.62-5.83 61.22-34.2 60.41-24.19-0.08 45.84 12.81 122.33 46.4 157.47l3.19 3.39 3.28-3.39c33.58-39.17 46.24-108.04 46.41-157.47-0.81-10.01 33.79 18.36 60.4 24.19 20.3 4.45 65.63 12.8 57.79 7.5-30.24-20.43-87.14-92.09-101.1-131.22h-133.44z" fill-rule="evenodd" sodipodi:nodetypes="cssscccssscc"/>
</g>
<rect height="51.503" width="317.89" y="655.38" x="239.35"/>
</g>
</g>
</g>
<g transform="matrix(.18913 0 0 .18913 241.4 14.732)">
<path d="m407.03 608.7c1.42-61.96 16.75-119.54 45.29-174.11 74.71-157.19 302.92-153.43 252.61 38.81-18.53 70.84-81.5 112.48-156.31 119.62 5.39-18.67 35.1-84.66 11.12-97.56-38.34 1.44-85.94 67.7-97.39 99.3-1.66 4.53-1.19 9.77-3.04 14.24" fill-rule="evenodd" sodipodi:nodetypes="ccscscc" stroke="#000" stroke-width="6" fill="#fcef3c"/>
<g transform="translate(-38.532 -48.577)">
<g transform="translate(0,4)" stroke="#000" stroke-width="6" fill="#fcef3c">
<g>
<path d="m350.52 657.37c-1.42-61.95-16.75-119.54-45.29-174.11-74.71-157.18-302.92-153.43-252.61 38.81 18.535 70.84 81.51 112.48 156.32 119.62-5.4-18.67-35.1-84.65-11.13-97.56 38.34 1.45 85.95 67.7 97.4 99.3 1.65 4.54 1.19 9.78 3.03 14.24" fill-rule="evenodd" sodipodi:nodetypes="ccscscc"/>
<path d="m393.63 57.12c-78.72 84.85-131.57 182.96-108.79 298.03 12.57 63.49 43.05 122.28 64.54 183.44 13.43 38.37 16.87 78.45 15.28 118.78h66.78c-3.2-40.63 3.81-80 15.28-118.78 20.47-61.54 51.63-119.91 64.53-183.44 24.13-118.78-32.51-208.36-108.44-297.66l-4.64-5.913-4.54 5.543z" sodipodi:nodetypes="csccccsccc"/>
<path d="m331.34 704.4c-13.96 39.13-70.88 110.79-101.12 131.22-7.84 5.3 37.49-3.05 57.78-7.5 26.62-5.83 61.22-34.2 60.41-24.19-0.08 45.84 12.81 122.33 46.4 157.47l3.19 3.39 3.28-3.39c33.58-39.17 46.24-108.04 46.41-157.47-0.81-10.01 33.79 18.36 60.4 24.19 20.3 4.45 65.63 12.8 57.79 7.5-30.24-20.43-87.14-92.09-101.1-131.22h-133.44z" fill-rule="evenodd" sodipodi:nodetypes="cssscccssscc"/>
</g>
<rect height="51.503" width="317.89" y="655.38" x="239.35"/>
</g>
</g>
</g>
<g transform="matrix(.18913 0 0 .18913 447.36 14.732)">
<path d="m407.03 608.7c1.42-61.96 16.75-119.54 45.29-174.11 74.71-157.19 302.92-153.43 252.61 38.81-18.53 70.84-81.5 112.48-156.31 119.62 5.39-18.67 35.1-84.66 11.12-97.56-38.34 1.44-85.94 67.7-97.39 99.3-1.66 4.53-1.19 9.77-3.04 14.24" fill-rule="evenodd" sodipodi:nodetypes="ccscscc" stroke="#000" stroke-width="6" fill="#fcef3c"/>
<g transform="translate(-38.532 -48.577)">
<g transform="translate(0,4)" stroke="#000" stroke-width="6" fill="#fcef3c">
<g>
<path d="m350.52 657.37c-1.42-61.95-16.75-119.54-45.29-174.11-74.71-157.18-302.92-153.43-252.61 38.81 18.535 70.84 81.51 112.48 156.32 119.62-5.4-18.67-35.1-84.65-11.13-97.56 38.34 1.45 85.95 67.7 97.4 99.3 1.65 4.54 1.19 9.78 3.03 14.24" fill-rule="evenodd" sodipodi:nodetypes="ccscscc"/>
<path d="m393.63 57.12c-78.72 84.85-131.57 182.96-108.79 298.03 12.57 63.49 43.05 122.28 64.54 183.44 13.43 38.37 16.87 78.45 15.28 118.78h66.78c-3.2-40.63 3.81-80 15.28-118.78 20.47-61.54 51.63-119.91 64.53-183.44 24.13-118.78-32.51-208.36-108.44-297.66l-4.64-5.913-4.54 5.543z" sodipodi:nodetypes="csccccsccc"/>
<path d="m331.34 704.4c-13.96 39.13-70.88 110.79-101.12 131.22-7.84 5.3 37.49-3.05 57.78-7.5 26.62-5.83 61.22-34.2 60.41-24.19-0.08 45.84 12.81 122.33 46.4 157.47l3.19 3.39 3.28-3.39c33.58-39.17 46.24-108.04 46.41-157.47-0.81-10.01 33.79 18.36 60.4 24.19 20.3 4.45 65.63 12.8 57.79 7.5-30.24-20.43-87.14-92.09-101.1-131.22h-133.44z" fill-rule="evenodd" sodipodi:nodetypes="cssscccssscc"/>
</g>
<rect height="51.503" width="317.89" y="655.38" x="239.35"/>
</g>
</g>
</g>
</g>
<path d="m242.72 304.45l54.45-22.18-22.18 54.45 24.2-16.14 24.2 16.14-22.18-54.45 54.44 22.18-16.13-24.2 16.13-24.2-54.44 22.18 22.18-54.44-24.2 16.13-24.2-16.13 22.18 54.44-54.45-22.18 16.14 24.2-16.14 24.2z" stroke="#000" stroke-width="3" fill="#fff"/>
<g transform="translate(-3.4276 .2511)" stroke="#000" stroke-width="5.8395" fill="#fcef3c">
<g transform="matrix(.28619 0 0 .28108 84.613 441.51)">
<g fill-rule="evenodd" stroke-width="5.8395">
<path d="m343.88-131.55c43.2 3.12 45.79-50.91 46.05-51.17 0.79-0.79-8.02 54.33 36.62 59.02 42.6 4.41 47.32-49.46 47.59-49.7 0.82-0.76-10.2 53.94 31.85 60.03 41.74 7.93 48.99-47.43 49.28-47.67 0.85-0.72-12.46 53.49 30.97 61.555 41.12 8.994 52.04-43.965 52.35-44.305l-21.15 79.139c0.32 0.022-142.45-41.389-311.88-41.389-167.54 0-317.9 41.737-317.6 41.888l-20.515-79.768 0.079-0.46c0.297 0.21 11.213 53.171 52.341 44.18 43.422-8.07 30.115-62.28 30.968-61.56 0.285 0.24 7.536 55.6 49.277 47.67 42.05-6.08 31.03-60.79 31.85-60.03 0.27 0.25 4.99 54.11 47.59 49.7 44.64-4.68 35.83-59.8 36.62-59.01 0.26 0.25 2.85 54.28 46.05 51.17 45.34-0.52 42.26-56.26 42.97-55.4 0.23 0.29-2.77 54.3 38.56 55.99" sodipodi:nodetypes="cscscscccsccccscscscsc"/>
<path d="m1.5427 1.0508s139.54-39.703 298.56-39.703c160.83 0 299.49 39.28 299.15 39.309 4.44-3.4738 4.44-3.4738 3.42-9.502-0.06 0.3425-140.39-39.408-303.11-39.408-160.89 0-302.05 40.063-301.92 39.803-0.8253 6.111-0.8753 5.997 3.9027 9.5008z" sodipodi:nodetypes="csccscc"/>
<path d="m-9.9093-55.903s145.37-41.45 311.27-41.45c167.77 0 312.62 41.008 312.26 41.039 4.64-3.627 4.64-3.627 3.57-9.92-0.06 0.357-146.65-41.146-316.4-41.146-167.84 0-314.91 41.83-314.77 41.558-0.862 6.38-0.914 6.261 4.0707 9.919z" sodipodi:nodetypes="csccscc"/>
<path d="m296.84-97.344c-165.7 0-306.36 41.344-306.68 41.438l7.1525 46.968 1.75 0.1255c7.5162-1.9615 144.3-39.438 300.51-39.438 154.45 0 288.04 35.75 301.74 39.094l1.41-0.2502 10.81-46.844-0.19-0.125c-2.73-0.869-150.47-40.969-316.5-40.969z" sodipodi:nodetypes="ccccsccccc"/>
</g>
<g fill-rule="evenodd" stroke-width="5.8395">
<path d="m301.34-97.344c-29.15 0-40.43 0.022-67.64 2.132-2.51 0.73-11.75 4.788-10.19 25.063 1.81 23.424 13.53 23.437 13.53 23.437l0.6 0.25c25.43-1.894 34.78-1.788 61.92-1.788 22.77 0 39.99 0.787 61.56 2.125l2.28-1.125s10.79 0.054 11.69-24.272-11.69-23.478-11.69-23.478l-0.78-0.281c-21.51-1.293-38.63-2.063-61.28-2.063z" sodipodi:nodetypes="ccsccsccsccc"/>
<path d="m300.99-92.155c-26.1 0-36.19 0.017-60.55 1.667-2.25 0.57-10.51 3.743-9.12 19.594 1.62 18.313 12.12 18.323 12.12 18.323l0.53 0.195c22.76-1.481 31.13-1.398 55.42-1.398 20.39 0 35.8 0.615 55.1 1.661l2.05-0.879s9.65 0.042 10.46-18.976c0.8-19.017-10.46-18.355-10.46-18.355l-0.7-0.22c-19.26-1.01-34.58-1.612-54.85-1.612z" sodipodi:nodetypes="ccsccsccsccc"/>
</g>
<g fill-rule="evenodd" stroke-width="5.8395">
<path d="m47.375-69.844c-35.714 7.643-57.095 13.901-57.219 13.938l7.1565 46.968 0.5937 0.0318c21.08-5.9228 37.364-9.7168 57.782-14.125l1.843-1.657c0 0.001 10.159-2.797 4.563-25.906-3.983-16.445-10.997-19.089-14.719-19.25z"/>
<path d="m41.375-63.656c-1.044 0.055-1.687 0.281-1.687 0.281h-0.719c-17.086 3.86-30.946 7.145-48.125 11.906l5.6872 37.344c18.711-5.252 33.213-8.717 51.344-12.781l1.687-1.375s9.092-2.501 4.813-20.594c-3.209-13.57-9.869-14.948-13-14.781z"/>
<path d="m555.09-69.844c-3.76 0.238-10.61 3.032-14.53 19.219-5.59 23.108 4.57 25.906 4.56 25.906l1.85 1.657c19.75 4.265 35.68 7.964 55.78 13.562l7.87-34.219 1.88-12.219c-0.12-0.035-19.94-5.816-53.06-13.031-1.44-0.298-2.86-0.572-4.35-0.875z"/>
<path d="m560.66-63.688c-3.33 0.064-9.37 2.06-12.38 14.782-4.28 18.093 4.81 20.594 4.81 20.594l1.69 1.374c17.41 3.902 31.5 7.279 49.16 12.188l6.65-28.812 1.22-7.938c-17.18-4.762-31.04-8.047-48.12-11.906h-0.72s-0.65-0.226-1.69-0.282c-0.19-0.01-0.4-0.004-0.62 0z"/>
</g>
<path sodipodi:rx="15.289576" sodipodi:ry="15.289576" sodipodi:type="arc" d="m-61.158-234.44a15.29 15.29 0 1 1 -30.579 0 15.29 15.29 0 1 1 30.579 0z" transform="translate(219.15 173.28)" sodipodi:cy="-234.44016" sodipodi:cx="-76.447876" stroke-width="5.8395"/>
<path sodipodi:rx="15.289576" sodipodi:ry="15.289576" sodipodi:type="arc" d="m-61.158-234.44a15.29 15.29 0 1 1 -30.579 0 15.29 15.29 0 1 1 30.579 0z" transform="translate(535.14 173.28)" sodipodi:cy="-234.44016" sodipodi:cx="-76.447876" stroke-width="5.8395"/>
<g stroke-width="2.5574">
<path sodipodi:rx="15.289576" sodipodi:ry="15.289576" sodipodi:type="arc" d="m-61.158-234.44a15.29 15.29 0 1 1 -30.579 0 15.29 15.29 0 1 1 30.579 0z" transform="matrix(2.2826 0 0 2.2841 140.6 376.78)" sodipodi:cy="-234.44016" sodipodi:cx="-76.447876"/>
<path sodipodi:rx="15.289576" sodipodi:ry="15.289576" sodipodi:type="arc" d="m-61.158-234.44a15.29 15.29 0 1 1 -30.579 0 15.29 15.29 0 1 1 30.579 0z" transform="matrix(2.2826 0 0 2.2841 221.14 355.29)" sodipodi:cy="-234.44016" sodipodi:cx="-76.447876"/>
<path sodipodi:rx="15.289576" sodipodi:ry="15.289576" sodipodi:type="arc" d="m-61.158-234.44a15.29 15.29 0 1 1 -30.579 0 15.29 15.29 0 1 1 30.579 0z" transform="matrix(2.2826 0 0 2.2841 304.37 341.86)" sodipodi:cy="-234.44016" sodipodi:cx="-76.447876"/>
<path sodipodi:rx="15.289576" sodipodi:ry="15.289576" sodipodi:type="arc" d="m-61.158-234.44a15.29 15.29 0 1 1 -30.579 0 15.29 15.29 0 1 1 30.579 0z" transform="matrix(2.2826 0 0 2.2841 390.27 331.11)" sodipodi:cy="-234.44016" sodipodi:cx="-76.447876"/>
<path sodipodi:rx="15.289576" sodipodi:ry="15.289576" sodipodi:type="arc" d="m-61.158-234.44a15.29 15.29 0 1 1 -30.579 0 15.29 15.29 0 1 1 30.579 0z" transform="matrix(2.2826 0 0 2.2841 478.87 326.32)" sodipodi:cy="-234.44016" sodipodi:cx="-76.447876"/>
<path sodipodi:rx="15.289576" sodipodi:ry="15.289576" sodipodi:type="arc" d="m-61.158-234.44a15.29 15.29 0 1 1 -30.579 0 15.29 15.29 0 1 1 30.579 0z" transform="matrix(2.2826 0 0 2.2841 564.78 331.11)" sodipodi:cy="-234.44016" sodipodi:cx="-76.447876"/>
<path sodipodi:rx="15.289576" sodipodi:ry="15.289576" sodipodi:type="arc" d="m-61.158-234.44a15.29 15.29 0 1 1 -30.579 0 15.29 15.29 0 1 1 30.579 0z" transform="matrix(2.2826 0 0 2.2841 650.68 341.86)" sodipodi:cy="-234.44016" sodipodi:cx="-76.447876"/>
<path sodipodi:rx="15.289576" sodipodi:ry="15.289576" sodipodi:type="arc" d="m-61.158-234.44a15.29 15.29 0 1 1 -30.579 0 15.29 15.29 0 1 1 30.579 0z" transform="matrix(2.2826 0 0 2.2841 733.91 355.29)" sodipodi:cy="-234.44016" sodipodi:cx="-76.447876"/>
<path sodipodi:rx="15.289576" sodipodi:ry="15.289576" sodipodi:type="arc" d="m-61.158-234.44a15.29 15.29 0 1 1 -30.579 0 15.29 15.29 0 1 1 30.579 0z" transform="matrix(2.2826 0 0 2.2841 817.13 376.78)" sodipodi:cy="-234.44016" sodipodi:cx="-76.447876"/>
</g>
</g>
<g transform="matrix(.28619 0 0 .28108 346.41 441.51)">
<g fill-rule="evenodd" stroke-width="5.8395">
<path d="m343.88-131.55c43.2 3.12 45.79-50.91 46.05-51.17 0.79-0.79-8.02 54.33 36.62 59.02 42.6 4.41 47.32-49.46 47.59-49.7 0.82-0.76-10.2 53.94 31.85 60.03 41.74 7.93 48.99-47.43 49.28-47.67 0.85-0.72-12.46 53.49 30.97 61.555 41.12 8.994 52.04-43.965 52.35-44.305l-21.15 79.139c0.32 0.022-142.45-41.389-311.88-41.389-167.54 0-317.9 41.737-317.6 41.888l-20.515-79.768 0.079-0.46c0.297 0.21 11.213 53.171 52.341 44.18 43.422-8.07 30.115-62.28 30.968-61.56 0.285 0.24 7.536 55.6 49.277 47.67 42.05-6.08 31.03-60.79 31.85-60.03 0.27 0.25 4.99 54.11 47.59 49.7 44.64-4.68 35.83-59.8 36.62-59.01 0.26 0.25 2.85 54.28 46.05 51.17 45.34-0.52 42.26-56.26 42.97-55.4 0.23 0.29-2.77 54.3 38.56 55.99" sodipodi:nodetypes="cscscscccsccccscscscsc"/>
<path d="m1.5427 1.0508s139.54-39.703 298.56-39.703c160.83 0 299.49 39.28 299.15 39.309 4.44-3.4738 4.44-3.4738 3.42-9.502-0.06 0.3425-140.39-39.408-303.11-39.408-160.89 0-302.05 40.063-301.92 39.803-0.8253 6.111-0.8753 5.997 3.9027 9.5008z" sodipodi:nodetypes="csccscc"/>
<path d="m-9.9093-55.903s145.37-41.45 311.27-41.45c167.77 0 312.62 41.008 312.26 41.039 4.64-3.627 4.64-3.627 3.57-9.92-0.06 0.357-146.65-41.146-316.4-41.146-167.84 0-314.91 41.83-314.77 41.558-0.862 6.38-0.914 6.261 4.0707 9.919z" sodipodi:nodetypes="csccscc"/>
<path d="m296.84-97.344c-165.7 0-306.36 41.344-306.68 41.438l7.1525 46.968 1.75 0.1255c7.5162-1.9615 144.3-39.438 300.51-39.438 154.45 0 288.04 35.75 301.74 39.094l1.41-0.2502 10.81-46.844-0.19-0.125c-2.73-0.869-150.47-40.969-316.5-40.969z" sodipodi:nodetypes="ccccsccccc"/>
</g>
<g fill-rule="evenodd" stroke-width="5.8395">
<path d="m301.34-97.344c-29.15 0-40.43 0.022-67.64 2.132-2.51 0.73-11.75 4.788-10.19 25.063 1.81 23.424 13.53 23.437 13.53 23.437l0.6 0.25c25.43-1.894 34.78-1.788 61.92-1.788 22.77 0 39.99 0.787 61.56 2.125l2.28-1.125s10.79 0.054 11.69-24.272-11.69-23.478-11.69-23.478l-0.78-0.281c-21.51-1.293-38.63-2.063-61.28-2.063z" sodipodi:nodetypes="ccsccsccsccc"/>
<path d="m300.99-92.155c-26.1 0-36.19 0.017-60.55 1.667-2.25 0.57-10.51 3.743-9.12 19.594 1.62 18.313 12.12 18.323 12.12 18.323l0.53 0.195c22.76-1.481 31.13-1.398 55.42-1.398 20.39 0 35.8 0.615 55.1 1.661l2.05-0.879s9.65 0.042 10.46-18.976c0.8-19.017-10.46-18.355-10.46-18.355l-0.7-0.22c-19.26-1.01-34.58-1.612-54.85-1.612z" sodipodi:nodetypes="ccsccsccsccc"/>
</g>
<g fill-rule="evenodd" stroke-width="5.8395">
<path d="m47.375-69.844c-35.714 7.643-57.095 13.901-57.219 13.938l7.1565 46.968 0.5937 0.0318c21.08-5.9228 37.364-9.7168 57.782-14.125l1.843-1.657c0 0.001 10.159-2.797 4.563-25.906-3.983-16.445-10.997-19.089-14.719-19.25z"/>
<path d="m41.375-63.656c-1.044 0.055-1.687 0.281-1.687 0.281h-0.719c-17.086 3.86-30.946 7.145-48.125 11.906l5.6872 37.344c18.711-5.252 33.213-8.717 51.344-12.781l1.687-1.375s9.092-2.501 4.813-20.594c-3.209-13.57-9.869-14.948-13-14.781z"/>
<path d="m555.09-69.844c-3.76 0.238-10.61 3.032-14.53 19.219-5.59 23.108 4.57 25.906 4.56 25.906l1.85 1.657c19.75 4.265 35.68 7.964 55.78 13.562l7.87-34.219 1.88-12.219c-0.12-0.035-19.94-5.816-53.06-13.031-1.44-0.298-2.86-0.572-4.35-0.875z"/>
<path d="m560.66-63.688c-3.33 0.064-9.37 2.06-12.38 14.782-4.28 18.093 4.81 20.594 4.81 20.594l1.69 1.374c17.41 3.902 31.5 7.279 49.16 12.188l6.65-28.812 1.22-7.938c-17.18-4.762-31.04-8.047-48.12-11.906h-0.72s-0.65-0.226-1.69-0.282c-0.19-0.01-0.4-0.004-0.62 0z"/>
</g>
<path sodipodi:rx="15.289576" sodipodi:ry="15.289576" sodipodi:type="arc" d="m-61.158-234.44a15.29 15.29 0 1 1 -30.579 0 15.29 15.29 0 1 1 30.579 0z" transform="translate(219.15 173.28)" sodipodi:cy="-234.44016" sodipodi:cx="-76.447876" stroke-width="5.8395"/>
<path sodipodi:rx="15.289576" sodipodi:ry="15.289576" sodipodi:type="arc" d="m-61.158-234.44a15.29 15.29 0 1 1 -30.579 0 15.29 15.29 0 1 1 30.579 0z" transform="translate(535.14 173.28)" sodipodi:cy="-234.44016" sodipodi:cx="-76.447876" stroke-width="5.8395"/>
<g stroke-width="2.5574">
<path sodipodi:rx="15.289576" sodipodi:ry="15.289576" sodipodi:type="arc" d="m-61.158-234.44a15.29 15.29 0 1 1 -30.579 0 15.29 15.29 0 1 1 30.579 0z" transform="matrix(2.2826 0 0 2.2841 140.6 376.78)" sodipodi:cy="-234.44016" sodipodi:cx="-76.447876"/>
<path sodipodi:rx="15.289576" sodipodi:ry="15.289576" sodipodi:type="arc" d="m-61.158-234.44a15.29 15.29 0 1 1 -30.579 0 15.29 15.29 0 1 1 30.579 0z" transform="matrix(2.2826 0 0 2.2841 221.14 355.29)" sodipodi:cy="-234.44016" sodipodi:cx="-76.447876"/>
<path sodipodi:rx="15.289576" sodipodi:ry="15.289576" sodipodi:type="arc" d="m-61.158-234.44a15.29 15.29 0 1 1 -30.579 0 15.29 15.29 0 1 1 30.579 0z" transform="matrix(2.2826 0 0 2.2841 304.37 341.86)" sodipodi:cy="-234.44016" sodipodi:cx="-76.447876"/>
<path sodipodi:rx="15.289576" sodipodi:ry="15.289576" sodipodi:type="arc" d="m-61.158-234.44a15.29 15.29 0 1 1 -30.579 0 15.29 15.29 0 1 1 30.579 0z" transform="matrix(2.2826 0 0 2.2841 390.27 331.11)" sodipodi:cy="-234.44016" sodipodi:cx="-76.447876"/>
<path sodipodi:rx="15.289576" sodipodi:ry="15.289576" sodipodi:type="arc" d="m-61.158-234.44a15.29 15.29 0 1 1 -30.579 0 15.29 15.29 0 1 1 30.579 0z" transform="matrix(2.2826 0 0 2.2841 478.87 326.32)" sodipodi:cy="-234.44016" sodipodi:cx="-76.447876"/>
<path sodipodi:rx="15.289576" sodipodi:ry="15.289576" sodipodi:type="arc" d="m-61.158-234.44a15.29 15.29 0 1 1 -30.579 0 15.29 15.29 0 1 1 30.579 0z" transform="matrix(2.2826 0 0 2.2841 564.78 331.11)" sodipodi:cy="-234.44016" sodipodi:cx="-76.447876"/>
<path sodipodi:rx="15.289576" sodipodi:ry="15.289576" sodipodi:type="arc" d="m-61.158-234.44a15.29 15.29 0 1 1 -30.579 0 15.29 15.29 0 1 1 30.579 0z" transform="matrix(2.2826 0 0 2.2841 650.68 341.86)" sodipodi:cy="-234.44016" sodipodi:cx="-76.447876"/>
<path sodipodi:rx="15.289576" sodipodi:ry="15.289576" sodipodi:type="arc" d="m-61.158-234.44a15.29 15.29 0 1 1 -30.579 0 15.29 15.29 0 1 1 30.579 0z" transform="matrix(2.2826 0 0 2.2841 733.91 355.29)" sodipodi:cy="-234.44016" sodipodi:cx="-76.447876"/>
<path sodipodi:rx="15.289576" sodipodi:ry="15.289576" sodipodi:type="arc" d="m-61.158-234.44a15.29 15.29 0 1 1 -30.579 0 15.29 15.29 0 1 1 30.579 0z" transform="matrix(2.2826 0 0 2.2841 817.13 376.78)" sodipodi:cy="-234.44016" sodipodi:cx="-76.447876"/>
</g>
</g>
<g transform="matrix(.28619 0 0 .28108 215.51 578.82)">
<g fill-rule="evenodd" stroke-width="5.8395">
<path d="m343.88-131.55c43.2 3.12 45.79-50.91 46.05-51.17 0.79-0.79-8.02 54.33 36.62 59.02 42.6 4.41 47.32-49.46 47.59-49.7 0.82-0.76-10.2 53.94 31.85 60.03 41.74 7.93 48.99-47.43 49.28-47.67 0.85-0.72-12.46 53.49 30.97 61.555 41.12 8.994 52.04-43.965 52.35-44.305l-21.15 79.139c0.32 0.022-142.45-41.389-311.88-41.389-167.54 0-317.9 41.737-317.6 41.888l-20.515-79.768 0.079-0.46c0.297 0.21 11.213 53.171 52.341 44.18 43.422-8.07 30.115-62.28 30.968-61.56 0.285 0.24 7.536 55.6 49.277 47.67 42.05-6.08 31.03-60.79 31.85-60.03 0.27 0.25 4.99 54.11 47.59 49.7 44.64-4.68 35.83-59.8 36.62-59.01 0.26 0.25 2.85 54.28 46.05 51.17 45.34-0.52 42.26-56.26 42.97-55.4 0.23 0.29-2.77 54.3 38.56 55.99" sodipodi:nodetypes="cscscscccsccccscscscsc"/>
<path d="m1.5427 1.0508s139.54-39.703 298.56-39.703c160.83 0 299.49 39.28 299.15 39.309 4.44-3.4738 4.44-3.4738 3.42-9.502-0.06 0.3425-140.39-39.408-303.11-39.408-160.89 0-302.05 40.063-301.92 39.803-0.8253 6.111-0.8753 5.997 3.9027 9.5008z" sodipodi:nodetypes="csccscc"/>
<path d="m-9.9093-55.903s145.37-41.45 311.27-41.45c167.77 0 312.62 41.008 312.26 41.039 4.64-3.627 4.64-3.627 3.57-9.92-0.06 0.357-146.65-41.146-316.4-41.146-167.84 0-314.91 41.83-314.77 41.558-0.862 6.38-0.914 6.261 4.0707 9.919z" sodipodi:nodetypes="csccscc"/>
<path d="m296.84-97.344c-165.7 0-306.36 41.344-306.68 41.438l7.1525 46.968 1.75 0.1255c7.5162-1.9615 144.3-39.438 300.51-39.438 154.45 0 288.04 35.75 301.74 39.094l1.41-0.2502 10.81-46.844-0.19-0.125c-2.73-0.869-150.47-40.969-316.5-40.969z" sodipodi:nodetypes="ccccsccccc"/>
</g>
<g fill-rule="evenodd" stroke-width="5.8395">
<path d="m301.34-97.344c-29.15 0-40.43 0.022-67.64 2.132-2.51 0.73-11.75 4.788-10.19 25.063 1.81 23.424 13.53 23.437 13.53 23.437l0.6 0.25c25.43-1.894 34.78-1.788 61.92-1.788 22.77 0 39.99 0.787 61.56 2.125l2.28-1.125s10.79 0.054 11.69-24.272-11.69-23.478-11.69-23.478l-0.78-0.281c-21.51-1.293-38.63-2.063-61.28-2.063z" sodipodi:nodetypes="ccsccsccsccc"/>
<path d="m300.99-92.155c-26.1 0-36.19 0.017-60.55 1.667-2.25 0.57-10.51 3.743-9.12 19.594 1.62 18.313 12.12 18.323 12.12 18.323l0.53 0.195c22.76-1.481 31.13-1.398 55.42-1.398 20.39 0 35.8 0.615 55.1 1.661l2.05-0.879s9.65 0.042 10.46-18.976c0.8-19.017-10.46-18.355-10.46-18.355l-0.7-0.22c-19.26-1.01-34.58-1.612-54.85-1.612z" sodipodi:nodetypes="ccsccsccsccc"/>
</g>
<g fill-rule="evenodd" stroke-width="5.8395">
<path d="m47.375-69.844c-35.714 7.643-57.095 13.901-57.219 13.938l7.1565 46.968 0.5937 0.0318c21.08-5.9228 37.364-9.7168 57.782-14.125l1.843-1.657c0 0.001 10.159-2.797 4.563-25.906-3.983-16.445-10.997-19.089-14.719-19.25z"/>
<path d="m41.375-63.656c-1.044 0.055-1.687 0.281-1.687 0.281h-0.719c-17.086 3.86-30.946 7.145-48.125 11.906l5.6872 37.344c18.711-5.252 33.213-8.717 51.344-12.781l1.687-1.375s9.092-2.501 4.813-20.594c-3.209-13.57-9.869-14.948-13-14.781z"/>
<path d="m555.09-69.844c-3.76 0.238-10.61 3.032-14.53 19.219-5.59 23.108 4.57 25.906 4.56 25.906l1.85 1.657c19.75 4.265 35.68 7.964 55.78 13.562l7.87-34.219 1.88-12.219c-0.12-0.035-19.94-5.816-53.06-13.031-1.44-0.298-2.86-0.572-4.35-0.875z"/>
<path d="m560.66-63.688c-3.33 0.064-9.37 2.06-12.38 14.782-4.28 18.093 4.81 20.594 4.81 20.594l1.69 1.374c17.41 3.902 31.5 7.279 49.16 12.188l6.65-28.812 1.22-7.938c-17.18-4.762-31.04-8.047-48.12-11.906h-0.72s-0.65-0.226-1.69-0.282c-0.19-0.01-0.4-0.004-0.62 0z"/>
</g>
<path sodipodi:rx="15.289576" sodipodi:ry="15.289576" sodipodi:type="arc" d="m-61.158-234.44a15.29 15.29 0 1 1 -30.579 0 15.29 15.29 0 1 1 30.579 0z" transform="translate(219.15 173.28)" sodipodi:cy="-234.44016" sodipodi:cx="-76.447876" stroke-width="5.8395"/>
<path sodipodi:rx="15.289576" sodipodi:ry="15.289576" sodipodi:type="arc" d="m-61.158-234.44a15.29 15.29 0 1 1 -30.579 0 15.29 15.29 0 1 1 30.579 0z" transform="translate(535.14 173.28)" sodipodi:cy="-234.44016" sodipodi:cx="-76.447876" stroke-width="5.8395"/>
<g stroke-width="2.5574">
<path sodipodi:rx="15.289576" sodipodi:ry="15.289576" sodipodi:type="arc" d="m-61.158-234.44a15.29 15.29 0 1 1 -30.579 0 15.29 15.29 0 1 1 30.579 0z" transform="matrix(2.2826 0 0 2.2841 140.6 376.78)" sodipodi:cy="-234.44016" sodipodi:cx="-76.447876"/>
<path sodipodi:rx="15.289576" sodipodi:ry="15.289576" sodipodi:type="arc" d="m-61.158-234.44a15.29 15.29 0 1 1 -30.579 0 15.29 15.29 0 1 1 30.579 0z" transform="matrix(2.2826 0 0 2.2841 221.14 355.29)" sodipodi:cy="-234.44016" sodipodi:cx="-76.447876"/>
<path sodipodi:rx="15.289576" sodipodi:ry="15.289576" sodipodi:type="arc" d="m-61.158-234.44a15.29 15.29 0 1 1 -30.579 0 15.29 15.29 0 1 1 30.579 0z" transform="matrix(2.2826 0 0 2.2841 304.37 341.86)" sodipodi:cy="-234.44016" sodipodi:cx="-76.447876"/>
<path sodipodi:rx="15.289576" sodipodi:ry="15.289576" sodipodi:type="arc" d="m-61.158-234.44a15.29 15.29 0 1 1 -30.579 0 15.29 15.29 0 1 1 30.579 0z" transform="matrix(2.2826 0 0 2.2841 390.27 331.11)" sodipodi:cy="-234.44016" sodipodi:cx="-76.447876"/>
<path sodipodi:rx="15.289576" sodipodi:ry="15.289576" sodipodi:type="arc" d="m-61.158-234.44a15.29 15.29 0 1 1 -30.579 0 15.29 15.29 0 1 1 30.579 0z" transform="matrix(2.2826 0 0 2.2841 478.87 326.32)" sodipodi:cy="-234.44016" sodipodi:cx="-76.447876"/>
<path sodipodi:rx="15.289576" sodipodi:ry="15.289576" sodipodi:type="arc" d="m-61.158-234.44a15.29 15.29 0 1 1 -30.579 0 15.29 15.29 0 1 1 30.579 0z" transform="matrix(2.2826 0 0 2.2841 564.78 331.11)" sodipodi:cy="-234.44016" sodipodi:cx="-76.447876"/>
<path sodipodi:rx="15.289576" sodipodi:ry="15.289576" sodipodi:type="arc" d="m-61.158-234.44a15.29 15.29 0 1 1 -30.579 0 15.29 15.29 0 1 1 30.579 0z" transform="matrix(2.2826 0 0 2.2841 650.68 341.86)" sodipodi:cy="-234.44016" sodipodi:cx="-76.447876"/>
<path sodipodi:rx="15.289576" sodipodi:ry="15.289576" sodipodi:type="arc" d="m-61.158-234.44a15.29 15.29 0 1 1 -30.579 0 15.29 15.29 0 1 1 30.579 0z" transform="matrix(2.2826 0 0 2.2841 733.91 355.29)" sodipodi:cy="-234.44016" sodipodi:cx="-76.447876"/>
<path sodipodi:rx="15.289576" sodipodi:ry="15.289576" sodipodi:type="arc" d="m-61.158-234.44a15.29 15.29 0 1 1 -30.579 0 15.29 15.29 0 1 1 30.579 0z" transform="matrix(2.2826 0 0 2.2841 817.13 376.78)" sodipodi:cy="-234.44016" sodipodi:cx="-76.447876"/>
</g>
</g>
</g>
<g transform="matrix(3.5018 0 0 3.5018 2678 553.18)">
<path d="m-610.77-170.76c0.02 3.79-30.44 6.85-68.04 6.86-37.59 0-68.08-3.07-68.1-6.85v-0.01c-0.02-3.78 30.44-6.85 68.03-6.86 37.6 0 68.09 3.07 68.11 6.85v0.01z" rx="68.071785" ry="6.8528647" stroke="#010101" cy="430.35049" cx="330.76492" stroke-width="0.291" type="arc" fill="#eabe4e"/>
<path d="m-677.98-182.86c-41.05 0-74.35 5.41-74.35 12.09s33.3 12.12 74.35 12.12c41.04 0 74.34-5.44 74.34-12.12s-33.3-12.09-74.34-12.09zm0 5.25c37.57 0 68.06 3.06 68.06 6.84s-30.49 6.87-68.06 6.87c-37.58 0-68.07-3.09-68.07-6.87s30.49-6.84 68.07-6.84z" stroke="#010101" stroke-width="0.291" fill="#c7af67"/>
<g fill="#faf399">
<path d="m-713.86-177.77c-1.94 0.09-3.44 0.23-5.28 0.34 0.07 3.05 0.13 6.35 0.25 11.63 2.44 0.14 4.37 0.35 7 0.47l-1.97-12.44z"/>
<path d="m-685.14-178.46c-2.87 0-5.31 0.12-8.09 0.16l-8.57 13.22c5.47 0.14 10.75 0.34 16.66 0.34 10.13 0 19.55-0.29 28.19-0.69l0.37-12.34c-8.74-0.41-18.27-0.69-28.56-0.69z"/>
<path d="m-651.08-177.43l1.69 11.5c2.36-0.15 4.76-0.29 6.91-0.47l-4.47-10.75c-1.37-0.09-2.69-0.19-4.13-0.28z"/>
</g>
<path d="m-610.77-170.76c0.02 3.79-30.44 6.85-68.04 6.86-37.59 0-68.08-3.07-68.1-6.85v-0.01c-0.02-3.78 30.44-6.85 68.03-6.86 37.6 0 68.09 3.07 68.11 6.85v0.01z" rx="68.071785" ry="6.8528647" stroke="#010101" cy="430.35049" cx="330.76492" stroke-width="0.291" type="arc" fill="none"/>
<path stroke-linejoin="bevel" d="m-679.01-204.08c-30.33 0-57.03 4.71-73.69 11.9l4.5 16.78h1.53c11.15-4.39 37.69-7.46 68.69-7.46 30.89 0 57.31 3.07 68.53 7.43l4.47-16.62c-16.63-7.27-43.52-12.03-74.03-12.03z" stroke="#010101" stroke-width="0.291" nodetypes="cccccccc" fill="#e9cb53"/>
<g stroke="#010101" stroke-width="0.291" fill="none" transform="translate(-1061.7 -1170.6)">
<path d="m315.33 976l0.88 3.26"/>
<path d="m317.26 982.82l1.11 4.13"/>
<path d="m319.58 991.32l0.61 2.26"/>
<path d="m321.26 978.06l0.86 3.23"/>
<path d="m323.44 985.91l1.09 4.05"/>
<path d="m328.34 973.29l0.63 2.36"/>
<path d="m329.75 979.34l1.17 4.38"/>
<path d="m331.94 988.36l0.54 1.99"/>
<path d="m336.06 974.58l0.64 3.22"/>
<path d="m337.74 982.43l0.77 4.38"/>
<path d="m342.76 969.69l0.51 3.35"/>
<path d="m344.04 976.64l0.65 4.51"/>
<path d="m345.59 985.91l0.26 2.57"/>
<path d="m355.63 968.14l0.26 3.35"/>
<path d="m356.15 975.1l0.51 4.76"/>
<path d="m357.05 984.62l0.25 2.96"/>
<path d="m349.97 972.14l0.51 3.73"/>
<path d="m351 980.76l0.51 4.12"/>
<path d="m369.41 967.5v2.96"/>
<path d="m369.15 974.32v4.77"/>
<path d="m369.54 983.72v3.61"/>
<path d="m364.51 979.34v4.51"/>
<path d="m364.51 970.98v3.6"/>
<g transform="matrix(-1 0 0 1 793.32 0)">
<path d="m344.35 976l0.88 3.26"/>
<path d="m346.28 982.82l1.11 4.13"/>
<path d="m348.6 991.32l0.61 2.26"/>
<path d="m350.28 978.06l0.86 3.23"/>
<path d="m352.46 985.91l1.09 4.05"/>
<path d="m357.36 973.29l0.63 2.36"/>
<path d="m358.77 979.34l1.18 4.38"/>
<path d="m360.96 988.36l0.54 1.99"/>
<path d="m365.08 974.58l0.65 3.22"/>
<path d="m366.76 982.43l0.77 4.38"/>
<path d="m371.78 969.69l0.51 3.35"/>
<path d="m373.06 976.64l0.65 4.51"/>
<path d="m374.61 985.91l0.26 2.57"/>
<path d="m384.65 968.14l0.26 3.35"/>
<path d="m385.17 975.1l0.51 4.76"/>
<path d="m386.07 984.62l0.25 2.96"/>
<path d="m378.99 972.14l0.51 3.73"/>
<path d="m380.02 980.76l0.51 4.12"/>
<path d="m398.43 967.5v2.96"/>
<path d="m398.17 974.32v4.77"/>
<path d="m398.56 983.72v3.61"/>
<path d="m393.53 979.34v4.51"/>
<path d="m393.53 970.98v3.6"/>
</g>
<path d="m381.64 967.11v3.09"/>
<path d="m381.76 974.07v4.89"/>
<path d="m381.76 983.59v3.61"/>
<path d="m376.36 978.96v4.5" nodetypes="cc"/>
<path d="m376.49 970.33v3.99"/>
<path d="m386.27 970.33v3.48"/>
<path d="m386.27 979.09v4.37"/>
</g>
<path stroke-linejoin="bevel" d="m-679.01-229.82c-30.33 0-57.03 4.71-73.69 11.91l4.5 16.78h1.53c11.15-4.39 37.69-7.47 68.69-7.47 30.89 0 57.31 3.07 68.53 7.44l4.47-16.63c-16.63-7.27-43.52-12.03-74.03-12.03z" stroke="#010101" stroke-width="0.291" nodetypes="cccccccc" fill="#e9cb53"/>
<g stroke="#010101" stroke-width="0.291" transform="translate(-1061.7 -1170.6)">
<path d="m320.52 943.51l0.92 4.45s0.14 0.62 0.22 1.02c0.29 1.41 1.74 2.27 3.22 1.95 1.47-0.32 2.45-1.71 2.15-3.13l-0.21-1.02-0.93-4.45-5.37 1.18z" nodetypes="cccccccc" fill="#e9cb53"/>
<path stroke-linejoin="bevel" d="m320.5 943.45l2.12-3.33 3.26 2.17-5.38 1.16z" nodetypes="cccc" fill="#ae1f23"/>
<path stroke-linejoin="bevel" d="m324.44 946.15c0.26 1.28 0.24 2.38-0.06 2.44-0.29 0.07-0.75-0.92-1.02-2.2-0.26-1.29-0.24-2.38 0.06-2.44 0.29-0.07 0.75 0.92 1.02 2.2z" rx="0.53536052" ry="2.4269679" cy="369.31351" cx="349.6618" type="arc" fill="#0b070a"/>
</g>
<g stroke="#010101" stroke-width="0.291" transform="translate(-1061.7 -1170.6)">
<path d="m398.59 936.71v4.66 1.06c0 1.48 1.21 2.66 2.69 2.66s2.68-1.18 2.68-2.66v-1.06-4.66h-5.37z" nodetypes="cccccccc" fill="#e9cb53"/>
<path stroke-linejoin="bevel" d="m398.59 936.65l2.69-2.87 2.69 2.88-5.38-0.01z" nodetypes="cccc" fill="#ae1f23"/>
<path stroke-linejoin="bevel" d="m401.81 940.21c0 1.35-0.24 2.43-0.53 2.43-0.3 0-0.54-1.08-0.54-2.43 0-1.34 0.24-2.42 0.54-2.42 0.29 0 0.53 1.08 0.53 2.42z" rx="0.53536052" ry="2.4269679" cy="369.31351" cx="349.6618" type="arc" fill="#0b070a"/>
</g>
<g stroke="#010101" stroke-width="0.291" transform="translate(-1061.7 -1170.6)">
<path d="m444.74 943.51l-0.93 4.45s-0.13 0.62-0.21 1.02c-0.3 1.41-1.74 2.27-3.22 1.95s-2.45-1.71-2.16-3.13l0.21-1.02 0.94-4.45 5.37 1.18z" nodetypes="cccccccc" fill="#e9cb53"/>
<path stroke-linejoin="bevel" d="m444.75 943.45l-2.11-3.33-3.26 2.17 5.37 1.16z" nodetypes="cccc" fill="#ae1f23"/>
<path stroke-linejoin="bevel" d="m440.82 946.15c-0.27 1.28-0.25 2.38 0.05 2.44 0.29 0.07 0.75-0.92 1.02-2.2 0.27-1.29 0.25-2.38-0.05-2.44-0.3-0.07-0.75 0.92-1.02 2.2z" rx="0.53536052" ry="2.4269679" cy="369.31351" cx="349.6618" type="arc" fill="#0b070a"/>
</g>
<path stroke-linejoin="bevel" d="m-678.92-208.61c-43.65 0-79.09 6.65-79.09 14.84 0 2.08 2.33 4.07 6.46 5.87l-1.15-4.28c16.66-7.19 43.36-11.9 73.69-11.9 30.51 0 57.4 4.76 74.03 12.03l-1.1 4.06c4-1.77 6.22-3.73 6.22-5.78 0-8.19-35.42-14.84-79.06-14.84z" stroke="#010101" stroke-width="0.291" fill="#c7af67"/>
<g stroke-linejoin="bevel" transform="translate(-1061.7 -1170.6)" stroke="#010101" stroke-width="0.291" fill="none">
<path d="m456.16 982.37c-16.63-7.27-43.52-12.03-74.04-12.03-30.32 0-57.02 4.72-73.68 11.91" nodetypes="ccc"/>
<path d="m454.62 985.56c-16.72-6.93-42.86-11.44-72.5-11.44-29.04 0-54.65 4.35-71.41 11.03" nodetypes="ccc"/>
<path d="m453.49 989.78c-16.75-6.67-42.37-11-71.37-11-28.4 0-53.52 4.15-70.29 10.59" nodetypes="ccc"/>
<path d="m452.36 994.03c-16.76-6.42-41.88-10.57-70.24-10.57-27.77 0-52.4 3.97-69.16 10.16" nodetypes="ccc"/>
</g>
<g stroke="#010101" stroke-width="0.291" transform="translate(-1061.7 -1170.6)">
<path d="m320.88 976.54c-3.04 0.8-5.22 3.54-5.58 6.48l1.35 11.03 2.16-0.57-0.92-7.62-0.15-1.19h0.01c0.17-2.36 1.56-4.48 3.51-5 1.95-0.51 3.72 0.79 4.43 2.92h0.01l0.14 1.19 0.92 7.62 2.27-0.59-1.34-11.03h-0.02c-1.03-2.58-3.74-4.03-6.79-3.24z" nodetypes="cccccccccccccccc" fill="#e9cb53"/>
<path d="m321.24 979.67c-1.95 0.51-3.3 2.62-3.48 4.99h-0.01l0.14 1.18 0.94 7.78 7.95-2.08-0.94-7.78-0.14-1.18c-0.72-2.13-2.5-3.42-4.46-2.91z" nodetypes="cccccccccc" fill="#191f11"/>
<g fill="#e9cb53">
<path d="m315.67 985.01l2.18-0.57" nodetypes="cc"/>
<path d="m325.63 982.4l2.37-0.62" nodetypes="cc"/>
<path d="m316.14 988.9l2.19-0.57" nodetypes="cc"/>
<path d="m326.1 986.29l2.37-0.62" nodetypes="cc"/>
<path d="m318.93 981.43l-2.47-1.57"/>
<path d="m323.89 980.11l1.96-2.75"/>
</g>
</g>
<g stroke="#010101" stroke-width="0.291" transform="translate(-1061.7 -1170.6)">
<path d="m382.17 970.66c-3.05 0-5.49 2.16-6.19 5l0.02 11.34h2.16v-7.84-1.22h0.01c0.45-2.31 2.04-4.06 4-4.06s3.53 1.75 3.97 4.06v1.22 7.84h2.28v-11.34h-0.03c-0.69-2.84-3.16-5-6.22-5z" nodetypes="cccccccccccccccc" fill="#e9cb53"/>
<path d="m382.16 973.87c-1.96 0-3.53 1.75-3.97 4.06h-0.02v1.22 8h7.98v-8-1.22c-0.45-2.31-2.03-4.06-3.99-4.06z" nodetypes="cccccccccc" fill="#191f11"/>
<g fill="#e9cb53">
<path d="m376.11 977.74h2.19" nodetypes="cc"/>
<path d="m386.1 977.74h2.38" nodetypes="cc"/>
<path d="m376.11 981.74h2.19" nodetypes="cc"/>
<path d="m386.1 981.74h2.38" nodetypes="cc"/>
<path d="m379.7 975.02l-2.22-2.21"/>
<path d="m384.68 975l2.23-2.23"/>
</g>
</g>
<g stroke="#010101" stroke-width="0.291" fill="none" transform="translate(-1061.7 -1196.3)">
<path d="m315.33 976l0.88 3.26"/>
<path d="m317.26 982.82l1.11 4.13"/>
<path d="m319.58 991.32l0.61 2.26"/>
<path d="m321.26 978.06l0.86 3.23"/>
<path d="m323.44 985.91l1.09 4.05"/>
<path d="m328.34 973.29l0.63 2.36"/>
<path d="m329.75 979.34l1.17 4.38"/>
<path d="m331.94 988.36l0.54 1.99"/>
<path d="m336.06 974.58l0.64 3.22"/>
<path d="m337.74 982.43l0.77 4.38"/>
<path d="m342.76 969.69l0.51 3.35"/>
<path d="m344.04 976.64l0.65 4.51"/>
<path d="m345.59 985.91l0.26 2.57"/>
<path d="m355.63 968.14l0.26 3.35"/>
<path d="m356.15 975.1l0.51 4.76"/>
<path d="m357.05 984.62l0.25 2.97"/>
<path d="m349.96 972.14l0.52 3.73"/>
<path d="m351 980.76l0.51 4.12"/>
<path d="m369.41 967.5v2.96"/>
<path d="m369.15 974.32v4.77"/>
<path d="m369.54 983.72v3.61"/>
<path d="m364.51 979.34v4.51"/>
<path d="m364.51 970.98v3.6"/>
<g transform="matrix(-1 0 0 1 793.32 0)">
<path d="m344.35 976l0.88 3.26"/>
<path d="m346.28 982.82l1.11 4.13"/>
<path d="m348.6 991.32l0.61 2.26"/>
<path d="m350.28 978.06l0.86 3.23"/>
<path d="m352.46 985.91l1.09 4.05"/>
<path d="m357.36 973.29l0.63 2.36"/>
<path d="m358.77 979.34l1.18 4.38"/>
<path d="m360.96 988.36l0.54 1.99"/>
<path d="m365.08 974.58l0.65 3.22"/>
<path d="m366.76 982.43l0.77 4.38"/>
<path d="m371.78 969.69l0.51 3.35"/>
<path d="m373.06 976.64l0.65 4.51"/>
<path d="m374.61 985.91l0.26 2.57"/>
<path d="m384.65 968.14l0.26 3.35"/>
<path d="m385.17 975.1l0.51 4.76"/>
<path d="m386.07 984.62l0.25 2.97"/>
<path d="m378.99 972.14l0.51 3.73"/>
<path d="m380.02 980.76l0.51 4.12"/>
<path d="m398.43 967.5v2.96"/>
<path d="m398.17 974.32v4.77"/>
<path d="m398.56 983.72v3.61"/>
<path d="m393.53 979.34v4.51"/>
<path d="m393.53 970.98v3.6"/>
</g>
<path d="m381.64 967.11v3.09"/>
<path d="m381.76 974.07v4.89"/>
<path d="m381.76 983.59v3.61"/>
<path d="m376.36 978.96v4.5" nodetypes="cc"/>
<path d="m376.49 970.33v3.99"/>
<path d="m386.27 970.33v3.48"/>
<path d="m386.27 979.09v4.37"/>
</g>
<g stroke-linejoin="bevel" transform="translate(-1061.7 -1196.4)" stroke="#010101" stroke-width="0.291" fill="none">
<path d="m456.16 982.37c-16.63-7.27-43.52-12.03-74.04-12.03-30.32 0-57.02 4.72-73.68 11.91" nodetypes="ccc"/>
<path d="m454.62 985.56c-16.72-6.93-42.86-11.44-72.5-11.44-29.04 0-54.65 4.35-71.41 11.03" nodetypes="ccc"/>
<path d="m453.49 989.78c-16.75-6.68-42.37-11-71.37-11-28.4 0-53.52 4.15-70.29 10.59" nodetypes="ccc"/>
<path d="m452.36 994.02c-16.76-6.41-41.88-10.56-70.24-10.56-27.77 0-52.4 3.97-69.16 10.16" nodetypes="ccc"/>
</g>
<g stroke="#010101" stroke-width="0.291" transform="translate(-1061.7 -1168.9)">
<path d="m429.36 924.6l1.96 4.24-1.34-0.18-2.61 23.7-0.03-0.01c-0.05 0.29 1.08 9.03 3.34 11.05l-0.04 0.36-4.47-0.62-19.83-2.76-4.48-0.62 0.04-0.34c2.65-1.32 5.65-9.52 5.67-9.82h-0.03l2.6-23.67-1.28-0.18 2.84-3.61 1.96 4.25-1.35-0.19-0.34 3.13 3.77 0.53 0.34-3.1-1.31-0.19 2.84-3.61 1.95 4.25-1.34-0.19-0.34 3.14 3.76 0.52 0.35-3.1-1.34-0.19 2.86-3.61 1.96 4.25-1.31-0.18-0.35 3.13 3.77 0.52 0.35-3.1-1.41-0.19 2.84-3.61z" fill="#e9cb53"/>
<g fill="#191f11">
<path d="m418.97 935.82c0.73 0.1 1.23 0.98 1.28 2.04h0.01l-0.06 0.55-0.41 3.61-2.98-0.41 0.4-3.61 0.06-0.55c0.28-1.02 0.97-1.73 1.7-1.63z" nodetypes="cccccccccc"/>
<path d="m423.99 936.52c0.73 0.1 1.23 0.97 1.28 2.04h0.01l-0.06 0.55-0.41 3.61-2.98-0.42 0.4-3.61 0.06-0.55c0.29-1.02 0.97-1.72 1.7-1.62z" nodetypes="cccccccccc"/>
<path d="m413.95 935.12c0.73 0.1 1.23 0.98 1.28 2.04h0.01l-0.06 0.55-0.41 3.61-2.98-0.41 0.4-3.61 0.06-0.55c0.28-1.02 0.97-1.73 1.7-1.63z" nodetypes="cccccccccc"/>
</g>
<g fill="none">
<path d="m429.16 935.2l-19.8-2.75"/>
<path d="m428.82 938.96l-19.8-2.75"/>
<path d="m428.38 942.92l-19.8-2.75"/>
<path d="m427.8 946.72l-19.5-2.72"/>
<path d="m427.6 950.57l-19.72-2.75"/>
<path d="m427.67 955.39l-21-2.92"/>
<path d="m428.4 958.43l-23.17-3.22"/>
<path d="m429.36 961.44l-25.87-3.6"/>
</g>
<g transform="matrix(-1.022 -.14210 -.10735 .96351 813.46 614.57)">
<path d="m345.42 394.56c-3.05 0-5.49 2.16-6.18 5l0.01 11.35h2.17v-7.85-1.22c0.45-2.3 2.04-4.06 4-4.06 1.97 0 3.53 1.75 3.97 4.06h0.01v1.22 7.85h2.27v-11.34l-0.03-0.01c-0.69-2.84-3.16-5-6.22-5z" nodetypes="cccccccccccccccc" fill="#e9cb53"/>
<path d="m345.41 397.78c-1.96 0-3.53 1.75-3.97 4.06h-0.02v1.21 8h7.98v-7.99-1.22c-0.44-2.31-2.03-4.06-3.99-4.06z" nodetypes="cccccccccc" fill="#191f11"/>
<g fill="#e9cb53">
<path d="m339.36 401.64h2.19" nodetypes="cc"/>
<path d="m349.36 401.64h2.38" nodetypes="cc"/>
<path d="m339.36 405.64h2.19" nodetypes="cc"/>
<path d="m349.36 405.64h2.38" nodetypes="cc"/>
<path d="m342.95 398.93l-2.22-2.22"/>
<path d="m347.94 398.9l2.22-2.22"/>
</g>
</g>
<g fill="none">
<path d="m424.35 934.6l-0.41 3.75"/>
<path d="m415.37 941.4l-0.39 3.46"/>
<path d="m422.5 942.39l-0.4 3.53"/>
<path d="m411.07 944.46l-0.43 3.89"/>
<path d="m408.62 952.81l-0.33 2.9"/>
<path d="m425.28 954.98l-0.34 3.04"/>
<path d="m426.51 961.04l-0.21 1.91"/>
<path d="m406.09 958.34l-0.21 1.92"/>
<path d="m418.28 933.76l-0.36 3.18"/>
<path d="m420.83 930.67l-0.37 3.32"/>
<path d="m413.54 929.8l-0.33 2.97"/>
<path d="m427.28 931.57l-0.35 3.18"/>
<path d="m429.68 931.9l-19.87-2.76"/>
</g>
</g>
<g stroke="#010101" stroke-width="0.291" transform="translate(-1061.7 -1168)">
<path d="m373.76 919.09l-2.34 4.06h1.31l-0.03 24.59h0.03c0.01 0.31-2.02 9.08-4.41 10.82v0.37h4.38 19.4 4.38v-0.34c-2.41-1.73-4.42-10.54-4.41-10.85h0.03l0.03-24.56h1.25l-2.34-4.09-2.34 4.06h1.31v3.25h-3.69v-3.22h1.28l-2.34-4.09-2.34 4.06h1.31v3.25h-3.69v-3.22h1.31l-2.37-4.09-2.35 4.06h1.29v3.25h-3.69v-3.22h1.37l-2.34-4.09z" fill="#e9cb53"/>
<g fill="#191f11">
<path d="m382.57 932.04c-0.72 0-1.29 0.82-1.46 1.9v0.57 3.75h2.92v-3.75-0.57c-0.17-1.08-0.74-1.9-1.46-1.9z" nodetypes="cccccccccc"/>
<path d="m377.66 932.04c-0.72 0-1.3 0.82-1.46 1.9h-0.01v0.57 3.75h2.93v-3.75-0.57c-0.17-1.08-0.75-1.9-1.46-1.9z" nodetypes="cccccccccc"/>
<path d="m387.48 932.04c-0.72 0-1.29 0.82-1.45 1.9h-0.01v0.57 3.75h2.92v-3.75-0.57c-0.16-1.08-0.74-1.9-1.46-1.9z" nodetypes="cccccccccc"/>
</g>
<g fill="none">
<path d="m372.81 929.96h19.38"/>
<path d="m372.74 933.84h19.37"/>
<path d="m372.74 937.96h19.37"/>
<path d="m372.89 941.92h19.08"/>
<path d="m372.67 945.88h19.3"/>
<path d="m372.08 950.8h20.55"/>
<path d="m371.06 953.8h22.67"/>
<path d="m369.81 956.74h25.31"/>
</g>
<g transform="translate(66.209 549.55)">
<path d="m316.17 392.66c-3.05 0-5.49 2.16-6.19 5l0.02 11.34h2.17v-7.84-1.22c0.45-2.31 2.04-4.06 4-4.06s3.53 1.75 3.97 4.06h0.01v1.22 7.84h2.27v-11.34h-0.03c-0.69-2.85-3.16-5-6.22-5z" nodetypes="cccccccccccccccc" fill="#e9cb53"/>
<path d="m316.16 395.87c-1.96 0-3.53 1.75-3.97 4.06h-0.02v1.22 8h7.98v-8-1.22c-0.45-2.31-2.03-4.06-3.99-4.06z" nodetypes="cccccccccc" fill="#191f11"/>
<g fill="#e9cb53">
<path d="m310.11 399.74h2.19" nodetypes="cc"/>
<path d="m320.1 399.74h2.38" nodetypes="cc"/>
<path d="m310.11 403.74h2.19" nodetypes="cc"/>
<path d="m320.1 403.74h2.38" nodetypes="cc"/>
<path d="m313.7 397.02l-2.22-2.21"/>
<path d="m318.68 397l2.23-2.23"/>
</g>
</g>
<g fill="none">
<path d="m377.51 930.03v3.89"/>
<path d="m385.44 938.25v3.59"/>
<path d="m378.46 938.25v3.67"/>
<path d="m389.25 941.99v4.04"/>
<path d="m390.72 950.87v3.01"/>
<path d="m374.43 950.72v3.16"/>
<path d="m372.6 956.74v1.98"/>
<path d="m392.56 956.89v1.98"/>
<path d="m383.46 930.03v3.3"/>
<path d="m381.33 926.51v3.45"/>
<path d="m388.45 926.66v3.08"/>
<path d="m375.02 926.51v3.3"/>
<path d="m372.67 926.51h19.44"/>
</g>
</g>
<g stroke="#010101" stroke-width="0.291" transform="translate(-1061.7 -1170.6)">
<path d="m335.44 926.34l-1.96 4.25 1.35-0.19 2.61 23.7h0.03c0.05 0.29-1.09 9.03-3.35 11.04l0.04 0.36 4.48-0.62 19.83-2.75 4.47-0.63-0.04-0.33c-2.64-1.32-5.65-9.53-5.66-9.82l0.03-0.01-2.61-23.66 1.28-0.18-2.83-3.62-1.96 4.25 1.34-0.18 0.35 3.13-3.77 0.52-0.35-3.1 1.31-0.18-2.83-3.61-1.96 4.25 1.34-0.19 0.35 3.13-3.77 0.53-0.34-3.11 1.34-0.18-2.87-3.61-1.96 4.25 1.31-0.18 0.35 3.13-3.77 0.52-0.34-3.1 1.4-0.19-2.84-3.62z" fill="#e9cb53"/>
<g fill="#191f11">
<path d="m345.83 937.57c-0.73 0.1-1.23 0.97-1.28 2.04l0.06 0.55 0.4 3.61 2.99-0.41-0.41-3.62-0.06-0.54c-0.28-1.03-0.96-1.73-1.7-1.63z" nodetypes="cccccccccc"/>
<path d="m340.81 938.27c-0.73 0.1-1.23 0.97-1.28 2.03v0.01l0.06 0.55 0.4 3.61 2.99-0.42-0.41-3.61-0.06-0.55c-0.28-1.02-0.96-1.73-1.7-1.62z" nodetypes="cccccccccc"/>
<path d="m350.85 936.87c-0.73 0.1-1.23 0.97-1.28 2.04l0.06 0.55 0.4 3.61 2.99-0.42-0.41-3.61-0.06-0.55c-0.28-1.01-0.96-1.72-1.7-1.62z" nodetypes="cccccccccc"/>
</g>
<g fill="none">
<path d="m335.64 936.95l19.8-2.75"/>
<path d="m335.99 940.71l19.79-2.76"/>
<path d="m336.43 944.67l19.8-2.76"/>
<path d="m337 948.46l19.5-2.71"/>
<path d="m337.2 952.31l19.73-2.74"/>
<path d="m337.13 957.13l21-2.92"/>
<path d="m336.4 960.18l23.18-3.22"/>
<path d="m335.44 963.18l25.88-3.6"/>
</g>
<g transform="matrix(1.022 -.14210 .10735 .96351 -19.638 616.31)">
<path d="m317.46 390.44c-3.05 0-5.49 2.16-6.18 5l0.01 11.34h2.17v-7.84-1.22c0.45-2.31 2.04-4.06 4-4.06s3.53 1.75 3.97 4.06h0.01v1.22 7.84h2.27v-11.34h-0.03c-0.69-2.84-3.16-5-6.22-5z" nodetypes="cccccccccccccccc" fill="#e9cb53"/>
<path d="m317.45 393.65c-1.96 0-3.53 1.75-3.97 4.06h-0.02v1.22 8h7.98v-8-1.22c-0.44-2.31-2.03-4.06-3.99-4.06z" nodetypes="cccccccccc" fill="#191f11"/>
<g fill="#e9cb53">
<path d="m311.4 397.52h2.19" nodetypes="cc"/>
<path d="m321.4 397.52h2.37" nodetypes="cc"/>
<path d="m311.4 401.52h2.19" nodetypes="cc"/>
<path d="m321.39 401.52h2.38" nodetypes="cc"/>
<path d="m314.99 394.81l-2.22-2.22"/>
<path d="m319.97 394.78l2.23-2.23"/>
</g>
</g>
<g fill="none">
<path d="m340.45 936.35l0.42 3.75"/>
<path d="m349.43 943.14l0.39 3.47"/>
<path d="m342.31 944.14l0.39 3.53"/>
<path d="m353.73 946.21l0.44 3.89"/>
<path d="m356.19 954.56l0.32 2.89"/>
<path d="m339.52 956.73l0.34 3.04"/>
<path d="m338.29 962.79l0.22 1.91"/>
<path d="m358.71 960.09l0.21 1.91"/>
<path d="m346.53 935.51l0.35 3.18"/>
<path d="m343.97 932.42l0.37 3.32"/>
<path d="m351.26 931.55l0.33 2.97"/>
<path d="m337.52 933.31l0.36 3.18"/>
<path d="m335.12 933.65l19.88-2.77"/>
</g>
</g>
<g stroke="#010101" stroke-width="0.291" transform="translate(-1061.7 -1170.6)">
<path d="m360.54 936.71v4.66 1.06c0 1.48 1.21 2.66 2.69 2.66s2.69-1.18 2.69-2.66v-1.06-4.66h-5.38z" nodetypes="cccccccc" fill="#e9cb53"/>
<path stroke-linejoin="bevel" d="m360.54 936.65l2.69-2.87 2.69 2.88-5.38-0.01z" nodetypes="cccc" fill="#ae1f23"/>
<path stroke-linejoin="bevel" d="m363.77 940.54c0 1.34-0.24 2.43-0.54 2.43s-0.54-1.09-0.54-2.43 0.24-2.42 0.54-2.42 0.54 1.08 0.54 2.42z" rx="0.53536052" ry="2.4269679" cy="369.31351" cx="349.6618" type="arc" fill="#0b070a"/>
</g>
<g stroke="#010101" stroke-width="0.291" transform="translate(-1061.7 -1170.6)">
<path d="m473.75 937.97l0.03 4.29-1.08-0.39-11.4 21.83-0.03-0.01c-0.15 0.26-2.57 8.63-1.43 10.87l-0.17 0.33-3.57-1.27-15.84-5.64-3.57-1.27 0.16-0.31c2.76-0.83 8.51-8.06 8.63-8.33l-0.02-0.01 11.39-21.8-1.02-0.36 3.82-2.95 0.02 4.28-1.07-0.38-1.51 2.89 3.01 1.07 1.49-2.86-1.04-0.37 3.81-2.95 0.03 4.28-1.07-0.38-1.51 2.88 3.01 1.08 1.49-2.86-1.07-0.38 3.84-2.94 0.03 4.28-1.05-0.37-1.51 2.88 3.01 1.08 1.5-2.86-1.12-0.4 3.81-2.95z" fill="#e9cb53"/>
<path d="m457.2 971.7l-0.92 1.76" fill="none"/>
<g fill="#191f11">
<path d="m460.54 946.9c0.59 0.21 0.67 1.1 0.31 2.11l-0.26 0.5-1.75 3.33-2.38-0.85 1.74-3.32 0.27-0.51c0.63-0.91 1.49-1.47 2.07-1.26z" nodetypes="cccccccccc"/>
<path d="m464.55 948.33c0.59 0.21 0.68 1.1 0.31 2.1v0.01l-0.26 0.5-1.74 3.32-2.39-0.84 1.74-3.33 0.27-0.5c0.63-0.91 1.49-1.47 2.07-1.26z" nodetypes="cccccccccc"/>
<path d="m456.53 945.47c0.59 0.21 0.67 1.11 0.31 2.11l-0.26 0.51-1.75 3.32-2.38-0.85 1.74-3.32 0.27-0.51c0.63-0.91 1.49-1.47 2.07-1.26z" nodetypes="cccccccccc"/>
</g>
<g fill="none">
<path d="m467.72 951.36l-15.81-5.63"/>
<path d="m465.81 955l-15.81-5.63"/>
<path d="m463.85 958.47l-15.57-5.54"/>
<path d="m462.19 962.05l-15.75-5.61"/>
<path d="m460.38 966.58l-16.77-5.97"/>
<path d="m459.82 969.55l-18.5-6.59"/>
<path d="m459.48 972.52l-20.67-7.36"/>
</g>
<g transform="matrix(-.81636 -.29056 -.46484 .88694 926.26 704.6)">
<path d="m349.5 397.92c-3.05 0-5.49 2.16-6.18 5l0.01 11.34h2.17v-7.84-1.22c0.45-2.31 2.04-4.06 4-4.06 1.97 0 3.53 1.75 3.97 4.06h0.01v1.22 7.84h2.27v-11.34h-0.03c-0.69-2.84-3.16-5-6.22-5z" nodetypes="cccccccccccccccc" fill="#e9cb53"/>
<path d="m349.49 401.13c-1.96 0-3.53 1.75-3.97 4.06h-0.02v1.22 8h7.98v-8-1.22c-0.45-2.31-2.03-4.06-3.99-4.06z" nodetypes="cccccccccc" fill="#191f11"/>
<g fill="#e9cb53">
<path d="m343.44 405h2.19" nodetypes="cc"/>
<path d="m353.44 405h2.38" nodetypes="cc"/>
<path d="m343.44 409h2.19" nodetypes="cc"/>
<path d="m353.44 409h2.38" nodetypes="cc"/>
<path d="m347.03 402.29l-2.22-2.22"/>
<path d="m352.01 402.26l2.23-2.23"/>
</g>
</g>
<g fill="none">
<path d="m465.6 946.59l-1.8 3.45"/>
<path d="m455.31 951.57l-1.67 3.19"/>
<path d="m461.01 953.6l-1.71 3.25"/>
<path d="m450.46 953.78l-1.88 3.58"/>
<path d="m445.13 961.23l-1.39 2.67"/>
<path d="m458.5 965.84l-1.46 2.8"/>
<path d="m440.84 966.04l-0.92 1.75"/>
<path d="m460.75 944.86l-1.53 2.93"/>
<path d="m464.13 942.35l-1.61 3.06"/>
<path d="m458.25 940.42l-1.44 2.73"/>
<path d="m469.28 944.19l-1.54 2.93"/>
<path d="m471.2 944.87l-15.88-5.65"/>
<path d="m469.47 947.89l-15.81-5.63"/>
</g>
</g>
<g stroke="#010101" stroke-width="0.291" transform="translate(-1061.7 -1170.6)">
<path d="m291.05 937.97l-0.02 4.29 1.07-0.39 11.4 21.83 0.03-0.01c0.15 0.26 2.57 8.63 1.43 10.87l0.17 0.33 3.57-1.27 15.85-5.64 3.57-1.27-0.16-0.31c-2.77-0.83-8.51-8.06-8.64-8.33l0.02-0.01-11.39-21.8 1.03-0.36-3.82-2.95-0.03 4.28 1.07-0.38 1.52 2.89-3.01 1.07-1.5-2.86 1.05-0.37-3.82-2.95-0.03 4.28 1.07-0.38 1.52 2.88-3.01 1.08-1.5-2.86 1.07-0.38-3.84-2.94-0.02 4.28 1.04-0.37 1.51 2.88-3.01 1.08-1.5-2.86 1.13-0.4-3.82-2.95z" fill="#e9cb53"/>
<g fill="#191f11">
<path d="m304.26 946.9c-0.59 0.21-0.67 1.1-0.3 2.11h-0.01l0.27 0.5 1.74 3.33 2.38-0.85-1.74-3.32-0.26-0.51c-0.64-0.91-1.49-1.47-2.08-1.26z" nodetypes="cccccccccc"/>
<path d="m300.25 948.33c-0.59 0.21-0.67 1.1-0.3 2.1l-0.01 0.01 0.27 0.5 1.74 3.32 2.39-0.84-1.75-3.33-0.26-0.5c-0.64-0.91-1.49-1.47-2.08-1.26z" nodetypes="cccccccccc"/>
<path d="m308.27 945.47c-0.59 0.21-0.67 1.11-0.3 2.11h-0.01l0.27 0.51 1.74 3.32 2.38-0.85-1.74-3.32-0.26-0.51c-0.64-0.91-1.49-1.47-2.08-1.26z" nodetypes="cccccccccc"/>
</g>
<g fill="none">
<path d="m295.33 947.89l15.82-5.63"/>
<path d="m297.08 951.36l15.82-5.63"/>
<path d="m298.99 955l15.81-5.63"/>
<path d="m300.95 958.47l15.58-5.54"/>
<path d="m302.61 962.05l15.76-5.61"/>
<path d="m304.42 966.58l16.77-5.97"/>
<path d="m304.98 969.55l18.51-6.59"/>
<path d="m305.32 972.52l20.67-7.36"/>
</g>
<g transform="matrix(.81636 -.29056 .46484 .88694 -132.43 704.6)">
<path d="m319.54 388.1c-3.05 0-5.49 2.16-6.18 5l0.01 11.35h2.17v-7.85-1.22c0.45-2.3 2.04-4.06 4-4.06 1.97 0 3.53 1.76 3.97 4.06h0.01v1.22 7.85h2.27v-11.35h-0.03c-0.69-2.84-3.16-5-6.22-5z" nodetypes="cccccccccccccccc" fill="#e9cb53"/>
<path d="m319.53 391.32c-1.96 0-3.53 1.75-3.97 4.06h-0.02v1.21 8h7.98v-8-1.21c-0.44-2.31-2.03-4.07-3.99-4.06z" nodetypes="cccccccccc" fill="#191f11"/>
<g fill="#e9cb53">
<path d="m313.48 395.18h2.19" nodetypes="cc"/>
<path d="m323.48 395.18h2.37" nodetypes="cc"/>
<path d="m313.48 399.18h2.19" nodetypes="cc"/>
<path d="m323.48 399.18h2.38" nodetypes="cc"/>
<path d="m317.07 392.47l-2.22-2.22"/>
<path d="m322.05 392.45l2.23-2.23"/>
</g>
</g>
<g fill="none">
<path d="m299.2 946.59l1.81 3.45"/>
<path d="m309.49 951.57l1.67 3.19"/>
<path d="m303.8 953.6l1.7 3.25"/>
<path d="m314.34 953.78l1.88 3.58"/>
<path d="m319.67 961.23l1.4 2.67"/>
<path d="m306.3 965.84l1.47 2.8"/>
<path d="m307.6 971.71l0.92 1.75"/>
<path d="m323.96 966.04l0.92 1.75"/>
<path d="m304.05 944.86l1.54 2.93"/>
<path d="m300.68 942.35l1.6 3.06"/>
<path d="m306.56 940.42l1.43 2.73"/>
<path d="m295.52 944.19l1.54 2.93"/>
<path d="m293.61 944.87l15.87-5.65"/>
</g>
</g>
<g stroke="#010101" stroke-width="0.291" transform="translate(-1061.7 -1170.6)">
<path d="m416.59 971.89c3.05 0.31 5.31 2.69 5.76 5.58l-0.97 11.24-2.17-0.21 0.66-7.78 0.11-1.21h-0.01c-0.25-2.33-1.69-4.23-3.65-4.43s-3.68 1.38-4.32 3.62l-0.1 1.21-0.67 7.78-2.27-0.23 0.96-11.25 0.03 0.01c0.93-2.76 3.58-4.64 6.64-4.33z" nodetypes="cccccccccccccccc" fill="#e9cb53"/>
<path d="m416.33 975.07c1.96 0.2 3.38 2.09 3.63 4.43h0.02l-0.1 1.21-0.68 7.93-7.98-0.81 0.68-7.93 0.1-1.2v-0.01c0.64-2.24 2.37-3.82 4.33-3.62z" nodetypes="cccccccccc" fill="#191f11"/>
<g fill="#e9cb53">
<path d="m422.05 979.52l-2.19-0.22" nodetypes="cc"/>
<path d="m412.06 978.51l-2.38-0.24" nodetypes="cc"/>
<path d="m421.71 983.48l-2.19-0.22" nodetypes="cc"/>
<path d="m411.72 982.47l-2.38-0.24" nodetypes="cc"/>
<path d="m418.69 976.46l2.41-1.97"/>
<path d="m413.71 975.94l-2.04-2.44"/>
</g>
</g>
<g stroke="#010101" stroke-width="0.291" transform="translate(-1061.7 -1170.6)">
<path d="m444.94 976.54c3.04 0.8 5.22 3.54 5.58 6.48l-1.35 11.03-2.16-0.57 0.92-7.62 0.15-1.19h-0.01c-0.17-2.36-1.56-4.48-3.51-5-1.95-0.51-3.72 0.79-4.43 2.92h-0.01l-0.14 1.19-0.92 7.62-2.27-0.59 1.34-11.03h0.02c1.03-2.58 3.74-4.03 6.79-3.24z" nodetypes="cccccccccccccccc" fill="#e9cb53"/>
<path d="m444.58 979.67c1.95 0.51 3.3 2.62 3.48 4.99h0.01l-0.14 1.18-0.94 7.78-7.95-2.08 0.94-7.78 0.14-1.18c0.72-2.13 2.5-3.42 4.46-2.91z" nodetypes="cccccccccc" fill="#191f11"/>
<g fill="#e9cb53">
<path d="m450.15 985.01l-2.19-0.57" nodetypes="cc"/>
<path d="m440.19 982.4l-2.37-0.62" nodetypes="cc"/>
<path d="m449.68 988.9l-2.18-0.57" nodetypes="cc"/>
<path d="m439.72 986.29l-2.37-0.62" nodetypes="cc"/>
<path d="m446.89 981.43l2.47-1.57"/>
<path d="m441.93 980.11l-1.96-2.75"/>
</g>
</g>
<g stroke="#010101" stroke-width="0.291" transform="translate(-1061.7 -1170.6)">
<path d="m349.23 971.89c-3.06 0.31-5.31 2.69-5.77 5.58l0.98 11.24 2.17-0.21-0.67-7.78-0.1-1.21h0.01c0.25-2.33 1.69-4.23 3.65-4.43s3.68 1.38 4.32 3.62l0.1 1.21 0.67 7.78 2.27-0.23-0.96-11.25-0.03 0.01c-0.93-2.76-3.59-4.64-6.64-4.33z" nodetypes="cccccccccccccccc" fill="#e9cb53"/>
<path d="m349.48 975.07c-1.96 0.2-3.37 2.09-3.62 4.43h-0.02l0.1 1.21 0.68 7.93 7.98-0.81-0.68-7.93-0.1-1.2v-0.01c-0.64-2.24-2.37-3.82-4.34-3.62z" nodetypes="cccccccccc" fill="#191f11"/>
<g fill="#e9cb53">
<path d="m343.77 979.52l2.19-0.22" nodetypes="cc"/>
<path d="m353.76 978.51l2.38-0.24" nodetypes="cc"/>
<path d="m344.11 983.48l2.19-0.22" nodetypes="cc"/>
<path d="m354.1 982.47l2.38-0.24" nodetypes="cc"/>
<path d="m347.13 976.46l-2.41-1.97"/>
<path d="m352.11 975.94l2.04-2.44"/>
</g>
</g>
</g>
<g transform="translate(-6.4006 .2511)" stroke="#000" stroke-width="5.3876">
<path d="m-72.687 824.92c3.315-0.01 9.493 0.79 13.729 1.77 9.82 2.29 18.392 2.3 25.721 0.03 5.375-1.67 22.065-10.23 27.744-14.48 2.255-1.68 3.4603-2.1 2.3715-3.42-2.2926-2.76-12.442-8.02-16.878-8.54-3.495-0.42-6.57 3.43-12.959 5.62-4.423 1.51-15.314 4-24.203 5.52-19.105 3.28-24.755 5.52-31.699 12.57-2.567 2.61-4.668 5.02-4.668 5.35 0 0.34 3.334-0.52 7.408-1.9 5.148-1.74 9.247-2.51 13.434-2.52z" sodipodi:nodetypes="cssssssssssc" fill="#fff"/>
<path d="m1.5755 807.29c5.0908-3.01 15.626-20.98 12.884-22.67-1.552-0.96-16.922-3.83-30.417-5.63-7.267-0.97-15.256-1.25-24.028-0.92-17.681 0.68-26.118 6.52-28.889 11.88-4.925 9.53 4.353 12.26 35.062 10.34 14.734-0.93 20.219 0.15 26.65 5.24 4.4766 3.54 5.4058 3.73 8.7375 1.76z" sodipodi:nodetypes="cssssssc" fill="#e20909"/>
<path d="m98.169 795.78c1.971-0.82 4.481-2.34 5.571-3.37 1.85-1.74 1.9-2.06 0.69-4.4-0.72-1.39-1.31-3.6-1.31-4.91 0-3.18-4.929-8.02-9.471-9.3-6.654-1.88-16.083-2.07-31.048-0.63-24.894 2.4-31.78 1.79-35.24-3.15-0.805-1.15-1.46-3.52-1.455-5.26 0.009-3.27 3.003-10.59 6.139-15.01 2.307-3.25 4.283-12.37 5.598-25.84 0.924-9.46 0.821-27.78-0.161-28.67-0.541-0.49-27.584-3.09-47.952-4.6-20.805-1.54-34.256-1.67-43.031-0.4-7.272 1.05-8.807 1.99-7.769 4.75 4.489 11.94 5.59 45.48 2.069 63.06-1.094 5.46-3.002 12.9-4.24 16.54-1.239 3.64-4.075 11.59-4.075 11.93s4.551-4.83 7.884-5.76c12.58-3.53 32.905-3.65 53.85-0.32 4.8298 0.77 22.318 4.4 38.862 8.08 26.684 5.92 34.235 7.44 44.448 8.9 5.394 0.77 17.111-0.16 20.641-1.64z" sodipodi:nodetypes="cssssssssssssssssssssc" fill="#fff"/>
<path d="m109.77 785.22c3.84-10.35 5.94-30 4.38-37.09l-0.78-3.59-9.84 0.26c-24.681 0.65-52.362 2.85-65.822 7.37-9.327 3.13-9.69 6.15-10.777 9.94-2.654 9.25 4.48 14.59 34.032 11.63 16.615-1.66 27.48-2.29 34.746 0.43 6.161 2.3 7.091 12.48 7.091 16.88 0 4.06 5.29-1.28 6.97-5.83z" sodipodi:nodetypes="ccccsssssc" fill="#e20909"/>
<path d="m-92.065 774.87c5.411-2.14 7.398-2.44 16.184-2.43h12.361l3.579-14.28-10.37 1.81c-11.83 2.04-19.491 6.07-25.504 13.41-1.772 2.16-3.041 3.93-2.82 3.93s3.178-1.1 6.57-2.44z" sodipodi:nodetypes="cccccssc" fill="#fff"/>
</g>
<g transform="translate(-78.401 .2511)" stroke="#000" stroke-width="5.3876">
<path d="m777.47 829.57c0-0.39-2.12-2.87-4.71-5.51-7.06-7.17-12.6-9.38-31.53-12.59-8.83-1.5-19.58-3.94-23.9-5.42-8.6-2.96-13.75-6.37-18.87-4.55-3.64 1.3-12.52 6.3-12.52 7.55 0 1.02 15.2 10.42 21.96 13.83 11.8 5.96 21.35 7 35 3.81 12.75-2.97 20.93-2.13 34.35 3.5 0.12 0.05 0.22-0.23 0.22-0.62z" sodipodi:nodetypes="cssssssssc" fill="#fff"/>
<path d="m690.87 805.6c6.79-5.18 12.14-6.24 26.88-5.31 24.73 1.55 35.6-0.02 36.2-5.21 0.35-2.99-1.92-7.51-4.45-8.87-8.27-4.42-29.61-6.5-46.23-4.49-9.43 1.14-28.32 4.34-30.47 5.16-1.79 0.69-1.62 2.15 0.99 8.6 2.37 5.84 4.7 9.06 8.48 11.7 3.07 2.15 3.92 2 8.6-1.58z" fill="#e20909"/>
<path d="m617.19 798.39c3.95-0.71 19.25-3.68 33.67-6.94 14.43-3.25 30.68-6.71 36.43-7.7 22.04-3.76 43.12-3.81 56.28-0.13 6.06 1.7 8.92 5.63 7.28 2.56-1.59-2.97-7.57-26.24-8.87-35.36-2.34-16.29-1.1-41.33 2.65-53.8 0.98-3.25 1-4.25 0.09-5-1.63-1.35-12.96-2.65-23.37-2.68-17.8-0.06-77.45 4.88-78.57 6.59-0.99 1.51-1.09 19.92 0 29.86 1.32 12.11 2.14 19.56 6.81 28.48 4.38 8.38 5.87 11.62 5.17 14.97-1.24 5.9-3.05 4.25-27.95 1.85-15.01-1.45-31.64-1.54-37.92 0.29-4.74 1.38-9.63 6.9-9.64 9.88 0 1.31-1.39 5.37-2.14 6.81-1.24 2.37 1.13 2.23 2.57 3.83 2 2.21 5.5 4.03 9.87 5.14 4.24 1.07 18.14 3.05 27.64 1.35z" sodipodi:nodetypes="cssssssssssssssssssc" fill="#fff"/>
<path d="m578.27 787.66c0-4.4 3.28-14.31 9.44-16.62 7.27-2.72 16.57-3.13 33.19-1.47 24.45 2.45 32.6 4.15 33.76-0.46 1.41-5.63-2.67-14.47-15.16-18.6-13.78-4.54-38.33-8.72-59.25-9.35l-9.62 0.51-0.84 6.01c-1.1 4.09-0.18 18.25 1.64 25.26 2.87 11.11 6.84 21.11 6.84 14.72z" sodipodi:nodetypes="csssscccsc" fill="#e20909"/>
<path d="m780.1 773.82c-4.64-6.28-12.96-11.21-22.25-13.18-11.62-2.46-15.13-2.97-12.62 5.99l2.19 6.33 12.38-0.52c8.7 0 10.82 0.31 15.88 2.32 3.21 1.28 5.97 2.2 6.14 2.06 0.16-0.15-0.61-1.5-1.72-3z" sodipodi:nodetypes="cscccssc" fill="#fff"/>
</g>
<path d="m356.26 755.51c12.1-1.21 32.51-3.58 45.35-5.29 96.98-12.84 125.6-12.35 163.48 1.37 2.61 0.95 4.94 1.72 5.17 1.72 0.24 0-0.19-1.47-0.94-3.28-2.41-5.77-4.11-14.79-5.17-27.47-1.21-14.57 0.05-35.17 3.03-49.61 2.64-12.72 2.68-12.3-1.45-14.37-39.71-1.77-82.47 7.76-123.71 10.73-86.14 5.71-173.57 5.7-261.75-0.01-28.82-1.86-53.16-4.18-90.756-8.62-19.009-2.39-46.516-8.55-59.658 0.04-0.288 0.91 0.623 3.94 0.876 6.94 1.902 22.58 2.807 52.01-2.099 72.95-1.02 4.36-7.842 18.26-6.838 16.9 2.227-3.03 7.431-4.46 8.428-4.99 34.921-8.82 45.556-8.37 81.307-7.46 36.8 1.35 56.15-0.32 104.66 5.55 27.8 3.36 64.89 6.83 80.36 7.52 13.81 0.61 37.89-0.45 59.71-2.62z" sodipodi:nodetypes="cssssssccsccsssccssc" stroke="#000" stroke-width="5.3876" fill="#fff"/>
<g transform="translate(-56.401 -7.7489)">
<path d="m139.15 684.84c6.21 0 11.59 2.36 16.15 7.08 4.55 4.71 6.83 10.6 6.83 17.66 0 7.27-2.3 13.31-6.89 18.11s-10.14 7.2-16.66 7.2c-6.59 0-12.12-2.34-16.6-7.02-4.49-4.69-6.73-10.75-6.73-18.18 0-7.6 2.59-13.8 7.77-18.6 4.49-4.17 9.87-6.25 16.13-6.25z"/>
<path fill="#fff" d="m138.48 687.42c-4.29 0-7.72 1.58-10.31 4.76-3.22 3.95-4.84 9.74-4.84 17.37 0 7.81 1.68 13.82 5.02 18.03 2.56 3.2 5.95 4.8 10.16 4.8 4.5 0 8.21-1.75 11.14-5.26 2.93-3.5 4.39-9.03 4.39-16.59 0-8.18-1.61-14.29-4.83-18.31-2.59-3.2-6.17-4.8-10.73-4.8z"/>
</g>
<path d="m153.38 687.49v-1.31h16.95v1.31h-1.8c-1.89 0-3.33 0.79-4.34 2.36-0.5 0.73-0.75 2.43-0.75 5.09v19.41c0 4.8-0.47 8.53-1.43 11.17-0.95 2.65-2.82 4.92-5.61 6.81-2.79 1.9-6.58 2.85-11.38 2.85-5.22 0-9.19-0.91-11.9-2.72-2.7-1.81-4.62-4.25-5.75-7.31-0.75-2.09-1.13-6.02-1.13-11.79v-18.7c0-2.95-0.4-4.88-1.22-5.79-0.81-0.92-2.12-1.38-3.93-1.38h-1.8v-1.31h20.68v1.31h-1.83c-1.98 0-3.39 0.62-4.24 1.87-0.59 0.85-0.88 2.61-0.88 5.3v20.86c0 1.85 0.17 3.98 0.51 6.38s0.96 4.28 1.85 5.62c0.9 1.34 2.19 2.44 3.87 3.31 1.68 0.88 3.75 1.31 6.19 1.31 3.13 0 5.93-0.68 8.4-2.05 2.47-1.36 4.16-3.11 5.07-5.24 0.9-2.13 1.36-5.73 1.36-10.82v-19.37c0-2.99-0.33-4.86-0.99-5.62-0.92-1.03-2.28-1.55-4.1-1.55h-1.8z"/>
<g transform="translate(-35.843 2.2511)">
<path d="m250.26 717.77h-18.53l-3.25 7.55c-0.8 1.86-1.2 3.25-1.2 4.17 0 0.73 0.35 1.37 1.05 1.92 0.69 0.56 2.19 0.91 4.5 1.08v1.31h-15.08v-1.31c2-0.35 3.3-0.81 3.89-1.38 1.2-1.13 2.53-3.42 3.99-6.88l16.83-39.39h1.24l16.66 39.81c1.34 3.2 2.56 5.28 3.65 6.23 1.1 0.96 2.62 1.49 4.57 1.61v1.31h-18.88v-1.31c1.9-0.09 3.19-0.41 3.86-0.95s1.01-1.2 1.01-1.98c0-1.04-0.47-2.67-1.41-4.91l-2.9-6.88z"/>
<path fill="#fff" d="m249.28 715.16l-8.12-19.34-8.33 19.34h16.45z"/>
</g>
<path d="m243.78 692.18h12.99l29.26 35.9v-27.6c0-2.94-0.33-4.78-0.99-5.51-0.87-0.99-2.25-1.48-4.13-1.48h-1.66v-1.31h16.66v1.31h-1.69c-2.03 0-3.46 0.61-4.31 1.84-0.52 0.75-0.78 2.47-0.78 5.15v40.34h-1.27l-31.55-38.54v29.47c0 2.94 0.32 4.78 0.95 5.51 0.9 0.99 2.27 1.48 4.13 1.48h1.7v1.31h-16.66v-1.31h1.65c2.05 0 3.5-0.61 4.35-1.83 0.51-0.76 0.77-2.48 0.77-5.16v-33.28c-1.39-1.63-2.44-2.7-3.16-3.22-0.71-0.51-1.77-1-3.16-1.44-0.68-0.21-1.71-0.32-3.1-0.32v-1.31z"/>
<g transform="translate(-15.285 6.2511)">
<path d="m354.74 717.77h-18.53l-3.25 7.55c-0.8 1.86-1.2 3.25-1.2 4.17 0 0.73 0.35 1.37 1.05 1.92 0.69 0.56 2.19 0.91 4.5 1.08v1.31h-15.08v-1.31c2-0.35 3.3-0.81 3.89-1.38 1.2-1.13 2.53-3.42 3.99-6.88l16.83-39.39h1.24l16.66 39.81c1.34 3.2 2.56 5.28 3.65 6.23 1.1 0.96 2.62 1.49 4.57 1.61v1.31h-18.88v-1.31c1.9-0.09 3.19-0.41 3.86-0.95s1.01-1.2 1.01-1.98c0-1.04-0.47-2.67-1.41-4.91l-2.9-6.88z"/>
<path fill="#fff" d="m353.75 715.16l-8.11-19.34-8.33 19.34h16.44z"/>
</g>
<path d="m414.3 722.81l1.16 0.25-4.09 12.99h-37.07v-1.31h1.8c2.03 0 3.48-0.66 4.35-1.98 0.49-0.75 0.74-2.49 0.74-5.22v-30.88c0-2.99-0.33-4.86-0.99-5.62-0.92-1.03-2.28-1.55-4.1-1.55h-1.8v-1.31h21.68v1.31c-2.54-0.02-4.33 0.21-5.35 0.71-1.02 0.49-1.72 1.11-2.1 1.87-0.38 0.75-0.57 2.55-0.57 5.4v30.07c0 1.95 0.19 3.29 0.57 4.02 0.28 0.5 0.72 0.86 1.3 1.1 0.59 0.23 2.43 0.35 5.51 0.35h3.5c3.67 0 6.24-0.27 7.73-0.81 1.48-0.54 2.83-1.5 4.05-2.88 1.23-1.37 2.45-3.54 3.68-6.51z"/>
<g transform="translate(13.32 -3.7489)">
<path d="m451.18 717.77h-18.54l-3.24 7.55c-0.8 1.86-1.2 3.25-1.2 4.17 0 0.73 0.34 1.37 1.04 1.92 0.69 0.56 2.19 0.91 4.5 1.08v1.31h-15.07v-1.31c2-0.35 3.29-0.81 3.88-1.38 1.2-1.13 2.53-3.42 3.99-6.88l16.83-39.39h1.24l16.66 39.81c1.34 3.2 2.56 5.28 3.65 6.23 1.1 0.96 2.62 1.49 4.57 1.61v1.31h-18.88v-1.31c1.91-0.09 3.19-0.41 3.87-0.95 0.67-0.54 1-1.2 1-1.98 0-1.04-0.47-2.67-1.41-4.91l-2.89-6.88z"/>
<path fill="#fff" d="m450.19 715.16l-8.12-19.34-8.33 19.34h16.45z"/>
</g>
<g transform="translate(23.599 -7.7489)">
<path d="m496.78 684.84c6.21 0 11.59 2.36 16.15 7.08 4.55 4.71 6.83 10.6 6.83 17.66 0 7.27-2.3 13.31-6.89 18.11-4.58 4.8-10.14 7.2-16.66 7.2-6.58 0-12.12-2.34-16.6-7.02-4.49-4.69-6.73-10.75-6.73-18.18 0-7.6 2.59-13.8 7.77-18.6 4.49-4.17 9.87-6.25 16.13-6.25z"/>
<path fill="#fff" d="m496.11 687.42c-4.28 0-7.72 1.58-10.31 4.76-3.22 3.95-4.83 9.74-4.83 17.37 0 7.81 1.67 13.82 5.01 18.03 2.56 3.2 5.95 4.8 10.16 4.8 4.5 0 8.21-1.75 11.14-5.26 2.93-3.5 4.39-9.03 4.39-16.59 0-8.18-1.61-14.29-4.83-18.31-2.59-3.2-6.17-4.8-10.73-4.8z"/>
</g>
<g transform="matrix(4.1892 0 0 4.1892 417.77 -500.33)" stroke="#000" stroke-width="1px">
<g fill-rule="evenodd" fill="#fff">
<path d="m-149.98 71.374c-0.17-12.663 14.8-21.05 14.8-22.202-1.48-9.026-22.86 12.499-24.01 15.295-1.33 4.08 1.64 9.045 1.64 9.045" sodipodi:nodetypes="cccc"/>
<path d="m-145.87 54.764c-4.44 3.618-8.06 15.459-8.06 15.459" sodipodi:nodetypes="cc"/>
</g>
<g fill-rule="evenodd" fill="#fff">
<path d="m-156.89 71.21c-1.81-12.17 7.4-22.695 6.74-23.024-5.66-2.83-12.99 12.169-15.13 17.103l2.8 16.775" sodipodi:nodetypes="cccc"/>
<path d="m-159.85 61.178c-2.3 5.92 0.16 13.978 0.16 13.978" sodipodi:nodetypes="cc"/>
</g>
<g fill-rule="evenodd" fill="#fff">
<path d="m-161.66 77.623c-2.96-2.96-0.16-24.175-0.99-24.175-6.25 0-9.54 20.393-8.22 24.669 4.27 13.869 7.73 16.281 7.73 16.281" sodipodi:nodetypes="cccc"/>
<path d="m-167.25 70.387c-0.5 6.25 4.44 13.979 4.44 13.979" sodipodi:nodetypes="cc"/>
</g>
<g fill-rule="evenodd" fill="#fff">
<path d="m-163.14 93.247c-7.89-7.401-9.26-27.258-10.36-29.274-8.45 1.645-4.11 22.695-4.11 22.695 0.16 1.645 11.18 14.802 11.18 14.802" sodipodi:nodetypes="cccc"/>
<path d="m-174.49 77.13c-2.79 5.591 9.87 22.202 9.87 22.202" sodipodi:nodetypes="cc"/>
</g>
<path d="m-153.27 140.28s-2.14-28.61 1.48-32.89l-10.69-15.788-13.82 27.468 12.5 22.86 10.53-1.65z" fill-rule="evenodd" sodipodi:nodetypes="cccccc" fill="#fff"/>
<g fill="none">
<path d="m-162.32 111.17c-1.31 3.78 2.3 7.57 2.3 7.57" sodipodi:nodetypes="cc"/>
<path d="m-165.11 113.31c-1.32 3.78 4.77 10.03 4.77 10.03" sodipodi:nodetypes="cc"/>
<path d="m-166.27 119.72c-1.31 3.79 5.43 6.91 5.43 6.91" sodipodi:nodetypes="cc"/>
<path d="m-163.31 129.26c0.33 2.8 5.27 2.14 5.27 2.14" sodipodi:nodetypes="cc"/>
</g>
</g>
<path d="m-266.47 348.56c19.63 25.15 29.23 81.84 29.23 81.84l5.84-18.51c2.76 1.72 4.43 16.08 8.28 16.08 1.73 0 1.42-14.8 5.36-15.59 1.73-0.35 0.58 20.46 4.39 20.46 3.1 0 3.35-14.82 4.38-14.13 2.43 1.62 2.92 19.67 4.87 10.23-2.75-96.79 186.99-176 183.17-284.49 4.825-112.3-115.94-154.92-189.99-249.42 0 0-20.8-61.98 17.54-34.59 31-4.82 28.26-35.56 28.26-35.56h17.05c7.57-66.14-58.95-50.67-58.95-50.67-61.66 0-67.23 63.82-67.23 63.82-15.84 83.015 91.73 181.88 91.73 181.88 15.85 34.45-0.14 93.85-0.14 93.85l-149.71 141.04" fill-rule="evenodd" sodipodi:nodetypes="cccccccccccccccccc" stroke="#000" stroke-width="4.1892px" fill="#fff"/>
<g transform="matrix(4.1892 0 0 4.1892 1023.9 -363.78)" stroke="#000" stroke-width="1px">
<path d="m-323.36 147.4c-1.97 2.38-12.11 14.4-14.58 18.59-3.49 3.85 3.3 2.77 3.3 2.77s-10.04 10.61-14.92 13.72c1.5 4.49 11.13-2.02 11.13-2.02s-9.37 5.76-8.88 6.91c2.86 2.18 11.18-3.95 11.18-3.95s-1.98 2.8-0.33 3.79c2.8 0 9.21-5.1 9.21-5.1s-1.31 2.96 0.17 3.45c2.67-1.68 19.4-15.62 19.4-15.62" fill-rule="evenodd" sodipodi:nodetypes="ccccccccccc" fill="#fff"/>
<g fill="none">
<path d="m-333.58 168.38c-1.07 1.72 3.87 2.18 5.18 0.16 0 2.8 3.81 2.9 5.18 1.56 0.58 1.81 3.24 1.35 4.94-0.33 0.28 0.78 2.7 2.46 3.59 2.14 1.74-0.63 8.55-10.27 10.03-11.09" sodipodi:nodetypes="ccccsc"/>
<path d="m-340.5 181.8s7.82-7.62 12.94-11.69" sodipodi:nodetypes="cc"/>
<path d="m-337.83 184.59s10.29-9.51 15.41-13.58" sodipodi:nodetypes="cc"/>
<path d="m-327.94 182.73s6.83-7.04 11.95-11.11" sodipodi:nodetypes="cc"/>
<path d="m-334.75 168.56s7.65-9.11 12.76-13.18" sodipodi:nodetypes="cc"/>
<path d="m-328.78 168.8s6.42-7.37 13.76-12.59" sodipodi:nodetypes="cc"/>
<path d="m-322.93 169.9s3.03-5.8 12.26-12.92" sodipodi:nodetypes="cc"/>
<path d="m-318.24 169.82s3.51-6.09 9.86-10.65" sodipodi:nodetypes="cc"/>
<path d="m-318.64 170.63c-5.23 5.35-9.42 8.96-9.42 8.96" sodipodi:nodetypes="cc"/>
<path d="m-326.2 171.1c-5.23 5.35-10.58 9.65-10.58 9.65" sodipodi:nodetypes="cc"/>
<path d="m-331.32 169.59c-5.23 5.35-6.62 5.81-6.62 5.81" sodipodi:nodetypes="cc"/>
<path d="m-326.18 151.28c-1.07 1.73 1.35 5.91 6.5 3.42-1.62 4.31 0.79 3.14 4.14 1.56-0.94 3.67 3.24 1.35 4.93-0.32 0.29 0.78 0.38 2.68 1.97 2.83 1.84 0.16 3.78-5.15 5.26-5.97" sodipodi:nodetypes="ccccsc"/>
<path d="m-319.84 154.78l9.34-8.57" sodipodi:nodetypes="cc"/>
<path d="m-324.82 155.23l4.55-6.92" sodipodi:nodetypes="cc"/>
<path d="m-315.64 156.21l5.61-6.16" sodipodi:nodetypes="cc"/>
<path d="m-310.78 156.08l2.96-3.24" sodipodi:nodetypes="cc"/>
<path d="m-304.22 145.05c-7.44 9.3 3.26 1.86 3.26 1.86" sodipodi:nodetypes="cc"/>
<path d="m-313.81 149.48s-4.36 0.8 0.64-5.24" sodipodi:nodetypes="cc"/>
<path d="m-316.9 140.28s-5 6.63-1.62 5.58" sodipodi:nodetypes="cc"/>
<path d="m-305.38 139.82l-1.4 2.21"/>
<path d="m-319.8 157.03c-1.17 1.28-3.84 3.25-3.84 3.25" sodipodi:nodetypes="cc"/>
<path d="m-314.8 158.31c-2.56 1.97-4.77 4.07-4.77 4.07" sodipodi:nodetypes="cc"/>
<path d="m-306.66 160.28c-5.24 5.35-4.07 3.96-4.07 3.96" sodipodi:nodetypes="cc"/>
<path d="m-309.45 158.07c-2.56 1.98-4.07 3.49-4.07 3.49" sodipodi:nodetypes="cc"/>
</g>
</g>
<g transform="matrix(4.1892 0 0 4.1892 907.57 -153.8)" stroke="#000" stroke-width="1px">
<g fill-rule="evenodd" transform="translate(-284.01 -40.618)" fill="#fff">
<path d="m-5.8144 113.57c-4.0701 7.91-9.2646 20.95-3.6049 26.75 1.8606 0.58 6.8249-18.58 10.698-20.35 0.5819-1.98 3.1402-10.7 3.1402-10.7" sodipodi:nodetypes="cccc"/>
<path d="m0.49337 112.65c2.134 0-4.2712 4.28-6.5783 10.2" sodipodi:nodetypes="cc"/>
</g>
<g transform="translate(-116.92 -82.719)">
<g fill-rule="evenodd" fill="#fff">
<path d="m-164.88 156.25c-3.14 14.77-0.23 17.91 1.05 18.03 1.86-0.93 5.12-14.42 8.84-15.24" sodipodi:nodetypes="ccc"/>
<g transform="translate(-167.09 42.101)">
<path d="m-13.722 45.775c-13.024-12.21-14.769-26.165-16.164-26.281-6.146-0.512 2.093 24.769 2.093 24.769l15.583 12.443" sodipodi:nodetypes="cccc"/>
<path d="m-15.788 48.844s-6.249-4.77-9.538-11.184" sodipodi:nodetypes="cc"/>
</g>
<g transform="translate(-167.09 42.101)">
<path d="m-13.722 54.613c-19.304-10.699-21.63-28.142-23.258-27.56-5.943 2.347 1.628 18.373 1.628 18.373 1.047 4.419 16.397 18.257 16.397 18.257" sodipodi:nodetypes="cccc"/>
<path d="m-17.432 59.698s-8.223-6.085-14.801-16.117" sodipodi:nodetypes="cc"/>
</g>
<g transform="translate(-167.09 42.101)">
<path d="m-19.653 62.404c-23.141-12.792-23.606-27.444-26.165-26.514-5.495 14.896 14.653 28.956 28.84 39.538" sodipodi:nodetypes="ccc"/>
<path d="m-18.419 68.743s-10.525-3.783-17.104-13.815" sodipodi:nodetypes="cc"/>
</g>
<g transform="translate(-167.09 42.101)">
<path d="m-17.443 75.08c-20.118-6.396-29.831-25.145-32.328-24.188-5.815 2.209 6.396 17.908 6.396 17.908 9.884 9.187 26.164 15.931 26.164 15.931" sodipodi:nodetypes="cccc"/>
<path d="m-16.939 77.952s-13.979-2.631-21.544-10.36" sodipodi:nodetypes="cc"/>
</g>
<g transform="translate(-167.09 42.101)">
<path d="m-17.327 83.569c-32.212-10.35-33.491-20.467-36.514-19.653-5.737 4.362 12.675 18.839 12.675 18.839 2.326 3.488 25.816 9.884 25.816 9.884" sodipodi:nodetypes="cccc"/>
<path d="m-14.801 85.188s-16.281 0.329-23.188-5.262" sodipodi:nodetypes="cc"/>
</g>
<g transform="translate(-167.09 42.101)">
<path d="m-15.815 92.523c-30.817-6.512-35.352-15.583-37.794-15.001-3.851 5.236 14.769 16.629 14.769 16.629 11.512 6.629 27.095 7.559 27.095 7.559" sodipodi:nodetypes="cccc"/>
<path d="m-12.334 96.207s-10.854 0.329-17.761-3.454" sodipodi:nodetypes="cc"/>
</g>
<g transform="translate(-167.09 42.101)">
<path d="m-16.745 112.76c-8.606 7.9-13.49 22.67-9.071 23.6 2.442 0.12 9.071-17.21 18.722-19.65l6.1637-5.35" sodipodi:nodetypes="cccc"/>
<path d="m-4.4403 110.51c2.134 0-11.179 4.12-13.486 10.04" sodipodi:nodetypes="cc"/>
</g>
<g transform="translate(-167.09 42.101)">
<path d="m-21.281 105.55c-12.559 9.42-16.578 20.56-14.768 21.16 2.791 0.93 13.958-10.68 18.024-11.39 1.977-0.35 13.722-6.63 13.722-6.63" sodipodi:nodetypes="cccc"/>
<path d="m-13.65 106.73c2.134 0-8.711 3.78-11.018 9.71" sodipodi:nodetypes="cc"/>
</g>
<g transform="translate(-167.09 42.101)">
<path d="m-12.327 101.48c-13.722 1.62-37.793-13.027-38.258-11.748-5.974 6.999 19.885 18.718 25.583 18.138l20.234 1.28" sodipodi:nodetypes="cccc"/>
<path d="m-6.9072 105.42s-16.61 0.16-24.175-3.29" sodipodi:nodetypes="cc"/>
</g>
<path d="m-136.33 145.21s0-7.72-3.79-8.05c0 0-8.55-0.66-18.09 0.98-21.81-13.02-4.72-29.75-7.73-35.52-0.98-8.88-15.62-22.201-15.62-22.201-1.48 1.316 0.3 9.605-0.82 9.045-2.96-1.48-1.14 5.036-1.98 6.743-2.79-0.987-2.65 3.245-1.97 6.413-2.3 0.33-1.48 4.28-0.99 7.07-4.51-2.48 1.37 7.04-0.16 6.75-6.91-0.99 0.99 6.57 0.99 6.57-3.95 1.48-2.11 4.42 0.65 5.59-3.45 2.47 0.09 6.41 1.32 6.58-3.12 1.65 0.35 4.02 2.14 5.76-2.8 2.63 2.3 3.75 4.77 4.77-1.98 3.12 0.35 3.8 2.46 4.77-1.31 2.46 1.93 2.28 3.95 1.97-2.47 2.63 1.65 3.78 3.29 3.45 0 0 0.88 3.42 3.78 2.14-0.82 2.63 5.1 2.3 5.1 2.3 0 2.64 8.72 1.65 8.72 1.65" sodipodi:nodetypes="ccccccccccccccccccccc"/>
</g>
<path d="m-170.34 98.574s0.42 3.186 1.97 7.556c-2.44 2.45-2.9 6.17-2.9 6.17" sodipodi:nodetypes="ccc" fill="none"/>
<path d="m-178.77 100.55s1.81 4.77 3.95 4.77" sodipodi:nodetypes="cc" fill="none"/>
<g transform="translate(-167.09 42.101)" fill="none">
<path d="m-14.966 47.199s2.303 8.058 4.441 8.058" sodipodi:nodetypes="cc"/>
<path d="m-16.939 53.448s0.658 5.263 2.796 5.263" sodipodi:nodetypes="cc"/>
<path d="m-19.241 60.191s1.809 4.769 3.947 4.769" sodipodi:nodetypes="cc"/>
<path d="m-20.393 67.098s1.974 4.276 4.112 4.276" sodipodi:nodetypes="cc"/>
<path d="m-20.228 74.005s3.289 5.263 5.427 5.263" sodipodi:nodetypes="cc"/>
<path d="m-19.57 81.077s3.453 2.96 5.591 2.96" sodipodi:nodetypes="cc"/>
<path d="m-18.748 86.668s3.454 2.961 5.592 2.961" sodipodi:nodetypes="cc"/>
<path d="m-17.926 92.753s5.098 2.467 7.236 2.467" sodipodi:nodetypes="cc"/>
<path d="m-15.623 98.509s5.7556 0.494 7.8936 0.494" sodipodi:nodetypes="cc"/>
<path d="m-10.93 103.23s4.8252-0.2 6.9631-0.2" sodipodi:nodetypes="cc"/>
<path d="m-8.1396 107.88s4.128-1.13 6.731-0.2" sodipodi:nodetypes="cc"/>
<path d="m-4.3021 110.56s4.128-1.14 6.731-0.21" sodipodi:nodetypes="cc"/>
<path d="m-1.2786 113.7s4.0117-0.56 6.8473-1.72" sodipodi:nodetypes="cc"/>
<path d="m2.7915 115.79s1.6859 0.49 4.5215-0.67" sodipodi:nodetypes="cc"/>
<path d="m7.6756 117.88s1.4533-0.09 4.2894-1.25" sodipodi:nodetypes="cc"/>
</g>
<g transform="translate(-167.09 42.101)" fill="none">
<path d="m-11.683 58.447s1.8094 4.769 3.9473 4.769" sodipodi:nodetypes="cc"/>
<path d="m-12.729 64.377s1.809 4.77 3.9467 4.77" sodipodi:nodetypes="cc"/>
<path d="m-14.706 69.378s2.274 3.141 4.412 3.141" sodipodi:nodetypes="cc"/>
<path d="m-13.892 75.657s2.274 3.141 4.412 3.141" sodipodi:nodetypes="cc"/>
<path d="m-12.264 82.286s2.5067 0.583 4.6446 0.583" sodipodi:nodetypes="cc"/>
<path d="m-10.752 86.937s0.53 0.118 2.6674 0.118" sodipodi:nodetypes="cc"/>
<path d="m-8.194 54.144s-0.2842 2.676 1.8538 2.676" sodipodi:nodetypes="cc"/>
<path d="m-5.7017 96.794s2.6731-0.311 2.2031-2.397" sodipodi:nodetypes="cc"/>
<path d="m-9.6554 93.072s4.6499-1.357 4.1799-3.443" sodipodi:nodetypes="cc"/>
<path d="m0.11275 102.14s0.81244-5.425 0.34241-7.51" sodipodi:nodetypes="cc"/>
<path d="m6.5086 106.45s-0.8156-7.177-2.4485-8.099" sodipodi:nodetypes="cc"/>
<path d="m13.602 108.19c-1.744-6.05-4.0715-8.8-5.7044-9.374" sodipodi:nodetypes="cc"/>
<path d="m20.463 107.84c-1.744-6.05-6.397-8.334-8.03-8.908" sodipodi:nodetypes="cc"/>
<path d="m28.603 108.07c-1.744-6.04-6.397-8.331-8.03-8.905" sodipodi:nodetypes="cc"/>
<path d="m22.909 116.13c-6.28 2.33-9.187 8.02-9.187 8.02" sodipodi:nodetypes="cc"/>
</g>
</g>
</g>
<path d="m-164.34-174.82c-14.13-26.79-28.74-23.87-28.74-23.87-7.31 0-9.74 4.87-18.03 4.87-10.23 0-7.79-10.72-7.79-10.72" sodipodi:nodetypes="cccc" stroke="#000" stroke-width="4.1892px" fill="none"/>
<path d="m-187.24-198.2c-2.92 12.66-12.22 15.12-12.22 15.12s2.01 12.09 9.79 12.64c14.27 2.56 18.94-10.28 12.18-21.43-2.44-2.92-9.75-6.33-9.75-6.33z" fill-rule="evenodd" sodipodi:nodetypes="ccccc"/>
<path sodipodi:rx="3.6591513" sodipodi:ry="1.438992" sodipodi:type="arc" d="m-71.703 51.269a3.6592 1.439 0 1 1 -7.318 0 3.6592 1.439 0 1 1 7.318 0z" transform="matrix(1.674 -.55980 .57758 1.97 -87.961 -324.72)" sodipodi:cy="51.26923" sodipodi:cx="-75.362068" fill="#fff"/>
<g transform="matrix(4.1892 0 0 4.1892 149.74 -385.28)">
<g stroke="#000" stroke-width="1px" fill="none">
<path d="m-88.642 54.106c-1.644 0-2.138 0.987-2.138 0.987"/>
<path d="m-94.069 63.809c-0.698 1.977 1.5 4.693 1.151 4.111" sodipodi:nodetypes="cc"/>
<path d="m-93.961 47.868c-1.628 0-1.744 3.14-1.744 3.14" sodipodi:nodetypes="cc"/>
<path d="m-85.123 75.08l2.326 3.023"/>
<path d="m-83.96 83.917l2.442 2.791"/>
<path d="m-73.727 93.337l2.908 3.14"/>
</g>
<g fill-rule="evenodd">
<path d="m-58.768 104.42s1.382 3.82 2.368 4.15c0 0 1.121 0.38 1.861-0.12 0.674-0.44 0-1.39 0-1.39-0.905-1.32-4.229-2.64-4.229-2.64z" sodipodi:nodetypes="ccccc"/>
<path d="m-64.653 106.34s-0.227 4.05 0.551 4.74c0 0 0.883 0.79 1.757 0.62 0.797-0.14 0.548-1.28 0.548-1.28-0.316-1.56-2.856-4.08-2.856-4.08z" sodipodi:nodetypes="ccccc"/>
<path d="m-60.624 120.65s-0.227 4.05 0.552 4.74c0 0 0.882 0.79 1.757 0.62 0.796-0.15 0.547-1.28 0.547-1.28-0.316-1.57-2.856-4.08-2.856-4.08z" sodipodi:nodetypes="ccccc"/>
<path d="m-52.215 117.92s2.327 2.06 2.467 3.04c0.082 0.57-1.233 3.62-1.233 3.62-0.576 0-0.083-3.95-0.083-3.95s-1.809-2.3-1.151-2.71z" sodipodi:nodetypes="ccccc" stroke="#000" stroke-width="1px"/>
<path d="m-72.658 136.6c-0.74 0-1.393 2.23-0.907 3.15 0 0 0.55 1.05 1.426 1.2 0.797 0.14 0.964-1.01 0.964-1.01 0.255-1.57-0.001-3.34-1.483-3.34z" sodipodi:nodetypes="ccccc"/>
<path d="m-65.422 144.74s-1.639 3.71-1.153 4.63c0 0 0.549 1.05 1.425 1.2 0.797 0.14 0.964-1.01 0.964-1.01 0.255-1.57-1.236-4.82-1.236-4.82z" sodipodi:nodetypes="ccccc"/>
<path d="m-70.198 154.33c-2.436 0.8-2.947 3.69-2.767 4.71 0 0 0.202 1.17 0.988 1.59 0.716 0.37 1.227-0.67 1.227-0.67 0.727-1.42 2.279-4.31 0.552-5.63z" sodipodi:nodetypes="ccccc"/>
<g stroke="#000" stroke-width="1px">
<path d="m-77.462 165.19s0.562 3.05 0.068 3.91c-0.29 0.51-1.721 1.35-1.721 1.35-0.453-0.35 0.888-2.42 0.888-2.42s-0.006-2.92 0.765-2.84z" sodipodi:nodetypes="ccccc"/>
<path d="m-88.316 167.32s0.973 3.97 0.479 4.83c-0.29 0.5-1.227 0.11-1.227 0.11-0.454-0.35-0.018-2.09-0.018-2.09s-0.005-2.93 0.766-2.85z" sodipodi:nodetypes="ccccc"/>
<path d="m-79.106 152.77s0.397 2.65-0.097 3.51c-0.29 0.5-1.228 0.11-1.228 0.11-0.453-0.35-0.017-2.09-0.017-2.09s0.57-1.61 1.342-1.53z" sodipodi:nodetypes="ccccc"/>
</g>
<path d="m-83.352 139.99c-1.643 1.11-1.648 2.07-1.659 3.11 0 0-0.015 1.18 0.682 1.74 0.634 0.5 2.808-0.43 2.808-0.43 0.975-1.27-1.749-1.3-1.831-4.42z" sodipodi:nodetypes="ccccc"/>
<path d="m-65.755 124.12c-1.643 1.1-1.648 0.92-1.659 3.11 0 0 0.56 1.76 1.257 2.31 0.634 0.51 1.328-1.08 1.328-1.08 0.975-1.27 0.471-3.93-0.926-4.34z" sodipodi:nodetypes="ccccc"/>
<path d="m-53.664 132.9c-0.74 0-1.392 2.23-0.906 3.15 0 0 0.549 1.05 1.425 1.2 0.798 0.14 0.964-1.01 0.964-1.01 0.256-1.57 0-3.34-1.483-3.34z" sodipodi:nodetypes="ccccc"/>
<path d="m-58.762 139.23c-1.057 3.42-2.297 4.45-1.811 5.37 0 0 1.208 0.31 2.083 0.46 0.798 0.14 0.965-1.01 0.965-1.01 0.255-1.57-0.99-1.12-1.237-4.82z" sodipodi:nodetypes="ccccc"/>
<path d="m-87.543 179.04c-0.74 0-1.393 2.24-0.907 3.16 0 0 0.55 1.04 1.426 1.2 0.797 0.14 0.964-1.01 0.964-1.01 0.255-1.58-0.001-3.35-1.483-3.35z" sodipodi:nodetypes="ccccc"/>
</g>
</g>
<g transform="matrix(-4.1892 0 0 4.1892 180.61 -500.33)" stroke="#000" stroke-width="1px">
<g fill-rule="evenodd" fill="#fff">
<path d="m-149.98 71.374c-0.17-12.663 14.8-21.05 14.8-22.202-1.48-9.026-22.86 12.499-24.01 15.295-1.33 4.08 1.64 9.045 1.64 9.045" sodipodi:nodetypes="cccc"/>
<path d="m-145.87 54.764c-4.44 3.618-8.06 15.459-8.06 15.459" sodipodi:nodetypes="cc"/>
</g>
<g fill-rule="evenodd" fill="#fff">
<path d="m-156.89 71.21c-1.81-12.17 7.4-22.695 6.74-23.024-5.66-2.83-12.99 12.169-15.13 17.103l2.8 16.775" sodipodi:nodetypes="cccc"/>
<path d="m-159.85 61.178c-2.3 5.92 0.16 13.978 0.16 13.978" sodipodi:nodetypes="cc"/>
</g>
<g fill-rule="evenodd" fill="#fff">
<path d="m-161.66 77.623c-2.96-2.96-0.16-24.175-0.99-24.175-6.25 0-9.54 20.393-8.22 24.669 4.27 13.869 7.73 16.281 7.73 16.281" sodipodi:nodetypes="cccc"/>
<path d="m-167.25 70.387c-0.5 6.25 4.44 13.979 4.44 13.979" sodipodi:nodetypes="cc"/>
</g>
<g fill-rule="evenodd" fill="#fff">
<path d="m-163.14 93.247c-7.89-7.401-9.26-27.258-10.36-29.274-8.45 1.645-4.11 22.695-4.11 22.695 0.16 1.645 11.18 14.802 11.18 14.802" sodipodi:nodetypes="cccc"/>
<path d="m-174.49 77.13c-2.79 5.591 9.87 22.202 9.87 22.202" sodipodi:nodetypes="cc"/>
</g>
<path d="m-153.27 140.28s-2.14-28.61 1.48-32.89l-10.69-15.788-13.82 27.468 12.5 22.86 10.53-1.65z" fill-rule="evenodd" sodipodi:nodetypes="cccccc" fill="#fff"/>
<g fill="none">
<path d="m-162.32 111.17c-1.31 3.78 2.3 7.57 2.3 7.57" sodipodi:nodetypes="cc"/>
<path d="m-165.11 113.31c-1.32 3.78 4.77 10.03 4.77 10.03" sodipodi:nodetypes="cc"/>
<path d="m-166.27 119.72c-1.31 3.79 5.43 6.91 5.43 6.91" sodipodi:nodetypes="cc"/>
<path d="m-163.31 129.26c0.33 2.8 5.27 2.14 5.27 2.14" sodipodi:nodetypes="cc"/>
</g>
</g>
<path d="m864.85 348.56c-19.64 25.15-29.23 81.84-29.23 81.84l-5.85-18.51c-2.75 1.72-4.43 16.08-8.28 16.08-1.72 0-1.42-14.8-5.36-15.59-1.72-0.35-0.57 20.46-4.38 20.46-3.1 0-3.35-14.82-4.38-14.13-2.44 1.62-2.92 19.67-4.88 10.23 2.76-96.79-186.98-176-183.16-284.49-4.83-112.3 115.94-154.92 189.98-249.42 0 0 20.81-61.98-17.53-34.59-31-4.82-28.26-35.56-28.26-35.56h-17.05c-7.58-66.14 58.95-50.67 58.95-50.67 61.66 0 67.22 63.82 67.22 63.82 15.85 83.015-91.72 181.88-91.72 181.88-15.85 34.45 0.14 93.85 0.14 93.85l149.71 141.04" fill-rule="evenodd" sodipodi:nodetypes="cccccccccccccccccc" stroke="#000" stroke-width="4.1892px" fill="#fff"/>
<g transform="matrix(-4.1892 0 0 4.1892 -425.55 -363.78)" stroke="#000" stroke-width="1px">
<path d="m-323.36 147.4c-1.97 2.38-12.11 14.4-14.58 18.59-3.49 3.85 3.3 2.77 3.3 2.77s-10.04 10.61-14.92 13.72c1.5 4.49 11.13-2.02 11.13-2.02s-9.37 5.76-8.88 6.91c2.86 2.18 11.18-3.95 11.18-3.95s-1.98 2.8-0.33 3.79c2.8 0 9.21-5.1 9.21-5.1s-1.31 2.96 0.17 3.45c2.67-1.68 19.4-15.62 19.4-15.62" fill-rule="evenodd" sodipodi:nodetypes="ccccccccccc" fill="#fff"/>
<g fill="none">
<path d="m-333.58 168.38c-1.07 1.72 3.87 2.18 5.18 0.16 0 2.8 3.81 2.9 5.18 1.56 0.58 1.81 3.24 1.35 4.94-0.33 0.28 0.78 2.7 2.46 3.59 2.14 1.74-0.63 8.55-10.27 10.03-11.09" sodipodi:nodetypes="ccccsc"/>
<path d="m-340.5 181.8s7.82-7.62 12.94-11.69" sodipodi:nodetypes="cc"/>
<path d="m-337.83 184.59s10.29-9.51 15.41-13.58" sodipodi:nodetypes="cc"/>
<path d="m-327.94 182.73s6.83-7.04 11.95-11.11" sodipodi:nodetypes="cc"/>
<path d="m-334.75 168.56s7.65-9.11 12.76-13.18" sodipodi:nodetypes="cc"/>
<path d="m-328.78 168.8s6.42-7.37 13.76-12.59" sodipodi:nodetypes="cc"/>
<path d="m-322.93 169.9s3.03-5.8 12.26-12.92" sodipodi:nodetypes="cc"/>
<path d="m-318.24 169.82s3.51-6.09 9.86-10.65" sodipodi:nodetypes="cc"/>
<path d="m-318.64 170.63c-5.23 5.35-9.42 8.96-9.42 8.96" sodipodi:nodetypes="cc"/>
<path d="m-326.2 171.1c-5.23 5.35-10.58 9.65-10.58 9.65" sodipodi:nodetypes="cc"/>
<path d="m-331.32 169.59c-5.23 5.35-6.62 5.81-6.62 5.81" sodipodi:nodetypes="cc"/>
<path d="m-326.18 151.28c-1.07 1.73 1.35 5.91 6.5 3.42-1.62 4.31 0.79 3.14 4.14 1.56-0.94 3.67 3.24 1.35 4.93-0.32 0.29 0.78 0.38 2.68 1.97 2.83 1.84 0.16 3.78-5.15 5.26-5.97" sodipodi:nodetypes="ccccsc"/>
<path d="m-319.84 154.78l9.34-8.57" sodipodi:nodetypes="cc"/>
<path d="m-324.82 155.23l4.55-6.92" sodipodi:nodetypes="cc"/>
<path d="m-315.64 156.21l5.61-6.16" sodipodi:nodetypes="cc"/>
<path d="m-310.78 156.08l2.96-3.24" sodipodi:nodetypes="cc"/>
<path d="m-304.22 145.05c-7.44 9.3 3.26 1.86 3.26 1.86" sodipodi:nodetypes="cc"/>
<path d="m-313.81 149.48s-4.36 0.8 0.64-5.24" sodipodi:nodetypes="cc"/>
<path d="m-316.9 140.28s-5 6.63-1.62 5.58" sodipodi:nodetypes="cc"/>
<path d="m-305.38 139.82l-1.4 2.21"/>
<path d="m-319.8 157.03c-1.17 1.28-3.84 3.25-3.84 3.25" sodipodi:nodetypes="cc"/>
<path d="m-314.8 158.31c-2.56 1.97-4.77 4.07-4.77 4.07" sodipodi:nodetypes="cc"/>
<path d="m-306.66 160.28c-5.24 5.35-4.07 3.96-4.07 3.96" sodipodi:nodetypes="cc"/>
<path d="m-309.45 158.07c-2.56 1.98-4.07 3.49-4.07 3.49" sodipodi:nodetypes="cc"/>
</g>
</g>
<g transform="matrix(-4.1892 0 0 4.1892 -309.19 -153.8)" stroke="#000" stroke-width="1px">
<g fill-rule="evenodd" transform="translate(-284.01 -40.618)" fill="#fff">
<path d="m-5.8144 113.57c-4.0701 7.91-9.2646 20.95-3.6049 26.75 1.8606 0.58 6.8249-18.58 10.698-20.35 0.5819-1.98 3.1402-10.7 3.1402-10.7" sodipodi:nodetypes="cccc"/>
<path d="m0.49337 112.65c2.134 0-4.2712 4.28-6.5783 10.2" sodipodi:nodetypes="cc"/>
</g>
<g transform="translate(-116.92 -82.719)">
<g fill-rule="evenodd" fill="#fff">
<path d="m-164.88 156.25c-3.14 14.77-0.23 17.91 1.05 18.03 1.86-0.93 5.12-14.42 8.84-15.24" sodipodi:nodetypes="ccc"/>
<g transform="translate(-167.09 42.101)">
<path d="m-13.722 45.775c-13.024-12.21-14.769-26.165-16.164-26.281-6.146-0.512 2.093 24.769 2.093 24.769l15.583 12.443" sodipodi:nodetypes="cccc"/>
<path d="m-15.788 48.844s-6.249-4.77-9.538-11.184" sodipodi:nodetypes="cc"/>
</g>
<g transform="translate(-167.09 42.101)">
<path d="m-13.722 54.613c-19.304-10.699-21.63-28.142-23.258-27.56-5.943 2.347 1.628 18.373 1.628 18.373 1.047 4.419 16.397 18.257 16.397 18.257" sodipodi:nodetypes="cccc"/>
<path d="m-17.432 59.698s-8.223-6.085-14.801-16.117" sodipodi:nodetypes="cc"/>
</g>
<g transform="translate(-167.09 42.101)">
<path d="m-19.653 62.404c-23.141-12.792-23.606-27.444-26.165-26.514-5.495 14.896 14.653 28.956 28.84 39.538" sodipodi:nodetypes="ccc"/>
<path d="m-18.419 68.743s-10.525-3.783-17.104-13.815" sodipodi:nodetypes="cc"/>
</g>
<g transform="translate(-167.09 42.101)">
<path d="m-17.443 75.08c-20.118-6.396-29.831-25.145-32.328-24.188-5.815 2.209 6.396 17.908 6.396 17.908 9.884 9.187 26.164 15.931 26.164 15.931" sodipodi:nodetypes="cccc"/>
<path d="m-16.939 77.952s-13.979-2.631-21.544-10.36" sodipodi:nodetypes="cc"/>
</g>
<g transform="translate(-167.09 42.101)">
<path d="m-17.327 83.569c-32.212-10.35-33.491-20.467-36.514-19.653-5.737 4.362 12.675 18.839 12.675 18.839 2.326 3.488 25.816 9.884 25.816 9.884" sodipodi:nodetypes="cccc"/>
<path d="m-14.801 85.188s-16.281 0.329-23.188-5.262" sodipodi:nodetypes="cc"/>
</g>
<g transform="translate(-167.09 42.101)">
<path d="m-15.815 92.523c-30.817-6.512-35.352-15.583-37.794-15.001-3.851 5.236 14.769 16.629 14.769 16.629 11.512 6.629 27.095 7.559 27.095 7.559" sodipodi:nodetypes="cccc"/>
<path d="m-12.334 96.207s-10.854 0.329-17.761-3.454" sodipodi:nodetypes="cc"/>
</g>
<g transform="translate(-167.09 42.101)">
<path d="m-16.745 112.76c-8.606 7.9-13.49 22.67-9.071 23.6 2.442 0.12 9.071-17.21 18.722-19.65l6.1637-5.35" sodipodi:nodetypes="cccc"/>
<path d="m-4.4403 110.51c2.134 0-11.179 4.12-13.486 10.04" sodipodi:nodetypes="cc"/>
</g>
<g transform="translate(-167.09 42.101)">
<path d="m-21.281 105.55c-12.559 9.42-16.578 20.56-14.768 21.16 2.791 0.93 13.958-10.68 18.024-11.39 1.977-0.35 13.722-6.63 13.722-6.63" sodipodi:nodetypes="cccc"/>
<path d="m-13.65 106.73c2.134 0-8.711 3.78-11.018 9.71" sodipodi:nodetypes="cc"/>
</g>
<g transform="translate(-167.09 42.101)">
<path d="m-12.327 101.48c-13.722 1.62-37.793-13.027-38.258-11.748-5.974 6.999 19.885 18.718 25.583 18.138l20.234 1.28" sodipodi:nodetypes="cccc"/>
<path d="m-6.9072 105.42s-16.61 0.16-24.175-3.29" sodipodi:nodetypes="cc"/>
</g>
<path d="m-136.33 145.21s0-7.72-3.79-8.05c0 0-8.55-0.66-18.09 0.98-21.81-13.02-4.72-29.75-7.73-35.52-0.98-8.88-15.62-22.201-15.62-22.201-1.48 1.316 0.3 9.605-0.82 9.045-2.96-1.48-1.14 5.036-1.98 6.743-2.79-0.987-2.65 3.245-1.97 6.413-2.3 0.33-1.48 4.28-0.99 7.07-4.51-2.48 1.37 7.04-0.16 6.75-6.91-0.99 0.99 6.57 0.99 6.57-3.95 1.48-2.11 4.42 0.65 5.59-3.45 2.47 0.09 6.41 1.32 6.58-3.12 1.65 0.35 4.02 2.14 5.76-2.8 2.63 2.3 3.75 4.77 4.77-1.98 3.12 0.35 3.8 2.46 4.77-1.31 2.46 1.93 2.28 3.95 1.97-2.47 2.63 1.65 3.78 3.29 3.45 0 0 0.88 3.42 3.78 2.14-0.82 2.63 5.1 2.3 5.1 2.3 0 2.64 8.72 1.65 8.72 1.65" sodipodi:nodetypes="ccccccccccccccccccccc"/>
</g>
<path d="m-170.34 98.574s0.42 3.186 1.97 7.556c-2.44 2.45-2.9 6.17-2.9 6.17" sodipodi:nodetypes="ccc" fill="none"/>
<path d="m-178.77 100.55s1.81 4.77 3.95 4.77" sodipodi:nodetypes="cc" fill="none"/>
<g transform="translate(-167.09 42.101)" fill="none">
<path d="m-14.966 47.199s2.303 8.058 4.441 8.058" sodipodi:nodetypes="cc"/>
<path d="m-16.939 53.448s0.658 5.263 2.796 5.263" sodipodi:nodetypes="cc"/>
<path d="m-19.241 60.191s1.809 4.769 3.947 4.769" sodipodi:nodetypes="cc"/>
<path d="m-20.393 67.098s1.974 4.276 4.112 4.276" sodipodi:nodetypes="cc"/>
<path d="m-20.228 74.005s3.289 5.263 5.427 5.263" sodipodi:nodetypes="cc"/>
<path d="m-19.57 81.077s3.453 2.96 5.591 2.96" sodipodi:nodetypes="cc"/>
<path d="m-18.748 86.668s3.454 2.961 5.592 2.961" sodipodi:nodetypes="cc"/>
<path d="m-17.926 92.753s5.098 2.467 7.236 2.467" sodipodi:nodetypes="cc"/>
<path d="m-15.623 98.509s5.7556 0.494 7.8936 0.494" sodipodi:nodetypes="cc"/>
<path d="m-10.93 103.23s4.8252-0.2 6.9631-0.2" sodipodi:nodetypes="cc"/>
<path d="m-8.1396 107.88s4.128-1.13 6.731-0.2" sodipodi:nodetypes="cc"/>
<path d="m-4.3021 110.56s4.128-1.14 6.731-0.21" sodipodi:nodetypes="cc"/>
<path d="m-1.2786 113.7s4.0117-0.56 6.8473-1.72" sodipodi:nodetypes="cc"/>
<path d="m2.7915 115.79s1.6859 0.49 4.5215-0.67" sodipodi:nodetypes="cc"/>
<path d="m7.6756 117.88s1.4533-0.09 4.2894-1.25" sodipodi:nodetypes="cc"/>
</g>
<g transform="translate(-167.09 42.101)" fill="none">
<path d="m-11.683 58.447s1.8094 4.769 3.9473 4.769" sodipodi:nodetypes="cc"/>
<path d="m-12.729 64.377s1.809 4.77 3.9467 4.77" sodipodi:nodetypes="cc"/>
<path d="m-14.706 69.378s2.274 3.141 4.412 3.141" sodipodi:nodetypes="cc"/>
<path d="m-13.892 75.657s2.274 3.141 4.412 3.141" sodipodi:nodetypes="cc"/>
<path d="m-12.264 82.286s2.5067 0.583 4.6446 0.583" sodipodi:nodetypes="cc"/>
<path d="m-10.752 86.937s0.53 0.118 2.6674 0.118" sodipodi:nodetypes="cc"/>
<path d="m-8.194 54.144s-0.2842 2.676 1.8538 2.676" sodipodi:nodetypes="cc"/>
<path d="m-5.7017 96.794s2.6731-0.311 2.2031-2.397" sodipodi:nodetypes="cc"/>
<path d="m-9.6554 93.072s4.6499-1.357 4.1799-3.443" sodipodi:nodetypes="cc"/>
<path d="m0.11275 102.14s0.81244-5.425 0.34241-7.51" sodipodi:nodetypes="cc"/>
<path d="m6.5086 106.45s-0.8156-7.177-2.4485-8.099" sodipodi:nodetypes="cc"/>
<path d="m13.602 108.19c-1.744-6.05-4.0715-8.8-5.7044-9.374" sodipodi:nodetypes="cc"/>
<path d="m20.463 107.84c-1.744-6.05-6.397-8.334-8.03-8.908" sodipodi:nodetypes="cc"/>
<path d="m28.603 108.07c-1.744-6.04-6.397-8.331-8.03-8.905" sodipodi:nodetypes="cc"/>
<path d="m22.909 116.13c-6.28 2.33-9.187 8.02-9.187 8.02" sodipodi:nodetypes="cc"/>
</g>
</g>
</g>
<path d="m762.72-174.82c14.12-26.79 28.74-23.87 28.74-23.87 7.31 0 9.74 4.87 18.02 4.87 10.23 0 7.8-10.72 7.8-10.72" sodipodi:nodetypes="cccc" stroke="#000" stroke-width="4.1892px" fill="none"/>
<path d="m785.61-198.2c2.93 12.66 12.23 15.12 12.23 15.12s-2.02 12.09-9.79 12.64c-14.28 2.56-18.94-10.28-12.18-21.43 2.44-2.92 9.74-6.33 9.74-6.33z" sodipodi:nodetypes="ccccc" fill-rule="evenodd"/>
<path sodipodi:rx="3.6591513" sodipodi:ry="1.438992" sodipodi:type="arc" d="m-71.703 51.269a3.6592 1.439 0 1 1 -7.318 0 3.6592 1.439 0 1 1 7.318 0z" transform="matrix(-1.674 -.55980 -.57758 1.97 686.34 -324.72)" sodipodi:cy="51.26923" sodipodi:cx="-75.362068" fill="#fff"/>
<g transform="matrix(-4.1892 0 0 4.1892 448.64 -385.28)">
<g stroke="#000" stroke-width="1px" fill="none">
<path d="m-88.642 54.106c-1.644 0-2.138 0.987-2.138 0.987"/>
<path d="m-94.069 63.809c-0.698 1.977 1.5 4.693 1.151 4.111" sodipodi:nodetypes="cc"/>
<path d="m-93.961 47.868c-1.628 0-1.744 3.14-1.744 3.14" sodipodi:nodetypes="cc"/>
<path d="m-85.123 75.08l2.326 3.023"/>
<path d="m-83.96 83.917l2.442 2.791"/>
<path d="m-73.727 93.337l2.908 3.14"/>
</g>
<g fill-rule="evenodd">
<path d="m-58.768 104.42s1.382 3.82 2.368 4.15c0 0 1.121 0.38 1.861-0.12 0.674-0.44 0-1.39 0-1.39-0.905-1.32-4.229-2.64-4.229-2.64z" sodipodi:nodetypes="ccccc"/>
<path d="m-64.653 106.34s-0.227 4.05 0.551 4.74c0 0 0.883 0.79 1.757 0.62 0.797-0.14 0.548-1.28 0.548-1.28-0.316-1.56-2.856-4.08-2.856-4.08z" sodipodi:nodetypes="ccccc"/>
<path d="m-60.624 120.65s-0.227 4.05 0.552 4.74c0 0 0.882 0.79 1.757 0.62 0.796-0.15 0.547-1.28 0.547-1.28-0.316-1.57-2.856-4.08-2.856-4.08z" sodipodi:nodetypes="ccccc"/>
<path d="m-52.215 117.92s2.327 2.06 2.467 3.04c0.082 0.57-1.233 3.62-1.233 3.62-0.576 0-0.083-3.95-0.083-3.95s-1.809-2.3-1.151-2.71z" sodipodi:nodetypes="ccccc" stroke="#000" stroke-width="1px"/>
<path d="m-72.658 136.6c-0.74 0-1.393 2.23-0.907 3.15 0 0 0.55 1.05 1.426 1.2 0.797 0.14 0.964-1.01 0.964-1.01 0.255-1.57-0.001-3.34-1.483-3.34z" sodipodi:nodetypes="ccccc"/>
<path d="m-65.422 144.74s-1.639 3.71-1.153 4.63c0 0 0.549 1.05 1.425 1.2 0.797 0.14 0.964-1.01 0.964-1.01 0.255-1.57-1.236-4.82-1.236-4.82z" sodipodi:nodetypes="ccccc"/>
<path d="m-70.198 154.33c-2.436 0.8-2.947 3.69-2.767 4.71 0 0 0.202 1.17 0.988 1.59 0.716 0.37 1.227-0.67 1.227-0.67 0.727-1.42 2.279-4.31 0.552-5.63z" sodipodi:nodetypes="ccccc"/>
<g stroke="#000" stroke-width="1px">
<path d="m-77.462 165.19s0.562 3.05 0.068 3.91c-0.29 0.51-1.721 1.35-1.721 1.35-0.453-0.35 0.888-2.42 0.888-2.42s-0.006-2.92 0.765-2.84z" sodipodi:nodetypes="ccccc"/>
<path d="m-88.316 167.32s0.973 3.97 0.479 4.83c-0.29 0.5-1.227 0.11-1.227 0.11-0.454-0.35-0.018-2.09-0.018-2.09s-0.005-2.93 0.766-2.85z" sodipodi:nodetypes="ccccc"/>
<path d="m-79.106 152.77s0.397 2.65-0.097 3.51c-0.29 0.5-1.228 0.11-1.228 0.11-0.453-0.35-0.017-2.09-0.017-2.09s0.57-1.61 1.342-1.53z" sodipodi:nodetypes="ccccc"/>
</g>
<path d="m-83.352 139.99c-1.643 1.11-1.648 2.07-1.659 3.11 0 0-0.015 1.18 0.682 1.74 0.634 0.5 2.808-0.43 2.808-0.43 0.975-1.27-1.749-1.3-1.831-4.42z" sodipodi:nodetypes="ccccc"/>
<path d="m-65.755 124.12c-1.643 1.1-1.648 0.92-1.659 3.11 0 0 0.56 1.76 1.257 2.31 0.634 0.51 1.328-1.08 1.328-1.08 0.975-1.27 0.471-3.93-0.926-4.34z" sodipodi:nodetypes="ccccc"/>
<path d="m-53.664 132.9c-0.74 0-1.392 2.23-0.906 3.15 0 0 0.549 1.05 1.425 1.2 0.798 0.14 0.964-1.01 0.964-1.01 0.256-1.57 0-3.34-1.483-3.34z" sodipodi:nodetypes="ccccc"/>
<path d="m-58.762 139.23c-1.057 3.42-2.297 4.45-1.811 5.37 0 0 1.208 0.31 2.083 0.46 0.798 0.14 0.965-1.01 0.965-1.01 0.255-1.57-0.99-1.12-1.237-4.82z" sodipodi:nodetypes="ccccc"/>
<path d="m-87.543 179.04c-0.74 0-1.393 2.24-0.907 3.16 0 0 0.55 1.04 1.426 1.2 0.797 0.14 0.964-1.01 0.964-1.01 0.255-1.58-0.001-3.35-1.483-3.35z" sodipodi:nodetypes="ccccc"/>
</g>
</g>
</g>
<g sodipodi:insensitive="true" transform="translate(513.66 319.29)">
<path d="m300 658.5s298.5-112.32 298.5-397.77v-258.55l-597-0.0035v258.55c0 285.45 298.5 397.77 298.5 397.77z" fill-rule="evenodd" sodipodi:nodetypes="cccccc" fill="url(#a)"/>
</g>
<g sodipodi:insensitive="true" transform="translate(513.66 319.29)">
<path d="m300 658.5s-298.5-112.32-298.5-397.77v-258.55l597-0.0035v258.55c0 285.45-298.5 397.77-298.5 397.77z" sodipodi:nodetypes="cccccc" stroke="#000" stroke-width="3" fill="none"/>
</g>
</svg>
