<svg xmlns:rdf="http://www.w3.org/1999/02/22-rdf-syntax-ns#" xmlns="http://www.w3.org/2000/svg" height="480" width="640" xmlns:cc="http://creativecommons.org/ns#" xmlns:dc="http://purl.org/dc/elements/1.1/">
<defs>
<clipPath id="a" clipPathUnits="userSpaceOnUse">
<rect fill-opacity=".67" height="512" width="682.6" y=".0000011252" x="5.67e-8"/>
</clipPath>
</defs>
<g clip-path="url(#a)" transform="matrix(.93759 0 0 .93750 -5.3161e-8 -.0000010549)" fill-rule="evenodd">
<rect height="340.11" width="1024" y=".0001683" x=".001" stroke-width="1pt" fill="#b20000"/>
<rect height="171.89" width="1024" y="340.11" x=".001" stroke-width="1pt" fill="#429f00"/>
<rect height="512" width="113.37" y="-2.0117e-7" x=".001" stroke-width="1.0004pt" fill="#fff"/>
<g stroke-width="1pt" transform="matrix(.30472 0 0 .24491 145.76 147.53)" fill="#b20000">
<rect transform="matrix(5 0 0 5 549.21 -35.433)" height="7.0866" width="3.5433" y="-106.3" x="-201.97"/>
<rect transform="matrix(5 0 0 5 549.21 -35.433)" height="7.0866" width="10.63" y="-106.3" x="-191.34"/>
<rect transform="matrix(5 0 0 5 549.21 -35.433)" height="7.0866" width="3.5433" y="-113.39" x="-187.8"/>
<rect transform="matrix(5 0 0 5 549.21 -35.433)" height="7.0866" width="3.5433" y="-113.39" x="-170.08"/>
<rect transform="matrix(5 0 0 5 549.21 -35.433)" height="7.0866" width="10.63" y="-106.3" x="-155.91"/>
<rect transform="matrix(5 0 0 5 549.21 -35.433)" height="7.0866" width="3.5433" y="-113.39" x="-152.36"/>
<rect transform="matrix(5 0 0 5 549.21 -35.433)" height="7.0866" width="7.0866" y="-99.213" x="-194.88"/>
<rect transform="matrix(5 0 0 5 549.21 -35.433)" height="7.0866" width="7.0866" y="-99.213" x="-184.25"/>
<rect transform="matrix(5 0 0 5 549.21 -35.433)" height="7.0866" width="7.0866" y="-99.213" x="-159.45"/>
<rect transform="matrix(5 0 0 5 549.21 -35.433)" height="7.0866" width="7.0866" y="-99.213" x="-148.82"/>
<rect transform="matrix(5 0 0 5 549.21 -35.433)" height="7.0866" width="7.0866" y="-92.126" x="-198.43"/>
<rect transform="matrix(5 0 0 5 549.21 -35.433)" height="7.0866" width="7.0866" y="-92.126" x="-180.71"/>
<rect transform="matrix(5 0 0 5 549.21 -35.433)" height="7.0866" width="7.0866" y="-92.126" x="-162.99"/>
<rect transform="matrix(5 0 0 5 549.21 -35.433)" height="7.0866" width="7.0866" y="-92.126" x="-145.28"/>
<rect transform="matrix(5 0 0 5 549.21 -35.433)" height="7.0866" width="3.5433" y="-106.3" x="-138.19"/>
<rect transform="matrix(5 0 0 5 549.21 -35.433)" height="7.0866" width="7.0866" y="-85.039" x="-201.97"/>
<rect transform="matrix(5 0 0 5 549.21 -35.433)" height="7.0866" width="7.0866" y="-85.039" x="-177.17"/>
<rect transform="matrix(5 0 0 5 549.21 -35.433)" height="7.0866" width="7.0866" y="-85.039" x="-141.73"/>
<rect transform="matrix(5 0 0 5 549.21 -35.433)" height="7.0866" width="7.0866" y="-63.78" x="-198.43"/>
<rect transform="matrix(5 0 0 5 549.21 -35.433)" height="7.0866" width="7.0866" y="-56.693" x="-194.88"/>
<rect transform="matrix(5 0 0 5 549.21 -35.433)" height="7.0866" width="7.0866" y="-63.78" x="-180.71"/>
<rect transform="matrix(5 0 0 5 549.21 -35.433)" height="7.0866" width="7.0866" y="-56.693" x="-184.25"/>
<rect transform="matrix(5 0 0 5 549.21 -35.433)" height="7.0866" width="10.63" y="-49.606" x="-191.34"/>
<rect transform="matrix(5 0 0 5 549.21 -35.433)" height="7.0866" width="3.5433" y="-42.52" x="-187.8"/>
<rect transform="matrix(5 0 0 5 549.21 -35.433)" height="7.0866" width="7.0866" y="-63.779" x="-162.99"/>
<rect transform="matrix(5 0 0 5 549.21 -35.433)" height="7.0866" width="7.0866" y="-56.693" x="-159.45"/>
<rect transform="matrix(5 0 0 5 549.21 -35.433)" height="7.0866" width="7.0866" y="-63.78" x="-145.28"/>
<rect transform="matrix(5 0 0 5 549.21 -35.433)" height="7.0866" width="7.0866" y="-56.693" x="-148.82"/>
<rect transform="matrix(5 0 0 5 549.21 -35.433)" height="7.0866" width="10.63" y="-49.606" x="-155.91"/>
<rect transform="matrix(5 0 0 5 549.21 -35.433)" height="7.0866" width="3.5433" y="-42.52" x="-152.36"/>
<rect transform="matrix(5 0 0 5 549.21 -35.433)" height="7.0866" width="3.5433" y="-49.606" x="-170.08"/>
<rect transform="matrix(5 0 0 5 549.21 -35.433)" height="7.0866" width="3.5433" y="-49.606" x="-205.51"/>
<rect transform="matrix(5 0 0 5 549.21 -35.433)" height="7.0866" width="3.5433" y="-49.606" x="-134.65"/>
<rect transform="matrix(5 0 0 5 549.21 -35.433)" height="7.0866" width="3.5433" y="-14.173" x="-187.8"/>
<rect transform="matrix(5 0 0 5 549.21 -35.433)" height="7.0866" width="10.63" y="-7.0866" x="-191.34"/>
<rect transform="matrix(5 0 0 5 549.21 -35.433)" height="7.0866" width="17.717" y=".000068" x="-194.88"/>
<rect transform="matrix(5 0 0 5 549.21 -35.433)" height="7.0866" width="3.5433" y="-14.173" x="-152.36"/>
<rect transform="matrix(5 0 0 5 549.21 -35.433)" height="7.0866" width="10.63" y="-7.0866" x="-155.91"/>
<rect transform="matrix(5 0 0 5 549.21 -35.433)" height="7.0866" width="17.717" y=".000068" x="-159.45"/>
<rect transform="matrix(5 0 0 5 549.21 -35.433)" height="7.0866" width="17.717" y="35.433" x="-155.91"/>
<rect transform="matrix(5 0 0 5 549.21 -35.433)" height="7.0866" width="24.803" y="7.0866" x="-162.99"/>
<rect transform="matrix(5 0 0 5 549.21 -35.433)" height="7.0866" width="24.803" y="7.0866" x="-198.43"/>
<rect transform="matrix(5 0 0 5 549.21 -35.433)" height="7.0866" width="10.63" y="42.52" x="-194.88"/>
<rect transform="matrix(5 0 0 5 549.21 -35.433)" height="7.0866" width="17.717" y="35.433" x="-198.43"/>
<rect transform="matrix(5 0 0 5 549.21 -35.433)" height="7.0866" width="17.717" y="21.26" x="-148.82"/>
<rect transform="matrix(5 0 0 5 549.21 -35.433)" height="7.0866" width="10.63" y="42.52" x="-152.36"/>
<rect transform="matrix(5 0 0 5 549.21 -35.433)" height="7.0866" width="3.5433" y="49.606" x="-191.34"/>
<rect transform="matrix(5 0 0 5 549.21 -35.433)" height="7.0866" width="3.5433" y="49.606" x="-148.82"/>
<rect transform="matrix(5 0 0 5 549.21 -35.433)" height="7.0866" width="17.717" y="21.26" x="-205.51"/>
<rect transform="matrix(5 0 0 5 549.21 -35.433)" height="7.0866" width="10.63" y="35.433" x="-173.62"/>
<rect transform="matrix(5 0 0 5 549.21 -35.433)" height="7.0866" width="3.5433" y="42.52" x="-170.08"/>
<rect transform="matrix(5 0 0 5 549.21 -35.433)" height="7.0866" width="24.803" y="21.26" x="-180.71"/>
<rect transform="matrix(5 0 0 5 549.21 -35.433)" height="7.0866" width="7.0866" y="-85.039" x="-166.54"/>
<rect transform="matrix(5 0 0 5 549.21 -35.433)" height="7.0866" width="10.63" y="-77.953" x="-173.62"/>
<rect transform="matrix(5 0 0 5 549.21 -35.433)" height="7.0866" width="7.0866" y="-70.866" x="-177.17"/>
<rect transform="matrix(5 0 0 5 549.21 -35.433)" height="7.0866" width="7.0866" y="-70.866" x="-166.54"/>
<rect transform="matrix(5 0 0 5 549.21 -35.433)" height="7.0866" width="7.0866" y="-77.953" x="-205.51"/>
<rect transform="matrix(5 0 0 5 549.21 -35.433)" height="7.0866" width="7.0866" y="-70.866" x="-201.97"/>
<rect transform="matrix(5 0 0 5 549.21 -35.433)" height="7.0866" width="7.0866" y="-77.953" x="-138.19"/>
<rect transform="matrix(5 0 0 5 549.21 -35.433)" height="7.0866" width="7.0866" y="-70.866" x="-141.73"/>
<rect transform="matrix(5 0 0 5 549.21 -35.433)" height="7.0866" width="3.5433" y="-7.0866" x="-205.51"/>
<rect transform="matrix(5 0 0 5 549.21 -35.433)" height="7.0866" width="3.5433" y="-7.0866" x="-134.65"/>
<rect transform="matrix(5 0 0 5 549.21 -35.433)" height="7.0866" width="10.63" y="49.606" x="-173.62"/>
<rect transform="matrix(5 0 0 5 549.21 -35.433)" height="7.0866" width="7.0866" y="56.693" x="-177.17"/>
<rect transform="matrix(5 0 0 5 549.21 -35.433)" height="7.0866" width="7.0866" y="56.693" x="-166.54"/>
<rect transform="matrix(5 0 0 5 549.21 -35.433)" height="7.0866" width="7.0866" y="63.78" x="-180.71"/>
<rect transform="matrix(5 0 0 5 549.21 -35.433)" height="7.0866" width="7.0866" y="63.78" x="-162.99"/>
<rect transform="matrix(5 0 0 5 549.21 -35.433)" height="7.0866" width="7.0866" y="70.866" x="-184.25"/>
<rect transform="matrix(5 0 0 5 549.21 -35.433)" height="7.0866" width="7.0866" y="70.866" x="-159.45"/>
<rect transform="matrix(5 0 0 5 549.21 -35.433)" height="7.0866" width="7.0866" y="77.953" x="-187.8"/>
<rect transform="matrix(5 0 0 5 549.21 -35.433)" height="7.0866" width="7.0866" y="77.953" x="-155.91"/>
<rect transform="matrix(5 0 0 5 549.21 -35.433)" height="7.0866" width="10.63" y="85.039" x="-194.88"/>
<rect transform="matrix(5 0 0 5 549.21 -35.433)" height="7.0866" width="10.63" y="85.039" x="-152.36"/>
<rect transform="matrix(5 0 0 5 549.21 -35.433)" height="7.0866" width="7.0866" y="77.953" x="-145.28"/>
<rect transform="matrix(5 0 0 5 549.21 -35.433)" height="7.0866" width="7.0866" y="70.866" x="-141.73"/>
<rect transform="matrix(5 0 0 5 549.21 -35.433)" height="7.0866" width="7.0866" y="63.78" x="-138.19"/>
<rect transform="matrix(5 0 0 5 549.21 -35.433)" height="7.0866" width="7.0866" y="77.953" x="-198.43"/>
<rect transform="matrix(5 0 0 5 549.21 -35.433)" height="7.0866" width="7.0866" y="70.866" x="-201.97"/>
<rect transform="matrix(5 0 0 5 549.21 -35.433)" height="7.0866" width="7.0866" y="63.78" x="-205.51"/>
<rect transform="matrix(5 0 0 5 549.21 -35.433)" height="7.0866" width="3.5433" y="92.126" x="-191.34"/>
<rect transform="matrix(5 0 0 5 549.21 -35.433)" height="7.0866" width="3.5433" y="92.126" x="-148.82"/>
<rect transform="matrix(5 0 0 5 549.21 -35.433)" height="7.0866" width="3.5433" y="70.866" x="-170.08"/>
<rect transform="matrix(5 0 0 5 549.21 -35.433)" height="7.0866" width="3.5433" y="92.126" x="-180.71"/>
<rect transform="matrix(5 0 0 5 549.21 -35.433)" height="7.0866" width="3.5433" y="92.126" x="-159.45"/>
<rect transform="matrix(5 0 0 5 549.21 -35.433)" height="7.0866" width="3.5433" y="92.126" x="-170.08"/>
<rect transform="matrix(5 0 0 5 549.21 -35.433)" height="7.0866" width="3.5433" y="92.126" x="-205.51"/>
<rect transform="matrix(5 0 0 5 549.21 -35.433)" height="7.0866" width="3.5433" y="92.126" x="-134.65"/>
<rect transform="matrix(5 0 0 5 549.21 -35.433)" height="7.0866" width="3.5433" y="-7.0866" x="-170.08"/>
<rect transform="matrix(5 0 0 5 549.21 -35.433)" height="7.0866" width="3.5433" y="-77.953" x="-187.8"/>
<rect transform="matrix(5 0 0 5 549.21 -35.433)" height="7.0866" width="3.5433" y="-77.953" x="-152.36"/>
<rect transform="matrix(5 0 0 5 549.21 -35.433)" height="7.0866" width="10.63" y="-28.346" x="-173.62"/>
<rect transform="matrix(5 0 0 5 549.21 -35.433)" height="7.0866" width="10.63" y="-21.26" x="-180.71"/>
<rect transform="matrix(5 0 0 5 549.21 -35.433)" height="7.0866" width="3.5433" y="-14.173" x="-177.17"/>
<rect transform="matrix(5 0 0 5 549.21 -35.433)" height="7.0866" width="7.0866" y="-28.346" x="-184.25"/>
<rect transform="matrix(5 0 0 5 549.21 -35.433)" height="7.0866" width="10.63" y="-35.433" x="-180.71"/>
<rect transform="matrix(5 0 0 5 549.21 -35.433)" height="7.0866" width="3.5433" y="-42.52" x="-177.17"/>
<rect transform="matrix(5 0 0 5 549.21 -35.433)" height="7.0866" width="10.63" y="-35.433" x="-166.54"/>
<rect transform="matrix(5 0 0 5 549.21 -35.433)" height="7.0866" width="3.5433" y="-42.52" x="-162.99"/>
<rect transform="matrix(5 0 0 5 549.21 -35.433)" height="7.0866" width="7.0866" y="-28.346" x="-159.45"/>
<rect transform="matrix(5 0 0 5 549.21 -35.433)" height="7.0866" width="10.63" y="-21.26" x="-166.54"/>
<rect transform="matrix(5 0 0 5 549.21 -35.433)" height="7.0866" width="3.5433" y="-14.173" x="-162.99"/>
<rect transform="matrix(5 0 0 5 549.21 -35.433)" height="7.0866" width="7.0866" y="-28.346" x="-148.82"/>
<rect transform="matrix(5 0 0 5 549.21 -35.433)" height="7.0866" width="10.63" y="-35.433" x="-145.28"/>
<rect transform="matrix(5 0 0 5 549.21 -35.433)" height="7.0866" width="7.0866" y="-28.346" x="-138.19"/>
<rect transform="matrix(5 0 0 5 549.21 -35.433)" height="7.0866" width="10.63" y="-21.26" x="-145.28"/>
<rect transform="matrix(5 0 0 5 549.21 -35.433)" height="7.0866" width="3.5433" y="-14.173" x="-141.73"/>
<rect transform="matrix(5 0 0 5 549.21 -35.433)" height="7.0866" width="3.5433" y="-42.52" x="-141.73"/>
<rect transform="matrix(5 0 0 5 549.21 -35.433)" height="7.0866" width="7.0866" y="-28.346" x="-205.51"/>
<rect transform="matrix(5 0 0 5 549.21 -35.433)" height="7.0866" width="10.63" y="-35.433" x="-201.97"/>
<rect transform="matrix(5 0 0 5 549.21 -35.433)" height="7.0866" width="7.0866" y="-28.346" x="-194.88"/>
<rect transform="matrix(5 0 0 5 549.21 -35.433)" height="7.0866" width="10.63" y="-21.26" x="-201.97"/>
<rect transform="matrix(5 0 0 5 549.21 -35.433)" height="7.0866" width="3.5433" y="-14.173" x="-198.43"/>
<rect transform="matrix(5 0 0 5 549.21 -35.433)" height="7.0866" width="3.5433" y="-42.52" x="-198.43"/>
<rect transform="matrix(5 0 0 5 549.21 -35.433)" height="7.0866" width="14.173" y="14.173" x="-201.97"/>
<rect transform="matrix(5 0 0 5 549.21 -35.433)" height="7.0866" width="14.173" y="14.173" x="-184.25"/>
<rect transform="matrix(5 0 0 5 549.21 -35.433)" height="7.0866" width="14.173" y="14.173" x="-166.54"/>
<rect transform="matrix(5 0 0 5 549.21 -35.433)" height="7.0866" width="14.173" y="14.173" x="-148.82"/>
<rect transform="matrix(5 0 0 5 549.21 -35.433)" height="7.0866" width="17.717" y="28.346" x="-177.17"/>
<rect transform="matrix(5 0 0 5 549.21 -35.433)" height="7.0866" width="17.717" y="28.346" x="-201.97"/>
<rect transform="matrix(5 0 0 5 549.21 -35.433)" height="7.0866" width="17.717" y="28.346" x="-152.36"/>
<rect transform="matrix(5 0 0 5 549.21 -35.433)" height="7.0866" width="3.5433" y="56.693" x="-134.65"/>
<rect transform="matrix(5 0 0 5 549.21 -35.433)" height="7.0866" width="3.5433" y="56.693" x="-205.51"/>
<rect transform="matrix(5 0 0 -5 549.21 -35.433)" height="7.0866" width="3.5433" y="-297.64" x="-201.97"/>
<rect transform="matrix(5 0 0 -5 549.21 -35.433)" height="7.0866" width="10.63" y="-297.64" x="-191.34"/>
<rect transform="matrix(5 0 0 -5 549.21 -35.433)" height="7.0866" width="3.5433" y="-304.72" x="-187.8"/>
<rect transform="matrix(5 0 0 -5 549.21 -35.433)" height="7.0866" width="3.5433" y="-304.72" x="-170.08"/>
<rect transform="matrix(5 0 0 -5 549.21 -35.433)" height="7.0866" width="10.63" y="-297.64" x="-155.91"/>
<rect transform="matrix(5 0 0 -5 549.21 -35.433)" height="7.0866" width="3.5433" y="-304.72" x="-152.36"/>
<rect transform="matrix(5 0 0 -5 549.21 -35.433)" height="7.0866" width="7.0866" y="-290.55" x="-194.88"/>
<rect transform="matrix(5 0 0 -5 549.21 -35.433)" height="7.0866" width="7.0866" y="-290.55" x="-184.25"/>
<rect transform="matrix(5 0 0 -5 549.21 -35.433)" height="7.0866" width="7.0866" y="-290.55" x="-159.45"/>
<rect transform="matrix(5 0 0 -5 549.21 -35.433)" height="7.0866" width="7.0866" y="-290.55" x="-148.82"/>
<rect transform="matrix(5 0 0 -5 549.21 -35.433)" height="7.0866" width="7.0866" y="-283.46" x="-180.71"/>
<rect transform="matrix(5 0 0 -5 549.21 -35.433)" height="7.0866" width="7.0866" y="-283.46" x="-162.99"/>
<rect transform="matrix(5 0 0 -5 549.21 -35.433)" height="7.0866" width="7.0866" y="-283.46" x="-145.28"/>
<rect transform="matrix(5 0 0 -5 549.21 -35.433)" height="7.0866" width="3.5433" y="-297.64" x="-138.19"/>
<rect transform="matrix(5 0 0 -5 549.21 -35.433)" height="7.0866" width="7.0866" y="-276.38" x="-201.97"/>
<rect transform="matrix(5 0 0 -5 549.21 -35.433)" height="7.0866" width="7.0866" y="-276.38" x="-177.17"/>
<rect transform="matrix(5 0 0 -5 549.21 -35.433)" height="7.0866" width="7.0866" y="-276.38" x="-141.73"/>
<rect transform="matrix(5 0 0 -5 549.21 -35.433)" height="7.0866" width="7.0866" y="-255.12" x="-198.43"/>
<rect transform="matrix(5 0 0 -5 549.21 -35.433)" height="7.0866" width="7.0866" y="-248.03" x="-194.88"/>
<rect transform="matrix(5 0 0 -5 549.21 -35.433)" height="7.0866" width="7.0866" y="-255.12" x="-180.71"/>
<rect transform="matrix(5 0 0 -5 549.21 -35.433)" height="7.0866" width="7.0866" y="-248.03" x="-184.25"/>
<rect transform="matrix(5 0 0 -5 549.21 -35.433)" height="7.0866" width="10.63" y="-240.94" x="-191.34"/>
<rect transform="matrix(5 0 0 -5 549.21 -35.433)" height="7.0866" width="3.5433" y="-233.86" x="-187.8"/>
<rect transform="matrix(5 0 0 -5 549.21 -35.433)" height="7.0866" width="7.0866" y="-255.12" x="-162.99"/>
<rect transform="matrix(5 0 0 -5 549.21 -35.433)" height="7.0866" width="7.0866" y="-248.03" x="-159.45"/>
<rect transform="matrix(5 0 0 -5 549.21 -35.433)" height="7.0866" width="7.0866" y="-255.12" x="-145.28"/>
<rect transform="matrix(5 0 0 -5 549.21 -35.433)" height="7.0866" width="7.0866" y="-248.03" x="-148.82"/>
<rect transform="matrix(5 0 0 -5 549.21 -35.433)" height="7.0866" width="10.63" y="-240.94" x="-155.91"/>
<rect transform="matrix(5 0 0 -5 549.21 -35.433)" height="7.0866" width="3.5433" y="-233.86" x="-152.36"/>
<rect transform="matrix(5 0 0 -5 549.21 -35.433)" height="7.0866" width="3.5433" y="-240.94" x="-170.08"/>
<rect transform="matrix(5 0 0 -5 549.21 -35.433)" height="7.0866" width="3.5433" y="-240.94" x="-205.51"/>
<rect transform="matrix(5 0 0 -5 549.21 -35.433)" height="7.0866" width="3.5433" y="-240.94" x="-134.65"/>
<rect transform="matrix(5 0 0 -5 549.21 -35.433)" height="7.0866" width="3.5433" y="-205.51" x="-187.8"/>
<rect transform="matrix(5 0 0 -5 549.21 -35.433)" height="7.0866" width="10.63" y="-198.43" x="-191.34"/>
<rect transform="matrix(5 0 0 -5 549.21 -35.433)" height="7.0866" width="17.717" y="-191.34" x="-194.88"/>
<rect transform="matrix(5 0 0 -5 549.21 -35.433)" height="7.0866" width="3.5433" y="-205.51" x="-152.36"/>
<rect transform="matrix(5 0 0 -5 549.21 -35.433)" height="7.0866" width="10.63" y="-198.43" x="-155.91"/>
<rect transform="matrix(5 0 0 -5 549.21 -35.433)" height="7.0866" width="17.717" y="-191.34" x="-159.45"/>
<rect transform="matrix(5 0 0 -5 549.21 -35.433)" height="7.0866" width="17.717" y="-155.91" x="-155.91"/>
<rect transform="matrix(5 0 0 -5 549.21 -35.433)" height="7.0866" width="24.803" y="-184.25" x="-162.99"/>
<rect transform="matrix(5 0 0 -5 549.21 -35.433)" height="7.0866" width="24.803" y="-184.25" x="-198.43"/>
<rect transform="matrix(5 0 0 -5 549.21 -35.433)" height="7.0905" width="10.63" y="-148.82" x="-194.88"/>
<rect transform="matrix(5 0 0 -5 549.21 -35.433)" height="7.0866" width="17.717" y="-155.91" x="-198.43"/>
<rect transform="matrix(5 0 0 -5 549.21 -35.433)" height="7.0866" width="17.717" y="-170.08" x="-148.82"/>
<rect transform="matrix(5 0 0 -5 549.21 -35.433)" height="7.0866" width="10.63" y="-148.82" x="-152.36"/>
<rect transform="matrix(5 0 0 -5 549.21 -35.433)" height="7.0866" width="17.717" y="-170.08" x="-205.51"/>
<rect transform="matrix(5 0 0 -5 549.21 -35.433)" height="7.0866" width="10.63" y="-155.91" x="-173.62"/>
<rect transform="matrix(5 0 0 -5 549.21 -35.433)" height="7.0866" width="3.5433" y="-148.82" x="-170.08"/>
<rect transform="matrix(5 0 0 -5 549.21 -35.433)" height="7.0866" width="24.803" y="-170.08" x="-180.71"/>
<rect transform="matrix(5 0 0 -5 549.21 -35.433)" height="7.0866" width="7.0866" y="-276.38" x="-166.54"/>
<rect transform="matrix(5 0 0 -5 549.21 -35.433)" height="7.0866" width="10.63" y="-269.29" x="-173.62"/>
<rect transform="matrix(5 0 0 -5 549.21 -35.433)" height="7.0866" width="7.0866" y="-262.2" x="-177.17"/>
<rect transform="matrix(5 0 0 -5 549.21 -35.433)" height="7.0866" width="7.0866" y="-262.2" x="-166.54"/>
<rect transform="matrix(5 0 0 -5 549.21 -35.433)" height="7.0866" width="7.0866" y="-269.29" x="-205.51"/>
<rect transform="matrix(5 0 0 -5 549.21 -35.433)" height="7.0866" width="7.0866" y="-262.2" x="-201.97"/>
<rect transform="matrix(5 0 0 -5 549.21 -35.433)" height="7.0866" width="7.0866" y="-269.29" x="-138.19"/>
<rect transform="matrix(5 0 0 -5 549.21 -35.433)" height="7.0866" width="7.0866" y="-262.2" x="-141.73"/>
<rect transform="matrix(5 0 0 -5 549.21 -35.433)" height="7.0866" width="3.5433" y="-198.43" x="-205.51"/>
<rect transform="matrix(5 0 0 -5 549.21 -35.433)" height="7.0866" width="3.5433" y="-198.43" x="-134.65"/>
<rect transform="matrix(5 0 0 -5 549.21 -35.433)" height="7.0866" width="7.0866" y="-134.65" x="-177.17"/>
<rect transform="matrix(5 0 0 -5 549.21 -35.433)" height="7.0866" width="7.0866" y="-134.65" x="-166.54"/>
<rect transform="matrix(5 0 0 -5 549.21 -35.433)" height="7.0866" width="7.0866" y="-127.56" x="-180.71"/>
<rect transform="matrix(5 0 0 -5 549.21 -35.433)" height="7.0866" width="7.0866" y="-127.56" x="-162.99"/>
<rect transform="matrix(5 0 0 -5 549.21 -35.433)" height="7.0866" width="7.0866" y="-120.47" x="-184.25"/>
<rect transform="matrix(5 0 0 -5 549.21 -35.433)" height="7.0866" width="7.0866" y="-120.47" x="-159.45"/>
<rect transform="matrix(5 0 0 -5 549.21 -35.433)" height="7.0866" width="7.0866" y="-113.39" x="-187.8"/>
<rect transform="matrix(5 0 0 -5 549.21 -35.433)" height="7.0866" width="7.0866" y="-113.39" x="-155.91"/>
<rect transform="matrix(5 0 0 -5 549.21 -35.433)" height="7.0866" width="10.63" y="-106.3" x="-194.88"/>
<rect transform="matrix(5 0 0 -5 549.21 -35.433)" height="7.0866" width="10.63" y="-106.3" x="-152.36"/>
<rect transform="matrix(5 0 0 -5 549.21 -35.433)" height="7.0866" width="7.0866" y="-113.39" x="-145.28"/>
<rect transform="matrix(5 0 0 -5 549.21 -35.433)" height="7.0866" width="7.0866" y="-120.47" x="-141.73"/>
<rect transform="matrix(5 0 0 -5 549.21 -35.433)" height="7.0866" width="7.0866" y="-127.56" x="-138.19"/>
<rect transform="matrix(5 0 0 -5 549.21 -35.433)" height="7.0866" width="7.0866" y="-113.39" x="-198.43"/>
<rect transform="matrix(5 0 0 -5 549.21 -35.433)" height="7.0866" width="7.0866" y="-120.47" x="-201.97"/>
<rect transform="matrix(5 0 0 -5 549.21 -35.433)" height="7.0866" width="7.0866" y="-127.56" x="-205.51"/>
<rect transform="matrix(5 0 0 -5 549.21 -35.433)" height="7.0866" width="3.5433" y="-99.213" x="-191.34"/>
<rect transform="matrix(5 0 0 -5 549.21 -35.433)" height="7.0866" width="3.5433" y="-120.47" x="-170.08"/>
<rect transform="matrix(5 0 0 -5 549.21 -35.433)" height="7.0866" width="3.5433" y="-198.43" x="-170.08"/>
<rect transform="matrix(5 0 0 -5 549.21 -35.433)" height="7.0866" width="3.5433" y="-269.29" x="-187.8"/>
<rect transform="matrix(5 0 0 -5 549.21 -35.433)" height="7.0866" width="3.5433" y="-269.29" x="-152.36"/>
<rect transform="matrix(5 0 0 -5 549.21 -35.433)" height="7.0866" width="10.63" y="-219.69" x="-173.62"/>
<rect transform="matrix(5 0 0 -5 549.21 -35.433)" height="7.0866" width="10.63" y="-212.6" x="-180.71"/>
<rect transform="matrix(5 0 0 -5 549.21 -35.433)" height="7.0866" width="3.5433" y="-205.51" x="-177.17"/>
<rect transform="matrix(5 0 0 -5 549.21 -35.433)" height="7.0866" width="7.0866" y="-219.69" x="-184.25"/>
<rect transform="matrix(5 0 0 -5 549.21 -35.433)" height="7.0866" width="10.63" y="-226.77" x="-180.71"/>
<rect transform="matrix(5 0 0 -5 549.21 -35.433)" height="7.0866" width="3.5433" y="-233.86" x="-177.17"/>
<rect transform="matrix(5 0 0 -5 549.21 -35.433)" height="7.0866" width="10.63" y="-226.77" x="-166.54"/>
<rect transform="matrix(5 0 0 -5 549.21 -35.433)" height="7.0866" width="3.5433" y="-233.86" x="-162.99"/>
<rect transform="matrix(5 0 0 -5 549.21 -35.433)" height="7.0866" width="7.0866" y="-219.69" x="-159.45"/>
<rect transform="matrix(5 0 0 -5 549.21 -35.433)" height="7.0866" width="10.63" y="-212.6" x="-166.54"/>
<rect transform="matrix(5 0 0 -5 549.21 -35.433)" height="7.0866" width="3.5433" y="-205.51" x="-162.99"/>
<rect transform="matrix(5 0 0 -5 549.21 -35.433)" height="7.0866" width="7.0866" y="-219.69" x="-148.82"/>
<rect transform="matrix(5 0 0 -5 549.21 -35.433)" height="7.0866" width="10.63" y="-226.77" x="-145.28"/>
<rect transform="matrix(5 0 0 -5 549.21 -35.433)" height="7.0866" width="7.0866" y="-219.69" x="-138.19"/>
<rect transform="matrix(5 0 0 -5 549.21 -35.433)" height="7.0866" width="10.63" y="-212.6" x="-145.28"/>
<rect transform="matrix(5 0 0 -5 549.21 -35.433)" height="7.0866" width="3.5433" y="-205.51" x="-141.73"/>
<rect transform="matrix(5 0 0 -5 549.21 -35.433)" height="7.0866" width="3.5433" y="-233.86" x="-141.73"/>
<rect transform="matrix(5 0 0 -5 549.21 -35.433)" height="7.0866" width="7.0866" y="-219.69" x="-205.51"/>
<rect transform="matrix(5 0 0 -5 549.21 -35.433)" height="7.0866" width="10.63" y="-226.77" x="-201.97"/>
<rect transform="matrix(5 0 0 -5 549.21 -35.433)" height="7.0866" width="7.0866" y="-219.69" x="-194.88"/>
<rect transform="matrix(5 0 0 -5 549.21 -35.433)" height="7.0866" width="10.63" y="-212.6" x="-201.97"/>
<rect transform="matrix(5 0 0 -5 549.21 -35.433)" height="7.0866" width="3.5433" y="-205.51" x="-198.43"/>
<rect transform="matrix(5 0 0 -5 549.21 -35.433)" height="7.0866" width="3.5433" y="-233.86" x="-198.43"/>
<rect transform="matrix(5 0 0 -5 549.21 -35.433)" height="7.0866" width="14.173" y="-177.17" x="-201.97"/>
<rect transform="matrix(5 0 0 -5 549.21 -35.433)" height="7.0866" width="14.173" y="-177.17" x="-184.25"/>
<rect transform="matrix(5 0 0 -5 549.21 -35.433)" height="7.0866" width="14.173" y="-177.17" x="-166.54"/>
<rect transform="matrix(5 0 0 -5 549.21 -35.433)" height="7.0866" width="14.173" y="-177.17" x="-148.82"/>
<rect transform="matrix(5 0 0 -5 549.21 -35.433)" height="7.0866" width="17.717" y="-162.99" x="-177.17"/>
<rect transform="matrix(5 0 0 -5 549.21 -35.433)" height="7.0866" width="17.717" y="-162.99" x="-201.97"/>
<rect transform="matrix(5 0 0 -5 549.21 -35.433)" height="7.0866" width="17.717" y="-162.99" x="-152.36"/>
<rect transform="matrix(5 0 0 -5 549.21 -35.433)" height="7.0866" width="3.5433" y="-134.65" x="-134.65"/>
<rect transform="matrix(5 0 0 -5 549.21 -35.433)" height="7.0866" width="3.5433" y="-134.65" x="-205.51"/>
<rect transform="matrix(5 0 0 5 549.21 -35.433)" height="7.0866" width="3.5433" y="99.213" x="-173.62"/>
<rect transform="matrix(5 0 0 5 549.21 -35.433)" height="7.0866" width="3.5433" y="99.213" x="-166.54"/>
<rect transform="matrix(5 0 0 5 549.21 -35.433)" height="7.0866" width="3.5433" y="85.039" x="-166.54"/>
<rect transform="matrix(5 0 0 5 549.21 -35.433)" height="7.0866" width="3.5433" y="85.039" x="-173.62"/>
<rect transform="matrix(5 0 0 5 549.21 -35.433)" height="7.0866" width="7.0866" y="276.38" x="-198.43"/>
<rect transform="matrix(5 0 0 -5 549.21 -35.433)" height="7.0866" width="3.5433" y="-141.73" x="-148.82"/>
<rect transform="matrix(5 0 0 -5 549.21 -35.433)" height="7.0866" width="3.5433" y="-141.73" x="-191.34"/>
<rect y="637.8" width="53.149" x="-318.9" height="35.433"/>
</g>
</g>
</svg>
