<svg xmlns:rdf="http://www.w3.org/1999/02/22-rdf-syntax-ns#" xmlns="http://www.w3.org/2000/svg" height="480" width="640" xmlns:cc="http://creativecommons.org/ns#" xmlns:dc="http://purl.org/dc/elements/1.1/">
<defs>
<clipPath id="a" clipPathUnits="userSpaceOnUse">
<rect fill-opacity=".67" height="480" width="640" y="32" x="-12.355"/>
</clipPath>
</defs>
<g fill-rule="evenodd" transform="translate(12.355 -32)" clip-path="url(#a)">
<rect height="118.94" width="719.29" y="32" x="-52" stroke-width="1pt" fill="#00f"/>
<rect height="120.35" width="719.29" y="391.65" x="-52" fill="#ff0"/>
<g stroke-width="1pt">
<rect height="120.35" width="719.29" y="271.3" x="-52" fill="#009a00"/>
<rect height="120.35" width="719.29" y="150.94" x="-52" fill="#fff"/>
<rect height="479.53" width="119.88" y="32.474" x="247.7" fill="#f00"/>
<polygon d="M 156.4718,110.31653 123.9666,87.934135 91.576445,110.53538 102.81871,72.704555 71.314537,48.883856 l 39.453303,-0.998341 12.91951,-37.323247 13.14122,37.213817 39.48886,0.753664 -31.33158,23.997744 z" transform="matrix(.96666 0 0 .97045 -52 30.593)" points="156.47 110.32 123.97 87.934 91.576 110.54 102.82 72.705 71.314 48.884 110.77 47.886 123.69 10.562 136.83 47.776 176.32 48.53 144.99 72.528" fill="#ff0"/>
</g>
</g>
</svg>
