<svg viewBox="-5 -5 12.8 9.6" width="640" xmlns="http://www.w3.org/2000/svg" xmlns:xlink="http://www.w3.org/1999/xlink" height="480">
<title>Flag of the People&apos;s Republic of China</title>
<defs>
<path id="c" d="m-0.588 0.81l0.588-1.81 0.588 1.81-1.54-1.12h1.904z" fill="#ffde00"/>
<clipPath id="d">
<path d="m-5-15.4h26.667v20h-26.667z"/>
</clipPath>
</defs>
<g transform="matrix(.48 0 0 .48 -2.6 2.392)" clip-path="url(#d)">
<path d="m-5-15.4h30v20h-30z" fill="#de2910"/>
<use width="30" xlink:href="#c" transform="matrix(3 0 0 3 0 -10.4)" height="20"/>
<use width="30" xlink:href="#c" transform="matrix(-.514 -.857 .857 -.514 5 -13.4)" height="20"/>
<use width="30" xlink:href="#c" transform="matrix(-.141 -.99 .99 -.141 7 -11.4)" height="20"/>
<use width="30" xlink:href="#c" transform="matrix(.275 -.962 .962 .275 7 -8.4)" height="20"/>
<use width="30" xlink:href="#c" transform="matrix(.625 -.781 .781 .625 5 -6.4)" height="20"/>
</g>
</svg>
