<svg xmlns:rdf="http://www.w3.org/1999/02/22-rdf-syntax-ns#" xmlns="http://www.w3.org/2000/svg" height="480" width="640" xmlns:cc="http://creativecommons.org/ns#" xmlns:dc="http://purl.org/dc/elements/1.1/">
<defs>
<clipPath id="a" clipPathUnits="userSpaceOnUse">
<rect fill-opacity=".67" height="512" width="682.67" y="-.0000010501" x="-85.333"/>
</clipPath>
</defs>
<g transform="matrix(.9375 0 0 .9375 80 9.8449e-7)" clip-path="url(#a)">
<g transform="matrix(1.0321 0 0 1.0321 -128 .000056731)" fill-rule="evenodd">
<g stroke-width="1pt">
<rect height="166.54" width="744.09" y="162.99" x="0" fill="#fff"/>
<rect height="166.54" width="744.09" y="329.53" x="0"/>
<rect height="162.99" width="744.09" y="-.000057" x="0" fill="#f00"/>
</g>
<g transform="translate(23.212 409.22)">
<g stroke="#fff" fill="#d7b900">
<path d="m322.44-322.44h7.087l3.75 60.236-7.294 7.087-7.086-7.087 3.543-60.236z" transform="matrix(.60585 -.032038 .057196 .75873 164.05 95.207)" stroke-width="1pt"/>
<path d="m322.44-322.44h7.087l3.75 60.236-7.294 7.087-7.086-7.087 3.543-60.236z" transform="matrix(.60642 .023124 -.041283 .75945 123.88 77.449)" stroke-width="1pt"/>
<g stroke-width="4.8244" transform="matrix(1.2667 0 0 1.0307 -115.19 8.206)">
<path transform="matrix(-.21053 0 0 .18418 442.73 -252.58)" d="m177.16 255.12-17.716 442.91 35.433-35.434 17.716-407.48h-35.433z"/>
<path transform="matrix(-.21053 0 0 .18418 435.27 -259.11)" d="m177.16 290.55-17.717 407.48 35.433-35.434 17.717-372.05h-35.433z"/>
<path transform="matrix(-.21053 0 0 .18418 427.81 -265.63)" d="m177.17 325.98-17.718 372.05 35.433-35.434 17.718-336.61h-35.433z"/>
<path transform="matrix(-.21053 0 0 .18418 420.35 -272.16)" d="m177.16 361.42-17.717 336.62 35.433-35.434 17.717-301.18h-35.433z"/>
</g>
<g stroke-width="4.8244" transform="matrix(1.1273 0 0 1.0307 -62.209 8.1481)">
<path transform="matrix(.21053 0 0 .18418 269.17 -252.58)" d="m177.16 255.12-17.716 442.91 35.433-35.434 17.716-407.48h-35.433z"/>
<path transform="matrix(.21053 0 0 .18418 276.63 -259.11)" d="m177.16 290.55-17.717 407.48 35.433-35.434 17.717-372.05h-35.433z"/>
<path transform="matrix(.21053 0 0 .18418 284.08 -265.63)" d="m177.17 325.98-17.717 372.05 35.433-35.434 17.717-336.61h-35.433z"/>
<path transform="matrix(.21053 0 0 .18418 291.86 -271.3)" d="m177.16 361.42-17.716 336.62 35.433-35.434 17.716-301.18h-35.433z"/>
</g>
</g>
<g stroke="#d7b900" fill="#fff">
<path d="m181.73 256.05c-1.004-1.312 19.847-18.646 55.28-18.646 53.15 0 61.307 18.646 96.741 18.646h152.02c35.433 0 45.723-18.646 98.872-18.646 35.433 0 52.168 18.293 53.149 18.646 0 0-17.716-0.93-53.149-0.93s-49.3 39.04-85.052 38.222c-26.788 0.818-144.23 0-179.66 0-35.433 0-47.486-37.292-82.92-37.292-35.433 0-56.284-1.312-55.28 0z" transform="matrix(.25639 0 0 .19003 236.01 -252.36)" stroke-width="4.8244"/>
<path d="m400.39-109.84v3.543l3.543 3.543-3.543 3.5434v3.5433c-14.174 7.0867-28.849 7.0867-42.52 7.0867-13.67 0-28.346 0-46.063-7.0867v-3.5433l-3.543-3.5434 3.543-3.543v-3.543c14.173 3.543 28.347 7.086 46.063 7.086 17.717 0 28.347-3.543 42.52-7.086z" transform="matrix(1.3231 0 0 1.2037 -129.91 19.854)" stroke-width="1pt"/>
<g transform="matrix(-1.0627 .28456 .30493 .99174 760.82 -100.29)">
<rect transform="matrix(-.56396 -.82580 -.88840 .45907 0 0)" rx="2.3947" ry="4.5048" height="40.13" width="4.7893" y="-406.53" x="-73.159" stroke-width=".62344"/>
<g stroke-width="4.7128" transform="matrix(-.10045 .037692 .094135 .22662 362.02 -256.85)">
<path transform="matrix(1.3763 .17548 -.14151 1.7066 -97.886 -514.14)" d="m318.9 574.02 17.716 17.716 17.717-17.716 17.716 17.716 17.717-17.716 17.716 17.716c5.257-9.426 7.092-22.888-0.112-36.519-36.185-13.818-68.824-12.643-107.18 1.188-3.087 11.031-2.975 23.928 0 35.433l18.709-17.818z"/>
<path transform="matrix(1.3763 .17548 -.14151 1.7066 -95.127 -545.97)" d="m318.9 574.02 17.716 17.716 17.717-17.716 17.716 17.716 17.717-17.716 17.716 17.716c5.257-9.426 7.092-22.888-0.112-36.519-36.185-13.818-68.824-12.643-107.18 1.188-3.087 11.031-2.975 23.928 0 35.433l18.709-17.818z"/>
<path transform="matrix(1.3763 .17548 -.14151 1.7066 -92.368 -577.8)" d="m318.9 574.02 17.716 17.716 17.717-17.716 17.716 17.716 17.717-17.716 17.716 17.716c5.257-9.426 7.092-22.888-0.112-36.519-36.185-13.818-68.824-12.643-107.18 1.188-3.087 11.031-2.975 23.928 0 35.433l18.709-17.818z"/>
<path transform="matrix(1.3763 .17548 -.14151 1.7066 -88.229 -617.12)" d="m318.9 574.02 17.716 17.716 17.717-17.716 17.716 17.716 17.717-17.716 17.716 17.716c5.257-9.426 7.092-22.888-0.112-36.519-36.185-13.818-68.824-12.643-107.18 1.188-3.087 11.031-2.975 23.928 0 35.433l18.709-17.818z"/>
<path transform="matrix(1.3763 .17548 -.14151 1.7066 -85.47 -648.94)" d="m318.9 574.02 17.716 17.716 17.717-17.716 17.716 17.716 17.717-17.716 17.716 17.716c5.257-9.426 7.092-22.888-0.112-36.519-36.185-13.818-68.824-12.643-107.18 1.188-3.087 11.031-2.975 23.928 0 35.433l18.709-17.818z"/>
<path transform="matrix(1.3763 .17548 -.14151 1.7066 -82.711 -680.77)" d="m318.9 574.02 17.716 17.716 17.717-17.716 17.716 17.716 17.717-17.716 17.716 17.716c5.257-9.426 7.092-22.888-0.112-36.519-36.185-13.818-68.824-12.643-107.18 1.188-3.087 11.031-2.975 23.928 0 35.433l18.709-17.818z"/>
</g>
<g stroke-width="1pt">
<path transform="matrix(.498 -.38506 .29096 .65904 228.03 87.159)" d="m345.63-96.125c0 3.2792-1.1193 5.9375-2.5 5.9375s-2.5-2.6583-2.5-5.9375 1.1193-5.9375 2.5-5.9375 2.5 2.6583 2.5 5.9375z"/>
<path transform="matrix(.498 -.42984 .29096 .73568 242.09 102.86)" d="m345.63-96.125c0 3.2792-1.1193 5.9375-2.5 5.9375s-2.5-2.6583-2.5-5.9375 1.1193-5.9375 2.5-5.9375 2.5 2.6583 2.5 5.9375z"/>
<path transform="matrix(.53454 -.41491 .31232 .71013 245.2 88.253)" d="m345.63-96.125c0 3.2792-1.1193 5.9375-2.5 5.9375s-2.5-2.6583-2.5-5.9375 1.1193-5.9375 2.5-5.9375 2.5 2.6583 2.5 5.9375z"/>
</g>
</g>
<path d="m268.29 261.84s32.89-42.159 32.89-95.309c0 0.001 70.866 0.001 70.866 0 0 53.15 34.308 95.309 35.434 88.584-17.717 0-53.15-17.717-70.866-53.15-17.716 35.434-50.608 59.875-68.324 59.875z" transform="matrix(.30797 0 0 .19003 235.41 -246.38)" stroke-width="4.8244"/>
<path d="m253.46 240.41s47.939-58.726 47.939-111.88v-74.584c0-17.717 23.97-18.646 35.955-18.646 17.717 0 35.954 0.929 35.954 18.646v74.584c0 53.149 47.94 111.88 47.94 111.88-35.433 0-54.193-39.151-71.909-74.584 0 17.717 4.993 53.862-12.724 71.579-17.716-17.717-11.246-53.862-11.246-71.579-17.717 35.433-36.475 74.584-71.909 74.584z" transform="matrix(.29565 0 0 .19003 239.56 -245.85)" stroke-width="4.8244"/>
<path d="m283.12 77.953h53.149c0 17.716 0 35.433-17.716 35.433-17.717 0-35.433-17.717-35.433-35.433z" transform="matrix(.24229 .077462 -.053943 .11836 258.11 -271.54)" stroke-width="5.9087"/>
<path d="m183.96 42.52c11.811 0 11.811 17.716 11.811 35.433-17.716 0-29.528-17.717-47.244 0 0-19.559 0-35.433 17.716-35.433h17.717z" transform="matrix(.36344 .11619 -.053943 .11836 267.48 -266.15)" stroke-width="4.8244"/>
<path d="m336.61 69.094c0 4.8923-3.966 8.8583-8.8583 8.8583s-8.8583-3.966-8.8583-8.8583 3.966-8.8583 8.8583-8.8583 8.8583 3.966 8.8583 8.8583z" transform="matrix(.24229 .077462 -.080914 .17754 263.94 -273.76)" stroke-width="4.8244"/>
</g>
<path d="m322.44-322.44h7.087l3.75 60.236-7.294 7.087-7.086-7.087 3.543-60.236z" transform="matrix(.60705 0 0 .76024 141.13 85.239)" stroke="#fff" stroke-width="1pt" fill="#d7b900"/>
<g stroke="#d7b900" fill="#fff" transform="matrix(1.159 .30317 -.35586 .98736 -126.74 -108.64)">
<rect transform="matrix(-.56396 -.82580 -.88840 .45907 0 0)" rx="2.3947" ry="4.5048" height="40.13" width="4.7893" y="-406.53" x="-73.159" stroke-width=".62344"/>
<g stroke-width="4.7128" transform="matrix(-.10045 .037692 .094135 .22662 362.02 -256.85)">
<path transform="matrix(1.3763 .17548 -.14151 1.7066 -97.886 -514.14)" d="m318.9 574.02 17.716 17.716 17.717-17.716 17.716 17.716 17.717-17.716 17.716 17.716c5.257-9.426 7.092-22.888-0.112-36.519-36.185-13.818-68.824-12.643-107.18 1.188-3.087 11.031-2.975 23.928 0 35.433l18.709-17.818z"/>
<path transform="matrix(1.3763 .17548 -.14151 1.7066 -95.127 -545.97)" d="m318.9 574.02 17.716 17.716 17.717-17.716 17.716 17.716 17.717-17.716 17.716 17.716c5.257-9.426 7.092-22.888-0.112-36.519-36.185-13.818-68.824-12.643-107.18 1.188-3.087 11.031-2.975 23.928 0 35.433l18.709-17.818z"/>
<path transform="matrix(1.3763 .17548 -.14151 1.7066 -92.368 -577.8)" d="m318.9 574.02 17.716 17.716 17.717-17.716 17.716 17.716 17.717-17.716 17.716 17.716c5.257-9.426 7.092-22.888-0.112-36.519-36.185-13.818-68.824-12.643-107.18 1.188-3.087 11.031-2.975 23.928 0 35.433l18.709-17.818z"/>
<path transform="matrix(1.3763 .17548 -.14151 1.7066 -88.229 -617.12)" d="m318.9 574.02 17.716 17.716 17.717-17.716 17.716 17.716 17.717-17.716 17.716 17.716c5.257-9.426 7.092-22.888-0.112-36.519-36.185-13.818-68.824-12.643-107.18 1.188-3.087 11.031-2.975 23.928 0 35.433l18.709-17.818z"/>
<path transform="matrix(1.3763 .17548 -.14151 1.7066 -85.47 -648.94)" d="m318.9 574.02 17.716 17.716 17.717-17.716 17.716 17.716 17.717-17.716 17.716 17.716c5.257-9.426 7.092-22.888-0.112-36.519-36.185-13.818-68.824-12.643-107.18 1.188-3.087 11.031-2.975 23.928 0 35.433l18.709-17.818z"/>
<path transform="matrix(1.3763 .17548 -.14151 1.7066 -82.711 -680.77)" d="m318.9 574.02 17.716 17.716 17.717-17.716 17.716 17.716 17.717-17.716 17.716 17.716c5.257-9.426 7.092-22.888-0.112-36.519-36.185-13.818-68.824-12.643-107.18 1.188-3.087 11.031-2.975 23.928 0 35.433l18.709-17.818z"/>
</g>
<g stroke-width="1pt">
<path transform="matrix(.498 -.38506 .29096 .65904 228.03 87.159)" d="m345.63-96.125c0 3.2792-1.1193 5.9375-2.5 5.9375s-2.5-2.6583-2.5-5.9375 1.1193-5.9375 2.5-5.9375 2.5 2.6583 2.5 5.9375z"/>
<path transform="matrix(.498 -.42984 .29096 .73568 242.09 102.86)" d="m345.63-96.125c0 3.2792-1.1193 5.9375-2.5 5.9375s-2.5-2.6583-2.5-5.9375 1.1193-5.9375 2.5-5.9375 2.5 2.6583 2.5 5.9375z"/>
<path transform="matrix(.53454 -.41491 .31232 .71013 245.2 88.253)" d="m345.63-96.125c0 3.2792-1.1193 5.9375-2.5 5.9375s-2.5-2.6583-2.5-5.9375 1.1193-5.9375 2.5-5.9375 2.5 2.6583 2.5 5.9375z"/>
</g>
</g>
<g transform="matrix(1.1703 0 0 1.0318 -76.898 9.4313)">
<path d="m301.18 290.55c0 194.88 35.433 177.17 106.3 248.03 70.866-70.866 106.3-53.15 106.3-248.03-35.434 0-70.867 0-106.3-17.716-35.432 17.716-70.866 17.716-106.3 17.716z" transform="matrix(.21053 0 0 .18418 269.66 -253.34)" stroke="#d7b900" stroke-width="4.8244" fill="#fff"/>
<path transform="matrix(.19583 0 0 .16890 275.65 -247.61)" fill="#d7b900" d="m301.18 290.55c0 194.88 35.433 177.17 106.3 248.03 70.866-70.866 106.3-53.15 106.3-248.03-35.434 0-70.867 0-106.3-17.716-35.432 17.716-70.866 17.716-106.3 17.716z"/>
<path transform="matrix(.21053 0 0 .15478 269.77 -242.19)" fill="#fff" d="m372.05 284.81v221.58l35.433 32.195 35.433-32.195v-221.58c-12.64-2.444-24.837-6.876-35.378-11.971-11.719 5.427-23.659 9.693-35.488 11.971z"/>
</g>
</g>
</g>
</g>
</svg>
