<svg xmlns:rdf="http://www.w3.org/1999/02/22-rdf-syntax-ns#" xmlns="http://www.w3.org/2000/svg" height="480" width="640" xmlns:cc="http://creativecommons.org/ns#" xmlns:dc="http://purl.org/dc/elements/1.1/">
<defs>
<clipPath id="a" clipPathUnits="userSpaceOnUse">
<rect fill-opacity=".67" height="512" width="682.67" y="-.0000039058" x="-81.333"/>
</clipPath>
</defs>
<g stroke-width="1pt" clip-path="url(#a)" transform="matrix(.9375 0 0 .9375 76.25 .0000036617)" fill-rule="evenodd">
<rect height="512" width="1024" y="-.0000039058" x="-252" fill="#6797d6"/>
<g fill="#fff">
<polygon points="533.77 391.48 476.5 433.15 498.45 365.81 441.12 324.21 511.95 324.28 533.78 256.9 555.61 324.28 626.44 324.23 569.1 365.81 591.04 433.16 591.04 433.16" transform="matrix(.56646 0 0 .53310 -42.572 -85.713)"/>
<polygon points="533.77 391.48 476.5 433.15 498.45 365.81 441.12 324.21 511.95 324.28 533.78 256.9 555.61 324.28 626.44 324.23 569.1 365.81 591.04 433.16 591.04 433.16" transform="matrix(.56646 0 0 -.53310 -42.572 598.75)"/>
<polygon points="533.77 391.48 476.5 433.15 498.45 365.81 441.12 324.21 511.95 324.28 533.78 256.9 555.61 324.28 626.44 324.23 569.1 365.81 591.04 433.16 591.04 433.16" transform="matrix(.54171 -.16562 .15586 .50981 -246.32 164.19)"/>
<polygon points="533.77 391.48 476.5 433.15 498.45 365.81 441.12 324.21 511.95 324.28 533.78 256.9 555.61 324.28 626.44 324.23 569.1 365.81 591.04 433.16 591.04 433.16" transform="matrix(-.54171 -.16562 -.15586 .50981 765.81 164.19)"/>
</g>
</g>
</svg>
