<!-- /Creative Commons Public Domain -->
<svg xmlns:rdf="http://www.w3.org/1999/02/22-rdf-syntax-ns#" xmlns="http://www.w3.org/2000/svg" height="480" width="640" xmlns:cc="http://creativecommons.org/ns#" xmlns:dc="http://purl.org/dc/elements/1.1/">
<defs>
<clipPath id="a" clipPathUnits="userSpaceOnUse">
<rect fill-opacity=".67" height="512" width="682.67" y="-.0000028613" x="-85.333"/>
</clipPath>
</defs>
<g transform="matrix(.93750 0 0 .93750 80 .0000026825)" clip-path="url(#a)">
<g stroke-width="1pt" transform="matrix(17.067 0 0 17.067 -256 -.0000024)">
<rect height="30" width="60" y="0" x="0" fill="#006"/>
<path fill="#fff" d="m0 0v3.3541l53.292 26.646h6.708v-3.354l-53.292-26.646h-6.708zm60 0v3.354l-53.292 26.646h-6.708v-3.354l53.292-26.646h6.708z"/>
<path fill="#fff" d="m25 0v30h10v-30h-10zm-25 10v10h60v-10h-60z"/>
<path fill="#c00" d="m0 12v6h60v-6h-60zm27-12v30h6v-30h-6z"/>
<path fill="#c00" d="m0 30 20-10h4.472l-20 10h-4.472zm0-30 20 10h-4.472l-15.528-7.7639v-2.2361zm35.528 10 20-10h4.472l-20 10h-4.472zm24.472 20-20-10h4.472l15.528 7.764v2.236z"/>
</g>
</g>
</svg>
