<svg xmlns:rdf="http://www.w3.org/1999/02/22-rdf-syntax-ns#" xmlns="http://www.w3.org/2000/svg" height="480" viewBox="0 0 213.33333 160" width="640" xmlns:cc="http://creativecommons.org/ns#" xmlns:xlink="http://www.w3.org/1999/xlink" xmlns:dc="http://purl.org/dc/elements/1.1/">
<defs>
<g id="a">
<clipPath id="b">
<path d="m-109 104a104 104 0 0 0 0 -208h218a104 104 0 0 0 0 208z"/>
</clipPath>
<path id="c" d="m-55 74a55 55 0 0 1 110 0v-148a55 55 0 0 1 -110 0z" clip-path="url(#b)"/>
<use xlink:href="#c" transform="rotate(90)" height="200" width="300" y="0" x="0"/>
</g>
</defs>
<rect height="160" width="213.33" y="1.4211e-14" x="-.0000016667" fill="#fff"/>
<rect height="133.71" width="200.56" y="13.192" x="6.3846" fill="#fff"/>
<path d="m93.296 13.192v53.484h-86.911v26.742h86.911v53.484h26.742v-53.484h86.911v-26.742h-86.911v-53.484h-26.742z" fill="#f00"/>
<g fill="#ff0000">
<use xlink:href="#a" transform="matrix(.66855 0 0 .66855 49.472 39.566)" height="200" width="300" y="0" x="0"/>
<use xlink:href="#a" transform="matrix(.66855 0 0 .66855 163.86 120.53)" height="200" width="300" y="0" x="0"/>
<use xlink:href="#a" transform="matrix(.66855 0 0 .66855 163.86 39.566)" height="200" width="300" y="0" x="0"/>
<use xlink:href="#a" transform="matrix(.66855 0 0 .66855 49.472 120.53)" height="200" width="300" y="0" x="0"/>
</g>
</svg>
