<svg xmlns:rdf="http://www.w3.org/1999/02/22-rdf-syntax-ns#" xmlns="http://www.w3.org/2000/svg" height="480" width="640" xmlns:cc="http://creativecommons.org/ns#" xmlns:dc="http://purl.org/dc/elements/1.1/">
<defs>
<clipPath id="a" clipPathUnits="userSpaceOnUse">
<rect fill-opacity=".67" height="512" width="682.67" y="-.000023176" x="-85.241"/>
</clipPath>
</defs>
<g transform="matrix(.93750 0 0 .93750 79.914 .000021728)" clip-path="url(#a)">
<rect fill-rule="evenodd" height="510.88" width="1021.8" y="-.000023382" x="-254.55" stroke-width="1pt" fill="#fff"/>
<g fill="#a11011">
<path d="m405.2 175.1zm-71.913-62.795-12.743 64.988 88.979-0.90887-9.5575-64.072"/>
<g fill-rule="evenodd" stroke-width="1pt">
<rect height="6.8271" width="27.309" y="77.584" x="276.15"/>
<rect height="6.8271" width="26.398" y="77.584" x="243.38"/>
<rect height="6.372" width="26.398" y="77.129" x="209.7"/>
</g>
<path d="m301.84 99.559zm-91.904-16.391v16.749h93.536v-16.391l-93.536-0.358"/>
<path d="m221.33 106.84-10.926 69.082 94.438 0.45819-12.743-69.082m2.9618 66.43z"/>
</g>
<rect fill-rule="evenodd" height="127.46" width="1024.2" y="384.54" x="-256" fill="#d61517"/>
<rect fill-rule="evenodd" height="26.356" width="347.88" y="175.2" x="82.674" stroke-width="1pt" fill="#a11011"/>
<path fill="#a11011" d="m95.911 198.65-7.3607 131.63-37.822 0.45518v21.157h413.49v-21.157l-37.822 0.45519-7.3573-131.92-323.12-0.62806z"/>
<g fill="#d61517">
<path d="m204.56 234.3v21.755h5.3384v-21.755h-5.3384m8.0076 0v21.755h42.707v-21.755h-42.707m45.377 0v21.755h40.038v-21.755h-40.038m42.707 0v21.755h8.0076v-21.755h-8.0076z"/>
<path d="m366.97 256.01zm-38.317-21.736v22.21h38.997v-21.736l-38.997-0.47474"/>
<path d="m316.67 306.19v23.548h29.361v-23.548h-29.361m32.031 0v14.718h5.3384v-14.718h-5.3384m37.369 0v14.718h5.3384v-14.718h-5.3384m8.0076 0v23.548h29.361v-23.548h-29.361z"/>
<path d="m319.33 282.23v21.3h5.3384v-21.3h-5.3384m8.0076 0v21.3h18.684v-21.3h-18.684z"/>
<path d="m394.07 282.23v21.3h19.135v-21.3h-19.135m21.869 0v21.3h5.4672v-21.3h-5.4672z"/>
<path d="m317.91 201.89v5.7801h102.92v-5.7801h-102.92z"/>
<path d="m101.56 282.68v21.3h18.041v-21.3h-18.041z"/>
<path d="m167.19 282.23v22.21h18.684v-22.21h-18.684m21.354 0v22.21h5.3384v-22.21h-5.3384z"/>
<path d="m203.21 202.35v5.325h106.1v-5.325h-106.1z"/>
<path d="m95.343 202.81v5.325h97.002v-5.325h-97.002z"/>
</g>
<path fill="#fff" d="m313.08 200.53c-10.186 0.75376 1.348 96.039 1.3666 125.75 0 0 12.182-119.51-1.3666-125.75z"/>
<path d="m84.444 184.62v14.61h344.33v-14.61h-344.33z" fill="#d61517"/>
<path fill="#fff" d="m196.57 200.98c-10.186 0.76739 1.348 97.777 1.3666 128.03 0 0 12.182-121.67-1.3666-128.03z"/>
<g fill="#d61517">
<path d="m90.901 282.68v21.3h8.2162v-21.3h-8.2162z"/>
<path d="m90.693 305.73v24.031h29.361l-0.16015-24.001-29.201-0.03m28.849 23.517z"/>
<path d="m454.7 349.85zm-403.15-18.172v18.569h410.32v-18.172l-410.32-0.39692"/>
<path d="m167.16 306.19v23.226h28.451v-23.203l-28.451-0.0232m27.954 22.73z"/>
<path d="m201.75 305.73v23.548h29.361l-0.16015-23.519-29.201-0.0294m28.849 23.045z"/>
<path d="m279.58 306.19v23.548h32.547l-0.15978-23.519-32.388-0.0294m31.979 23.045z"/>
<path d="m139.48 256.45zm-38.208-22.626v23.121h38.887v-22.626l-38.887-0.4942"/>
<path d="m97.684 256.46zm-3.8057-22.181v22.665h3.8733v-22.181l-3.8733-0.48447"/>
<path d="m183.51 256.9zm-40.476-22.626v23.121h41.195v-22.626l-41.195-0.4942"/>
<path d="m190.97 256.91zm-4.7001-22.181v22.665h4.7836v-22.181l-4.7836-0.48447"/>
<path d="m346.23 279.7zm-27.06-20.845v21.3h27.541v-20.845l-27.541-0.45529"/>
<path d="m420.87 279.26zm-27.507-19.954v20.39h27.996v-19.954l-27.996-0.43583"/>
<path d="m390.15 279.71zm-39.92-20.399v20.845h40.629v-20.399l-40.629-0.44556"/>
</g>
<path fill="#fff" d="m315.23 183.92zm-4.7002-9.264v9.4663h4.7836v-9.264l-4.7836-0.20234"/>
<g fill="#d61517">
<path d="m325.23 255.57zm-5.1474-21.29v21.755h5.2388v-21.29l-5.2388-0.46502"/>
<path d="m408.49 256.02zm-37.052-21.29v21.755h37.71v-21.29l-37.71-0.46502"/>
<path d="m419.86 256.02zm-7.3833-21.29v21.755h7.5145v-21.29l-7.5145-0.46502"/>
<path d="m343.11 231.89zm-23.482-21.736v22.21h23.9v-21.736l-23.9-0.47475"/>
<path d="m389.21 231.9zm-41.894-21.29v21.755h42.639v-21.29l-42.639-0.46502"/>
<path d="m417.72 231.89zm-25.271-21.736v22.21h25.72v-21.736l-25.72-0.47475"/>
<path d="m201.75 281.15v21.755h12.066v-21.611l-12.066-0.14412m11.855 21.29z"/>
<path d="m216.31 281.61v21.755h14.93v-21.611l-14.93-0.14412m14.669 21.29z"/>
<path d="m279.58 282.07v21.755h19.348v-21.774l-19.348 0.019m19.011 21.29z"/>
<path d="m311.04 303.36zm-9.6193-21.29v21.755h9.7902v-21.29l-9.7902-0.46501"/>
<path d="m92.612 201.44v4.4147h102.92v-4.4147h-102.92z"/>
<path d="m198.2 201.44v4.4147h113.84v-4.4147h-113.84z"/>
<path d="m314.64 200.98v4.4147h108.91v-4.4147h-108.91z"/>
<path d="m119.12 280.14zm-27.06-21.29v21.755h27.541v-21.29l-27.541-0.46502"/>
<path d="m192.44 280.14zm-24.824-21.29v21.755h25.265v-21.29l-25.265-0.46502"/>
<path d="m122.93 259.31v21.755h42.183l0.16106-21.611-42.344-0.14413m41.447 21.29z"/>
<path d="m203.57 257.94v21.755h27.996l0.16034-21.611-28.156-0.14413m27.507 21.29z"/>
<path d="m276.77 279.23zm-43.159-21.29v21.755h43.926l-0.15973-21.451-43.766-0.30457"/>
<path d="m280.03 258.4v21.755h28.451l0.16036-21.774-28.611 0.019m27.954 21.29z"/>
<path d="m232.42 230.99zm-28.402-21.29v21.755h28.906v-21.29l-28.906-0.46502"/>
<path d="m277.76 231.43zm-42.789-21.736v22.21h43.549v-21.736l-43.549-0.47475"/>
<path d="m306.67 231.43zm-25.271-21.736v22.21h25.72v-21.736l-25.72-0.47475"/>
</g>
<path fill="#a11011" d="m186.73 182.38zm-73.73-62.795-10.926 64.988 88.979-0.90887-10.014-65.439"/>
<g fill="#d61517">
<path d="m220.62 123.84-2.718 10.65h38.052v-10.65h-35.334m38.052 0v10.65h35.334v-10.65h-35.334z"/>
<path d="m217.9 137.15v10.65h13.503v-10.65h-13.503m16.204 0v10.65h43.21v-10.65h-43.21m45.91 0v10.65h16.204v-10.65h-16.204z"/>
<path d="m223.3 110.53-2.7217 10.65h10.887v-10.65h-8.1652m10.887 0v10.65h43.548v-10.65h-43.548m46.269 0v10.65h10.887v-10.65h-10.887z"/>
<path d="m209.9 86.565v5.325h45.832v-5.325h-45.832m48.528 0v5.325h43.136v-5.325h-43.136z"/>
<path d="m209.9 94.553v5.325h21.354v-5.325h-21.354m24.023 0v5.325h42.707v-5.325h-42.707m45.377 0v5.325h21.354v-5.325h-21.354z"/>
<path d="m244.6 78.578v5.325h24.023v-5.325h-24.023z"/>
<path d="m84.444 177.09v5.325h21.354v-5.325h-21.354z"/>
<path d="m407.42 177.09v5.325h21.354v-5.325h-21.354z"/>
<path d="m127.43 182.66zm-20.352-4.3644v4.4598h20.714v-4.3644l-20.714-0.0953"/>
<path d="m172.99 183.13zm-17.669-3.7345v3.8161h17.983v-3.7345l-17.983-0.0816"/>
</g>
<path fill="#fff" d="m203.25 184.34zm-5.1473-10.6v10.832h5.2387v-10.6l-5.2387-0.23153"/>
<g fill="#d61517">
<path d="m124.29 176.09zm-17.669-13.088v13.374h17.983v-13.088l-17.983-0.28587"/>
<path d="m134.91 176.1zm-9.1721-12.643v12.919h9.3351v-12.643l-9.3351-0.27615"/>
<path d="m187.13 177.42zm-15.88-14.87v15.195h16.162v-14.87l-16.162-0.32479"/>
<path d="m168.16 176.18zm-12.379-12.98v13.264h12.599v-12.98l-12.599-0.28352"/>
</g>
<path fill="#a11011" d="m192.98 181.7zm-19.905-6.5915v6.7355h20.258v-6.5915l-20.258-0.14397"/>
<path fill="#a11011" d="m295.06 173.73zm-74.187-66.43-11.383-7.3836h93.534l-10.47 8.2925"/>
<g fill="#d61517">
<path d="m210.92 78.578v5.325h24.023v-5.325h-24.023z"/>
<path d="m276.91 79.033v5.325h25.388v-5.325h-25.388z"/>
<g transform="matrix(1.0299 0 0 1.0299 -145.31 -9.1034)">
<path transform="matrix(6.0068 0 0 .20985 -418.88 88.002)" d="m139.81 122.83zm-10.81-7.83v8h11v-7.829l-11-0.17"/>
<path transform="matrix(6.6496 0 0 .20985 -505.34 87.118)" d="m139.81 122.83zm-10.81-7.83v8h11v-7.829l-11-0.17"/>
<path transform="matrix(6.971 0 0 .20985 -547.25 85.792)" d="m139.81 122.83zm-10.81-7.83v8h11v-7.829l-11-0.17"/>
<path transform="matrix(6.971 0 0 .20985 -547.25 85.792)" d="m139.81 122.83zm-10.81-7.83v8h11v-7.829l-11-0.17"/>
<path transform="matrix(7.2523 0 0 .20985 -584.41 84.024)" d="m139.81 122.83zm-10.81-7.83v8h11v-7.829l-11-0.17"/>
</g>
<path d="m243.12 182.68zm-15.88-3.4737v3.5495h16.162v-3.4737l-16.162-0.0759"/>
<path d="m283.21 182.68zm-13.644-3.4737v3.5495h13.887v-3.4737l-13.887-0.0759"/>
<path d="m117.39 231.88zm-21.694-22.181v22.665h22.079v-22.181l-22.079-0.48447"/>
<path d="m242.86 177.45zm-30.19-13.718v14.018h30.727v-13.718l-30.727-0.29963"/>
<path d="m302.57 177.45zm-25.61-13.718v14.018h26.065v-13.718l-26.065-0.29963"/>
<path d="m273.31 177.45zm-7.3833-13.718v14.018h7.5145v-13.718l-7.5145-0.29963"/>
</g>
<path fill="#a11011" d="m226.71 182.14zm-16.774-7.0369v7.1906h17.072v-7.0369l-17.072-0.1537"/>
<path d="m175.2 177.09v5.7802h21.354v-5.7802h-21.354m29.361 0v5.7802h21.354v-5.7802h-21.354z" fill="#d61517"/>
<path fill="#a11011" d="m304.02 182.15zm-20.352-6.5915v6.7355h20.714v-6.5915l-20.714-0.14397"/>
<g fill="#d61517">
<path d="m165.23 231.89zm-44.578-21.736v22.21h45.369v-21.736l-45.369-0.47475"/>
<path d="m191.1 231.89zm-23.035-21.736v22.21h23.444v-21.736l-23.444-0.47475"/>
<path d="m254.98 161.56zm-40.029-11.936v12.197h40.74v-11.936l-40.74-0.26072"/>
<path d="m298.21 162.01zm-40.029-11.936v12.197h40.74v-11.936l-40.74-0.26072"/>
</g>
<g fill="#a11011">
<g fill-rule="evenodd" stroke-width="1pt">
<rect height="6.8271" width="23.667" y="88.962" x="168.74"/>
<rect height="7.7375" width="26.398" y="88.507" x="134.15"/>
<rect height="6.8271" width="20.937" y="88.962" x="105.02"/>
</g>
<path d="m189.57 109.24zm-76.616 10.801-8.1465-11.473 87.617 0.45523-10.497 9.5761"/>
</g>
<g fill="#d61517">
<path d="m105.8 102.54v5.325h18.684v-5.325h-18.684m21.354 0v5.325h42.707v-5.325h-42.707m45.377 0v5.325h18.684v-5.325h-18.684z"/>
<path d="m105.8 90.138v4.6813h18.684v-4.6813h-18.684m29.361 0v4.6813h24.023v-4.6813h-24.023z"/>
<path d="m169.86 90.593v4.0377h21.354v-4.0377h-21.354z"/>
</g>
<rect fill-rule="evenodd" height="13.654" width="87.387" y="95.79" x="105.02" stroke-width="1pt" fill="#a11011"/>
<g fill="#d61517">
<path d="m142.29 160.22zm-33.845-10.416v10.643h34.446v-10.416l-34.446-0.2275"/>
<path d="m184.89 160.22zm-39.788-10.416v10.643h40.495v-10.416l-40.495-0.2275"/>
<path d="m146.64 101.2zm-40.476-3.919v4.0046h41.195v-3.919l-41.195-0.0856"/>
<path d="m124.8 147.01zm-14.539-11.046v11.287h14.797v-11.046l-14.797-0.24125"/>
<path d="m167.22 147.04zm-39.288-9.7859v9.9996h39.986v-9.7859l-39.986-0.21374"/>
<path d="m183.55 147.47zm-12.75-11.046v11.287h12.976v-11.046l-12.976-0.24126"/>
<path d="m145.03 134.75zm-32.95-9.7859v9.9996h33.536v-9.7859l-33.536-0.21374"/>
<path d="m181.82 134.75zm-33.321-9.7859v9.9996h33.913v-9.7859l-33.913-0.21374"/>
<path d="m171.53 122.59zm-48.973-3.9191v4.0047h49.843v-3.9191l-49.843-0.0856"/>
<path d="m180.46 122.59zm-6.9362-3.9191v4.0047h7.0594v-3.9191l-7.0594-0.0856"/>
<path d="m120.82 122.59zm-7.8306-3.9191v4.0047h7.9697v-3.9191l-7.9697-0.0856"/>
<path d="m190.79 101.2zm-40.553-3.919v4.0046h41.273v-3.919l-41.273-0.0856"/>
<path d="m126.53 109.81zm-19.905-5.5926v5.7148h20.258v-5.5926l-20.258-0.12216"/>
<path d="m166.76 109.17zm-35.263-5.1472v5.2596h35.89v-5.1472l-35.89-0.11242"/>
<path d="m190.7 109.18zm-19.796-4.9627v5.0711h20.148v-4.9627l-20.148-0.1084"/>
<g transform="matrix(1.0299 0 0 .91607 -254.55 12.308)">
<path transform="matrix(6.0068 0 0 .20985 -418.88 88.002)" d="m139.81 122.83zm-10.81-7.83v8h11v-7.829l-11-0.17"/>
<path transform="matrix(6.6496 0 0 .20985 -505.34 87.118)" d="m139.81 122.83zm-10.81-7.83v8h11v-7.829l-11-0.17"/>
<path transform="matrix(6.971 0 0 .20985 -547.25 85.792)" d="m139.81 122.83zm-10.81-7.83v8h11v-7.829l-11-0.17"/>
<path transform="matrix(6.971 0 0 .20985 -547.25 85.792)" d="m139.81 122.83zm-10.81-7.83v8h11v-7.829l-11-0.17"/>
<path transform="matrix(7.2523 0 0 .20985 -584.41 84.024)" d="m139.81 122.83zm-10.81-7.83v8h11v-7.829l-11-0.17"/>
</g>
<path d="m354.19 182.67zm-14.986-3.919v4.0046h15.252v-3.919l-15.252-0.0856"/>
<path d="m404.57 182.21zm-22.588-3.919v4.0046h22.99v-3.919l-22.99-0.0856"/>
<path d="m406.89 176.57zm-20.167-12.305v12.574h20.525v-12.305l-20.525-0.26877"/>
<path d="m383.89 176.56zm-8.243-12.751v13.029h8.3894v-12.751l-8.3894-0.2785"/>
<path d="m340.5 176.99zm-16.775-13.642v13.94h17.073v-13.642l-17.073-0.29796"/>
<path d="m354.26 176.99zm-10.591-13.826v14.128h10.779v-13.826l-10.779-0.30199"/>
</g>
<path fill="#a11011" d="m338.66 183.03zm-17.669-7.9277v8.1009h17.983v-7.9277l-17.983-0.17315"/>
<path d="m285.54 177.09v5.7802h23.613v-5.7802h-23.613m31.484 0v5.7802h20.99v-5.7802h-20.99z" fill="#d61517"/>
<path fill="#d61517" d="m298.25 162.01zm-38.132-11.936v12.197h38.809v-11.936l-38.809-0.26072"/>
<g fill="#a11011">
<g fill-rule="evenodd" stroke-width="1pt">
<rect height="6.8271" width="23.667" y="88.852" x="387.66"/>
<rect height="7.7375" width="26.398" y="88.397" x="353.07"/>
<rect height="6.8271" width="20.937" y="88.852" x="323.94"/>
</g>
<path d="m408.49 109.13zm-76.616 10.801-8.1465-11.473 87.617 0.45523-10.497 9.5761"/>
</g>
<g fill="#d61517">
<path d="m324.72 102.43v5.325h18.684v-5.325h-18.684m21.354 0v5.325h42.707v-5.325h-42.707m45.377 0v5.325h18.684v-5.325h-18.684z"/>
<path d="m324.72 90.027v4.0377h18.684v-4.0377h-18.684m29.361 0v4.0377h24.023v-4.0377h-24.023z"/>
<path d="m388.78 90.483v3.394h21.354v-3.394h-21.354z"/>
</g>
<rect fill-rule="evenodd" height="13.654" width="87.387" y="95.679" x="323.94" stroke-width="1pt" fill="#a11011"/>
<g fill="#d61517">
<path d="m361.83 160.1zm-35.372-11.046v11.287h36v-11.046l-36-0.24126"/>
<path d="m403.84 160.1zm-38.055-11.046v11.287h38.731v-11.046l-38.731-0.24126"/>
<path d="m363.04 101.09zm-37.946-3.919v4.0046h38.62v-3.919l-38.62-0.0856"/>
<path d="m343.73 146.9zm-14.539-11.046v11.287h14.797v-11.046l-14.797-0.24126"/>
<path d="m386.16 146.9zm-38.655-11.046v11.287h39.342v-11.046l-39.342-0.24126"/>
<path d="m402.47 147.35zm-12.75-11.046v11.287h12.976v-11.046l-12.976-0.24126"/>
<path d="m364.59 133.39zm-33.583-7.8961v8.0686h34.179v-7.8961l-34.179-0.17246"/>
<path d="m400.75 133.39zm-32.688-7.8961v8.0686h33.269v-7.8961l-33.269-0.17246"/>
<path d="m390.45 122.48zm-48.973-3.9191v4.0047h49.843v-3.9191l-49.843-0.0856"/>
<path d="m399.39 122.48zm-6.9362-3.9191v4.0047h7.0594v-3.9191l-7.0594-0.0856"/>
<path d="m339.75 122.48zm-7.8306-3.9191v4.0047h7.9697v-3.9191l-7.9697-0.0856"/>
<path d="m409.69 101.09zm-41.818-3.919v4.0046h42.56v-3.919l-42.56-0.0856"/>
<path d="m344.19 108.4zm-18.64-6.2226v6.3585h18.971v-6.2226l-18.971-0.13591"/>
<path d="m384.38 108.41zm-36.528-5.7771v5.9033h37.177v-5.7771l-37.177-0.12618"/>
<path d="m409.59 108.41zm-21.694-5.5926v5.7148h22.079v-5.5926l-22.079-0.12216"/>
<g transform="matrix(1.0299 0 0 .91607 -35.622 12.197)">
<path transform="matrix(6.0068 0 0 .20985 -418.88 88.002)" d="m139.81 122.83zm-10.81-7.83v8h11v-7.829l-11-0.17"/>
<path transform="matrix(6.6496 0 0 .20985 -505.34 87.118)" d="m139.81 122.83zm-10.81-7.83v8h11v-7.829l-11-0.17"/>
<path transform="matrix(6.971 0 0 .20985 -547.25 85.792)" d="m139.81 122.83zm-10.81-7.83v8h11v-7.829l-11-0.17"/>
<path transform="matrix(6.971 0 0 .20985 -547.25 85.792)" d="m139.81 122.83zm-10.81-7.83v8h11v-7.829l-11-0.17"/>
<path transform="matrix(7.2523 0 0 .20985 -584.41 84.024)" d="m139.81 122.83zm-10.81-7.83v8h11v-7.829l-11-0.17"/>
</g>
<g transform="matrix(1.0299 0 0 .23327 -35.622 88.621)">
<path transform="matrix(6.0068 0 0 .20985 -418.88 88.002)" d="m139.81 122.83zm-10.81-7.83v8h11v-7.829l-11-0.17"/>
<path transform="matrix(6.6496 0 0 .20985 -505.34 87.118)" d="m139.81 122.83zm-10.81-7.83v8h11v-7.829l-11-0.17"/>
<path transform="matrix(6.971 0 0 .20985 -547.25 85.792)" d="m139.81 122.83zm-10.81-7.83v8h11v-7.829l-11-0.17"/>
<path transform="matrix(6.971 0 0 .20985 -547.25 85.792)" d="m139.81 122.83zm-10.81-7.83v8h11v-7.829l-11-0.17"/>
<path transform="matrix(7.2523 0 0 .20985 -584.41 84.024)" d="m139.81 122.83zm-10.81-7.83v8h11v-7.829l-11-0.17"/>
</g>
</g>
<g stroke-width="1pt" fill-rule="evenodd">
<rect height="28.965" width="19.954" y="462.6" x="232.07" fill="#808080"/>
<rect height="25.103" width="17.379" y="464.54" x="234.64" fill="#ffc500"/>
<rect height="17.379" width="11.586" y="469.68" x="237.86" fill="#808080"/>
<rect height="13.517" width="7.0803" y="471.62" x="240.44" fill="#d61517"/>
<g transform="matrix(1.0299 0 0 1.0299 -257.76 -50.207)">
<rect height="8.75" width="7.5" y="509.19" x="475" fill="#808080"/>
<rect height="5.0001" width="8.125" y="511.06" x="475" fill="#d61517"/>
</g>
<g transform="matrix(1.0299 0 0 1.0299 -397.6 -225.98)">
<rect transform="matrix(-1 0 0 -1 1128.6 1194.5)" height="73.125" width="9.375" y="486.69" x="488.75" fill="#808080"/>
<rect transform="matrix(-1 0 0 -1 1128.6 1194.5)" height="69.375" width="5.625" y="488.56" x="490.63" fill="#ffc500"/>
</g>
<rect transform="matrix(-.72619 .68749 -.72619 -.68749 0 0)" height="34.697" width="6.4603" y="-491.28" x="101.42" fill="#808080"/>
<rect transform="matrix(-.67437 -.73839 .67437 -.73839 0 0)" height="32.527" width="6.5743" y="-99.08" x="-486.13" fill="#808080"/>
<rect transform="matrix(.72178 -.69212 .72178 .69212 0 0)" height="33.052" width="5.3118" y="456.76" x="-104.4" fill="#ffc500"/>
<rect transform="matrix(-.67050 -.74191 .67050 -.74191 0 0)" height="32.948" width="5.2951" y="-97.62" x="-484.94" fill="#ffc500"/>
<rect transform="matrix(.71324 -.70092 .71324 .70092 0 0)" height="30.755" width="6.2161" y="454.71" x="-131.02" fill="#808080"/>
<rect transform="matrix(.71771 .69634 -.71771 .69634 0 0)" height="35.909" width="6.6859" y="98.053" x="453.17" fill="#808080"/>
<rect transform="rotate(225)" height="32.906" width="5.2884" y="-124.58" x="-457.36" fill="#ffc500"/>
<rect height="62.156" width="5.1493" y="336.22" x="254.14" fill="#808080"/>
<rect height="60.114" width="3.5402" y="337.05" x="255.01" fill="#ffc500"/>
<rect transform="rotate(-45)" height="35.125" width="5.6449" y="452.12" x="-126.24" fill="#ffc500"/>
<g transform="matrix(1.3111 0 0 1.0558 -279.63 -7.6723)" fill="#a11011">
<rect y="275.98" width="34.57" x="477.98" height="44.301"/>
<rect ry="18.298" height="36.596" width="34.311" y="258.3" x="478.13"/>
</g>
<g transform="matrix(1.2413 0 0 1.0195 -244.64 3.9693)" fill="#d61517">
<rect y="275.98" width="34.57" x="477.98" height="44.301"/>
<rect ry="18.298" height="36.596" width="34.311" y="258.3" x="478.13"/>
</g>
<g transform="matrix(.92478 0 0 .95717 -87.879 23.926)" fill="#a11011">
<rect y="275.98" width="34.57" x="477.98" height="44.301"/>
<rect ry="18.298" height="36.596" width="34.311" y="258.3" x="478.13"/>
</g>
<rect height="40.449" width="28.039" y="289.23" x="355.98" fill="#d61517"/>
<rect ry="16.707" height="33.414" width="27.829" y="273.09" x="356.11" fill="#d61517"/>
<g transform="matrix(1.3484 0 0 1.0558 -412.97 -8.7173)" fill="#a11011">
<rect y="275.98" width="34.57" x="477.98" height="44.301"/>
<rect ry="18.298" height="36.596" width="34.311" y="258.3" x="478.13"/>
</g>
<g transform="matrix(1.2766 0 0 1.0195 -376.99 2.9243)" fill="#d61517">
<rect y="275.98" width="34.57" x="477.98" height="44.301"/>
<rect ry="18.298" height="36.596" width="34.311" y="258.3" x="478.13"/>
</g>
<g transform="matrix(.95104 0 0 .95717 -215.77 22.881)" fill="#a11011">
<rect y="275.98" width="34.57" x="477.98" height="44.301"/>
<rect ry="18.298" height="36.596" width="34.311" y="258.3" x="478.13"/>
</g>
<g transform="matrix(.83413 0 0 .91304 -158 36.213)" fill="#d61517">
<rect y="275.98" width="34.57" x="477.98" height="44.301"/>
<rect ry="18.298" height="36.596" width="34.311" y="258.3" x="478.13"/>
</g>
<g transform="matrix(1.3298 0 0 1.0558 -515.42 -8.5564)" fill="#a11011">
<rect y="275.98" width="34.57" x="477.98" height="44.301"/>
<rect ry="18.298" height="36.596" width="34.311" y="258.3" x="478.13"/>
</g>
<g transform="matrix(1.2589 0 0 1.0195 -479.94 3.0852)" fill="#d61517">
<rect y="275.98" width="34.57" x="477.98" height="44.301"/>
<rect ry="18.298" height="36.596" width="34.311" y="258.3" x="478.13"/>
</g>
<g transform="matrix(.93791 0 0 .95717 -320.95 23.042)" fill="#a11011">
<rect y="275.98" width="34.57" x="477.98" height="44.301"/>
<rect ry="18.298" height="36.596" width="34.311" y="258.3" x="478.13"/>
</g>
<g transform="matrix(.82261 0 0 .91304 -263.97 36.374)" fill="#d61517">
<rect y="275.98" width="34.57" x="477.98" height="44.301"/>
<rect ry="18.298" height="36.596" width="34.311" y="258.3" x="478.13"/>
</g>
</g>
<g fill="#a11011">
<path d="m233.03 322.27v2.3118h6.2939v-2.3118h-6.2939z"/>
<path d="m121.19 320.66v2.3118h6.2939v-2.3118h-6.2939z"/>
<path d="m121.19 303.44v2.3118h6.2939v-2.3118h-6.2939z"/>
<path d="m121.35 287.19v2.3118h6.2939v-2.3118h-6.2939z"/>
<path d="m159.65 321.3v2.3118h6.2939v-2.3118h-6.2939z"/>
<path d="m159.49 303.92v2.3118h6.2939v-2.3118h-6.2939z"/>
<path d="m159.01 287.51v2.3118h6.2939v-2.3118h-6.2939z"/>
<path d="m242.09 278.03 1.6347-1.6347-4.4504-4.4504-1.6347 1.6347 4.4504 4.4504z"/>
<path d="m271.16 322.11v2.3118h6.2939v-2.3118h-6.2939z"/>
<path d="m233.19 303.6v2.3118h6.2939v-2.3118h-6.2939z"/>
<path d="m232.71 287.03v2.3118h6.2939v-2.3118h-6.2939z"/>
<path d="m271.16 303.92v2.3118h6.2939v-2.3118h-6.2939z"/>
<path d="m271.49 286.22v2.3118h6.2939v-2.3118h-6.2939z"/>
<path d="m348.24 322.91v2.3118h6.2939v-2.3118h-6.2939z"/>
<path d="m348.24 303.6v2.3118h6.2939v-2.3118h-6.2939z"/>
<path d="m348.4 285.26v2.3118h6.2939v-2.3118h-6.2939z"/>
<path d="m385.58 323.07v2.3118h6.2939v-2.3118h-6.2939z"/>
<path d="m385.42 303.76v2.3118h6.2939v-2.3118h-6.2939z"/>
<path d="m385.58 285.9v2.3118h6.2939v-2.3118h-6.2939z"/>
<g stroke-width="1pt" transform="matrix(.55913 0 0 .46281 88.214 34.398)" fill-rule="evenodd">
<rect y="275.98" width="34.57" x="477.98" height="44.301"/>
<rect ry="18.298" height="36.596" width="34.311" y="258.3" x="478.13"/>
</g>
</g>
<g stroke-width="1pt" fill-rule="evenodd">
<g transform="matrix(.52936 0 0 .44688 103.13 39.501)" fill="#d61517">
<rect y="275.98" width="34.57" x="477.98" height="44.301"/>
<rect ry="18.298" height="36.596" width="34.311" y="258.3" x="478.13"/>
</g>
<g transform="matrix(.39437 0 0 .41957 169.98 48.249)" fill="#a11011">
<rect y="275.98" width="34.57" x="477.98" height="44.301"/>
<rect ry="18.298" height="36.596" width="34.311" y="258.3" x="478.13"/>
</g>
<g transform="matrix(.34589 0 0 .40022 193.94 54.093)" fill="#d61517">
<rect y="275.98" width="34.57" x="477.98" height="44.301"/>
<rect ry="18.298" height="36.596" width="34.311" y="258.3" x="478.13"/>
</g>
</g>
<g fill="#a11011">
<path d="m371.21 265.24h-2.3118v6.2939h2.3118v-6.2939z"/>
<path d="m273.33 274.06-1.6347-1.6347-4.4504 4.4504 1.6347 1.6347 4.4504-4.4504z"/>
<path d="m386.46 273.9-1.6347-1.6347-4.4504 4.4504 1.6347 1.6347 4.4504-4.4504z"/>
<path d="m358.27 278.19 1.6347-1.6347-4.4504-4.4504-1.6347 1.6347 4.4504 4.4504z"/>
<path d="m129.37 270.66-1.6347 1.6347 4.4504 4.4504 1.6347-1.6347-4.4504-4.4504z"/>
<path d="m256.48 264.76h-2.3118v6.2939h2.3118v-6.2939z"/>
<path d="m142.33 272.02h2.3118v-6.2939h-2.3118v6.2939z"/>
<path d="m154.77 276.23 1.6347 1.6347 4.4504-4.4504-1.6347-1.6347-4.4504 4.4504z"/>
<path d="m358.63 175.86v7.006h22.902v-7.006h-22.902z"/>
</g>
<path d="m359.37 177.09v5.325h21.354v-5.325h-21.354z" fill="#d61517"/>
<g stroke-width="1pt" transform="matrix(1.0299 0 0 1.0299 -357.65 -111.23)" fill-rule="evenodd">
<g fill="#a11011" transform="matrix(.61374 0 0 .46256 290.81 137.49)">
<rect y="275.98" width="34.57" x="477.98" height="44.301"/>
<rect ry="18.298" height="36.596" width="34.311" y="258.3" x="478.13"/>
</g>
<g fill="#d61517" transform="matrix(.58106 0 0 .44663 307.18 142.59)">
<rect y="275.98" width="34.57" x="477.98" height="44.301"/>
<rect ry="18.298" height="36.596" width="34.311" y="258.3" x="478.13"/>
</g>
<g fill="#a11011" transform="matrix(.43289 0 0 .41934 380.56 151.34)">
<rect y="275.98" width="34.57" x="477.98" height="44.301"/>
<rect ry="18.298" height="36.596" width="34.311" y="258.3" x="478.13"/>
</g>
<g fill="#d61517" transform="matrix(.37967 0 0 .4 406.86 157.18)">
<rect y="275.98" width="34.57" x="477.98" height="44.301"/>
<rect ry="18.298" height="36.596" width="34.311" y="258.3" x="478.13"/>
</g>
</g>
<path fill="#a11011" d="m244.32 176.14v7.006h25.424v-7.006h-25.424z"/>
<path d="m244.6 177.55v5.325h24.023v-5.325h-24.023z" fill="#d61517"/>
<g stroke-width="1pt" transform="matrix(1.0299 0 0 1.0299 -469.44 -111.23)" fill-rule="evenodd">
<g fill="#a11011" transform="matrix(.61374 0 0 .46256 290.81 137.49)">
<rect y="275.98" width="34.57" x="477.98" height="44.301"/>
<rect ry="18.298" height="36.596" width="34.311" y="258.3" x="478.13"/>
</g>
<g fill="#d61517" transform="matrix(.58106 0 0 .44663 307.18 142.59)">
<rect y="275.98" width="34.57" x="477.98" height="44.301"/>
<rect ry="18.298" height="36.596" width="34.311" y="258.3" x="478.13"/>
</g>
<g fill="#a11011" transform="matrix(.43289 0 0 .41934 380.56 151.34)">
<rect y="275.98" width="34.57" x="477.98" height="44.301"/>
<rect ry="18.298" height="36.596" width="34.311" y="258.3" x="478.13"/>
</g>
<g fill="#d61517" transform="matrix(.37967 0 0 .4 406.86 157.18)">
<rect y="275.98" width="34.57" x="477.98" height="44.301"/>
<rect ry="18.298" height="36.596" width="34.311" y="258.3" x="478.13"/>
</g>
</g>
<path fill="#a11011" d="m128.32 173.9v8.4069h22.342v-8.4069h-22.342z"/>
<path fill="#d61517" d="m149.29 182.59zm-19.458-7.4823v7.6457h19.803v-7.4823l-19.803-0.16342"/>
</g>
</svg>
