<!-- /Creative Commons Public Domain -->
<svg xmlns:rdf="http://www.w3.org/1999/02/22-rdf-syntax-ns#" xmlns="http://www.w3.org/2000/svg" height="480" width="640" version="1" y="0" x="0" xmlns:cc="http://creativecommons.org/ns#" xmlns:dc="http://purl.org/dc/elements/1.1/">
<defs>
<clipPath id="a" clipPathUnits="userSpaceOnUse">
<rect fill-opacity=".67" height="512" width="682.67" y="0" x="-62.883"/>
</clipPath>
</defs>
<g clip-path="url(#a)" transform="matrix(.9375 0 0 .9375 58.952 0)" fill-rule="evenodd">
<rect transform="scale(-1)" height="512" width="766.65" y="-512" x="-661.1" fill="#fff"/>
<g stroke-width="1pt">
<rect transform="scale(-1)" height="255.55" width="766.65" y="-512" x="-661.1" fill="#df0000"/>
<path transform="matrix(.72122 0 0 -.72122 -105.55 621.06)" fill="#df0000" d="m628.27 506.38c0 120.04-97.314 217.36-217.36 217.36-120.04 0-217.36-97.314-217.36-217.36v-0.00008"/>
<path transform="matrix(.72122 0 0 .72122 -105.55 -109.46)" fill="#fff" d="m628.27 506.38c0 120.04-97.314 217.36-217.36 217.36-120.04 0-217.36-97.314-217.36-217.36v-0.00008"/>
</g>
</g>
</svg>
