<svg xmlns:rdf="http://www.w3.org/1999/02/22-rdf-syntax-ns#" xmlns="http://www.w3.org/2000/svg" height="400" width="600" version="1.0" xmlns:cc="http://creativecommons.org/ns#" xmlns:dc="http://purl.org/dc/elements/1.1/">
<g transform="matrix(.92590 0 0 .92703 -.37946 -.37250)">
<path fill="#002488" d="m0.40982 0.40182v144h648v-144h-648z"/>
<path fill="#008000" d="m410.91 328.28c0 1 3.4 3.2 7.6 5 7 3 15.4 6 77.4 28.2 26.6 9.6 37 12.4 37 9.8 0-1-24-9.8-53.4-19.4-29.6-9.8-57-19.4-61-21.6-4.2-2-7.6-2.8-7.6-2z"/>
<path fill="#008000" d="m439.11 345.62c1.2 2 74.6 32 87 35.6 4.6 1.4 6.6-2.4 2-4-1.4-0.4-15.2-5.4-30.6-11-23.6-8.6-35.4-13-56.8-21.6-1.8-0.6-2.4-0.2-1.6 1z"/>
<path d="m0.42418 143.89v288h648v-288h-648z"/>
<path fill="#008000" d="m214.98 225.88c2.2539 5.5027 10.25 9.2643 20.98 10.19 7.2619 0.51476 3.9308-2.6132-6.2179-6.307-4.7669-1.5222-10.319-4.3944-12.677-6.1039-4.1512-3.2136-4.1512-3.2136-2.0853 2.2207z"/>
<g fill="#fcdd09">
<g transform="matrix(2 0 0 2 .30982 .40182)">
<path d="m56.993 8.0607c-3.956 6.5159-4.428 11.728-1.728 20.728 1.3 4.2 2.728 10.472 3.328 13.872 0.8 4.8 0.71621 5.2563 0.82856 6.3 1 0 3.2725 0.0038 4.3234-0.0025 0.1511-1.6618 0.27326-3.5799 0.62802-6.2176 0.41364-3.0754 1.6404-9.5075 2.9599-13.975 2.637-8.928 2.46-14.405-1.64-20.605-1.5-2.3-3.5-4.2-4.4-4.2s-2.936 1.756-4.3 4.1z"/>
<path d="m76.421 26.497c-5.6 2.4-8.9681 9.044-10.808 18.2-0.33978 1.7193-0.42263 2.3262-0.59302 4.2639 1.2121 0.0049 1.6885 0.01318 2.8701 0.0061 0.25865-1.3036 0.44491-1.9918 1.015-3.842 2.2599-7.156 8.9159-10.028 8.6159-3.328-0.1 1.85-0.88077 2.883-1.7499 3.8747 1.0743-0.26786 3.3559-1.3327 5.2059-2.3827 10.3-6.2 6.244-21.392-4.556-16.792z"/>
<path d="m53.538 51.296c4.5195 0.02005 12.331 0.05604 16.082 0.03599 0.0044-0.96374 0.0184-0.47191 0.02761-1.2507-2.762-0.02301-13.338 0.01497-16.088 0.01497 0.0063 0.50385-0.0063 0.74781-0.02141 1.1997z"/>
<path d="m54.868 56.588c-1.6292 1.756-4.1742 3.0688-4.1742 3.0688s2.2513 0.25314 4.3509 0.1 3.2645-0.41514 4.5054-1.0179c-0.33693 2.5019-0.35627 4.9179-0.35627 4.9179 0.30538 3.2197 0.6509 4.0437 1.3491 5.6108 0.94731 1.3072 1.4982 1.3143 2.1946-0.06594 0.75269-1.5455 1.2482-3.135 1.4054-5.5599-0.05466-1.8173-0.15628-2.6501-0.5867-4.8717 1.4527 0.62864 2.3703 0.79156 4.5376 0.9867 2.2178 0.19968 4.2563 0.10179 4.2563 0.10179s-2.9958-1.5034-4.3143-3.3473c-1.3016-1.8201-1.024-1.5107-1.9704-3.8554-1.15-0.05443-6.9807-0.000847-8.8307-0.000847-1.0132 2.1376-1.1151 2.584-2.3666 3.933z"/>
<path d="m46.635 26.493c5.6 2.4 8.9681 9.044 10.808 18.2 0.33978 1.7193 0.42263 2.3262 0.59302 4.2639-1.2121 0.0049-1.6885 0.01318-2.8701 0.0061-0.25865-1.3036-0.44491-1.9918-1.015-3.842-2.2599-7.156-8.9159-10.028-8.6159-3.328 0.1 1.85 0.88077 2.883 1.7499 3.8747-1.0743-0.26786-3.3559-1.3327-5.2059-2.3827-10.3-6.2-6.244-21.392 4.556-16.792z"/>
</g>
<g transform="matrix(2 0 0 2 200.03 .40218)">
<path d="m56.993 8.0607c-3.956 6.5159-4.428 11.728-1.728 20.728 1.3 4.2 2.728 10.472 3.328 13.872 0.8 4.8 0.71621 5.2563 0.82856 6.3 1 0 3.2725 0.0038 4.3234-0.0025 0.1511-1.6618 0.27326-3.5799 0.62802-6.2176 0.41364-3.0754 1.6404-9.5075 2.9599-13.975 2.637-8.928 2.46-14.405-1.64-20.605-1.5-2.3-3.5-4.2-4.4-4.2s-2.936 1.756-4.3 4.1z"/>
<path d="m76.421 26.497c-5.6 2.4-8.9681 9.044-10.808 18.2-0.33978 1.7193-0.42263 2.3262-0.59302 4.2639 1.2121 0.0049 1.6885 0.01318 2.8701 0.0061 0.25865-1.3036 0.44491-1.9918 1.015-3.842 2.2599-7.156 8.9159-10.028 8.6159-3.328-0.1 1.85-0.88077 2.883-1.7499 3.8747 1.0743-0.26786 3.3559-1.3327 5.2059-2.3827 10.3-6.2 6.244-21.392-4.556-16.792z"/>
<path d="m53.538 51.296c4.5195 0.02005 12.331 0.05604 16.082 0.03599 0.0044-0.96374 0.0184-0.47191 0.02761-1.2507-2.762-0.02301-13.338 0.01497-16.088 0.01497 0.0063 0.50385-0.0063 0.74781-0.02141 1.1997z"/>
<path d="m54.868 56.588c-1.6292 1.756-4.1742 3.0688-4.1742 3.0688s2.2513 0.25314 4.3509 0.1 3.2645-0.41514 4.5054-1.0179c-0.33693 2.5019-0.35627 4.9179-0.35627 4.9179 0.30538 3.2197 0.6509 4.0437 1.3491 5.6108 0.94731 1.3072 1.4982 1.3143 2.1946-0.06594 0.75269-1.5455 1.2482-3.135 1.4054-5.5599-0.05466-1.8173-0.15628-2.6501-0.5867-4.8717 1.4527 0.62864 2.3703 0.79156 4.5376 0.9867 2.2178 0.19968 4.2563 0.10179 4.2563 0.10179s-2.9958-1.5034-4.3143-3.3473c-1.3016-1.8201-1.024-1.5107-1.9704-3.8554-1.15-0.05443-6.9807-0.000847-8.8307-0.000847-1.0132 2.1376-1.1151 2.584-2.3666 3.933z"/>
<path d="m46.635 26.493c5.6 2.4 8.9681 9.044 10.808 18.2 0.33978 1.7193 0.42263 2.3262 0.59302 4.2639-1.2121 0.0049-1.6885 0.01318-2.8701 0.0061-0.25865-1.3036-0.44491-1.9918-1.015-3.842-2.2599-7.156-8.9159-10.028-8.6159-3.328 0.1 1.85 0.88077 2.883 1.7499 3.8747-1.0743-0.26786-3.3559-1.3327-5.2059-2.3827-10.3-6.2-6.244-21.392 4.556-16.792z"/>
</g>
<g transform="matrix(2 0 0 2 406.44 -.29975)">
<path d="m56.993 8.0607c-3.956 6.5159-4.428 11.728-1.728 20.728 1.3 4.2 2.728 10.472 3.328 13.872 0.8 4.8 0.71621 5.2563 0.82856 6.3 1 0 3.2725 0.0038 4.3234-0.0025 0.1511-1.6618 0.27326-3.5799 0.62802-6.2176 0.41364-3.0754 1.6404-9.5075 2.9599-13.975 2.637-8.928 2.46-14.405-1.64-20.605-1.5-2.3-3.5-4.2-4.4-4.2s-2.936 1.756-4.3 4.1z"/>
<path d="m76.421 26.497c-5.6 2.4-8.9681 9.044-10.808 18.2-0.33978 1.7193-0.42263 2.3262-0.59302 4.2639 1.2121 0.0049 1.6885 0.01318 2.8701 0.0061 0.25865-1.3036 0.44491-1.9918 1.015-3.842 2.2599-7.156 8.9159-10.028 8.6159-3.328-0.1 1.85-0.88077 2.883-1.7499 3.8747 1.0743-0.26786 3.3559-1.3327 5.2059-2.3827 10.3-6.2 6.244-21.392-4.556-16.792z"/>
<path d="m53.538 51.296c4.5195 0.02005 12.331 0.05604 16.082 0.03599 0.0044-0.96374 0.0184-0.47191 0.02761-1.2507-2.762-0.02301-13.338 0.01497-16.088 0.01497 0.0063 0.50385-0.0063 0.74781-0.02141 1.1997z"/>
<path d="m54.868 56.588c-1.6292 1.756-4.1742 3.0688-4.1742 3.0688s2.2513 0.25314 4.3509 0.1 3.2645-0.41514 4.5054-1.0179c-0.33693 2.5019-0.35627 4.9179-0.35627 4.9179 0.30538 3.2197 0.6509 4.0437 1.3491 5.6108 0.94731 1.3072 1.4982 1.3143 2.1946-0.06594 0.75269-1.5455 1.2482-3.135 1.4054-5.5599-0.05466-1.8173-0.15628-2.6501-0.5867-4.8717 1.4527 0.62864 2.3703 0.79156 4.5376 0.9867 2.2178 0.19968 4.2563 0.10179 4.2563 0.10179s-2.9958-1.5034-4.3143-3.3473c-1.3016-1.8201-1.024-1.5107-1.9704-3.8554-1.15-0.05443-6.9807-0.000847-8.8307-0.000847-1.0132 2.1376-1.1151 2.584-2.3666 3.933z"/>
<path d="m46.635 26.493c5.6 2.4 8.9681 9.044 10.808 18.2 0.33978 1.7193 0.42263 2.3262 0.59302 4.2639-1.2121 0.0049-1.6885 0.01318-2.8701 0.0061-0.25865-1.3036-0.44491-1.9918-1.015-3.842-2.2599-7.156-8.9159-10.028-8.6159-3.328 0.1 1.85 0.88077 2.883 1.7499 3.8747-1.0743-0.26786-3.3559-1.3327-5.2059-2.3827-10.3-6.2-6.244-21.392 4.556-16.792z"/>
</g>
</g>
<g fill="#008000">
<path d="m113.91 184.71c5.8 8.6 12.4 14.8 25.2 23.4 9.4 6.4 17.6 11.4 18 11 0.8-1-46-44.4-49.2-45.6-1.2-0.4 1.4 4.6 6 11.2z"/>
<path d="m234.32 230.5c4.3424 2.0245 9.887 3.6199 12.683 3.7141 3.3046 0.11123 2.4274-0.70091-3.7402-3.0999-4.8279-1.8843-10.602-5.0526-13.165-7.0172-4.5946-3.7547-4.5946-3.7547-4.1131-0.45151 0.27515 1.8875 3.7383 4.8215 8.3349 6.8545z"/>
<path d="m207.31 191.48c2.8 11.2 14.4 31.8 18.4 32.6 3.6 0.6 3.6 0.4 0.6-3-5-5.8-15.8-27-15.8-31 0-2.2-1-3.8-2.2-3.8-1.4 0-1.8 2-1 5.2z"/>
<path d="m87.091 177.44c-0.06946 0.39392 3.6847 3.2898 8.389 6.5563 4.7042 3.2665 10.185 7.8884 12.004 10.24 3.1171 4.2052 20.775 14.63 22.432 13.297 1.6218-1.1356-21.123-19.565-30.74-24.917-11.448-6.4864-11.841-6.5559-12.085-5.1771z"/>
<path d="m93.535 192.82c0 0.4 4.2 2.6 9.4 5s11.4 6 13.6 8c3.8 3.6 23 10.8 24.4 9.2 1.4-1.4-24.2-15.6-34.6-19.2-12.4-4.4-12.8-4.4-12.8-3z"/>
<path d="m182.73 199.88c7.6 14 15.4 23.2 18.6 22.2 1.6-0.6-2-6.4-9.8-15.8-7-8.2-13-15.4-13.6-16s1.6 3.8 4.8 9.6z"/>
<path d="m192.56 194.42c0 2.2 7.8 17.4 12.4 23.8 2.6 3.6 5.6 5.6 9 5.6 5 0 5 0-2.6-8.6-4.4-4.6-10.2-11.6-13.2-15.4s-5.6-6.2-5.6-5.4z"/>
<path d="m174.18 200.88c0 3 14.62 23 16.885 23 1.0296 0-1.4414-4.8-5.7657-10.6-9.6781-13.2-11.12-14.6-11.12-12.4z"/>
<path d="m160.36 256c-13.2 5.2-16 7-16 9.8 0 1.2 1.4 1 3.6-0.8 1.8-1.8 8.4-4.2 14.4-5.6s13.2-3.8 16-5.2l5-2.6h-6c-3.2 0.2-11 2.2-17 4.4z"/>
<path d="m122.88 222.02c9.8619 8.9678 42.845 25.909 59.558 30.893 4.5285 1.3315 11.876 1.6369 16.028 0.7642l7.74-1.5401-7.6392-4.0303c-12.322-6.3699-32.557-19.863-39.821-26.371-7.9135-7.123-7.6564-4.6625 0.39453 5.1773 3.1452 3.9633 12.443 10.795 20.594 15.065 8.2202 4.4573 13.963 8.5394 13.023 8.8815-2.4432 0.88924-25.002-11.971-42.161-24.029-18.646-13.22-19.415-13.579-12.475-5.037 3.4016 4.0828 9.6913 9.6685 14.254 12.264 4.4435 2.8523 7.4858 5.3632 6.5461 5.7052-1.8794 0.68406-13.569-5.7031-28.831-15.472-4.2556-2.9207-10.049-6.5585-12.561-8.1981-2.7686-1.7592-0.2902 0.95696 5.35 5.9277z"/>
<path d="m124.33 219.22-8 2.6 6 1c3.2 0.8 7.4 0.4 9.4-0.6 1.8-1 5.4-1.8 8-2 4.4 0 4.4-0.2 0.6-1.8-5-2.2-6.2-2.2-16 0.8z"/>
<path d="m134.19 224.65c-3.4 2.6-3.2 2.8 4.2 1.6 4.4-0.6 10.8-1.8 14-2.6 5.2-1.4 4.8-1.6-4.2-1.8-6-0.2-11.6 1-14 2.8z"/>
<path d="m84.506 203.62c33 6 99.2 28.2 95.2 32-1 1-19.6-3.6-22.2-5.4-1-1-10.8-0.6-21.6 0.8-20.2 2.2-23.6 4-23.2 12.2 0.2 4 0.2 4 1.2 0 1.8-7.4 4.8-9 16.2-9 12.4 0 46.4 5 61.4 9 20 5.6 20.6 5.6 14 2-8.6-4.8-21.6-13.6-24-16.2-4.4-5-84.2-27-95.8-26.6-5.4 0.4-5.6 0.4-1.2 1.2z"/>
<path d="m99.678 214.28c-2.4 1.8-5 6-5.6 9.4-1.2 5.8-1.2 5.8 2 2 8.4-10.6 9-11 19.4-11.2 8.4-0.2 9.6-0.6 5.6-1.8-8.4-2.6-16.8-2-21.4 1.6z"/>
<path d="m201.62 226.62c1.6 2.8 17.2 10.6 18.4 9.4 0.6-0.6-1.2-2.2-3.6-3.6-2.6-1.4-6-3.6-7.4-5.2-3.2-3-9.2-3.6-7.4-0.6z"/>
<path d="m202.82 245.63c1.6 2.8 17.2 10.6 18.4 9.4 0.6-0.6-1.2-2.2-3.6-3.6-2.6-1.4-6-3.6-7.4-5.2-3.2-3-9.2-3.6-7.4-0.6z"/>
<path d="m180.46 221.81c0.28776-0.27784 4.7878 1.2152 10.126 3.2886 5.3387 2.0734 12.235 4.0325 15.202 4.2257 5.2294 0.2327 23.746 9.0425 23.568 11.161-0.0345 1.9796-28.032-6.5714-37.846-11.552-11.779-5.8634-12.057-6.151-11.05-7.1236z"/>
<path d="m213.59 236.43c-3.731 1.4419-7.4832 4.0499-8.649 5.9156-1.3778 2.2049-0.21179 2.226 4.6004-0.19123 3.7734-1.8872 9.2217-3.4352 12.211-3.6899 5.5968-0.27612 5.5968-0.27612 2.035-2.5018-2.0353-1.2718-6.3601-1.1442-10.197 0.46735z"/>
<path d="m190.56 250.78c-11.399 10.223-13.92 17.351-10.268 27.941l3.1568 9.0684-0.87905-9.1776c-1.3591-12.597 2.0365-18.326 15.837-28.278 6.4864-4.6311 11.641-8.8295 11.518-9.2099-0.67982-2.0923-13.567 4.1978-19.364 9.6564z"/>
<path d="m119.99 169.02c6.2 11.8 31.4 39 45.4 49.4 3.8 2.8 10.6 5.6 14.8 6.2l7.8 1.2-5.8-6.4c-9.4-10.2-23.8-29.8-28.4-38.4-5-9.4-5.6-7-1.4 5 1.6 4.8 8 14.4 14.2 21.2 6.2 7 10.2 12.8 9.2 12.8-2.6 0-19.4-19.8-31.4-37-13-18.8-13.6-19.4-10-9 1.8 5 5.8 12.4 9.2 16.4 3.2 4.2 5.2 7.6 4.2 7.6-2 0-10.8-10-21.8-24.4-3-4.2-7.2-9.6-9-12-2-2.6-0.6 0.8 3 7.4z"/>
<path d="m184.51 225.02c0 1.4 3 5 6.6 7.8 10.6 8 38.8 21.4 42.4 20 2.2-0.8-1.2-3-10.8-6.6-16.8-6.6-32.2-15.4-32.2-18.4 0-1.6 6.6-1.8 23-0.8 24.6 1.4 32-1.4 9.6-3.4-23.6-2.4-38.6-1.8-38.6 1.4z"/>
<path d="m131.71 246.42c-8.6 2-13.2 5-13.2 8.6 0 1.4 0.8 1.2 1.8-0.4 1.6-2.6 18-7.4 19.6-5.8 0.4 0.4-0.2 3.4-1.4 6.4s-1.6 6-1 6.6c0.6 0.8 1.6-0.8 2.2-3 2.4-8.6 9.8-11.2 27.6-9.6 9 0.8 19 1.8 22.2 2 3.4 0.2 8 1.4 10.4 2.8 5.2 2.8 25.4 3 23.6 0.2-0.6-1-4.4-2.4-8.6-3-4-0.6-12.4-2.6-18.6-4.2-12.4-3.2-52-3.6-64.6-0.6z"/>
<path d="m204.74 269.51c-15.074-2.6887-22.242-0.28674-28.339 9.1103l-5.2025 8.0706 6.6908-6.343c9.0895-8.8261 15.695-9.678 32.033-4.93 7.6428 2.2602 14.125 3.7375 14.349 3.4059 1.2302-1.8239-11.66-8.1063-19.531-9.3138z"/>
<path d="m185.22 263.94c-27.8 7.6-31 10.4-27 23 1.6 4.8 1.6 4.6 1.8-1.6 0.2-3.4 2-8.2 4-10.2 3.6-3.6 19.8-8.2 39.6-11.4 4.8-0.6 8-2 7.4-3-1.6-2.6-8-1.8-25.8 3.2z"/>
<path d="m208.85 273.71c-14 6.2-18.6 12.2-18.4 23.4l0.2 9.6 2-9c2.6-12.4 7.6-16.8 23.8-22 7.6-2.4 13.8-4.8 13.8-5.2 0-2.2-14.2-0.2-21.4 3.2z"/>
<path d="m206.19 290.88c-2.4 3.2-4.2 7.4-4.2 9.6 0 2.6 1 2 3.8-2.6 2.2-3.6 6-7.8 8.4-9.6 4.6-3.2 4.6-3.2 0.4-3.2-2.4 0-6 2.4-8.4 5.8z"/>
<path d="m422.42 323.47c6.4946 2.8143 40.189 11.312 64.03 18.294 23.841 6.9817 51.715 15.019 57.885 15.885 8.8189-19.222-7.2304 16.731 1.929-5.0589-11.907-3.0308-58.839-14.073-77.673-19.485-16.236-4.5462-39.27-11.638-45.169-12.937-5.8992-1.2989-5.9802 1.1374-1.001 3.3022z"/>
<path d="m426.54 318.48c6.5889 2.586 40.56 9.9024 64.629 16.048 24.07 6.1454 52.208 13.205 58.404 13.856 8.1427-19.518-6.6421 16.974 1.7512-5.1232-12.005-2.6134-59.294-12.011-78.306-16.763-16.385-3.9768-39.652-10.26-45.593-11.352-5.941-1.0922-5.9369 1.3454-0.88518 3.3352z"/>
<path d="m417.22 327.1c6.3384 3.1504 39.542 13.4 62.985 21.62 23.442 8.2198 50.858 17.705 56.974 18.893 9.8128-18.734-8.0962 16.33 2.1911-4.951-11.732-3.6498-58.022-17.133-76.547-23.524-15.976-5.3898-38.607-13.677-44.43-15.283-5.8232-1.6059-6.0315 0.82284-1.1725 3.2453z"/>
<path d="m413.17 331.2c6.1648 3.4778 38.787 15.451 61.767 24.886 22.98 9.4354 49.862 20.343 55.907 21.849 10.78-18.195-8.9397 15.884 2.4472-4.8296-11.525-4.2588-57.046-20.146-75.211-27.498-15.672-6.2185-37.838-15.679-43.57-17.587-5.7312-1.9084-6.0663 0.50605-1.3407 3.1795z"/>
<path d="m409.36 336.35c6.0397 3.6908 38.224 16.795 60.861 27.027s49.121 22.07 55.111 23.787c11.408-17.807-9.4886 15.562 2.6143-4.7412-11.369-4.6584-56.308-22.125-74.205-30.106-15.446-6.7617-37.268-16.99-42.929-19.097-5.6611-2.1073-6.0803 0.29403-1.4509 3.1308z"/>
<path d="m405.06 341.06c5.8383 4.0019 37.292 18.772 59.363 30.175 22.07 11.402 47.899 24.611 53.79 26.638 12.325-17.186-10.29 15.044 2.8588-4.5979-11.11-5.247-55.073-25.042-72.528-33.948-15.071-7.5608-36.328-18.917-41.871-21.318-5.543-2.4007-6.0874-0.0246-1.6127 3.0506z"/>
</g>
<g fill="#ffd700" transform="matrix(1.2612 0 0 1.2612 -84.14 151.17)">
<path fill="#fcdd09" d="m332.66 184.27 5.136 3.668c7.363 5.129 11.412 12.258 11.011 19.615l-0.272 6.076 2.417-5.978c2.644-6.256 2.28-15.729-0.843-22.745l-1.822-4.091 5.786 2.519c8.268 3.487 13.712 9.617 14.849 16.899l0.997 6 1.121-6.352c1.285-6.67-1.039-15.857-5.554-22.07l-2.633-3.625 6.184 1.261c8.812 1.692 15.411 6.557 18.038 13.444l2.223 5.662-0.225-6.447c-0.129-6.791-4.314-15.295-10.021-20.434l-3.329-2.998 6.311-0.051c8.971-0.177 16.438 3.209 20.439 9.401l3.35 5.074-1.559-6.258c-1.538-6.613-7.399-14.062-14.05-17.902l-3.88-2.241 6.163-1.361c8.738-2.041 16.746-0.279 21.946 4.944l4.332 4.267-2.827-5.797c-2.879-6.15-10.161-12.219-17.465-14.592l-4.261-1.382 5.745-2.614c8.122-3.812 16.321-3.754 22.494 0.272l5.126 3.275-3.97-5.084c-4.096-5.418-12.48-9.838-20.118-10.64l-4.454-0.467 5.076-3.752c7.152-5.416 15.184-7.067 22.059-4.41l5.695 2.136-4.94-4.146c-5.133-4.447-14.253-7.029-21.891-6.225l-4.454 0.467 4.184-4.725c5.87-6.785 13.384-10.068 20.661-8.898l6.014 0.904-5.695-3.027c-5.945-3.283-15.402-3.912-22.706-1.539l-4.261 1.383 3.11-5.49c4.331-7.858 10.998-12.631 18.359-13.002l6.071-0.364-6.2-1.777c-6.498-1.975-15.879-0.623-22.53 3.215l-3.88 2.24 1.902-6.018c2.603-8.586 8.131-14.64 15.255-16.533l5.863-1.619-6.434-0.449c-6.767-0.582-15.662 2.689-21.369 7.828l-3.329 2.998 0.609-6.281c0.76-8.942 4.909-16.012 11.484-19.346l5.398-2.801-6.387 0.897c-6.74 0.838-14.76 5.888-19.274 12.101l-2.633 3.625-0.71-6.271c-1.115-8.902 1.472-16.684 7.21-21.309l4.697-3.863-6.061 2.205c-6.418 2.221-13.212 8.828-16.336 15.844l-1.822 4.094-1.999-5.987c-2.95-8.491-2.03-16.64 2.62-22.357l3.792-4.755-5.47 3.416c-5.816 3.507-11.089 11.382-12.686 18.894l-0.931 4.383-3.2-5.439c-4.64-7.682-5.44-15.84-2.08-22.401l2.72-5.439-4.64 4.478c-4.96 4.641-8.48 13.442-8.48 21.121v4.479l-4.261-4.655c-6.13-6.546-8.61-14.363-6.69-21.478l1.53-5.887-3.61 5.348c-3.89 5.568-5.5 14.908-3.9 22.422l0.93 4.381-5.135-3.668c-7.37-5.129-11.42-12.258-11.02-19.618l0.27-6.076-2.41 5.981c-2.65 6.256-2.28 15.726 0.84 22.742l1.822 4.094-5.786-2.52c-8.27-3.486-13.72-9.617-14.86-16.898l-0.997-6-1.12 6.351c-1.285 6.668 1.038 15.858 5.554 22.071l2.632 3.623-6.183-1.262c-8.8-1.691-15.4-6.555-18.03-13.443l-2.223-5.661 0.225 6.446c0.129 6.791 4.314 15.295 10.021 20.433l3.329 2.998-6.311 0.051c-8.971 0.178-16.438-3.209-20.439-9.398l-3.351-5.076 1.56 6.257c1.538 6.616 7.399 14.065 14.05 17.905l3.879 2.24-6.162 1.361c-8.738 2.039-16.746 0.28-21.946-4.943l-4.333-4.268 2.827 5.797c2.88 6.151 10.162 12.217 17.466 14.59l4.261 1.385-5.745 2.613c-8.123 3.813-16.322 3.754-22.495-0.273l-5.126-3.274 3.97 5.082c4.096 5.418 12.48 9.838 20.118 10.641l4.455 0.469-5.076 3.75c-7.153 5.418-15.185 7.066-22.06 4.41l-5.695-2.135 4.94 4.145c5.133 4.449 14.253 7.029 21.891 6.226l4.455-0.467-4.185 4.723c-5.87 6.787-13.384 10.068-20.661 8.9l-6.014-0.906 5.695 3.029c5.946 3.284 15.403 3.912 22.707 1.539l4.261-1.384-3.111 5.492c-4.331 7.857-10.998 12.631-18.359 13l-6.071 0.363 6.2 1.779c6.498 1.975 15.879 0.623 22.53-3.216l3.88-2.241-1.901 6.018c-2.603 8.588-8.131 14.643-15.255 16.535l-5.863 1.619 6.434 0.45c6.767 0.58 15.662-2.692 21.369-7.831l3.329-2.998-0.609 6.284c-0.76 8.939-4.909 16.011-11.484 19.343l-5.398 2.803 6.387-0.896c6.74-0.838 14.76-5.891 19.274-12.104l2.633-3.623 0.711 6.272c1.115 8.902-1.473 16.681-7.211 21.308l-4.698 3.863 6.061-2.205c6.418-2.22 13.213-8.83 16.337-15.845l1.821-4.092 1.999 5.984c2.942 8.479 2.028 16.625-2.623 22.344l-3.792 4.756 5.47-3.418c5.816-3.506 11.089-11.383 12.686-18.895l0.931-4.381 3.2 5.44c4.64 7.68 5.44 15.84 2.08 22.4l-2.72 5.44 4.64-4.481c4.96-4.638 8.48-13.439 8.48-21.119v-4.48l4.261 4.656c6.134 6.547 8.613 14.363 6.692 21.478l-1.53 5.887 3.607-5.348c3.887-5.57 5.5-14.908 3.904-22.421l-0.931-4.381"/>
</g>
</g>
</svg>
