<svg xmlns:rdf="http://www.w3.org/1999/02/22-rdf-syntax-ns#" xmlns="http://www.w3.org/2000/svg" height="480" width="640" version="1" y="0" x="0" xmlns:cc="http://creativecommons.org/ns#" xmlns:dc="http://purl.org/dc/elements/1.1/">
<defs>
<clipPath id="a" clipPathUnits="userSpaceOnUse">
<rect fill-opacity=".67" height="512" width="682.67" y="0" x="-87.62"/>
</clipPath>
</defs>
<g clip-path="url(#a)" transform="matrix(.9375 0 0 .9375 82.144 0)" fill-rule="evenodd">
<rect transform="scale(-1)" height="512" width="731.43" y="-512" x="-619.43" fill="#fff"/>
<g fill="#00c">
<rect transform="scale(-1)" height="67.227" width="731.43" y="-115.23" x="-619.43"/>
<rect transform="scale(-1)" height="67.227" width="731.43" y="-465.68" x="-619.43"/>
<path stroke-width=".96961pt" d="m136.43 190.78 110.12 191.54 112.49-190.75-222.61-0.79z"/>
</g>
<path stroke-width=".96961pt" fill="#fff" d="m225.75 317.81 20.95 35.506 21.4-35.36-42.351-0.14535z"/>
<path stroke-width=".96961pt" fill="#00c" d="m136.02 320.58 110.13-191.54 112.48 190.75-222.61 0.79z"/>
<g fill="#fff">
<g stroke-width=".96961pt">
<path d="m225.75 191.61 20.95-35.506 21.4 35.36-42.351 0.14534z"/>
<path d="m181.97 271.11-21.64 35.982 40.899-0.12727-19.258-35.855z"/>
<path d="m160.7 204.61 41.225 0.28926-19.834 36.262-21.391-36.551z"/>
<path d="m311.94 271.52 20.829 35.576-41.71-0.53294 20.881-35.043z"/>
<path d="m332.39 204.61-41.225 0.28926 19.834 36.262 21.391-36.551z"/>
</g>
<path stroke-width="1pt" d="m218.12 204.57-28.394 51.515 28.799 50.297 52.731 1.217 32.044-51.514-29.611-51.92-55.571 0.40495z"/>
</g>
</g>
</svg>
