<svg xmlns:rdf="http://www.w3.org/1999/02/22-rdf-syntax-ns#" xmlns="http://www.w3.org/2000/svg" height="480" width="640" xmlns:cc="http://creativecommons.org/ns#" xmlns:dc="http://purl.org/dc/elements/1.1/">
<defs>
<clipPath id="a" clipPathUnits="userSpaceOnUse">
<rect fill-opacity=".67" height="512" width="682.67" y=".0000078594" x="-85.311"/>
</clipPath>
</defs>
<g fill-rule="evenodd" transform="matrix(.93750 0 0 .93750 79.98 -.0000073682)" clip-path="url(#a)">
<rect height="512" width="896" y=".000014203" x="-191.96" stroke-width="1pt" fill="#fff"/>
<rect height="168.16" width="896" y="343.84" x="-191.96" stroke-width="1pt" fill="#da0000"/>
<g stroke-width="1pt" fill="#fff">
<g transform="matrix(1.5197 0 0 1.5197 -70.36 36.806)">
<rect y="206.72" width="32.289" x="32.067" height="2.2217"/>
<rect y="217.83" width="2.2217" x="36.881" height="2.1576"/>
<rect transform="rotate(90)" height="6.453" width="2.2217" y="-64.44" x="217.76"/>
<rect y="206.72" width="2.2217" x="67.911" height="13.266"/>
<rect transform="rotate(90)" height="12.229" width="2.2217" y="-80.765" x="217.76"/>
<rect y="212.57" width="2.2217" x="57.987" height="7.4157"/>
<rect transform="translate(11.035 -.000015259)" height="13.266" width="2.2217" y="206.72" x="67.911"/>
<rect y="206.72" width="2.2217" x="73.391" height="13.266"/>
<rect transform="matrix(0 1 -1 0 .0092220 -.000015259)" height="11.785" width="2.2217" y="-43.903" x="212"/>
<rect transform="rotate(90)" height="11.785" width="2.2217" y="-69.772" x="212"/>
<rect y="212.57" width="2.2217" x="57.987" height="7.4157"/>
<rect y="212.57" width="2.2217" x="57.987" height="7.4157"/>
<rect y="212.57" width="2.2217" x="57.987" height="7.4157"/>
<rect transform="translate(-.17213 -.000015259)" height="7.4157" width="2.2217" y="212.57" x="32.299"/>
<rect y="212.57" width="2.2217" x="51.082" height="7.4157"/>
<rect transform="translate(0 -.000015259)" height="7.4157" width="2.2217" y="212.57" x="41.691"/>
<rect transform="rotate(90)" height="9.9621" width="2.2217" y="-52.641" x="217.76"/>
<rect transform="rotate(90)" height="6.3161" width="2.2217" y="-53.304" x="212"/>
</g>
<g transform="matrix(1.5197 0 0 1.5197 -150.96 36.806)">
<rect y="206.72" width="32.289" x="32.067" height="2.2217"/>
<rect y="217.83" width="2.2217" x="36.881" height="2.1576"/>
<rect transform="rotate(90)" height="6.453" width="2.2217" y="-64.44" x="217.76"/>
<rect y="206.72" width="2.2217" x="67.911" height="13.266"/>
<rect transform="rotate(90)" height="12.229" width="2.2217" y="-80.765" x="217.76"/>
<rect y="212.57" width="2.2217" x="57.987" height="7.4157"/>
<rect transform="translate(11.035 -.000015259)" height="13.266" width="2.2217" y="206.72" x="67.911"/>
<rect y="206.72" width="2.2217" x="73.391" height="13.266"/>
<rect transform="matrix(0 1 -1 0 .0092220 -.000015259)" height="11.785" width="2.2217" y="-43.903" x="212"/>
<rect transform="rotate(90)" height="11.785" width="2.2217" y="-69.772" x="212"/>
<rect y="212.57" width="2.2217" x="57.987" height="7.4157"/>
<rect y="212.57" width="2.2217" x="57.987" height="7.4157"/>
<rect y="212.57" width="2.2217" x="57.987" height="7.4157"/>
<rect transform="translate(-.17213 -.000015259)" height="7.4157" width="2.2217" y="212.57" x="32.299"/>
<rect y="212.57" width="2.2217" x="51.082" height="7.4157"/>
<rect transform="translate(0 -.000015259)" height="7.4157" width="2.2217" y="212.57" x="41.691"/>
<rect transform="rotate(90)" height="9.9621" width="2.2217" y="-52.641" x="217.76"/>
<rect transform="rotate(90)" height="6.3161" width="2.2217" y="-53.304" x="212"/>
</g>
<g transform="matrix(1.5197 0 0 1.5197 9.5646 36.806)">
<rect y="206.72" width="32.289" x="32.067" height="2.2217"/>
<rect y="217.83" width="2.2217" x="36.881" height="2.1576"/>
<rect transform="rotate(90)" height="6.453" width="2.2217" y="-64.44" x="217.76"/>
<rect y="206.72" width="2.2217" x="67.911" height="13.266"/>
<rect transform="rotate(90)" height="12.229" width="2.2217" y="-80.765" x="217.76"/>
<rect y="212.57" width="2.2217" x="57.987" height="7.4157"/>
<rect transform="translate(11.035 -.000015259)" height="13.266" width="2.2217" y="206.72" x="67.911"/>
<rect y="206.72" width="2.2217" x="73.391" height="13.266"/>
<rect transform="matrix(0 1 -1 0 .0092220 -.000015259)" height="11.785" width="2.2217" y="-43.903" x="212"/>
<rect transform="rotate(90)" height="11.785" width="2.2217" y="-69.772" x="212"/>
<rect y="212.57" width="2.2217" x="57.987" height="7.4157"/>
<rect y="212.57" width="2.2217" x="57.987" height="7.4157"/>
<rect y="212.57" width="2.2217" x="57.987" height="7.4157"/>
<rect transform="translate(-.17213 -.000015259)" height="7.4157" width="2.2217" y="212.57" x="32.299"/>
<rect y="212.57" width="2.2217" x="51.082" height="7.4157"/>
<rect transform="translate(0 -.000015259)" height="7.4157" width="2.2217" y="212.57" x="41.691"/>
<rect transform="rotate(90)" height="9.9621" width="2.2217" y="-52.641" x="217.76"/>
<rect transform="rotate(90)" height="6.3161" width="2.2217" y="-53.304" x="212"/>
</g>
<g transform="matrix(1.5197 0 0 1.5197 573.95 36.806)">
<rect y="206.72" width="32.289" x="32.067" height="2.2217"/>
<rect y="217.83" width="2.2217" x="36.881" height="2.1576"/>
<rect transform="rotate(90)" height="6.453" width="2.2217" y="-64.44" x="217.76"/>
<rect y="206.72" width="2.2217" x="67.911" height="13.266"/>
<rect transform="rotate(90)" height="12.229" width="2.2217" y="-80.765" x="217.76"/>
<rect y="212.57" width="2.2217" x="57.987" height="7.4157"/>
<rect transform="translate(11.035 -.000015259)" height="13.266" width="2.2217" y="206.72" x="67.911"/>
<rect y="206.72" width="2.2217" x="73.391" height="13.266"/>
<rect transform="matrix(0 1 -1 0 .0092220 -.000015259)" height="11.785" width="2.2217" y="-43.903" x="212"/>
<rect transform="rotate(90)" height="11.785" width="2.2217" y="-69.772" x="212"/>
<rect y="212.57" width="2.2217" x="57.987" height="7.4157"/>
<rect y="212.57" width="2.2217" x="57.987" height="7.4157"/>
<rect y="212.57" width="2.2217" x="57.987" height="7.4157"/>
<rect transform="translate(-.17213 -.000015259)" height="7.4157" width="2.2217" y="212.57" x="32.299"/>
<rect y="212.57" width="2.2217" x="51.082" height="7.4157"/>
<rect transform="translate(0 -.000015259)" height="7.4157" width="2.2217" y="212.57" x="41.691"/>
<rect transform="rotate(90)" height="9.9621" width="2.2217" y="-52.641" x="217.76"/>
<rect transform="rotate(90)" height="6.3161" width="2.2217" y="-53.304" x="212"/>
</g>
<g transform="matrix(1.5197 0 0 1.5197 90.01 36.806)">
<rect y="206.72" width="32.289" x="32.067" height="2.2217"/>
<rect y="217.83" width="2.2217" x="36.881" height="2.1576"/>
<rect transform="rotate(90)" height="6.453" width="2.2217" y="-64.44" x="217.76"/>
<rect y="206.72" width="2.2217" x="67.911" height="13.266"/>
<rect transform="rotate(90)" height="12.229" width="2.2217" y="-80.765" x="217.76"/>
<rect y="212.57" width="2.2217" x="57.987" height="7.4157"/>
<rect transform="translate(11.035 -.000015259)" height="13.266" width="2.2217" y="206.72" x="67.911"/>
<rect y="206.72" width="2.2217" x="73.391" height="13.266"/>
<rect transform="matrix(0 1 -1 0 .0092220 -.000015259)" height="11.785" width="2.2217" y="-43.903" x="212"/>
<rect transform="rotate(90)" height="11.785" width="2.2217" y="-69.772" x="212"/>
<rect y="212.57" width="2.2217" x="57.987" height="7.4157"/>
<rect y="212.57" width="2.2217" x="57.987" height="7.4157"/>
<rect y="212.57" width="2.2217" x="57.987" height="7.4157"/>
<rect transform="translate(-.17213 -.000015259)" height="7.4157" width="2.2217" y="212.57" x="32.299"/>
<rect y="212.57" width="2.2217" x="51.082" height="7.4157"/>
<rect transform="translate(0 -.000015259)" height="7.4157" width="2.2217" y="212.57" x="41.691"/>
<rect transform="rotate(90)" height="9.9621" width="2.2217" y="-52.641" x="217.76"/>
<rect transform="rotate(90)" height="6.3161" width="2.2217" y="-53.304" x="212"/>
</g>
<g transform="matrix(1.5197 0 0 1.5197 170.75 36.806)">
<rect y="206.72" width="32.289" x="32.067" height="2.2217"/>
<rect y="217.83" width="2.2217" x="36.881" height="2.1576"/>
<rect transform="rotate(90)" height="6.453" width="2.2217" y="-64.44" x="217.76"/>
<rect y="206.72" width="2.2217" x="67.911" height="13.266"/>
<rect transform="rotate(90)" height="12.229" width="2.2217" y="-80.765" x="217.76"/>
<rect y="212.57" width="2.2217" x="57.987" height="7.4157"/>
<rect transform="translate(11.035 -.000015259)" height="13.266" width="2.2217" y="206.72" x="67.911"/>
<rect y="206.72" width="2.2217" x="73.391" height="13.266"/>
<rect transform="matrix(0 1 -1 0 .0092220 -.000015259)" height="11.785" width="2.2217" y="-43.903" x="212"/>
<rect transform="rotate(90)" height="11.785" width="2.2217" y="-69.772" x="212"/>
<rect y="212.57" width="2.2217" x="57.987" height="7.4157"/>
<rect y="212.57" width="2.2217" x="57.987" height="7.4157"/>
<rect y="212.57" width="2.2217" x="57.987" height="7.4157"/>
<rect transform="translate(-.17213 -.000015259)" height="7.4157" width="2.2217" y="212.57" x="32.299"/>
<rect y="212.57" width="2.2217" x="51.082" height="7.4157"/>
<rect transform="translate(0 -.000015259)" height="7.4157" width="2.2217" y="212.57" x="41.691"/>
<rect transform="rotate(90)" height="9.9621" width="2.2217" y="-52.641" x="217.76"/>
<rect transform="rotate(90)" height="6.3161" width="2.2217" y="-53.304" x="212"/>
</g>
</g>
<rect height="168.16" width="896" y=".0000069776" x="-191.96" stroke-width="1pt" fill="#239f40"/>
<g stroke-width="1pt" fill="#fff">
<g transform="matrix(1.5197 0 0 1.5197 251.96 36.806)">
<rect y="206.72" width="32.289" x="32.067" height="2.2217"/>
<rect y="217.83" width="2.2217" x="36.881" height="2.1576"/>
<rect transform="rotate(90)" height="6.453" width="2.2217" y="-64.44" x="217.76"/>
<rect y="206.72" width="2.2217" x="67.911" height="13.266"/>
<rect transform="rotate(90)" height="12.229" width="2.2217" y="-80.765" x="217.76"/>
<rect y="212.57" width="2.2217" x="57.987" height="7.4157"/>
<rect transform="translate(11.035 -.000015259)" height="13.266" width="2.2217" y="206.72" x="67.911"/>
<rect y="206.72" width="2.2217" x="73.391" height="13.266"/>
<rect transform="matrix(0 1 -1 0 .0092220 -.000015259)" height="11.785" width="2.2217" y="-43.903" x="212"/>
<rect transform="rotate(90)" height="11.785" width="2.2217" y="-69.772" x="212"/>
<rect y="212.57" width="2.2217" x="57.987" height="7.4157"/>
<rect y="212.57" width="2.2217" x="57.987" height="7.4157"/>
<rect y="212.57" width="2.2217" x="57.987" height="7.4157"/>
<rect transform="translate(-.17213 -.000015259)" height="7.4157" width="2.2217" y="212.57" x="32.299"/>
<rect y="212.57" width="2.2217" x="51.082" height="7.4157"/>
<rect transform="translate(0 -.000015259)" height="7.4157" width="2.2217" y="212.57" x="41.691"/>
<rect transform="rotate(90)" height="9.9621" width="2.2217" y="-52.641" x="217.76"/>
<rect transform="rotate(90)" height="6.3161" width="2.2217" y="-53.304" x="212"/>
</g>
<g transform="matrix(1.5197 0 0 1.5197 332.69 36.806)">
<rect y="206.72" width="32.289" x="32.067" height="2.2217"/>
<rect y="217.83" width="2.2217" x="36.881" height="2.1576"/>
<rect transform="rotate(90)" height="6.453" width="2.2217" y="-64.44" x="217.76"/>
<rect y="206.72" width="2.2217" x="67.911" height="13.266"/>
<rect transform="rotate(90)" height="12.229" width="2.2217" y="-80.765" x="217.76"/>
<rect y="212.57" width="2.2217" x="57.987" height="7.4157"/>
<rect transform="translate(11.035 -.000015259)" height="13.266" width="2.2217" y="206.72" x="67.911"/>
<rect y="206.72" width="2.2217" x="73.391" height="13.266"/>
<rect transform="matrix(0 1 -1 0 .0092220 -.000015259)" height="11.785" width="2.2217" y="-43.903" x="212"/>
<rect transform="rotate(90)" height="11.785" width="2.2217" y="-69.772" x="212"/>
<rect y="212.57" width="2.2217" x="57.987" height="7.4157"/>
<rect y="212.57" width="2.2217" x="57.987" height="7.4157"/>
<rect y="212.57" width="2.2217" x="57.987" height="7.4157"/>
<rect transform="translate(-.17213 -.000015259)" height="7.4157" width="2.2217" y="212.57" x="32.299"/>
<rect y="212.57" width="2.2217" x="51.082" height="7.4157"/>
<rect transform="translate(0 -.000015259)" height="7.4157" width="2.2217" y="212.57" x="41.691"/>
<rect transform="rotate(90)" height="9.9621" width="2.2217" y="-52.641" x="217.76"/>
<rect transform="rotate(90)" height="6.3161" width="2.2217" y="-53.304" x="212"/>
</g>
<g transform="matrix(1.5197 0 0 1.5197 413.43 36.806)">
<rect y="206.72" width="32.289" x="32.067" height="2.2217"/>
<rect y="217.83" width="2.2217" x="36.881" height="2.1576"/>
<rect transform="rotate(90)" height="6.453" width="2.2217" y="-64.44" x="217.76"/>
<rect y="206.72" width="2.2217" x="67.911" height="13.266"/>
<rect transform="rotate(90)" height="12.229" width="2.2217" y="-80.765" x="217.76"/>
<rect y="212.57" width="2.2217" x="57.987" height="7.4157"/>
<rect transform="translate(11.035 -.000015259)" height="13.266" width="2.2217" y="206.72" x="67.911"/>
<rect y="206.72" width="2.2217" x="73.391" height="13.266"/>
<rect transform="matrix(0 1 -1 0 .0092220 -.000015259)" height="11.785" width="2.2217" y="-43.903" x="212"/>
<rect transform="rotate(90)" height="11.785" width="2.2217" y="-69.772" x="212"/>
<rect y="212.57" width="2.2217" x="57.987" height="7.4157"/>
<rect y="212.57" width="2.2217" x="57.987" height="7.4157"/>
<rect y="212.57" width="2.2217" x="57.987" height="7.4157"/>
<rect transform="translate(-.17213 -.000015259)" height="7.4157" width="2.2217" y="212.57" x="32.299"/>
<rect y="212.57" width="2.2217" x="51.082" height="7.4157"/>
<rect transform="translate(0 -.000015259)" height="7.4157" width="2.2217" y="212.57" x="41.691"/>
<rect transform="rotate(90)" height="9.9621" width="2.2217" y="-52.641" x="217.76"/>
<rect transform="rotate(90)" height="6.3161" width="2.2217" y="-53.304" x="212"/>
</g>
<g transform="matrix(1.5197 0 0 1.5197 494.64 36.806)">
<rect y="206.72" width="32.289" x="32.067" height="2.2217"/>
<rect y="217.83" width="2.2217" x="36.881" height="2.1576"/>
<rect transform="rotate(90)" height="6.453" width="2.2217" y="-64.44" x="217.76"/>
<rect y="206.72" width="2.2217" x="67.911" height="13.266"/>
<rect transform="rotate(90)" height="12.229" width="2.2217" y="-80.765" x="217.76"/>
<rect y="212.57" width="2.2217" x="57.987" height="7.4157"/>
<rect transform="translate(11.035 -.000015259)" height="13.266" width="2.2217" y="206.72" x="67.911"/>
<rect y="206.72" width="2.2217" x="73.391" height="13.266"/>
<rect transform="matrix(0 1 -1 0 .0092220 -.000015259)" height="11.785" width="2.2217" y="-43.903" x="212"/>
<rect transform="rotate(90)" height="11.785" width="2.2217" y="-69.772" x="212"/>
<rect y="212.57" width="2.2217" x="57.987" height="7.4157"/>
<rect y="212.57" width="2.2217" x="57.987" height="7.4157"/>
<rect y="212.57" width="2.2217" x="57.987" height="7.4157"/>
<rect transform="translate(-.17213 -.000015259)" height="7.4157" width="2.2217" y="212.57" x="32.299"/>
<rect y="212.57" width="2.2217" x="51.082" height="7.4157"/>
<rect transform="translate(0 -.000015259)" height="7.4157" width="2.2217" y="212.57" x="41.691"/>
<rect transform="rotate(90)" height="9.9621" width="2.2217" y="-52.641" x="217.76"/>
<rect transform="rotate(90)" height="6.3161" width="2.2217" y="-53.304" x="212"/>
</g>
<g transform="matrix(1.5197 0 0 1.5197 -232.52 36.806)">
<rect y="206.72" width="32.289" x="32.067" height="2.2217"/>
<rect y="217.83" width="2.2217" x="36.881" height="2.1576"/>
<rect transform="rotate(90)" height="6.453" width="2.2217" y="-64.44" x="217.76"/>
<rect y="206.72" width="2.2217" x="67.911" height="13.266"/>
<rect transform="rotate(90)" height="12.229" width="2.2217" y="-80.765" x="217.76"/>
<rect y="212.57" width="2.2217" x="57.987" height="7.4157"/>
<rect transform="translate(11.035 -.000015259)" height="13.266" width="2.2217" y="206.72" x="67.911"/>
<rect y="206.72" width="2.2217" x="73.391" height="13.266"/>
<rect transform="matrix(0 1 -1 0 .0092220 -.000015259)" height="11.785" width="2.2217" y="-43.903" x="212"/>
<rect transform="rotate(90)" height="11.785" width="2.2217" y="-69.772" x="212"/>
<rect y="212.57" width="2.2217" x="57.987" height="7.4157"/>
<rect y="212.57" width="2.2217" x="57.987" height="7.4157"/>
<rect y="212.57" width="2.2217" x="57.987" height="7.4157"/>
<rect transform="translate(-.17213 -.000015259)" height="7.4157" width="2.2217" y="212.57" x="32.299"/>
<rect y="212.57" width="2.2217" x="51.082" height="7.4157"/>
<rect transform="translate(0 -.000015259)" height="7.4157" width="2.2217" y="212.57" x="41.691"/>
<rect transform="rotate(90)" height="9.9621" width="2.2217" y="-52.641" x="217.76"/>
<rect transform="rotate(90)" height="6.3161" width="2.2217" y="-53.304" x="212"/>
</g>
<g transform="matrix(1.5197 0 0 1.5197 -70.36 -170.71)">
<rect y="206.72" width="32.289" x="32.067" height="2.2217"/>
<rect y="217.83" width="2.2217" x="36.881" height="2.1576"/>
<rect transform="rotate(90)" height="6.453" width="2.2217" y="-64.44" x="217.76"/>
<rect y="206.72" width="2.2217" x="67.911" height="13.266"/>
<rect transform="rotate(90)" height="12.229" width="2.2217" y="-80.765" x="217.76"/>
<rect y="212.57" width="2.2217" x="57.987" height="7.4157"/>
<rect transform="translate(11.035 -.000015259)" height="13.266" width="2.2217" y="206.72" x="67.911"/>
<rect y="206.72" width="2.2217" x="73.391" height="13.266"/>
<rect transform="matrix(0 1 -1 0 .0092220 -.000015259)" height="11.785" width="2.2217" y="-43.903" x="212"/>
<rect transform="rotate(90)" height="11.785" width="2.2217" y="-69.772" x="212"/>
<rect y="212.57" width="2.2217" x="57.987" height="7.4157"/>
<rect y="212.57" width="2.2217" x="57.987" height="7.4157"/>
<rect y="212.57" width="2.2217" x="57.987" height="7.4157"/>
<rect transform="translate(-.17213 -.000015259)" height="7.4157" width="2.2217" y="212.57" x="32.299"/>
<rect y="212.57" width="2.2217" x="51.082" height="7.4157"/>
<rect transform="translate(0 -.000015259)" height="7.4157" width="2.2217" y="212.57" x="41.691"/>
<rect transform="rotate(90)" height="9.9621" width="2.2217" y="-52.641" x="217.76"/>
<rect transform="rotate(90)" height="6.3161" width="2.2217" y="-53.304" x="212"/>
</g>
<g transform="matrix(1.5197 0 0 1.5197 -150.96 -170.71)">
<rect y="206.72" width="32.289" x="32.067" height="2.2217"/>
<rect y="217.83" width="2.2217" x="36.881" height="2.1576"/>
<rect transform="rotate(90)" height="6.453" width="2.2217" y="-64.44" x="217.76"/>
<rect y="206.72" width="2.2217" x="67.911" height="13.266"/>
<rect transform="rotate(90)" height="12.229" width="2.2217" y="-80.765" x="217.76"/>
<rect y="212.57" width="2.2217" x="57.987" height="7.4157"/>
<rect transform="translate(11.035 -.000015259)" height="13.266" width="2.2217" y="206.72" x="67.911"/>
<rect y="206.72" width="2.2217" x="73.391" height="13.266"/>
<rect transform="matrix(0 1 -1 0 .0092220 -.000015259)" height="11.785" width="2.2217" y="-43.903" x="212"/>
<rect transform="rotate(90)" height="11.785" width="2.2217" y="-69.772" x="212"/>
<rect y="212.57" width="2.2217" x="57.987" height="7.4157"/>
<rect y="212.57" width="2.2217" x="57.987" height="7.4157"/>
<rect y="212.57" width="2.2217" x="57.987" height="7.4157"/>
<rect transform="translate(-.17213 -.000015259)" height="7.4157" width="2.2217" y="212.57" x="32.299"/>
<rect y="212.57" width="2.2217" x="51.082" height="7.4157"/>
<rect transform="translate(0 -.000015259)" height="7.4157" width="2.2217" y="212.57" x="41.691"/>
<rect transform="rotate(90)" height="9.9621" width="2.2217" y="-52.641" x="217.76"/>
<rect transform="rotate(90)" height="6.3161" width="2.2217" y="-53.304" x="212"/>
</g>
<g transform="matrix(1.5197 0 0 1.5197 9.5646 -170.71)">
<rect y="206.72" width="32.289" x="32.067" height="2.2217"/>
<rect y="217.83" width="2.2217" x="36.881" height="2.1576"/>
<rect transform="rotate(90)" height="6.453" width="2.2217" y="-64.44" x="217.76"/>
<rect y="206.72" width="2.2217" x="67.911" height="13.266"/>
<rect transform="rotate(90)" height="12.229" width="2.2217" y="-80.765" x="217.76"/>
<rect y="212.57" width="2.2217" x="57.987" height="7.4157"/>
<rect transform="translate(11.035 -.000015259)" height="13.266" width="2.2217" y="206.72" x="67.911"/>
<rect y="206.72" width="2.2217" x="73.391" height="13.266"/>
<rect transform="matrix(0 1 -1 0 .0092220 -.000015259)" height="11.785" width="2.2217" y="-43.903" x="212"/>
<rect transform="rotate(90)" height="11.785" width="2.2217" y="-69.772" x="212"/>
<rect y="212.57" width="2.2217" x="57.987" height="7.4157"/>
<rect y="212.57" width="2.2217" x="57.987" height="7.4157"/>
<rect y="212.57" width="2.2217" x="57.987" height="7.4157"/>
<rect transform="translate(-.17213 -.000015259)" height="7.4157" width="2.2217" y="212.57" x="32.299"/>
<rect y="212.57" width="2.2217" x="51.082" height="7.4157"/>
<rect transform="translate(0 -.000015259)" height="7.4157" width="2.2217" y="212.57" x="41.691"/>
<rect transform="rotate(90)" height="9.9621" width="2.2217" y="-52.641" x="217.76"/>
<rect transform="rotate(90)" height="6.3161" width="2.2217" y="-53.304" x="212"/>
</g>
<g transform="matrix(1.5197 0 0 1.5197 573.95 -170.71)">
<rect y="206.72" width="32.289" x="32.067" height="2.2217"/>
<rect y="217.83" width="2.2217" x="36.881" height="2.1576"/>
<rect transform="rotate(90)" height="6.453" width="2.2217" y="-64.44" x="217.76"/>
<rect y="206.72" width="2.2217" x="67.911" height="13.266"/>
<rect transform="rotate(90)" height="12.229" width="2.2217" y="-80.765" x="217.76"/>
<rect y="212.57" width="2.2217" x="57.987" height="7.4157"/>
<rect transform="translate(11.035 -.000015259)" height="13.266" width="2.2217" y="206.72" x="67.911"/>
<rect y="206.72" width="2.2217" x="73.391" height="13.266"/>
<rect transform="matrix(0 1 -1 0 .0092220 -.000015259)" height="11.785" width="2.2217" y="-43.903" x="212"/>
<rect transform="rotate(90)" height="11.785" width="2.2217" y="-69.772" x="212"/>
<rect y="212.57" width="2.2217" x="57.987" height="7.4157"/>
<rect y="212.57" width="2.2217" x="57.987" height="7.4157"/>
<rect y="212.57" width="2.2217" x="57.987" height="7.4157"/>
<rect transform="translate(-.17213 -.000015259)" height="7.4157" width="2.2217" y="212.57" x="32.299"/>
<rect y="212.57" width="2.2217" x="51.082" height="7.4157"/>
<rect transform="translate(0 -.000015259)" height="7.4157" width="2.2217" y="212.57" x="41.691"/>
<rect transform="rotate(90)" height="9.9621" width="2.2217" y="-52.641" x="217.76"/>
<rect transform="rotate(90)" height="6.3161" width="2.2217" y="-53.304" x="212"/>
</g>
<g transform="matrix(1.5197 0 0 1.5197 90.01 -170.71)">
<rect y="206.72" width="32.289" x="32.067" height="2.2217"/>
<rect y="217.83" width="2.2217" x="36.881" height="2.1576"/>
<rect transform="rotate(90)" height="6.453" width="2.2217" y="-64.44" x="217.76"/>
<rect y="206.72" width="2.2217" x="67.911" height="13.266"/>
<rect transform="rotate(90)" height="12.229" width="2.2217" y="-80.765" x="217.76"/>
<rect y="212.57" width="2.2217" x="57.987" height="7.4157"/>
<rect transform="translate(11.035 -.000015259)" height="13.266" width="2.2217" y="206.72" x="67.911"/>
<rect y="206.72" width="2.2217" x="73.391" height="13.266"/>
<rect transform="matrix(0 1 -1 0 .0092220 -.000015259)" height="11.785" width="2.2217" y="-43.903" x="212"/>
<rect transform="rotate(90)" height="11.785" width="2.2217" y="-69.772" x="212"/>
<rect y="212.57" width="2.2217" x="57.987" height="7.4157"/>
<rect y="212.57" width="2.2217" x="57.987" height="7.4157"/>
<rect y="212.57" width="2.2217" x="57.987" height="7.4157"/>
<rect transform="translate(-.17213 -.000015259)" height="7.4157" width="2.2217" y="212.57" x="32.299"/>
<rect y="212.57" width="2.2217" x="51.082" height="7.4157"/>
<rect transform="translate(0 -.000015259)" height="7.4157" width="2.2217" y="212.57" x="41.691"/>
<rect transform="rotate(90)" height="9.9621" width="2.2217" y="-52.641" x="217.76"/>
<rect transform="rotate(90)" height="6.3161" width="2.2217" y="-53.304" x="212"/>
</g>
<g transform="matrix(1.5197 0 0 1.5197 170.75 -170.71)">
<rect y="206.72" width="32.289" x="32.067" height="2.2217"/>
<rect y="217.83" width="2.2217" x="36.881" height="2.1576"/>
<rect transform="rotate(90)" height="6.453" width="2.2217" y="-64.44" x="217.76"/>
<rect y="206.72" width="2.2217" x="67.911" height="13.266"/>
<rect transform="rotate(90)" height="12.229" width="2.2217" y="-80.765" x="217.76"/>
<rect y="212.57" width="2.2217" x="57.987" height="7.4157"/>
<rect transform="translate(11.035 -.000015259)" height="13.266" width="2.2217" y="206.72" x="67.911"/>
<rect y="206.72" width="2.2217" x="73.391" height="13.266"/>
<rect transform="matrix(0 1 -1 0 .0092220 -.000015259)" height="11.785" width="2.2217" y="-43.903" x="212"/>
<rect transform="rotate(90)" height="11.785" width="2.2217" y="-69.772" x="212"/>
<rect y="212.57" width="2.2217" x="57.987" height="7.4157"/>
<rect y="212.57" width="2.2217" x="57.987" height="7.4157"/>
<rect y="212.57" width="2.2217" x="57.987" height="7.4157"/>
<rect transform="translate(-.17213 -.000015259)" height="7.4157" width="2.2217" y="212.57" x="32.299"/>
<rect y="212.57" width="2.2217" x="51.082" height="7.4157"/>
<rect transform="translate(0 -.000015259)" height="7.4157" width="2.2217" y="212.57" x="41.691"/>
<rect transform="rotate(90)" height="9.9621" width="2.2217" y="-52.641" x="217.76"/>
<rect transform="rotate(90)" height="6.3161" width="2.2217" y="-53.304" x="212"/>
</g>
<g transform="matrix(1.5197 0 0 1.5197 251.96 -170.71)">
<rect y="206.72" width="32.289" x="32.067" height="2.2217"/>
<rect y="217.83" width="2.2217" x="36.881" height="2.1576"/>
<rect transform="rotate(90)" height="6.453" width="2.2217" y="-64.44" x="217.76"/>
<rect y="206.72" width="2.2217" x="67.911" height="13.266"/>
<rect transform="rotate(90)" height="12.229" width="2.2217" y="-80.765" x="217.76"/>
<rect y="212.57" width="2.2217" x="57.987" height="7.4157"/>
<rect transform="translate(11.035 -.000015259)" height="13.266" width="2.2217" y="206.72" x="67.911"/>
<rect y="206.72" width="2.2217" x="73.391" height="13.266"/>
<rect transform="matrix(0 1 -1 0 .0092220 -.000015259)" height="11.785" width="2.2217" y="-43.903" x="212"/>
<rect transform="rotate(90)" height="11.785" width="2.2217" y="-69.772" x="212"/>
<rect y="212.57" width="2.2217" x="57.987" height="7.4157"/>
<rect y="212.57" width="2.2217" x="57.987" height="7.4157"/>
<rect y="212.57" width="2.2217" x="57.987" height="7.4157"/>
<rect transform="translate(-.17213 -.000015259)" height="7.4157" width="2.2217" y="212.57" x="32.299"/>
<rect y="212.57" width="2.2217" x="51.082" height="7.4157"/>
<rect transform="translate(0 -.000015259)" height="7.4157" width="2.2217" y="212.57" x="41.691"/>
<rect transform="rotate(90)" height="9.9621" width="2.2217" y="-52.641" x="217.76"/>
<rect transform="rotate(90)" height="6.3161" width="2.2217" y="-53.304" x="212"/>
</g>
<g transform="matrix(1.5197 0 0 1.5197 332.69 -170.71)">
<rect y="206.72" width="32.289" x="32.067" height="2.2217"/>
<rect y="217.83" width="2.2217" x="36.881" height="2.1576"/>
<rect transform="rotate(90)" height="6.453" width="2.2217" y="-64.44" x="217.76"/>
<rect y="206.72" width="2.2217" x="67.911" height="13.266"/>
<rect transform="rotate(90)" height="12.229" width="2.2217" y="-80.765" x="217.76"/>
<rect y="212.57" width="2.2217" x="57.987" height="7.4157"/>
<rect transform="translate(11.035 -.000015259)" height="13.266" width="2.2217" y="206.72" x="67.911"/>
<rect y="206.72" width="2.2217" x="73.391" height="13.266"/>
<rect transform="matrix(0 1 -1 0 .0092220 -.000015259)" height="11.785" width="2.2217" y="-43.903" x="212"/>
<rect transform="rotate(90)" height="11.785" width="2.2217" y="-69.772" x="212"/>
<rect y="212.57" width="2.2217" x="57.987" height="7.4157"/>
<rect y="212.57" width="2.2217" x="57.987" height="7.4157"/>
<rect y="212.57" width="2.2217" x="57.987" height="7.4157"/>
<rect transform="translate(-.17213 -.000015259)" height="7.4157" width="2.2217" y="212.57" x="32.299"/>
<rect y="212.57" width="2.2217" x="51.082" height="7.4157"/>
<rect transform="translate(0 -.000015259)" height="7.4157" width="2.2217" y="212.57" x="41.691"/>
<rect transform="rotate(90)" height="9.9621" width="2.2217" y="-52.641" x="217.76"/>
<rect transform="rotate(90)" height="6.3161" width="2.2217" y="-53.304" x="212"/>
</g>
<g transform="matrix(1.5197 0 0 1.5197 413.43 -170.71)">
<rect y="206.72" width="32.289" x="32.067" height="2.2217"/>
<rect y="217.83" width="2.2217" x="36.881" height="2.1576"/>
<rect transform="rotate(90)" height="6.453" width="2.2217" y="-64.44" x="217.76"/>
<rect y="206.72" width="2.2217" x="67.911" height="13.266"/>
<rect transform="rotate(90)" height="12.229" width="2.2217" y="-80.765" x="217.76"/>
<rect y="212.57" width="2.2217" x="57.987" height="7.4157"/>
<rect transform="translate(11.035 -.000015259)" height="13.266" width="2.2217" y="206.72" x="67.911"/>
<rect y="206.72" width="2.2217" x="73.391" height="13.266"/>
<rect transform="matrix(0 1 -1 0 .0092220 -.000015259)" height="11.785" width="2.2217" y="-43.903" x="212"/>
<rect transform="rotate(90)" height="11.785" width="2.2217" y="-69.772" x="212"/>
<rect y="212.57" width="2.2217" x="57.987" height="7.4157"/>
<rect y="212.57" width="2.2217" x="57.987" height="7.4157"/>
<rect y="212.57" width="2.2217" x="57.987" height="7.4157"/>
<rect transform="translate(-.17213 -.000015259)" height="7.4157" width="2.2217" y="212.57" x="32.299"/>
<rect y="212.57" width="2.2217" x="51.082" height="7.4157"/>
<rect transform="translate(0 -.000015259)" height="7.4157" width="2.2217" y="212.57" x="41.691"/>
<rect transform="rotate(90)" height="9.9621" width="2.2217" y="-52.641" x="217.76"/>
<rect transform="rotate(90)" height="6.3161" width="2.2217" y="-53.304" x="212"/>
</g>
<g transform="matrix(1.5197 0 0 1.5197 494.64 -170.71)">
<rect y="206.72" width="32.289" x="32.067" height="2.2217"/>
<rect y="217.83" width="2.2217" x="36.881" height="2.1576"/>
<rect transform="rotate(90)" height="6.453" width="2.2217" y="-64.44" x="217.76"/>
<rect y="206.72" width="2.2217" x="67.911" height="13.266"/>
<rect transform="rotate(90)" height="12.229" width="2.2217" y="-80.765" x="217.76"/>
<rect y="212.57" width="2.2217" x="57.987" height="7.4157"/>
<rect transform="translate(11.035 -.000015259)" height="13.266" width="2.2217" y="206.72" x="67.911"/>
<rect y="206.72" width="2.2217" x="73.391" height="13.266"/>
<rect transform="matrix(0 1 -1 0 .0092220 -.000015259)" height="11.785" width="2.2217" y="-43.903" x="212"/>
<rect transform="rotate(90)" height="11.785" width="2.2217" y="-69.772" x="212"/>
<rect y="212.57" width="2.2217" x="57.987" height="7.4157"/>
<rect y="212.57" width="2.2217" x="57.987" height="7.4157"/>
<rect y="212.57" width="2.2217" x="57.987" height="7.4157"/>
<rect transform="translate(-.17213 -.000015259)" height="7.4157" width="2.2217" y="212.57" x="32.299"/>
<rect y="212.57" width="2.2217" x="51.082" height="7.4157"/>
<rect transform="translate(0 -.000015259)" height="7.4157" width="2.2217" y="212.57" x="41.691"/>
<rect transform="rotate(90)" height="9.9621" width="2.2217" y="-52.641" x="217.76"/>
<rect transform="rotate(90)" height="6.3161" width="2.2217" y="-53.304" x="212"/>
</g>
<g transform="matrix(1.5197 0 0 1.5197 -232.52 -170.71)">
<rect y="206.72" width="32.289" x="32.067" height="2.2217"/>
<rect y="217.83" width="2.2217" x="36.881" height="2.1576"/>
<rect transform="rotate(90)" height="6.453" width="2.2217" y="-64.44" x="217.76"/>
<rect y="206.72" width="2.2217" x="67.911" height="13.266"/>
<rect transform="rotate(90)" height="12.229" width="2.2217" y="-80.765" x="217.76"/>
<rect y="212.57" width="2.2217" x="57.987" height="7.4157"/>
<rect transform="translate(11.035 -.000015259)" height="13.266" width="2.2217" y="206.72" x="67.911"/>
<rect y="206.72" width="2.2217" x="73.391" height="13.266"/>
<rect transform="matrix(0 1 -1 0 .0092220 -.000015259)" height="11.785" width="2.2217" y="-43.903" x="212"/>
<rect transform="rotate(90)" height="11.785" width="2.2217" y="-69.772" x="212"/>
<rect y="212.57" width="2.2217" x="57.987" height="7.4157"/>
<rect y="212.57" width="2.2217" x="57.987" height="7.4157"/>
<rect y="212.57" width="2.2217" x="57.987" height="7.4157"/>
<rect transform="translate(-.17213 -.000015259)" height="7.4157" width="2.2217" y="212.57" x="32.299"/>
<rect y="212.57" width="2.2217" x="51.082" height="7.4157"/>
<rect transform="translate(0 -.000015259)" height="7.4157" width="2.2217" y="212.57" x="41.691"/>
<rect transform="rotate(90)" height="9.9621" width="2.2217" y="-52.641" x="217.76"/>
<rect transform="rotate(90)" height="6.3161" width="2.2217" y="-53.304" x="212"/>
</g>
</g>
<g stroke-width="1pt" fill="#d90000" transform="matrix(1.0321 0 0 1.0321 -191.96 176.9)">
<rect y="157.55" width="5.8601" x="119.3" height="10.178"/>
<rect y="157.55" width="5.8601" x="274.84" height="10.178"/>
<rect y="157.55" width="5.8601" x="-.042406" height="10.178"/>
<rect transform="translate(39.591 -.000015259)" height="10.178" width="5.8601" y="157.55" x="39.308"/>
<rect transform="translate(117.97 -.000015259)" height="10.178" width="5.8601" y="157.55" x="39.308"/>
<rect transform="translate(156.75 -.000015259)" height="10.178" width="5.8601" y="157.55" x="39.308"/>
<rect transform="translate(196.34 -.000015259)" height="10.178" width="5.8601" y="157.55" x="39.308"/>
<rect y="157.55" width="5.8601" x="313.62" height="10.178"/>
<rect y="157.55" width="5.8601" x="510.36" height="10.178"/>
<rect transform="translate(313.9 -.000015259)" height="10.178" width="5.8601" y="157.55" x="39.308"/>
<rect transform="translate(352.69 -.000015259)" height="10.178" width="5.8601" y="157.55" x="39.308"/>
<rect transform="translate(391.87 -.000015259)" height="10.178" width="5.8601" y="157.55" x="39.308"/>
<rect transform="translate(431.06 -.000015259)" height="10.178" width="5.8601" y="157.55" x="39.308"/>
<rect y="157.55" width="5.8601" x="783.46" height="10.178"/>
<rect transform="translate(509.03 -.000015259)" height="10.178" width="5.8601" y="157.55" x="39.308"/>
<rect transform="translate(548.62 -.000015259)" height="10.178" width="5.8601" y="157.55" x="39.308"/>
<rect transform="translate(588.62 -.000015259)" height="10.178" width="5.8601" y="157.55" x="39.308"/>
<rect transform="translate(626.19 -.000015259)" height="10.178" width="5.8601" y="157.55" x="39.308"/>
<rect transform="translate(666.18 -.000015259)" height="10.178" width="5.8601" y="157.55" x="39.308"/>
<rect transform="translate(705.37 -.000015259)" height="10.178" width="5.8601" y="157.55" x="39.308"/>
<rect y="157.55" width="5.8601" x="860.63" height="10.178"/>
<rect transform="translate(783.75 -.000015259)" height="10.178" width="5.8601" y="157.55" x="39.308"/>
<rect y="157.55" width="5.8601" x="39.308" height="10.178"/>
</g>
<g stroke-width="1pt" fill="#239e3f" transform="matrix(1.0321 0 0 1.0321 -191.96 .0000025820)">
<rect y="157.55" width="5.8601" x="119.3" height="10.178"/>
<rect y="157.55" width="5.8601" x="274.84" height="10.178"/>
<rect y="157.55" width="5.8601" x="-.042406" height="10.178"/>
<rect transform="translate(39.591 -.000015259)" height="10.178" width="5.8601" y="157.55" x="39.308"/>
<rect transform="translate(117.97 -.000015259)" height="10.178" width="5.8601" y="157.55" x="39.308"/>
<rect transform="translate(156.75 -.000015259)" height="10.178" width="5.8601" y="157.55" x="39.308"/>
<rect transform="translate(196.34 -.000015259)" height="10.178" width="5.8601" y="157.55" x="39.308"/>
<rect y="157.55" width="5.8601" x="313.62" height="10.178"/>
<rect y="157.55" width="5.8601" x="510.36" height="10.178"/>
<rect transform="translate(313.9 -.000015259)" height="10.178" width="5.8601" y="157.55" x="39.308"/>
<rect transform="translate(352.69 -.000015259)" height="10.178" width="5.8601" y="157.55" x="39.308"/>
<rect transform="translate(391.87 -.000015259)" height="10.178" width="5.8601" y="157.55" x="39.308"/>
<rect transform="translate(431.06 -.000015259)" height="10.178" width="5.8601" y="157.55" x="39.308"/>
<rect y="157.55" width="5.8601" x="783.46" height="10.178"/>
<rect transform="translate(509.03 -.000015259)" height="10.178" width="5.8601" y="157.55" x="39.308"/>
<rect transform="translate(548.62 -.000015259)" height="10.178" width="5.8601" y="157.55" x="39.308"/>
<rect transform="translate(588.62 -.000015259)" height="10.178" width="5.8601" y="157.55" x="39.308"/>
<rect transform="translate(626.19 -.000015259)" height="10.178" width="5.8601" y="157.55" x="39.308"/>
<rect transform="translate(666.18 -.000015259)" height="10.178" width="5.8601" y="157.55" x="39.308"/>
<rect transform="translate(705.37 -.000015259)" height="10.178" width="5.8601" y="157.55" x="39.308"/>
<rect y="157.55" width="5.8601" x="860.63" height="10.178"/>
<rect transform="translate(783.75 -.000015259)" height="10.178" width="5.8601" y="157.55" x="39.308"/>
<rect y="157.55" width="5.8601" x="39.308" height="10.178"/>
</g>
<g transform="matrix(1.0321 0 0 1.0321 -179.65 -532.01)" fill="#da0000">
<path d="m445.16 706.81c8.19 10.039 33.438 65.548-15.241 101.91-22.884 17.223-8.714 18.093-8.037 20.988 36.785-19.539 48.799-46.013 48.52-69.727-0.28-23.715-12.853-44.669-25.242-53.167z"/>
<path d="m450.03 704.23c18.166 9.301 57.701 56.079 15.149 108.85 26.439-5.868 60.053-83.729-15.149-108.85z"/>
<path d="m394.24 704.23c-18.166 9.301-57.701 56.079-15.149 108.85-26.439-5.868-60.053-83.729 15.149-108.85z"/>
<path d="m399.04 706.81c-8.19 10.039-33.438 65.548 15.241 101.91 22.884 17.223 8.714 18.093 8.037 20.988-36.785-19.539-48.799-46.013-48.52-69.727 0.28-23.715 12.853-44.669 25.242-53.167z"/>
<path d="m468.8 824.65c-14.398 0.228-32.549-1.984-46.01-8.979 2.217 4.311 4.059 7.026 6.276 11.337 12.838 1.184 30.554 2.649 39.734-2.358z"/>
<path d="m376.78 824.65c14.398 0.228 32.549-1.984 46.01-8.979-2.217 4.311-4.059 7.026-6.276 11.337-12.838 1.184-30.554 2.649-39.734-2.358z"/>
<path d="m403.19 690.25c2.917 7.753 10.57 8.88 18.762 4.315 5.97 3.582 15.202 3.809 18.386-3.94 2.421 19.169-17.736 14.634-18.487 10.882-7.504 7.254-21.475 3.064-18.661-11.257z"/>
<path d="m422.49 836.72 7.57-8.652 1.082-116.44-9.012-7.931-9.012 7.57 1.802 117.16 7.57 8.291z"/>
</g>
</g>
</svg>
