<!-- /Creative Commons Public Domain -->
<svg xmlns:rdf="http://www.w3.org/1999/02/22-rdf-syntax-ns#" xmlns="http://www.w3.org/2000/svg" height="480" width="640" version="1" y="0" x="0" xmlns:cc="http://creativecommons.org/ns#" xmlns:dc="http://purl.org/dc/elements/1.1/">
<defs>
<clipPath id="a" clipPathUnits="userSpaceOnUse">
<rect fill-opacity=".67" height="512" width="682.67" y=".000016181" x="-117.82"/>
</clipPath>
</defs>
<g transform="matrix(.93750 0 0 .93750 110.46 -.000015169)" clip-path="url(#a)">
<g stroke-width="1pt" transform="matrix(24.381 0 0 24.381 -117.82 .00001745)" fill-rule="evenodd">
<rect y="0" width="42" x="0" height="7"/>
<rect height="7" width="42" y="7" x="0" fill="#fff"/>
<rect height="7" width="42" y="14" x="0" fill="#090"/>
<path fill="#f00" d="m0 21 21-10.5-21-10.5v21z"/>
<polygon points="5.8385 11.852 6.0708 10.834 5.027 10.834 5.9674 10.381 5.3166 9.5648 6.2571 10.018 6.4894 9 6.4894 9 6.7216 10.018 7.6621 9.5648 7.0113 10.381 7.9518 10.834 6.9079 10.834 7.1402 11.852 6.4894 11.035" fill="#fff"/>
</g>
</g>
</svg>
