<svg xmlns:rdf="http://www.w3.org/1999/02/22-rdf-syntax-ns#" xmlns="http://www.w3.org/2000/svg" height="480" width="640" version="1" y="0" x="0" xmlns:cc="http://creativecommons.org/ns#" xmlns:dc="http://purl.org/dc/elements/1.1/">
<defs>
<clipPath id="a" clipPathUnits="userSpaceOnUse">
<rect fill-opacity=".67" height="512" width="682.67" y=".000004156" x="-80.109"/>
</clipPath>
</defs>
<g clip-path="url(#a)" transform="matrix(.93750 0 0 .93750 75.102 -.0000038963)" fill-rule="evenodd">
<rect height="511.29" width="737.65" y=".23857" x="-107.85" fill="#ffe900"/>
<path fill="#35a100" d="m-108.24 0.23864 0.86 368.58 573.98-368.82-574.84 0.23864z"/>
<path fill="#c70000" d="m630.69 511.53-1.3468-383.25-578.98 383.54 580.33-0.2831z"/>
<path d="m-107.87 396.61 0.49 115.39 125.25-0.16 611.76-410.14-0.69-100.32-123.76-1.1414-613.05 396.37z"/>
<polygon points="511.95 324.28 533.78 256.9 555.61 324.28 626.44 324.23 569.1 365.81 591.04 433.16 591.04 433.16 533.77 391.48 476.5 433.15 498.45 365.81 441.12 324.21" fill="#fff" transform="matrix(.53692 -.34745 .32106 .51439 1.465 167.69)"/>
<polygon points="511.95 324.28 533.78 256.9 555.61 324.28 626.44 324.23 569.1 365.81 591.04 433.16 591.04 433.16 533.77 391.48 476.5 433.15 498.45 365.81 441.12 324.21" fill="#fff" transform="matrix(.53692 -.34745 .32106 .51439 -273.78 346.6)"/>
</g>
</svg>
