<svg xmlns:rdf="http://www.w3.org/1999/02/22-rdf-syntax-ns#" xmlns="http://www.w3.org/2000/svg" height="480" width="640" version="1" y="0" x="0" xmlns:cc="http://creativecommons.org/ns#" xmlns:dc="http://purl.org/dc/elements/1.1/">
<defs>
<clipPath id="a" clipPathUnits="userSpaceOnUse">
<rect fill-opacity=".67" height="512" width="682.67" y="-.43991" x="-95.808"/>
</clipPath>
</defs>
<g clip-path="url(#a)" transform="matrix(.9375 0 0 .9375 89.82 .41242)" fill-rule="evenodd">
<rect transform="scale(-1)" height="512" width="730.17" y="-511.56" x="-610.61" fill="#fff"/>
<path transform="matrix(.68690 0 0 .68690 -88.735 -532.54)" fill="#fff" d="m495.86 1148c0 90.46-73.332 163.79-163.79 163.79-90.46 0-163.79-73.332-163.79-163.79 0-90.46 73.332-163.79 163.79-163.79 90.46 0 163.79 73.332 163.79 163.79z"/>
<path transform="matrix(.63784 0 0 .64461 -74.972 16.483)" fill="#c70000" d="m733.7 381.73c0 125.78-101.96 227.74-227.74 227.74s-227.74-101.96-227.74-227.74 101.96-227.74 227.74-227.74 227.74 101.96 227.74 227.74z"/>
<g stroke-width="1pt">
<rect transform="rotate(-49.156)" height="26.201" width="127.92" y="45.309" x="-127.97"/>
<rect transform="rotate(-49.156)" height="26.201" width="127.92" y="81.527" x="-127.97"/>
<rect transform="rotate(-49.156)" height="26.201" width="127.92" y="45.309" x="-127.97"/>
<rect transform="rotate(-49.156)" height="26.201" width="127.92" y="45.309" x="-127.97"/>
<rect transform="rotate(-49.156)" height="26.201" width="127.92" y="118.52" x="-127.97"/>
<rect transform="rotate(-49.156)" height="26.201" width="127.92" y="45.309" x="-127.97"/>
<rect transform="rotate(-49.156)" height="26.201" width="127.92" y="45.309" x="-127.97"/>
<rect transform="matrix(.64886 .76090 -.76090 .64886 0 0)" height="26.201" width="127.92" y="-330.34" x="320.65"/>
<rect transform="matrix(.64886 .76090 -.76090 .64886 0 0)" height="26.201" width="127.92" y="-257.13" x="320.65"/>
</g>
<path fill="#fff" d="m417.55 133.19 78.602-67.814 14.641 16.953-83.996 75.519-9.2471-24.659z"/>
<g stroke-width="1pt">
<rect transform="matrix(-.64282 .76602 -.76881 -.63948 0 0)" height="25.644" width="125.1" y="-633.05" x="-42.832"/>
<rect transform="matrix(.64886 .76090 -.76090 .64886 0 0)" height="26.201" width="127.92" y="-294.12" x="320.65"/>
<rect transform="matrix(-.64282 .76602 -.76881 -.63948 0 0)" height="25.644" width="125.1" y="-668.49" x="-42.832"/>
<rect transform="matrix(-.64282 .76602 -.76881 -.63948 0 0)" height="25.644" width="125.1" y="-596.84" x="-42.832"/>
</g>
<path fill="#3d5897" d="m104.6 236.68c4.5919 36.974 11.297 78.175 68.199 82.455 21.328 1.2776 62.817-5.0735 77.061-63.19 18.688-55.829 74.975-71.88 113.28-41.613 21.718 14.166 27.727 36.666 29.283 53.557-1.7386 54.243-32.874 101.2-72.823 122.14-45.93 27.3-109.56 27.87-165.3-13.49-25.12-23.57-60.219-67.02-49.7-139.86z"/>
<path fill="#fff" d="m435.91 370.59 78.734 67.661-14.591 16.997-87.156-71.851 23.013-12.807z"/>
<g stroke-width="1pt">
<rect transform="matrix(.64886 .76090 -.76090 .64886 0 0)" height="26.201" width="127.92" y="233.21" x="270.57"/>
<path fill="#fff" d="m-16.188 437.25 78.602-67.814 14.641 16.953-83.996 75.519-9.2471-24.659z"/>
<rect transform="matrix(.64886 .76090 -.76090 .64886 0 0)" height="26.201" width="127.92" y="196.99" x="270.57"/>
<rect transform="matrix(.64886 .76090 -.76090 .64886 0 0)" height="26.201" width="127.92" y="270.2" x="270.57"/>
</g>
</g>
</svg>
