<svg xmlns:rdf="http://www.w3.org/1999/02/22-rdf-syntax-ns#" xmlns="http://www.w3.org/2000/svg" height="480" width="640" xmlns:cc="http://creativecommons.org/ns#" xmlns:dc="http://purl.org/dc/elements/1.1/">
<defs>
<clipPath id="a" clipPathUnits="userSpaceOnUse">
<rect fill-opacity=".67" height="513.46" width="684.61" y="-1.4601" x="-85.687"/>
</clipPath>
</defs>
<g fill-rule="evenodd" transform="matrix(.93483 0 0 .93483 80.104 1.3649)" clip-path="url(#a)">
<rect height="512" width="767.07" y="-.36417" x="-126.62" fill="#ed3d00"/>
<g fill="#ffd100">
<path d="m-126.59 200.87 0.15608 109.9 385.87-54.964-386.03-54.936z"/>
<path d="m-128 512 159.3-0.3 228.68-257.41-387.98 257.71z"/>
<path d="m311.72 511.64-109.9-0.10269 54.964-253.87 54.936 253.97z"/>
<path d="m641.24-1.4601-159.3 0.3046-228.69 259.45 387.99-259.75z"/>
<path d="m201.52-0.000011636 109.9 0.10269-54.97 253.87-54.93-253.97z"/>
<path d="m640.5 511.64-159.3-0.31-228.69-257.41 387.99 257.72z"/>
<path d="m640.5 200.87-0.16 109.9-385.87-54.97 386.03-54.93z"/>
<path d="m-126.96 0.000012512 159.3 0.3022 228.69 257.41-387.99-257.71z"/>
</g>
<path transform="matrix(.92167 0 0 .88098 -130.46 52.184)" fill="#ed3d00" d="m517.42 231.14c0 54.866-43.551 99.345-97.275 99.345-53.723 0-97.275-44.478-97.275-99.345 0-54.866 43.551-99.345 97.275-99.345 53.723 0 97.275 44.478 97.275 99.345z"/>
<path transform="matrix(.85052 0 0 .82760 -100.57 64.523)" fill="#ffd100" d="m517.42 231.14c0 54.866-43.551 99.345-97.275 99.345-53.723 0-97.275-44.478-97.275-99.345 0-54.866 43.551-99.345 97.275-99.345 53.723 0 97.275 44.478 97.275 99.345z"/>
</g>
</svg>
