<svg xmlns:rdf="http://www.w3.org/1999/02/22-rdf-syntax-ns#" xmlns="http://www.w3.org/2000/svg" height="480" width="640" xmlns:cc="http://creativecommons.org/ns#" xmlns:xlink="http://www.w3.org/1999/xlink" viewBox="0 0 6.4 4.8" xmlns:dc="http://purl.org/dc/elements/1.1/">
<defs>
<polygon id="a" points="0 -0.5 0.16246 0 -0.16246 0" fill="#fff" transform="scale(8.844)"/>
<g id="b">
<use xlink:href="#a" transform="rotate(216)" height="12" width="18" y="0" x="0"/>
<use xlink:href="#a" transform="rotate(-72.001)" height="12" width="18" y="0" x="0"/>
<use xlink:href="#a" height="12" width="18" y="0" x="0"/>
<use xlink:href="#a" transform="rotate(72.001)" height="12" width="18" y="0" x="0"/>
<use xlink:href="#a" transform="rotate(144)" height="12" width="18" y="0" x="0"/>
</g>
<clipPath id="c" clipPathUnits="userSpaceOnUse">
<rect height="12" width="16" y="-7.2" x="1"/>
</clipPath>
</defs>
<g clip-path="url(#c)" transform="matrix(0.4 0 0 0.4 -.4 2.88)">
<rect height="6" width="18" y="-7.2" x="0" fill="#fecb00"/>
<rect height="6" width="18" y="-1.2" x="0" fill="#ea2839"/>
<rect height="4" width="18" y="-3.2" x="0" fill="#34b233"/>
<use xlink:href="#b" transform="translate(0,-7.2)" height="12" width="18" y="6.4219999" x="9"/>
</g>
</svg>
