<svg width="750" xmlns="http://www.w3.org/2000/svg" xmlns:xlink="http://www.w3.org/1999/xlink" version="1.0" height="500">
<rect width="750" fill="#21428e" height="500"/>
<path stroke="#fff" stroke-width="72.5" d="m375 0v500m-375-250h750"/>
<path id="a" transform="scale(2.3)" fill="#fff" d="m62.3 11.9c-2.4 1.1-4.3 2.7-4.3 3.5 0 0.9 1.4 0.9-0.4 1.5-1.7 0.6-6.3 1.4-9.5 1.3-1.1 0-3.7-0.7-4.4-0.7-0.8 0.1 3.4 1.8 1.8 1.4-2.2-0.6-3.5-0.8-1.8 0.3 1.3 0.8 4.2 0.8 8.3 0.3 1.6-0.2 5.8-1.1 7.3-1.3 1-0.1 1 0.8 1.6 0.8 5.4 0.3 15 0.1 19.2-0.5 3.5-0.5 4.8-0.3 5.8 0.9 2 2.3-0.1 4.3-5.8 5.5-7 1.5-9.9 2.8-12.6 5.7-6.5 7 1.1 14.9 15.3 16 8.3 0.7 13.7 2.3 12.4 3.6-0.5 0.5-6 1.3-12.3 1.8-13.7 1.1-19.8 3-25 8-2.9 2.8-3.9 4.5-3.9 6.8 0 3.2 0 3.2-5.3 3.2-2.8 0-6.7-0.4-8.5-1-2.8-0.7-3.2-0.7-2.2 0.5 2 2.4 7.7 4.5 12.4 4.5 3.6 0 5.6 0.7 8.8 3 6.4 4.7 13.7 6.5 25.8 6.4 15.9-0.1 25-4.3 25-11.4 0-5.3-6-8.4-18.5-9.5-6.3-0.6-18.7 0.4-24.1 2-1 0.3 0.1-0.4 2.5-1.6 2.9-1.4 7.7-2.4 14.2-3 14.4-1.2 20.9-4.4 20.9-10.4 0-5.8-6.4-9.1-20.1-10.4-13.5-1.2-14.5-3.6-3.1-7.1 8.1-2.4 12.2-6 12.2-10.9 0-7.5-4.1-10-17.8-10.7-8.3-0.4-10.3-0.2-13.9 1.5zm7.2 2.1c-0.3 0.5-1.1 1-1.6 1-0.6 0-0.7-0.5-0.4-1 0.3-0.6 1.1-1 1.6-1 0.6 0 0.7 0.4 0.4 1zm28.9 56c1.9 0.7 2.6 1.4 2 2-1.7 1.7-12.7 3.2-19.4 2.7-7.4-0.7-15.4-3.1-13-4.1 6.7-2.6 24.3-2.9 30.4-0.6z"/>
<use x="411.25" xlink:href="#a"/>
<use y="286.25" xlink:href="#a"/>
<use y="286.25" x="411.25" xlink:href="#a"/>
</svg>
