<svg xmlns:rdf="http://www.w3.org/1999/02/22-rdf-syntax-ns#" xmlns="http://www.w3.org/2000/svg" height="480" width="640" version="1" y="0" x="0" xmlns:cc="http://creativecommons.org/ns#" xmlns:dc="http://purl.org/dc/elements/1.1/">
<defs>
<clipPath id="a" clipPathUnits="userSpaceOnUse">
<rect fill-opacity=".67" height="480" width="640" y="0" x="0"/>
</clipPath>
</defs>
<g clip-path="url(#a)" fill-rule="evenodd">
<rect height="480" width="640" y="2.1858e-15" x="0" fill="#fff"/>
<g transform="matrix(.9375 0 0 .9375 -20.901 0)">
<path fill="#3662a2" d="m-5.8379 0.23864 0.8561 368.58 573.98-368.82-574.84 0.23864z"/>
<path fill="#38a100" d="m733.09 511.53-1.3468-383.25-578.98 383.54 580.33-0.2831z"/>
<path fill="#c70000" d="m-5.4684 396.61 0.4866 115.39 125.25-0.16 611.76-410.14-0.69-100.32-123.76-1.1414-613.05 396.37z"/>
</g>
<g transform="matrix(.9375 0 0 .9375 75.102 0)">
<polygon d="m 223.81121,249.35391 -37.97017,-20.97471 -19.93871,38.52427 -22.39578,-37.14972 -36.52956,23.39363 -0.82045,-43.37048 -43.332351,1.9947 20.97471,-37.97017 -38.524264,-19.93871 37.149716,-22.39578 -23.393635,-36.529562 43.370484,-0.820453 -1.9947,-43.332348 37.97017,20.97471 19.93871,-38.524264 22.39578,37.149717 36.52956,-23.393636 0.82046,43.370487 43.33234,-1.994702 -20.97471,37.970171 38.52427,19.93871 -37.14972,22.39578 23.39364,36.52956 -43.37049,0.82045 z" transform="matrix(.62436 .023795 -.024998 .62440 20.58 22.369)" points="223.81 249.35 185.84 228.38 165.9 266.9 143.51 229.75 106.98 253.15 106.16 209.78 62.824 211.77 83.799 173.8 45.275 153.86 82.424 131.47 59.031 94.937 102.4 94.117 100.41 50.785 138.38 71.759 158.32 33.235 180.71 70.385 217.24 46.991 218.06 90.362 261.39 88.367 240.42 126.34 278.94 146.28 241.79 168.67 265.19 205.2 221.82 206.02" stroke-width="1pt" fill="#ffe700"/>
<path transform="matrix(.87763 0 0 .87083 -42.442 -41.528)" fill="#3662a2" d="m239.52 185.41c0 31.289-25.365 56.654-56.654 56.654s-56.654-25.365-56.654-56.654 25.365-56.654 56.654-56.654 56.654 25.365 56.654 56.654z"/>
<path transform="matrix(.68714 0 0 .68714 -7.608 -7.4702)" fill="#ffe700" d="m239.52 185.41c0 31.289-25.365 56.654-56.654 56.654s-56.654-25.365-56.654-56.654 25.365-56.654 56.654-56.654 56.654 25.365 56.654 56.654z"/>
</g>
</g>
</svg>
