<svg xmlns:rdf="http://www.w3.org/1999/02/22-rdf-syntax-ns#" xmlns="http://www.w3.org/2000/svg" height="480" width="640" xmlns:cc="http://creativecommons.org/ns#" xmlns:dc="http://purl.org/dc/elements/1.1/">
<defs>
<clipPath id="a" clipPathUnits="userSpaceOnUse">
<rect fill-opacity=".67" height="512" width="682.67" y="-.0000039058" x="-54.667"/>
</clipPath>
</defs>
<g stroke-width="1pt" clip-path="url(#a)" transform="matrix(.9375 0 0 .9375 51.25 .0000036617)" fill-rule="evenodd">
<rect height="512" width="1024" y="-.0000039058" x="-140" fill="#002170"/>
<rect height="43.783" width="1024" y="234.11" x="-140" fill="#ffb20d"/>
<polygon d="m 467.71652,433.18173 -33.51227,-40.5561 -16.72515,49.88125 -8.74443,-51.87875 -39.42503,34.83586 18.36648,-49.30053 -51.56101,10.45622 40.55611,-33.51227 -49.88126,-16.72515 51.87875,-8.74442 -34.83586,-39.42503 49.30053,18.36648 -10.45622,-51.56101 33.51227,40.55611 16.72515,-49.88126 8.74442,51.87875 39.42504,-34.83586 -18.36649,49.30053 51.56102,-10.45622 -40.55611,33.51227 49.88126,16.72515 -51.87876,8.74442 34.83586,39.42504 -49.30053,-18.36649 z" points="467.72 433.18 434.2 392.63 417.48 442.51 408.74 390.63 369.31 425.46 387.68 376.16 336.12 386.62 376.67 353.11 326.79 336.38 378.67 327.64 343.83 288.21 393.13 306.58 382.68 255.02 416.19 295.57 432.92 245.69 441.66 297.57 481.08 262.74 462.72 312.04 514.28 301.58 473.72 335.09 523.6 351.82 471.72 360.56 506.56 399.99 457.26 381.62" fill="#fff" transform="matrix(.88165 -.082933 .082933 .88165 -286.48 94.865)"/>
</g>
</svg>
