<!-- /Creative Commons Public Domain -->
<svg xmlns:rdf="http://www.w3.org/1999/02/22-rdf-syntax-ns#" xmlns="http://www.w3.org/2000/svg" height="480" width="640" xmlns:cc="http://creativecommons.org/ns#" xmlns:dc="http://purl.org/dc/elements/1.1/">
<g stroke-width="1pt" fill-rule="evenodd">
<rect height="480" width="640" y="0" x=".0040666" fill="#00006a"/>
<g transform="matrix(1.342 0 0 1.2608 -.0013058 -1.3763)">
<path transform="matrix(.46237 0 0 .47458 -29.823 -137.28)" fill="#fff" d="m64.501 291.57 514.08 508.63h105.45l-502.98-508.39-116.55-0.24z"/>
<path transform="matrix(-.46190 0 0 -.47635 317.39 383.47)" fill="#f00" d="m105.54 296.01 503.84 506.72 39.211-0.619-505.95-506.11h-37.1z"/>
<path transform="matrix(-.46237 0 0 .47458 316.28 -137.28)" fill="#fff" d="m64.501 291.57 514.08 508.63h105.45l-502.98-508.39-116.55-0.24z"/>
<path transform="matrix(-.46172 0 0 .47635 317.32 -139.91)" fill="#f00" d="m105.54 296.01 503.84 506.72 39.211 0.02-505.95-506.74h-37.1z"/>
<rect height="241.38" width="45.831" y="1.0945" x="120.31" fill="#fff"/>
<rect height="48.276" width="286.44" y="97.646" x=".004935" fill="#fff"/>
<rect height="241.38" width="25.78" y="1.0945" x="130.34" fill="#f00"/>
<rect height="24.138" width="286.44" y="109.72" x=".004934" fill="#f00"/>
</g>
<g transform="matrix(.86562 0 0 .86562 58.74 83.943)">
<g transform="matrix(1.0266 0 0 1.0321 -.00099878 .00044559)">
<polygon d="m 519.06818,108.72801 -22.02531,-16.19344 -22.83816,15.02531 8.59468,-25.951362 -21.3473,-17.077307 27.33711,0.154617 9.64481,-25.579666 8.30058,26.04692 27.30812,1.268204 -22.20707,15.943265 z" transform="translate(0 -1.9662)" points="519.07 108.73 497.04 92.535 474.2 107.56 482.8 81.608 461.45 64.531 488.79 64.686 498.43 39.106 506.74 65.153 534.04 66.421 511.84 82.364" fill="#fff"/>
<polygon d="m 511.20355,91.032508 -13.4698,-8.733191 -12.86977,9.595493 4.14336,-15.509251 -13.10283,-9.274702 16.03054,-0.852053 4.77177,-15.327575 5.76406,14.982654 16.05195,-0.19826 -12.46816,10.111842 z" transform="matrix(.99883 .048364 -.048364 .99883 4.0356 -21.997)" points="511.2 91.032 497.73 82.299 484.86 91.895 489.01 76.386 475.9 67.111 491.94 66.259 496.71 50.931 502.47 65.914 518.52 65.716 506.06 75.828" fill="#f00"/>
</g>
<g transform="matrix(1.0266 0 0 1.0321 -86.795 144.08)">
<polygon d="m 519.06818,108.72801 -22.02531,-16.19344 -22.83816,15.02531 8.59468,-25.951362 -21.3473,-17.077307 27.33711,0.154617 9.64481,-25.579666 8.30058,26.04692 27.30812,1.268204 -22.20707,15.943265 z" transform="translate(0 -1.9662)" points="519.07 108.73 497.04 92.535 474.2 107.56 482.8 81.608 461.45 64.531 488.79 64.686 498.43 39.106 506.74 65.153 534.04 66.421 511.84 82.364" fill="#fff"/>
<polygon d="m 511.20355,91.032508 -13.4698,-8.733191 -12.86977,9.595493 4.14336,-15.509251 -13.10283,-9.274702 16.03054,-0.852053 4.77177,-15.327575 5.76406,14.982654 16.05195,-0.19826 -12.46816,10.111842 z" transform="matrix(.99883 .048364 -.048364 .99883 4.0356 -21.997)" points="511.2 91.032 497.73 82.299 484.86 91.895 489.01 76.386 475.9 67.111 491.94 66.259 496.71 50.931 502.47 65.914 518.52 65.716 506.06 75.828" fill="#f00"/>
</g>
<g transform="matrix(1.0266 0 0 1.0321 90.83 129.88)">
<polygon d="m 519.06818,108.72801 -22.02531,-16.19344 -22.83816,15.02531 8.59468,-25.951362 -21.3473,-17.077307 27.33711,0.154617 9.64481,-25.579666 8.30058,26.04692 27.30812,1.268204 -22.20707,15.943265 z" transform="translate(0 -1.9662)" points="519.07 108.73 497.04 92.535 474.2 107.56 482.8 81.608 461.45 64.531 488.79 64.686 498.43 39.106 506.74 65.153 534.04 66.421 511.84 82.364" fill="#fff"/>
<polygon d="m 511.20355,91.032508 -13.4698,-8.733191 -12.86977,9.595493 4.14336,-15.509251 -13.10283,-9.274702 16.03054,-0.852053 4.77177,-15.327575 5.76406,14.982654 16.05195,-0.19826 -12.46816,10.111842 z" transform="matrix(.99883 .048364 -.048364 .99883 4.0356 -21.997)" points="511.2 91.032 497.73 82.299 484.86 91.895 489.01 76.386 475.9 67.111 491.94 66.259 496.71 50.931 502.47 65.914 518.52 65.716 506.06 75.828" fill="#f00"/>
</g>
<g transform="matrix(1.0266 0 0 1.0321 -2.0195 334.84)">
<polygon d="m 519.06818,108.72801 -22.02531,-16.19344 -22.83816,15.02531 8.59468,-25.951362 -21.3473,-17.077307 27.33711,0.154617 9.64481,-25.579666 8.30058,26.04692 27.30812,1.268204 -22.20707,15.943265 z" transform="translate(0 -1.9662)" points="519.07 108.73 497.04 92.535 474.2 107.56 482.8 81.608 461.45 64.531 488.79 64.686 498.43 39.106 506.74 65.153 534.04 66.421 511.84 82.364" fill="#fff"/>
<polygon d="m 511.20355,91.032508 -13.4698,-8.733191 -12.86977,9.595493 4.14336,-15.509251 -13.10283,-9.274702 16.03054,-0.852053 4.77177,-15.327575 5.76406,14.982654 16.05195,-0.19826 -12.46816,10.111842 z" transform="matrix(.99883 .048364 -.048364 .99883 4.0356 -21.997)" points="511.2 91.032 497.73 82.299 484.86 91.895 489.01 76.386 475.9 67.111 491.94 66.259 496.71 50.931 502.47 65.914 518.52 65.716 506.06 75.828" fill="#f00"/>
</g>
</g>
</g>
</svg>
