<svg xmlns:rdf="http://www.w3.org/1999/02/22-rdf-syntax-ns#" xmlns="http://www.w3.org/2000/svg" height="480" width="640" xmlns:cc="http://creativecommons.org/ns#" xmlns:dc="http://purl.org/dc/elements/1.1/">
<defs>
<clipPath id="a" clipPathUnits="userSpaceOnUse">
<rect fill-opacity=".67" height="480" width="640" y="0" x="0"/>
</clipPath>
</defs>
<g clip-path="url(#a)">
<rect height="480" width="640" y="0" x="0" fill="#fff"/>
<g fill-rule="evenodd">
<g stroke-width="1pt">
<rect height="480" width="477.19" y="1.5939e-7" x="92.462" fill="#fff"/>
<rect height="221.68" width="358" y="3.6546" x="323.07" fill="#db0000"/>
<rect height="254.66" width="319.87" y="225.33" x="3.2267" fill="#0000ab"/>
</g>
<path stroke-width=".11287" fill="#0000ab" d="m214.8 177.65-41.959-29.326-41.754 29.614 15.529-48.124-41.677-29.716 51.562-0.4143 15.993-47.978 16.335 47.867 51.562 0.06322-41.463 29.996 15.872 48.017z"/>
<path stroke-width=".11287" fill="#d80000" d="m516.85 413.89-42.354-27.744-42.146 28.017 15.675-45.529-42.069-28.114 52.047-0.39198 16.143-45.391 16.489 45.286 52.047 0.0598-41.853 28.379 16.021 45.428z"/>
</g>
</g>
</svg>
