<svg xmlns="http://www.w3.org/2000/svg" height="700" width="1050" version="1.0" xmlns:xlink="http://www.w3.org/1999/xlink">
<defs>
<linearGradient id="u" y2="227.49" xlink:href="#linearGradient698" gradientUnits="userSpaceOnUse" x2="52.6" gradientTransform="matrix(1.1431 0 0 .78092 .36612 452.08)" y1="237.94" x1="41.458"/>
<linearGradient id="t" y2="173.36" xlink:href="#linearGradient698" gradientUnits="userSpaceOnUse" x2="72.657" gradientTransform="matrix(.92388 0 0 .96621 .36612 467.37)" y1="184.92" x1="60.328"/>
<linearGradient id="s" y2="162.87" xlink:href="#linearGradient662" gradientUnits="userSpaceOnUse" x2="119.34" gradientTransform="matrix(.78910 0 0 1.1312 .36612 452.08)" y1="156.07" x1="120.22"/>
<linearGradient id="r" y2="170.98" xlink:href="#linearGradient698" gradientUnits="userSpaceOnUse" x2="69.66" gradientTransform="matrix(.93783 0 0 .95183 .36612 467.37)" y1="184.07" x1="55.699"/>
<linearGradient id="q" y2="193.8" xlink:href="#linearGradient698" gradientUnits="userSpaceOnUse" x2="89.458" gradientTransform="matrix(1.0629 0 0 .83981 .36612 467.37)" y1="215.98" x1="89.291"/>
<linearGradient id="p" y2="105.01" xlink:href="#linearGradient662" gradientUnits="userSpaceOnUse" x2="63.752" gradientTransform="matrix(.71749 0 0 1.2441 19.435 478.49)" y1="105.01" x1="56.002"/>
<linearGradient id="o" y2="133.21" xlink:href="#linearGradient662" gradientUnits="userSpaceOnUse" x2="40.913" gradientTransform="matrix(.94579 0 0 .94383 19.435 478.49)" y1="133.21" x1="30.909"/>
<linearGradient id="n" y2="126.43" xlink:href="#linearGradient662" gradientUnits="userSpaceOnUse" x2="23.247" gradientTransform="matrix(.79992 0 0 1.1159 19.435 478.49)" y1="126.43" x1="13.504"/>
<linearGradient id="m" y2="148.05" xlink:href="#linearGradient662" gradientUnits="userSpaceOnUse" x2="23.037" gradientTransform="matrix(1.0293 0 0 .86722 19.435 478.49)" y1="148.05" x1="13.377"/>
<linearGradient id="l" y2="173.21" xlink:href="#linearGradient662" gradientUnits="userSpaceOnUse" x2="50.624" gradientTransform="matrix(.76055 0 0 1.1737 19.937 478.49)" y1="176.52" x1="56.194"/>
<linearGradient id="k" y2="215.93" xlink:href="#linearGradient662" gradientUnits="userSpaceOnUse" x2="23.649" gradientTransform="matrix(1.0448 0 0 .85436 19.937 478.49)" y1="219.75" x1="30.063"/>
<linearGradient id="j" y2="175.54" xlink:href="#linearGradient662" gradientUnits="userSpaceOnUse" x2="33.016" gradientTransform="matrix(.79992 0 0 1.1159 19.937 478.49)" y1="179.65" x1="39.92"/>
<linearGradient id="i" y2="180.06" xlink:href="#linearGradient662" gradientUnits="userSpaceOnUse" x2="44.601" gradientTransform="matrix(.89446 0 0 .99799 19.937 478.49)" y1="183.58" x1="50.516"/>
<linearGradient id="h" y2="212.73" xlink:href="#linearGradient662" gradientUnits="userSpaceOnUse" x2="200.05" gradientTransform="matrix(1.0214 0 0 .87397 19.435 478.49)" y1="217.62" x1="201.72"/>
<linearGradient id="g" y2="182.49" xlink:href="#linearGradient662" gradientUnits="userSpaceOnUse" x2="241.92" gradientTransform="matrix(0.835 0 0 1.069 19.435 478.49)" y1="187.46" x1="244.21"/>
<linearGradient id="f" y2="147.61" xlink:href="#linearGradient662" gradientUnits="userSpaceOnUse" x2="315.63" gradientTransform="matrix(.66372 0 0 1.3449 19.435 478.49)" y1="149.74" x1="321.59"/>
<linearGradient id="e" y2="165.06" xlink:href="#linearGradient662" gradientUnits="userSpaceOnUse" x2="310.07" gradientTransform="matrix(.73208 0 0 1.2193 19.435 478.49)" y1="165.93" x1="314.23"/>
<linearGradient id="d" y2="219.95" xlink:href="#linearGradient662" gradientUnits="userSpaceOnUse" x2="115.37" gradientTransform="matrix(1.0259 0 0 .87009 19.435 478.49)" y1="225.51" x1="133.1"/>
<linearGradient id="c" y2="184.64" xlink:href="#linearGradient662" gradientUnits="userSpaceOnUse" x2="135.37" gradientTransform="matrix(.86671 0 0 1.0299 19.435 478.49)" y1="187.71" x1="140.9"/>
<linearGradient id="b" y2="149.97" xlink:href="#linearGradient662" gradientUnits="userSpaceOnUse" x2="182.27" gradientTransform="matrix(0.667 0 0 1.3383 19.435 478.49)" y1="150.67" x1="187.14"/>
<linearGradient id="a" y2="172.8" xlink:href="#linearGradient662" gradientUnits="userSpaceOnUse" x2="174.87" gradientTransform="matrix(.76454 0 0 1.1676 19.435 478.49)" y1="173.5" x1="178.24"/>
</defs>
<rect height="233.33" width="286" y="233.33" x="0" fill="#fff"/>
<g>
<path d="m278.44 351.21c-0.7 0.86-1.5 2.47-1.67 3.49-0.21 1.08-0.86 2.96-1.4 4.2-1.39 3.12-1.34 5.76 0.17 8.02 1.88 2.85 5.06 2.8 6.56-0.05 1.4-2.64 1.03-6.35-0.86-9.15-1.67-2.42-1.88-4.63-0.8-7.16 0.7-1.45-0.54-1.08-2 0.65z"/>
<path d="m285.12 368.27c-1.02 0.43-2.15 1.18-2.53 1.72-3.02 3.93 3.82 8.23 8.77 5.6 5.33-2.91 5.5-2.96 8.03-2.1 2.15 0.7 2.26 0.7 1.83-0.16-0.87-1.62-2.21-2.37-7.43-4.15-5.98-1.99-6.19-1.99-8.67-0.91z"/>
<path d="m264.55 369.56c-2.47 1.67-5.11 2.04-7.05 1.02-1.51-0.81-1.67-0.32-0.43 1.29 0.65 0.81 2.1 1.67 3.39 1.99 1.24 0.33 3.39 1.08 4.79 1.62 3.23 1.34 6.14 1.34 8.35 0 4.47-2.69 1.67-7.54-4.31-7.54-1.72 0-3.01 0.43-4.74 1.62z"/>
<path d="m277.53 375.42c-0.27 0.6-0.54 2.21-0.54 3.66-0.11 9.64-3.93 18.73-11.14 26.59-1.57 1.67-2.86 3.18-2.86 3.39 0 0.54 8.08 0.38 9.15-0.21 0.97-0.49 1.08-0.33 1.4 1.56 0.44 2.58 1.89 5.06 3.67 6.24 1.13 0.75 1.56 0.81 2.79 0.16 2.16-1.02 3.56-3.23 3.83-6.03 0.27-2.09 0.48-2.47 1.18-2.09 0.49 0.21 2.91 0.48 5.39 0.59l4.52 0.21-2.37-2.8c-4.47-5.27-5.92-7.26-7.7-10.76-2.48-4.79-3.5-8.56-3.93-14.26-0.16-2.69-0.54-5.38-0.75-6.08-0.54-1.46-1.89-1.56-2.64-0.17z"/>
<path d="m94.514 351.57c-0.7 0.86-1.507 2.48-1.669 3.5-0.215 1.08-0.861 2.96-1.399 4.2-1.4 3.12-1.346 5.76 0.161 8.02 1.884 2.85 5.061 2.8 6.568-0.06 1.4-2.63 1.023-6.35-0.861-9.15-1.669-2.42-1.884-4.62-0.808-7.15 0.7-1.46-0.538-1.08-1.992 0.64z"/>
<path d="m101.19 368.63c-1.02 0.43-2.154 1.19-2.53 1.72-3.015 3.93 3.82 8.24 8.77 5.6 5.33-2.9 5.5-2.96 8.03-2.1 2.15 0.7 2.26 0.7 1.83-0.16-0.86-1.61-2.21-2.37-7.43-4.14-5.98-1.99-6.19-1.99-8.67-0.92z"/>
<path d="m80.625 369.92c-2.477 1.67-5.115 2.05-7.053 1.03-1.507-0.81-1.669-0.33-0.43 1.29 0.646 0.81 2.099 1.67 3.391 1.99 1.238 0.32 3.392 1.08 4.792 1.61 3.23 1.35 6.137 1.35 8.344 0 4.468-2.69 1.669-7.53-4.307-7.53-1.722 0-3.015 0.43-4.737 1.61z"/>
<path d="m93.599 375.79c-0.269 0.59-0.538 2.21-0.538 3.66-0.108 9.63-3.93 18.73-11.144 26.59-1.561 1.67-2.854 3.17-2.854 3.39 0 0.54 8.076 0.38 9.153-0.22 0.969-0.48 1.076-0.32 1.399 1.56 0.431 2.59 1.885 5.06 3.661 6.25 1.131 0.75 1.561 0.8 2.8 0.16 2.153-1.02 3.553-3.23 3.822-6.03 0.272-2.1 0.482-2.47 1.182-2.1 0.49 0.22 2.91 0.49 5.39 0.59l4.52 0.22-2.37-2.8c-4.47-5.27-5.92-7.27-7.7-10.76-2.476-4.79-3.499-8.56-3.929-14.27-0.162-2.69-0.539-5.38-0.754-6.08-0.538-1.45-1.884-1.56-2.638-0.16z"/>
<path d="m185.53 351.35c-0.7 0.87-1.51 2.48-1.67 3.5-0.22 1.08-0.86 2.96-1.4 4.2-1.4 3.12-1.35 5.76 0.16 8.02 1.88 2.85 5.06 2.8 6.57-0.05 1.4-2.64 1.02-6.35-0.86-9.15-1.67-2.43-1.89-4.63-0.81-7.16 0.7-1.45-0.54-1.08-1.99 0.64z"/>
<path d="m192.2 368.42c-1.02 0.43-2.15 1.18-2.53 1.72-3.01 3.93 3.82 8.23 8.78 5.6 5.33-2.91 5.49-2.96 8.02-2.1 2.15 0.7 2.26 0.7 1.83-0.17-0.86-1.61-2.21-2.36-7.43-4.14-5.98-1.99-6.19-1.99-8.67-0.91z"/>
<path d="m171.64 369.71c-2.48 1.67-5.12 2.04-7.06 1.02-1.5-0.81-1.66-0.32-0.43 1.29 0.65 0.81 2.1 1.67 3.4 1.99 1.23 0.33 3.39 1.08 4.79 1.62 3.23 1.34 6.13 1.34 8.34 0 4.47-2.69 1.67-7.54-4.31-7.54-1.72 0-3.01 0.43-4.73 1.62z"/>
<path d="m184.61 375.57c-0.27 0.6-0.54 2.21-0.54 3.66-0.1 9.64-3.93 18.73-11.14 26.59-1.56 1.67-2.85 3.18-2.85 3.39 0 0.54 8.07 0.38 9.15-0.21 0.97-0.49 1.07-0.33 1.4 1.56 0.43 2.58 1.88 5.06 3.66 6.24 1.13 0.75 1.56 0.81 2.8 0.16 2.15-1.02 3.55-3.23 3.82-6.03 0.27-2.09 0.49-2.47 1.18-2.09 0.49 0.21 2.91 0.48 5.39 0.59l4.52 0.21-2.37-2.8c-4.47-5.27-5.92-7.26-7.7-10.76-2.47-4.79-3.5-8.56-3.93-14.26-0.16-2.69-0.54-5.39-0.75-6.08-0.54-1.46-1.88-1.57-2.64-0.17z"/>
<path d="m5.3591 351.21c-0.6999 0.86-1.5074 2.47-1.6689 3.49-0.2153 1.08-0.8614 2.96-1.3997 4.2-1.3998 3.12-1.3459 5.76 0.1615 8.02 1.8842 2.85 5.0605 2.8 6.5679-0.05 1.4001-2.64 1.0231-6.35-0.8613-9.15-1.6689-2.42-1.8843-4.63-0.8076-7.16 0.6999-1.45-0.5383-1.08-1.9919 0.65z"/>
<path d="m12.035 368.27c-1.023 0.43-2.1537 1.18-2.5306 1.72-3.0147 3.93 3.8226 8.23 8.7756 5.6 5.329-2.91 5.491-2.96 8.021-2.1 2.154 0.7 2.261 0.7 1.831-0.16-0.862-1.62-2.208-2.37-7.43-4.15-5.975-1.99-6.191-1.99-8.667-0.91z"/>
<path d="m277.16 200.17c-0.7 0.86-1.5 2.47-1.66 3.5-0.22 1.07-0.87 2.96-1.4 4.2-1.4 3.12-1.35 5.75 0.16 8.01 1.88 2.86 5.06 2.8 6.56-0.05 1.4-2.64 1.03-6.35-0.86-9.15-1.67-2.42-1.88-4.63-0.8-7.16 0.7-1.45-0.54-1.07-2 0.65z"/>
<path d="m283.84 217.23c-1.02 0.43-2.15 1.18-2.53 1.72-3.02 3.93 3.82 8.24 8.77 5.6 5.33-2.91 5.5-2.96 8.03-2.1 2.15 0.7 2.26 0.7 1.83-0.16-0.86-1.62-2.21-2.37-7.43-4.14-5.98-2-6.19-2-8.67-0.92z"/>
<path d="m263.27 218.52c-2.47 1.67-5.11 2.05-7.05 1.02-1.51-0.8-1.67-0.32-0.43 1.3 0.65 0.8 2.1 1.66 3.39 1.99 1.24 0.32 3.39 1.07 4.79 1.61 3.23 1.35 6.14 1.35 8.35 0 4.47-2.69 1.67-7.53-4.31-7.53-1.72 0-3.01 0.43-4.74 1.61z"/>
<path d="m276.25 224.39c-0.27 0.59-0.54 2.21-0.54 3.66-0.11 9.63-3.93 18.73-11.14 26.59-1.56 1.66-2.86 3.17-2.86 3.39 0 0.53 8.08 0.37 9.16-0.22 0.96-0.48 1.07-0.32 1.39 1.56 0.44 2.59 1.89 5.06 3.67 6.25 1.13 0.75 1.56 0.8 2.8 0.16 2.15-1.03 3.55-3.23 3.82-6.03 0.27-2.1 0.48-2.48 1.18-2.1 0.49 0.22 2.91 0.48 5.39 0.59l4.52 0.22-2.37-2.8c-4.47-5.28-5.92-7.27-7.7-10.77-2.48-4.79-3.5-8.55-3.93-14.26-0.16-2.69-0.54-5.38-0.75-6.08-0.54-1.45-1.89-1.56-2.64-0.16z"/>
<path d="m93.235 200.54c-0.7 0.86-1.508 2.47-1.669 3.49-0.216 1.08-0.862 2.96-1.4 4.2-1.4 3.12-1.346 5.76 0.162 8.02 1.884 2.85 5.06 2.8 6.568-0.05 1.399-2.64 1.022-6.35-0.862-9.15-1.669-2.42-1.884-4.63-0.807-7.16 0.699-1.45-0.539-1.08-1.992 0.65z"/>
<path d="m99.91 217.6c-1.023 0.43-2.153 1.18-2.53 1.72-3.015 3.93 3.82 8.23 8.78 5.6 5.32-2.91 5.49-2.96 8.02-2.1 2.15 0.7 2.26 0.7 1.83-0.16-0.86-1.62-2.21-2.37-7.43-4.15-5.98-1.99-6.19-1.99-8.67-0.91z"/>
<path d="m79.345 218.89c-2.476 1.67-5.114 2.04-7.052 1.02-1.508-0.81-1.669-0.32-0.431 1.29 0.646 0.81 2.1 1.67 3.392 1.99 1.238 0.33 3.391 1.08 4.791 1.62 3.23 1.34 6.137 1.34 8.344 0 4.469-2.69 1.669-7.54-4.306-7.54-1.723 0-3.015 0.43-4.738 1.62z"/>
<path d="m92.319 224.75c-0.269 0.6-0.538 2.21-0.538 3.66-0.108 9.64-3.93 18.73-11.144 26.59-1.561 1.67-2.853 3.18-2.853 3.39 0 0.54 8.075 0.38 9.152-0.21 0.969-0.49 1.077-0.33 1.4 1.56 0.43 2.58 1.884 5.06 3.66 6.24 1.131 0.76 1.562 0.81 2.8 0.16 2.153-1.02 3.553-3.23 3.822-6.02 0.269-2.1 0.485-2.48 1.185-2.1 0.487 0.21 2.907 0.48 5.387 0.59l4.52 0.21-2.37-2.8c-4.47-5.27-5.92-7.26-7.699-10.76-2.476-4.79-3.499-8.56-3.93-14.26-0.161-2.69-0.538-5.38-0.754-6.08-0.538-1.46-1.884-1.56-2.638-0.17z"/>
<path d="m184.25 200.32c-0.7 0.86-1.51 2.47-1.67 3.5-0.22 1.07-0.86 2.96-1.4 4.19-1.4 3.13-1.35 5.76 0.16 8.02 1.88 2.86 5.06 2.8 6.57-0.05 1.4-2.64 1.02-6.35-0.86-9.15-1.67-2.42-1.89-4.63-0.81-7.16 0.7-1.45-0.54-1.07-1.99 0.65z"/>
<path d="m190.92 217.38c-1.02 0.43-2.15 1.18-2.53 1.72-3.01 3.93 3.82 8.24 8.78 5.6 5.33-2.91 5.49-2.96 8.02-2.1 2.15 0.7 2.26 0.7 1.83-0.16-0.86-1.62-2.21-2.37-7.43-4.15-5.98-1.99-6.19-1.99-8.67-0.91z"/>
<path d="m170.36 218.67c-2.48 1.67-5.12 2.05-7.05 1.02-1.51-0.8-1.67-0.32-0.44 1.3 0.65 0.8 2.1 1.66 3.4 1.99 1.23 0.32 3.39 1.07 4.79 1.61 3.23 1.35 6.13 1.35 8.34 0 4.47-2.69 1.67-7.53-4.3-7.53-1.73 0-3.02 0.43-4.74 1.61z"/>
<path d="m183.33 224.54c-0.27 0.59-0.54 2.2-0.54 3.66-0.1 9.63-3.93 18.73-11.14 26.59-1.56 1.66-2.85 3.17-2.85 3.39 0 0.53 8.07 0.37 9.15-0.22 0.97-0.48 1.08-0.32 1.4 1.56 0.43 2.58 1.88 5.06 3.66 6.24 1.13 0.76 1.56 0.81 2.8 0.17 2.15-1.03 3.55-3.23 3.82-6.03 0.27-2.1 0.49-2.48 1.19-2.1 0.48 0.21 2.9 0.48 5.38 0.59l4.52 0.22-2.37-2.8c-4.47-5.28-5.92-7.27-7.7-10.77-2.47-4.79-3.5-8.55-3.93-14.26-0.16-2.69-0.53-5.38-0.75-6.08-0.54-1.45-1.88-1.56-2.64-0.16z"/>
<path d="m4.0795 200.17c-0.6999 0.86-1.5074 2.47-1.6689 3.5-0.2153 1.07-0.8614 2.96-1.3997 4.2-1.3998 3.12-1.3459 5.75 0.1615 8.01 1.8842 2.86 5.0605 2.8 6.5679-0.05 1.3998-2.64 1.0229-6.35-0.8613-9.15-1.6689-2.42-1.8843-4.63-0.8076-7.16 0.6999-1.45-0.5383-1.07-1.9919 0.65z"/>
<path d="m10.755 217.23c-1.0228 0.43-2.1533 1.18-2.5302 1.72-3.0147 3.93 3.8222 8.24 8.7752 5.6 5.33-2.91 5.491-2.96 8.022-2.1 2.153 0.7 2.261 0.7 1.83-0.16-0.861-1.62-2.207-2.37-7.429-4.14-5.976-2-6.191-2-8.668-0.92z"/>
<path d="m4.1482 224.39c-0.2692 0.59-0.5383 2.21-0.5383 3.66-0.0539 4.82-1.437 10.3-3.3078 14.76 0.13234 6.86 0.34051 9.87-0.13772 16.56 0.43069 2.59 1.8842 5.06 3.6608 6.25 1.1306 0.75 1.5612 0.8 2.7995 0.16 2.1534-1.03 3.5533-3.23 3.8223-6.03 0.269-2.1 0.485-2.48 1.184-2.1 0.485 0.22 2.907 0.48 5.384 0.59l4.522 0.22-2.369-2.8c-4.468-5.28-5.922-7.27-7.698-10.77-2.4766-4.79-3.4995-8.55-3.9301-14.26-0.1615-2.69-0.5384-5.38-0.7537-6.08-0.5384-1.45-1.8843-1.56-2.638-0.16z"/>
<path d="m232.59 429.26c-0.7 0.86-1.51 2.48-1.67 3.5-0.22 1.08-0.86 2.96-1.4 4.2-1.4 3.12-1.35 5.76 0.16 8.02 1.88 2.85 5.06 2.8 6.57-0.06 1.4-2.63 1.02-6.35-0.86-9.14-1.67-2.43-1.89-4.63-0.81-7.16 0.7-1.46-0.54-1.08-1.99 0.64z"/>
<path d="m239.26 446.32c-1.02 0.43-2.15 1.19-2.53 1.73-3.01 3.93 3.82 8.23 8.78 5.59 5.33-2.9 5.49-2.96 8.02-2.1 2.15 0.7 2.26 0.7 1.83-0.16-0.86-1.61-2.21-2.36-7.43-4.14-5.98-1.99-6.19-1.99-8.67-0.92z"/>
<path d="m218.7 447.62c-2.48 1.66-5.12 2.04-7.06 1.02-1.5-0.81-1.66-0.32-0.43 1.29 0.65 0.81 2.1 1.67 3.4 1.99 1.23 0.32 3.39 1.08 4.79 1.62 3.23 1.34 6.13 1.34 8.34 0 4.47-2.69 1.67-7.54-4.31-7.54-1.72 0-3.01 0.43-4.73 1.62z"/>
<path d="m231.67 453.48c-0.27 0.59-0.54 2.21-0.54 3.66-0.1 9.64-3.93 18.73-11.14 26.59-1.56 1.67-2.85 3.18-2.85 3.39 0 0.54 8.07 0.38 9.15-0.21 0.97-0.49 1.07-0.33 1.4 1.56 0.43 2.58 1.88 5.06 3.66 6.24 1.13 0.75 1.56 0.81 2.8 0.16 2.15-1.02 3.55-3.23 3.82-6.03 0.27-2.1 0.48-2.47 1.18-2.1 0.49 0.22 2.91 0.49 5.39 0.6l4.52 0.21-2.37-2.8c-4.47-5.27-5.92-7.26-7.7-10.76-2.47-4.79-3.5-8.56-3.93-14.26-0.16-2.7-0.54-5.39-0.75-6.09-0.54-1.45-1.89-1.56-2.64-0.16z"/>
<path d="m48.657 429.63c-0.7 0.86-1.507 2.47-1.669 3.5-0.215 1.07-0.861 2.96-1.4 4.2-1.399 3.12-1.345 5.75 0.162 8.01 1.884 2.86 5.061 2.8 6.568-0.05 1.4-2.64 1.023-6.35-0.861-9.15-1.669-2.42-1.885-4.63-0.808-7.16 0.7-1.45-0.538-1.07-1.992 0.65z"/>
<path d="m55.333 446.69c-1.023 0.43-2.154 1.18-2.531 1.72-3.014 3.93 3.823 8.24 8.776 5.6 5.329-2.91 5.491-2.96 8.021-2.1 2.154 0.7 2.261 0.7 1.831-0.16-0.862-1.61-2.208-2.37-7.43-4.14-5.976-2-6.191-2-8.667-0.92z"/>
<path d="m34.768 447.98c-2.477 1.67-5.115 2.05-7.053 1.02-1.507-0.8-1.669-0.32-0.431 1.3 0.646 0.8 2.1 1.66 3.392 1.99 1.238 0.32 3.392 1.07 4.791 1.61 3.231 1.35 6.138 1.35 8.345 0 4.468-2.69 1.669-7.53-4.307-7.53-1.723 0-3.015 0.43-4.737 1.61z"/>
<path d="m47.742 453.85c-0.269 0.59-0.538 2.21-0.538 3.66-0.108 9.63-3.93 18.73-11.144 26.59-1.562 1.66-2.854 3.17-2.854 3.39 0 0.54 8.076 0.37 9.152-0.22 0.969-0.48 1.077-0.32 1.4 1.56 0.431 2.59 1.884 5.06 3.661 6.25 1.13 0.75 1.561 0.8 2.799 0.16 2.154-1.03 3.553-3.23 3.823-6.03 0.269-2.1 0.484-2.48 1.184-2.1 0.485 0.22 2.907 0.48 5.384 0.59l4.522 0.22-2.369-2.8c-4.468-5.28-5.922-7.27-7.698-10.77-2.477-4.79-3.5-8.55-3.93-14.26-0.162-2.69-0.539-5.38-0.754-6.08-0.539-1.45-1.884-1.56-2.638-0.16z"/>
<path d="m139.67 429.41c-0.7 0.86-1.51 2.48-1.67 3.5-0.21 1.08-0.86 2.96-1.4 4.2-1.4 3.12-1.34 5.76 0.16 8.02 1.89 2.85 5.06 2.8 6.57-0.06 1.4-2.63 1.02-6.35-0.86-9.15-1.67-2.42-1.89-4.62-0.81-7.15 0.7-1.46-0.54-1.08-1.99 0.64z"/>
<path d="m146.35 446.47c-1.03 0.43-2.16 1.19-2.53 1.73-3.02 3.92 3.82 8.23 8.77 5.59 5.33-2.9 5.49-2.96 8.02-2.1 2.16 0.7 2.26 0.7 1.83-0.16-0.86-1.61-2.21-2.37-7.43-4.14-5.97-1.99-6.19-1.99-8.66-0.92z"/>
<path d="m125.78 447.77c-2.48 1.66-5.11 2.04-7.05 1.02-1.51-0.81-1.67-0.33-0.43 1.29 0.64 0.81 2.1 1.67 3.39 1.99 1.24 0.32 3.39 1.08 4.79 1.62 3.23 1.34 6.14 1.34 8.34 0 4.47-2.7 1.67-7.54-4.3-7.54-1.73 0-3.02 0.43-4.74 1.62z"/>
<path d="m138.75 453.63c-0.26 0.59-0.53 2.21-0.53 3.66-0.11 9.64-3.93 18.73-11.15 26.59-1.56 1.67-2.85 3.17-2.85 3.39 0 0.54 8.07 0.38 9.15-0.22 0.97-0.48 1.08-0.32 1.4 1.57 0.43 2.58 1.88 5.05 3.66 6.24 1.13 0.75 1.56 0.81 2.8 0.16 2.15-1.02 3.55-3.23 3.82-6.03 0.27-2.1 0.49-2.47 1.19-2.1 0.48 0.22 2.9 0.49 5.38 0.6l4.52 0.21-2.37-2.8c-4.46-5.27-5.92-7.26-7.69-10.76-2.48-4.79-3.5-8.56-3.93-14.27-0.17-2.69-0.54-5.38-0.76-6.08-0.54-1.45-1.88-1.56-2.64-0.16z"/>
</g>
<rect fill-rule="evenodd" height="233.33" width="286" y="466.67" x="-9.6724e-7" fill="#ca0000"/>
<rect fill-rule="evenodd" height="700" width="763.94" y="-2.0975e-8" x="286.06" fill="#0092c8"/>
<g id="v">
<g stroke="#650000" stroke-width=".99920" fill-rule="evenodd">
<path d="m150.87 666.4c-0.84 1.36 1.46 7.36 5.01 7.21-2.31-3.72-2.07-8.03-2.07-8.03l-2.94 0.82z" fill="url(#a)"/>
<path d="m142.06 659.9c-1.28 0.19-4.37 8.08 0.55 10.9 0.16-4.9 2.48-7.81 2.48-7.81l-2.55-2.19-0.48-0.9z" fill="url(#b)"/>
<path d="m141.45 655.19c-1.24-1.3-6.62 2.49-6.4 8.16 3.3-3.78 7.22-3.48 7.22-3.48l-0.82-4.68z" fill="url(#c)"/>
<path d="m147.67 650.61c-0.09-1.77-4.77-3.83-7.22-0.27 3.53 0.4 5.54 3.71 5.54 3.71l1.68-3.44z" fill="url(#d)"/>
</g>
<g fill-rule="evenodd" stroke="#650000" stroke-width=".99920">
<path d="m241.99 667.14c-0.09 1.63 0.33 2.2 1.13 3.11 0.8 0.92 1.71 3.63 1.71 3.63s2.56-7.15 1.92-8.11c-0.65-0.96-4.6 1.33-4.76 1.37z" fill="url(#e)"/>
<path d="m228.44 664.18c-1.28-0.24-3.69 5.67-1.68 9.73 1.01-4.7 3.76-6.75 3.76-6.75l-2.08-2.98z" fill="url(#f)"/>
<path d="m222.22 662.4c-0.99-1.13-5.29 2.16-5.11 7.07 2.64-3.27 5.76-3.02 5.76-3.02l-0.65-4.05z" fill="url(#g)"/>
<path d="m225.48 654.81c-0.69-1.51-5.51-0.27-6.46 4.47 3.25-1.95 6.15-0.34 6.15-0.34l0.31-4.13z" fill="url(#h)"/>
</g>
<g stroke="#650000" stroke-width=".99920" fill-rule="evenodd">
<path d="m65.17 651.49c0.464-1.66-3.145-6.26-6.457-4.48 3.076 2.43 3.885 6.61 3.885 6.61l2.572-2.13z" fill="url(#i)"/>
<path d="m51.341 661.87c-1.204-1.49-6.257 2.77-5.955 9.22 3.081-4.26 6.806-3.89 6.806-3.89l-0.851-5.33z" fill="url(#j)"/>
<path d="m51.781 652.75c-0.518-2.13-6.433-1.84-8.455 3.99 4.197-1.63 7.311 1.23 7.311 1.23l1.144-5.22z" fill="url(#k)"/>
</g>
<g fill-rule="evenodd" stroke="#650000" stroke-width=".99920">
<path d="m57.806 669.98c-0.324 1.57 0 2.24 0.648 3.36 0.648 1.13 1.134 4.04 1.134 4.04s3.563-6.28 3.077-7.4c-0.485-1.12-4.697 0-4.859 0z" fill="url(#l)"/>
<path d="m43.127 597.79c0-2.25-5.671-4.59-8.933 0.03 4.352 0.32 6.642 4.41 6.642 4.41l2.291-4.44z" fill="url(#m)"/>
<path d="m37.241 606.72c-1.204-1.5-6.256 2.76-5.955 9.21 3.082-4.26 6.807-3.89 6.807-3.89l-0.852-5.32z" fill="url(#n)"/>
<path d="m57.825 597.02c0.548-2.11-4.216-6.98-8.416-4.15 4.018 2.34 5.176 7.25 5.176 7.25l3.24-3.1z" fill="url(#o)"/>
<path d="m64.551 604.72c0.945-1.21-0.832-7.54-4.371-7.96 1.988 4.06 1.383 8.31 1.383 8.31l2.988-0.35z" fill="url(#p)"/>
</g>
<path d="m83.455 612.15c-3.56-4.14-0.042-11.7 3.15-8.48-1.672-3.09 1.062-5.54 2.302-3.99-0.577-2.51 2.045-4.18 3.331-1.86-0.462-2.81 3.426-4.45 4.434-1.38 0.068-2.76 3.868-4.94 4.708-0.9 0.74-3.11 4.97-3.52 5.33 0.9 1.23-2.57 4.41-2.38 4.59 1.35 1.38-1.75 4.92 0.88 4.32 3.98 2.19-0.47 4.87 3.97 2.2 7.24 4.74-2.53 5.86 5.66 2.98 9.38 1.49 0.91 1.62 0.11 2.93 0.79s3.7 1.81 5.88 2.29c1.97 0 9.2-0.23 10.67-0.45 1.48-0.23 3.5-1 5.92-1.82 2.53-0.82 6.18-0.85 9.52-1.66 2.64-0.3 76.87 1.2 79.01 0.98 2.13-0.23 5.25-2.28 5.08-4.79-0.16-2.5-2.62-4.31-5.08-4.54-2.47-0.22-15.12-0.22-17.41 0.23-2.3 0.46-5.59 1.59-7.23 3.18-0.79 0.51-2.1 2.44-3.2 3.7-1.04 0.87-3.96 1-3.96-0.13 0-0.75-0.24 0.14-0.96 0.43-0.93 0.58-5.14 0.74-4.95 0 0.33-0.84-0.02-1.11-1.13-0.23-0.82 0.68-6.63 0.93-7.7 0.26 0.64-1.07 0.65-1.01-1.1-0.13-1.1 0.48-5.68 0.86-6.01-0.07-0.04-0.73-0.56-0.37-1.21-0.16-5.18 1.35-5.68-0.22-4.86-0.9s2.07-4.59 0.75-4.36c-1.31 0.23-9.52 1.82-12.32 2.28-2.79 0.45-22.99 0-25.78-0.23-2.8-0.23-5.92-2.86-6.08-6.6-0.29-5.99 4.6-7.5 7.55-8.41 2.96-0.91 10.35-2.27 13.31-2.27 2.95 0 11.39 1.04 13.69 0.13 2.3-0.9 9.28-3.45 11.25-3.63 2.91-0.27 11.25 0.71 15.23 5.49-2.07 0.94-3.05 1.49-0.7 0.65 2.14-0.46 11.3-2.37 13.44-2.87 7.39-0.32 5.45 0.82 1.84 1.73-1.21 3.84-12.07 9.21-15.52 9.89s-10.77 0.18-12.4-0.11c-1.65-0.13-9.42-0.52-12.25-2.35-4.57-3.1-13.01-5.14-16.72-5.07-3.46 0.07-13.34 1.11-13.3 4.55-0.05 6.04 9.2 6.37 13.14 6.14s13.8-0.68 16.59-1.82 8.83-1.42 12.11-1.42c3.29 0 8.09 0.74 9.57 0.51s4.93-0.28 6.57-1.41c1.64-1.14 5.21-2.33 8.82-2.33 3.62 0 30.43-1.03 34.05-0.81 5.23-0.03 8.92 5.69 8.99 10.55 0.03 2.27-1.09 5.63-2.03 6.15 1.62 0.15 5.68 0.61 7.02 0.89 2.52 0.5 6.59 3.27 7.06 5.8-1.91-1.16-4.99-2.92-7.77-3.11-0.55 0.01-59.08-0.1-63.68-0.07 12.51 1.48 22.07 11.11 24.46 16.63 2.13 3.41 7.39 2.04 9.36 1.59 1.97-0.46 4.27-2.5 5.91-4.09s4.21-2 5.37-1.59c2.55-0.23 3.01 2.5 2.02 3.86-0.98 1.36 0.16 0.8 2.79 0.8s4.95 0.98 6.5 3.05c-1.48 1.36-2.23 0.24-0.09 0.47 2.13 0.23 4.71 4.14 3.12 5.25-1.39 0.69-1.81 0.43 0 0.66 2.69 0.23 3.43 1.97 3.78 5.07-2.28 0.42-1.15-0.29 0 0.84 1.15 1.14 2.82 6.18-1.32 6.37-1.47-0.68-1.45-0.81-1.13 0.73 0.29 1.59-0.51 5.41-2.81 5.41-3.18 0.61-6.08-1.14-6.4-3.18-0.33-2.05-0.29 3.95-4.81 4.89-4.26 0.95-6.53-1.48-6.86-2.62-0.32-1.14-0.16-0.23-1.8-0.46-1.64-0.22-3.71-0.24-4.6-2.95 0-1.59 0.32-3.69 3.25-3.97 1.31-0.23 1.68-1.94 0.69-2.17-0.98-0.23-0.16-3.64 1.97-2.73 2.14 0.91 7.06 1.14 8.21 2.28 1.15 1.13 1.48-0.91-0.32-2.73-1.81-1.82-12.82-5.46-15.77-4.1-6.89 3.47-18.4 2.96-20.37 2.51-1.97-0.46-7.66 0.78-10.35-7.51-2.17-8.46-10.45-12.64-14.22-13.1-18.64-1.75-17.63-0.4-5.54 0.17-0.09 1.58-0.53 4.81 1.43 5.29 3.28-0.46 10.12-1.91 11.76-0.54 1.65 1.36 3.29 2.5 2.96 5.68s0.16 2.27-1.31 3.64c-1.48 1.36-0.82 4.09 1.47 5 2.3 0.91 3.29 2.05 4.77 3.41 1.48 1.37-0.66 4.09-1.97 3.18-1.32-0.9-1.32-0.9-1.48 0.91-0.17 1.82-1.8 5.27-4.57 5.52-0.59-0.22-0.43-1.16-0.36-1.88 0.17-1.59-0.55 1.98-1.41 2.97-0.55 0.67-5.2 1.98-6.51 1.29 0.58-1.42 0.25-0.84-0.9-0.16-1.13 0.45-7.18 1.29-4.48-1.6 0.7-1.05-0.96 1.32-1.88 1.73-0.77 0.48-4.36 0.77-4.36-0.59-1.14 1-3.86 1-4.27 0.23-0.83-0.91-0.9 0.68-2.38 0.91-1.48 0.22-4.69-0.23-4.85-2.05-0.17-1.82 0.33-0.68-1.48-0.45-4.4 2.91-6.57-1.14-6.57-2.51 0-1.36-0.16-2.95 0.33-3.86s-3.06-1.18-1.97-2.97c1.22-2.19 2.51-3.8 4.93-3.4 1.15 0.23 0.98-0.45 0.49-1.36s1.31-1.37 3.45-0.46c2.13 0.91 3.61 3.19 4.27 5.23 0.66 2.05 5.75 0.46 7.88 0.69 2.14 0.22 2.3-3.41 0.99-4.55-1.32-1.14-4.93-5.23-6.41-6.6-1.48-1.36-0.49-6.13 0.82-7.27 7.65-5.17 3.45-6.82 0.66-6.37-2.79 0.46-9.97 3.33-12.27 5.83s-20.16 14.76-21.8 16.12c-1.65 1.37-4.04 1.7-5.02 0.11-0.99-1.59-1.64-0.46-1.48 1.82 1.31 8.58-6.4 11.32-7.76 11.21-0.94-0.09-2.29-0.62-3.26-1.43-0.96 4.8-5.19 5.28-9.024 4.81-0.058-0.57 0.715-1.63 0.293-1.22-1.266 1.65-5.156 1.47-8.496 1.22-0.222-1 1.152-2.22 0.495-1.54-1.121 2.11-3.049 1.74-6.173 1.51-0.036-0.44 1.448-1.93 0.756-1.04-1.368 1.5-4.215 1.03-6.426 1.06-0.262-0.33 1.143-2.68-0.142-1.13-1.228 1.33-3.829 1.55-6.315 1.19-0.442-1.11 0.517-1.13 0.781-1.83 0.657-1.13-0.328 0-1.149 0-0.822 0-1.971 0.23-2.464-0.91-0.493-1.13-0.21 1.14-0.687 1.76-0.477 0.54-1.015 1.8-2.658 2.25-1.642 0.46-5.913 0.91-6.57-1.13-0.885-0.95-1.314-2.96-0.657-4.1 0.657-1.13-3.127 2.2-4.763 2.5-4.81 0.93-5.42-6.59-3.285-7.27 2.136-0.68 1.807-1.82 0.657-2.73-1.149-0.91-1.806-4.55-0.328-5.68 1.478-1.14 4.899-1.77 7.062-0.46 1.266 0.87 3.976 3.85 3.45 1.59-0.366-1.39 0.57-3.17 1.619-3.93 0.91-0.84 3.711-1.06 4.458 0.75 1.731 4.18 2.956 5.98 5.091 5.91 4.549-1.24 10.696-2.65 12.503-2.65 2.318-0.55 14.591-1.76 14.591-2.89-7.361 2.55-10.336-0.75-11.158-0.53-0.821 0.23-2.843-0.73-2.843-1.37 0-1.36 1.854-1.2-0.774-0.74-1.574-0.13-2.975-0.21-4.299-1.85-0.217-0.84 1.74-3.72 2.45-6.15-1.696-0.45-5.446 2.6-6.675 5.29-0.861-1.03-1.21-0.09-4.287 0.66-1.452 0.63-3.814 0.4-5.128-0.28-1.313-0.68-6.461-4.58-3.971-5.08-0.656-0.32-1.409-0.51-1.905-0.64-1.807-0.78-3.515-2.28-2.99-2.69-0.457-0.68 0.524-0.68-0.2-0.81-0.985-0.23-3.412-2-2.789-2.69-0.622-0.41-2.099-1.04-2.725-1.36-1.15-0.68-2.301-3.05-2.466-4.19-1.059 0.11-3.32-1.9-2.299-2.5-1.726-1.28-3.195-3.39-2.045-4.07-1.008-0.79-1.711-2.25-1.01-1.7-1.047-1.28-0.723-2.64 0.099-2.64 0.821 0 0.492-3.64-0.986-3.64s-3.855 1.15-5.584 0c-1.422-1.09-2.628-5.91-1.314-7.96 1.314-2.04 3.942-4.32 5.256-4.09s0.657 0.68 0.328-1.36c-0.328-2.05 1.855-3.59 3.285-4.1 1.734-0.79 5.092-0.22 6.077 0.69 0.986 0.91 1.314 0.91 1.314-0.69 0-1.11 1.269-1.7 2.398-1.99 1.88-0.44 3.351 0.09 4.008 0.86 1.02 1.46 1.642 3.18 0.328 4.55-1.314 1.36-0.174 0.2 1.962-0.25 1.375-0.46 3.856 0.13 4.279 1.61 0.57 1.59 0.986 4.32-0.492 5.68-1.478 1.37-3.614 4.78-2.464 5.92 1.15 1.13 4.763 6.13 5.584 6.82 0.822 0.68 1.807 2.27 3.121 2.04 1.314-0.22 2.792-0.45 3.942-0.68 4.563-0.92 6.62-1.39 0.763-1.21 1.315-1.86 4.069-2.4 5.264-2.73-1.053-1.58 2.842-4.93 2.842-5.38z" fill-rule="evenodd" stroke="#650000" stroke-width=".99920" fill="#ffcd00"/>
<g fill="none">
<path d="m83.464 630.6c-3.148-0.49-11.112 6.41-8.543 14.99" stroke="#650000" stroke-width="1.0813"/>
<path d="m83.943 622.91c-4.251 26.89 21.827 16.47 22.007 7.41" stroke="url(#q)" stroke-width="1.0673"/>
<g stroke="#650000">
<path d="m104.45 634.21c0.35 3.53 0.55 13.4-3.1 15.92-3.647 2.52-8.217 2.82-11.784 1.61" stroke-width=".99247"/>
<g stroke-width=".99920">
<path d="m96.373 639.68c-0.359 3.47-3.841 12.12-10.626 10.93"/>
<path d="m41.506 602.48c3.548 0.35 5.322 3.16 6.082 5.62 0.76 2.45 1.267 3.85 1.267 3.85"/>
<path d="m44.529 622.46c1.52 0.7 4.308 0 4.308 0"/>
</g>
<path d="m46.009 626.24c3.357 1.05 6.713-0.7 6.713-0.7" stroke-width=".90909"/>
</g>
<path d="m53.507 634.53c9.169 0 13.064-12.93 13.064-12.93" stroke-opacity=".26110" stroke="url(#r)" stroke-width="1.0166"/>
<g stroke="#650000">
<path d="m72.167 628.44c-2.534 6.67-2.28 6.67-5.574 8.07l-3.295 1.4" stroke-opacity="0.0892" stroke-width="1.2316"/>
<g stroke-width=".99920">
<path d="m61.778 641.42c3.548-1.05 5.828-3.16 5.828-3.16"/>
<path d="m57.978 600.92c-2.027 2.46-1.774 7.02-1.774 7.02"/>
<path d="m99.788 601.08c0.502 4.56-1.52 7.02-2.788 7.02-1.267 0-2.681 1.7-1.903 4.43"/>
<path d="m105.08 600.38c-2.28 3.16-2.79 6.66-2.03 9.47s0.04 3.62 0.04 3.62"/>
</g>
<path d="m77.996 626.34c-4.055 1.08-5.706 8.5-3.546 12.5" stroke-width="1.2444"/>
<g stroke-width=".99920">
<path d="m115.25 615.81h-2.79s-1.78 3.86-4.82 2.81-0.25 0-0.25 0"/>
<path d="m100.29 612.6c4.34 0.11 3.47 3.56 0.26 3.21 0.25 4.21-4.797 3.68-4.365 0.46-3.036 0.09-4.282-4.17 0.128-3.58"/>
<path d="m202.98 615.82c0.9-2.72 5.01-5.2 5.01-5.2"/>
<path d="m197.01 615.68c1.79-3.22 5.01-5.2 5.01-5.2"/>
<path d="m188.29 615.97c2.71-1.63 3.48-2.28 4.37-3.12 0.96-0.94 2.86-2.72 2.86-2.72"/>
</g>
<path d="m180.72 615.87c1.98-1.04 3.52-1.65 4.85-2.63 1.68-1.17 2.83-2.76 2.83-2.76" stroke-width=".95117"/>
<g stroke-width=".99920">
<path d="m182.35 607.29c-6.32-2.15-9.15-6.43-9.15-6.43"/>
<path d="m192.86 598.18c-4.18 1.75-12.68 0.99-13.04 0.99"/>
<path d="m117.17 653.36c1.26-4.44 3.6-5.44 6.53-6.89 3.04-1.24 7.67-4.98 4.81-2.26s-6.99 4.45-8.42 5.44-2.32 3.2-1.59 4.21"/>
<path d="m111.17 636.54c2.68 4.45 1.03 10.65-2.37 12.38" stroke-linecap="round"/>
<path d="m120.11 621.2c4.35 1.81 4.5 6.06 5.13 8.58-1.53-0.71-2.65-0.37-3.8-0.9"/>
</g>
<path d="m118.39 623.65c2.96 4.05 4.08 6.52 4.25 7.93 0.28 2.44 0.3 8.48-6.69 8.38 0.65-1.8 1.48-6.54 0.36-8.45" stroke-width=".91277"/>
<path d="m116.75 635.84c0 3.96-2.73 5.59-3.98 6.08" stroke-width=".99920"/>
<path d="m106.17 618.24c0.18 4.7-8.398 8.16-8.219 0.99" stroke-width=".99920"/>
<path d="m97.926 619.47c-0.181 3.47-4.901 4.21-6.534 1.24-1.271-1.98-1.997-2.97-2.905-3.22-0.907-0.24-0.805-3.12-0.989-3.55-0.11-0.57-0.698-2.06-0.992-2.62" stroke-width="1.0071"/>
</g>
</g>
<path d="m91.11 620.47c2.192 3.83 7.418 1.53 8.767 3.06 1.353 1.53-1.31 6.87-2.153 9.93-1.948 2.63-6.286 2.46-7.882 0.51 0.859-3.66 0.931-11.46 1.099-11.71l0.169-1.79z" fill-rule="evenodd" stroke="#650000" stroke-width="1.0521" fill="url(#s)"/>
<g fill="none">
<g stroke="#650000">
<g stroke-width=".99920">
<path d="m51.799 598.13c0.358 2.23-0.178 2.72-0.714 4.7s0.178 5.44 0.178 5.44"/>
<path d="m50.857 660.22c1.787-0.5 5.539 0 5.539 0"/>
<path d="m57.518 666.07c1.072-1.98 3.573-3.71 3.573-3.71"/>
<path d="m77.58 668.7c0.894-1.24 0.894-5.2 0.894-5.2"/>
<path d="m84.099 668.67c1.422-1.62 1.5-5.11 1.5-5.11"/>
<path d="m89.281 668.58c1.429-2.72 1.196-5.87 1.196-5.87"/>
<path d="m97.399 668.88c0.894-1.49 0.894-4.95 0.894-4.95"/>
<path d="m155.31 661.03c-3.22-0.74-5.18 3.71-5.18 3.71"/>
<path d="m159.53 660.31c-0.35 3.22-2.85 6.18-2.85 6.18"/>
<path d="m164.6 660.04c-0.18 2.72-3.04 6.43-3.04 6.43"/>
</g>
<path d="m170.91 658.95c-0.47 3.62-3.05 6.34-3.05 6.34" stroke-width=".99919"/>
<g stroke-width=".99920">
<path d="m175.55 657.68c0.18 3.21-1.43 8.16-2.5 9.15"/>
<path d="m181.09 659.05c0.54 1.73 0 4.21 0 4.21"/>
<path d="m146.15 652.3c2.14 0.5 3.39 2.97 3.39 2.97"/>
<path d="m142.49 658.51c1.12-3.89 5.98-1.99 6.57-0.94"/>
<path d="m234.19 640.57c-1.79-0.25-4.47 0.74-4.47 0.74"/>
<path d="m242.5 643.98c-2.51 0.99-5.37 1.24-5.37 1.24"/>
<path d="m245.71 649.69c-2.14-0.25-3.75-0.25-3.75-0.25"/>
<path d="m249.88 655.06c-2.15-0.25-5.54 0-5.54 0"/>
<path d="m248.23 662.02c-0.72-1.98-2.86-2.47-2.86-2.47"/>
<path d="m227.17 666.62c0.53-2.96 4.08-5.34 6.05-5.34h1.96"/>
<path d="m224.22 660.06c2.14-0.74 5.54-0.99 5.54-0.99"/>
<path d="m85.211 648.39c2.144-1.74 3.831-5.3 3.831-5.3"/>
<path d="m111.35 605.13c-2.14 2.22-2.32 2.47-2.32 2.47"/>
<path d="m113.5 609.33c-2.86 0.25-3.02 0.12-3.02 0.12"/>
</g>
<path d="m103.32 607.66c2.11-0.77 7.03-0.12 6.96 1.68 0 2.22-1.92 2.35-7.01 0.26l0.05-1.63v-0.31z" stroke-width="1.1322"/>
<path d="m96.654 607.89c0.263-2.63-4.872-5.22-6.123-3.75-1.523 2.42 2.799 4.58 3.945 4.58 1.072 0 0.437 0.14 0.437 0.14" stroke-width=".91969"/>
<g stroke-width=".99920">
<path d="m111.9 627.6c1.62 3.14 2.09 8.47 0.26 11.06" stroke-opacity=".3"/>
<path d="m110.6 617.74c-1.94 5.38-0.32 10.31-0.32 10.31"/>
<path d="m87.601 619.08c-1.619 1.35-2.915 0.9-2.915 0.9"/>
</g>
<g stroke-width=".99920" stroke-opacity=".3">
<path d="m106.07 634.78c1.62 0.89 3.88 6.28 3.56 8.07l-0.32 1.79"/>
<path d="m105.42 637.02c0.97 2.69 2.27 6.73 1.94 8.07l-0.32 1.35"/>
<path d="m99.587 639.71c0.653 2.69 0.324 7.18-0.647 8.07l-0.972 0.9"/>
<path d="m97.968 640.16c-0.972 3.14-1.944 7.62-1.944 7.62"/>
</g>
<path d="m83.714 620.88c-1.944 2.69-4.535 5.38-4.535 5.38" stroke-opacity=".10190" stroke-linecap="round" stroke-width="2.1611"/>
<path d="m82.418 631.64c-1.619 1.34-3.887 4.48-3.887 4.48" stroke-opacity=".2994" stroke-width=".99920"/>
<path d="m84.362 636.12c-2.592-1.79-5.507 1.35-5.507 1.35" stroke-opacity=".2994" stroke-width=".99920"/>
<path d="m68.243 640.92c-0.648 1.8-5.507 3.14-5.507 3.14" stroke-opacity="0.0955" stroke-width="1.2316"/>
<path d="m108.04 608.27l-0.33 2.03" stroke-linecap="round" stroke-width="1.9405"/>
<path d="m94.711 604.61c-0.381 1.52-1.056 3.09-1.056 3.09" stroke-linecap="round" stroke-width="1.5741"/>
<path d="m79.487 620.44c-5.967 3.14-6.986 5.92-6.056 12.53" stroke-width=".99920"/>
</g>
<path d="m120.03 611.39c-1.71 0.78-1.46 4.83-1.46 4.83" stroke="#600" stroke-width="1.1967"/>
<path d="m83.695 605.75c1.824 1.29 1.094 5.16 1.094 5.16" stroke="#600" stroke-width="1.0497"/>
</g>
<g fill="#390000">
<path d="m71.694 667.96c-0.133 3.85-3.762 2.83-5.307 2.84l1.34-2.52c0.191 0 0.627 0.25 1.151-0.14l2.816-0.18z" fill-opacity=".59870"/>
<g fill-opacity=".1">
<path d="m103.56 634.84c0.41 1.85 0.38 3.08 0.23 5.09-0.47 3.22-0.62 3.32-1.93 5.97-0.46 0.74-0.23-0.05-1.46 2.43l-4.271-2.94c0.23 0.93 0-0.69 0.207-1.01 0.661-1.28 0.623-1.49 0.84-3.07 0.089-1.44 1.213-3.84 1.86-1.5l4.524-4.97z"/>
<path d="m88.413 646.91c0.977 0.28 3.384-0.53 4.432-0.76 1.676-0.56 0.135-0.85 1.503-2.14 0.38-0.44 0.724-1.99 1.059-2.48l-1.816-0.12c-0.231 1.56-1.697 0.3-1.861 0.49-0.661 0.65-0.593 0.24-1.418 0.51-0.752 0.14-1.571-0.12-0.333 0.35l-1.566 4.15z"/>
<path d="m182.83 637.32c-0.55 3.09-1.31 4.69-2.68 7.16-2.49 3.59-4.81 5.54-8.05 7.15-1.03 0.3-2.04 0.5-3.09 0.61l-0.48-10.4c0.46-0.03 0.89-0.1 1.35-0.22 1.6-0.74 2.62-1.69 3.83-3.48 0.95-1.79 1.38-4.42 0.84-0.33l8.28-0.49z"/>
</g>
</g>
<g fill="none">
<path d="m57.086 637.57c7.016-1.66 10.924-11.01 10.924-11.01" stroke-opacity=".26110" stroke="url(#t)" stroke-width="1.4047"/>
<path d="m48.897 629.22c7.112 0.42 12.355-7.58 12.355-7.58" stroke-opacity=".26110" stroke="url(#u)" stroke-width="1.4047"/>
<path d="m218.62 649.93c0.11-0.32 0.23-0.64 0.35-0.96-0.77 2.13-0.58 1.14 2.09-0.97h5.24c2.17 0.03 3.26 0.48 5.24 0.97 1.2 0.66 2.31 1.67 3.49 2.41" stroke-opacity=".10190" stroke="#700" stroke-width="2.5561"/>
</g>
<g fill-opacity=".1" fill="#390000">
<path d="m82.041 642.6c-0.224 1.06 2.528 2.53 4.139 2.6 1.687-1.05 1.746-1.45 2.909-3.2 0.299-0.59-0.059-0.19 0.179-0.81l-3.581-3.44c-0.452 0.27-0.734 0.53-0.862 0.79-0.555 0.87-0.543 1.37-1.378 1.87-0.786 0.35-0.871 0.15-0.273 0.47l-0.605 0.98-0.528 0.74z"/>
<path d="m113.49 642.43c1-1.1 1.41-2.07 1.99-3.71 0.74-2.8 0.91-5.12 0.74-8.13-0.13-0.91-0.29-1.77-0.5-2.66l-3.91 1.79c0.09 0.39 0.17 0.76 0.23 1.16 0.1 1.47-0.01 2.51-0.38 3.88-0.44 1.16-1.3 2.07 0.07 0.76l1.76 6.91z"/>
<path d="m116.17 624.21c1.29 0.16 2.01 0.67 3.14 1.62 1.7 1.84 2.72 3.71 3.72 6.44 0.23 0.89 0.42 1.77 0.58 2.7l-4.07 1.57c-0.07-0.4-0.14-0.79-0.24-1.18-0.47-1.36-0.96-2.17-1.8-3.05-0.82-0.67-1.91-0.76-0.23-0.73l-1.1-7.37z"/>
<path d="m109.89 647.75c1.08-1.78 1.97-0.74 2.29-2.94 0.19-3.64-0.28-6.43-1.44-9.85-0.46-1.01-0.96-1.94-1.52-2.87l-5 3.99c0.26 0.4 0.48 0.8 0.69 1.23 0.59 1.67 0.76 2.94 0.65 4.72-0.26 1.57 0.03 2.07 1.22 2.56l3.11 3.16z"/>
</g>
<g stroke="#700" stroke-opacity=".10190" fill="none">
<path d="m243.38 656.53c2.17 0.03 3.26 0.48 5.23 0.96 1.21 0.67 2.32 1.67 3.5 2.42" stroke-width="2.5561"/>
<path d="m233.14 642.62c2.14-0.56 3.27-0.41 5.28-0.46 1.27 0.33 2.5 1.01 3.76 1.43" stroke-width="2.5561"/>
<path d="m199.25 648.44c-1.42 0.04-2.13-0.31-3.42-0.68-0.79-0.54-1.52-1.38-2.29-2" stroke-width="1.9257"/>
<path d="m212.89 622.21c-7-0.21-12.23-0.33-16.93-0.46-4.53-0.12-12.03-0.35-16.95-0.48" stroke-width="2.119"/>
<path d="m156.54 628.01c1.3-0.77 2.06-0.81 3.35-1.14 0.88 0.09 1.78 0.49 2.67 0.66" stroke-width="1.9257"/>
</g>
<path d="m48.576 618.56c-0.58 1.23-1.019 1.75-1.749 2.5-1.211 0.96-1.82 0.87-2.976 0.76-0.339-0.13-0.329-2.84-0.647-3.06l0.623-1.85c0.138 0.1 0.273 0.18 0.42 0.25 0.564 0.08 0.99-0.08 1.583-0.57 0.52-0.55 1.002-1.61 0.289 0.07l2.457 1.9z" fill-opacity=".1" fill="#390000"/>
<g stroke="#650000" fill="none">
<path d="m90.752 619.32c-0.201 4.92-2.863 7.54-2.863 7.54" stroke-width="1.052"/>
<path d="m88.065 617.04c-1.371 5.35 0.385 9.66 0.385 9.66" stroke-width="1.1613"/>
<path d="m101.63 623.31c-0.32 4.86 2.03 7.89 2.03 7.89" stroke-width="1.0475"/>
<path d="m104.54 621.52c0.78 5.49-1.42 9.42-1.42 9.42" stroke-width="1.1564"/>
</g>
<g fill="#390000">
<g fill-opacity=".1">
<path d="m85.286 665.35c-0.185 3.94-5.24 2.9-7.391 2.91l0.604-1.03c0.266-0.01 2.136-1.29 2.866-1.69l3.921-0.19z"/>
<path d="m90.179 663.57c-0.158 5.56-4.469 4.09-6.304 4.1l0.516-1.46c0.226 0 1.821-1.82 2.444-2.38l3.344-0.26z"/>
<path d="m98.062 663.82c-0.216 8.26-6.138 6.08-8.659 6.1l0.708-2.17c0.311-0.01 2.502-2.7 3.357-3.55l4.594-0.38z"/>
<path d="m105.85 663.69c-0.21 8.27-6.134 6.08-8.654 6.1l0.708-2.17c0.311 0 2.506-2.7 3.356-3.54l4.59-0.39z"/>
<path d="m77.644 663.69c-0.185 8.27-5.24 6.08-7.391 6.1l0.604-2.17c0.266 0 2.136-2.7 2.866-3.54l3.921-0.39z"/>
</g>
<path d="m81.433 641.12c-0.697 2.1-1.845 3.72-1.663 5.03l-1.075-0.49c0.843 0.3-0.958-3.39-1.393-2.7l1.008-0.73 0.234-0.41 0.502-0.25 2.387-0.45z" fill-opacity=".59870"/>
</g>
<g fill="none">
<path d="m120.78 618.42c0.53 0.26 1.89 0.02 4.39 1.07-1.04 1.52-3.7 2.41-4.74 1.96" stroke="#650000" stroke-width=".99920"/>
<path d="m182.83 653.6c-1.59 0.41-2.45 0.24-3.96 0.21-0.98-0.33-1.93-0.97-2.91-1.37" stroke-opacity=".10190" stroke="#700" stroke-width="2.0657"/>
<path d="m167.22 659.18c2.98 0.81 4.69 0.78 7.61 1.05 1.96-0.2 3.94-0.77 5.9-1.06" stroke-opacity=".10190" stroke="#700" stroke-width="3.1698"/>
<g stroke="#650000">
<g stroke-linecap="round">
<path d="m126.98 651.13c-3.07 1.05-4.51 1.12-5.52 0.19" stroke-width=".99920"/>
<path d="m130.41 648.55c-2.7 1.05-4.24 1.41-5.57 0.55" stroke-width=".96546"/>
<path d="m134.97 645.39c-1.79 1.05-2.81 1.41-3.7 0.55" stroke-width=".78728"/>
<path d="m138.14 642.95c-2.2 1.05-3.45 1.4-4.54 0.55" stroke-width=".87098"/>
</g>
<path d="m51.537 598.13c0.357 2.23-0.179 2.72-0.715 4.7s0.179 5.44 0.179 5.44" stroke-width=".99920"/>
<path d="m58.329 600.92c-2.028 2.46-1.774 7.02-1.774 7.02" stroke-width=".99920"/>
<path d="m41.769 602c3.632 0.35 5.448 3.15 6.227 5.61 0.778 2.46 1.297 3.86 1.297 3.86" stroke-width="1.011"/>
</g>
</g>
</g>
<use xlink:href="#v" transform="translate(-.0000022581 -98.596)" height="700" width="1050" y="0" x="0"/>
<path d="m694.31 57.143c-2.18 2.179-2.91 4.357-2.47 7.262 0.58 4.212 0.58 4.212-5.23 3.05-11.04-1.888-31.67-0.872-44.46 2.323-17.28 4.357-25.56 4.067-45.61-2.033-2.33-0.726-2.18 0 1.45 6.681 4.36 7.988 6.39 9.585 16.56 13.216l6.54 2.324-11.77 3.05c-6.39 1.743-12.78 3.195-14.09 3.195-4.79 0-2.47 2.614 4.36 4.939 9.88 3.34 20.34 2.9 41.69-2.18 15.11-3.485 21.5-4.357 30.95-3.921 6.53 0.145 12.34 1.017 12.92 1.598 0.73 0.581-2.76 4.643-7.4 9.003-7.12 6.39-9.74 7.84-13.95 7.99-2.91 0-7.41 0.43-9.88 0.87-4.36 0.87-4.5 1.16-4.5 9.3v8.42l-33.71 31.66c-18.59 17.43-36.02 32.82-38.64 34.42-2.61 1.6-5.23 3.92-5.95 5.23-1.6 2.9 0.29 8.13 3.34 9.29 1.89 0.73 0.72 3.2-5.81 12.2-9.45 13.07-16.71 27.02-22.38 42.56l-4.06 10.89-2.33-7.99c-3.78-12.78-6.68-31.37-6.68-43.57 0-11.18 0-11.18 7.55-21.93 9.16-13.07 30.66-35.44 42.57-44.44 4.79-3.63 12.93-8.57 18.16-11.04 11.62-5.37 14.52-7.84 14.52-11.91 0-4.79-3.48-7.11-9-5.95-3.2 0.58-16.13-1.45-38.21-5.96-18.3-3.63-33.56-6.82-33.7-6.82 0-0.15 1.45-6.39 3.48-13.94 2.33-8.864 4.8-15.109 7.12-17.578 4.36-4.648 4.51-10.021 0.15-14.088-7.27-6.826-18.16-0.871-16.56 9.005l0.72 4.938-9.58 1.016c-5.23 0.581-17.73 3.195-27.61 5.955-20.04 5.519-35.73 6.392-46.05 2.759-3.19-1.162-5.95-2.178-6.1-2.178-0.29 0-0.44 1.597-0.44 3.631 0 6.24 3.93 11.76 10.32 14.96l6.1 3.05-4.07 1.02c-2.18 0.58-8.71 0.58-14.67 0.14s-10.75-0.44-10.75 0c0 3.05 7.12 11.18 11.77 13.51 10.17 5.23 31.38 3.34 54.91-4.94 11.77-4.07 27.02-5.23 26-2.03-0.58 1.74-21.06 17.13-56.22 42.26-17.72 12.63-20.48 16.12-17.72 22.22 1.45 3.34 1.02 4.65-3.34 11.91-9.44 15.97-18.31 43.42-18.31 57.37 0 6.97-0.43 7.55-10.02 17.71-19.61 20.63-57.96 68.7-66.24 83.08l-2.62 4.5-2.76-3.49c-5.52-6.97-17.14-3.05-17.14 5.81 0 6.1 3.78 9.59 10.6 9.59 3.78 0 11.34 2.9 24.41 9.59l19.03 9.44-3.63 3.92c-6.97 7.55-8.43 13.5-4.8 18.59 1.75 2.32 3.93 2.76 12.06 2.76 8.72 0 11.62 0.72 21.65 5.66 9.88 4.94 13.65 7.99 28.18 23.09 44.89 46.91 55.93 56.64 82.81 73.2 15.54 9.59 43.87 23.53 57.82 28.61 45.32 16.27 95.29 19.32 142.51 8.71 21.79-4.93 37.77-10.6 58.69-21.05 11.62-5.96 17.29-7.99 17.58-6.83 0.43 1.02 1.74 5.23 3.05 9.3 2.47 7.98 9.73 20.18 12.78 21.34 1.02 0.29 24.26-2.9 51.86-7.11 27.61-4.21 50.56-7.7 51.14-7.84 2.76-0.15 6.1-15.98 6.1-28.33 0-12.63-0.29-13.5-6.39-25.41-7.85-15.11-19.76-27.6-31.23-32.82l-8.14-3.78 3.49-4.5c16.12-21.35 35.15-52 42.56-68.41l4.21-9.44 7.56-0.14c4.07 0 7.84-0.58 8.28-1.31 0.43-0.58-0.15-6.68-1.31-13.36s-2.18-12.35-2.18-12.64c0-0.14 2.62-0.29 5.81-0.29h5.81v-16.41-16.56l25.14-47.78c13.65-26.28 26.44-49.38 28.32-51.12 4.47-4.5 3.97-11.33-1.45-15.25-3.34-2.47-4.5-2.61-8.13-1.16-4.51 1.89-7.99 7.55-6.69 10.75 0.44 1.16-0.72 4.35-2.32 7.26-2.62 4.5-3.78 5.08-6.97 4.5-2.18-0.44-18.74-3.19-36.9-6.24l-32.83-5.52-16.13 29.04c-8.86 15.98-15.98 29.2-15.83 29.49 0.29 0.14 17.14 1.45 37.48 2.76 20.33 1.3 37.33 2.75 37.62 3.05 0.29 0.14-4.65 9.29-10.89 20.18l-11.34 19.61h-33.41c-29.05 0-33.41 0.29-35.01 2.32-1.45 2.04-2.18-0.14-4.94-12.63-4.5-21.06-8.86-48.8-8.86-56.06 0-7.12 6.39-21.79 18.01-41.54 17.29-29.34 41.99-57.8 51.87-59.69 8.42-1.6 14.38-6.1 14.38-10.89 0-4.94-2.33-7.26-8.14-7.99-3.92-0.44-55.2-20.62-57.52-22.66-1.46-1.16 5.81-26.139 8.42-29.189 7.7-8.714-7.12-21.204-15.4-12.926-3.19 3.195-3.77 10.021-1.01 12.926 1.45 1.452-0.15 1.597-7.7 0.581-14.68-1.743-28.62-1.017-41.7 2.323-14.52 3.776-25.86 3.922-38.64 0.291-5.52-1.452-9.73-2.033-9.73-1.307 0 3.34 6.24 12.345 10.6 15.249 2.62 1.743 7.27 3.776 10.46 4.357l5.67 1.307-8.72 2.469c-4.65 1.309-11.48 3.199-15.11 4.069l-6.54 1.74 5.82 2.61c8.71 3.93 23.97 3.49 42.56-1.16 10.61-2.61 19.76-3.77 28.91-3.92 11.48-0.14 17 0.87 14.82 2.47-19.47 15.4-86.44 66.08-93.99 71.17-11.63 7.84-13.37 10.16-13.37 16.99 0 3.77 0.73 4.94 4.21 6.24l4.22 1.45-5.09 7.99c-2.9 4.36-7.41 12.93-10.17 19.03l-5.08 11.04-2.62-5.09c-2.47-5.08-4.94-14.67-6.39-25.56-0.72-5.08 0-7.41 6.1-17.86 8.57-14.96 22.38-33.55 30.22-40.81 3.34-3.05 6.54-6.39 7.12-7.26 1.16-2.04-3.2-7.27-6.1-7.27-2.18 0-54.19-36.014-54.19-37.466 0-4.067 7.85-24.98 10.17-27.159 1.6-1.452 2.9-4.502 2.9-6.826 0-8.714-11.18-13.216-17.57-6.826zm29.78 65.207c10.75 7.56 19.61 14.09 19.75 14.53 0 1.01-38.06 14.67-38.78 13.94-0.29-0.29 1.74-5.23 4.5-10.89 2.91-5.67 5.23-11.19 5.23-12.35 0-2.18-13.95-9.58-18.01-9.58-3.49 0-4.07-2.47-2.18-8.72l1.74-5.81 4.07 2.62c2.18 1.3 12.78 8.71 23.68 16.26zm182.46 5.81c0 0.87-58.4 19.03-59.13 18.45-0.29-0.29 8.14-30.07 10.46-36.89 0.44-1.16 8.58 1.6 24.56 7.99 13.22 5.37 24.11 10.02 24.11 10.45zm-225.9-16.12c-0.43 0.87-1.6 1.6-2.47 1.6s-0.87-0.87 0.29-2.18c2.04-2.47 3.78-1.89 2.18 0.58zm155.88 20.04c-3.2 10.32-6.39 19.17-6.97 19.76-0.88 1.01-20.92 7.55-53.76 17.57-10.6 3.19-11.91 3.34-8.71 1.02 2.03-1.6 19.32-14.96 38.5-29.78 19.17-14.67 35.3-26.87 35.73-26.87 0.58-0.14-1.6 8.14-4.79 18.3zm-275.73-3.05c30.51 6.25 31.09 6.39 25.42 7.99-2.32 0.73-16.99 4.79-32.39 9.15l-28.18 7.84 1.01-3.92c3.2-13.36 6.98-26.28 7.7-26.28 0.58 0 12.35 2.32 26.44 5.22zm-44.31 6.68c-0.29 1.02-1.89 6.54-3.63 12.2l-2.9 10.46-11.34 3.05c-6.1 1.6-15.69 4.36-21.21 5.96-5.52 1.45-9.58 2.46-9.29 2.03 1.16-1.02 48.23-35.44 48.66-35.44 0.15 0 0.15 0.87-0.29 1.74zm137.14 6.54c1.74-0.44 3.05-0.44 3.05-0.15 0 2.33-26.87 36.31-29.49 37.33-1.74 0.73-10.31 3.78-18.88 6.97l-15.84 5.67 12.06-11.33c6.68-6.1 19.32-17.87 28.04-26.15 10.46-9.87 16.27-14.37 16.99-13.21 0.58 1.02 2.33 1.31 4.07 0.87zm13.08 11.91l-4.36 13.07-11.04 3.63c-6.11 2.03-11.19 3.63-11.34 3.34-0.29-0.14 5.09-7.7 11.77-16.7 9.74-12.93 12.93-16.27 15.69-16.27h3.63l-4.35 12.93zm32.54-4.36l4.06 2.62-12.49 4.35c-6.83 2.47-12.2 3.63-11.91 2.76s1.74-5.08 3.05-9.15l2.47-7.69 5.37 2.32c2.91 1.16 7.12 3.34 9.45 4.79zm19.17 88.3l3.78 7.7-3.63 11.91c-4.36 14.81-7.41 29.48-9.74 47.49-1.45 11.62-2.61 14.96-7.55 23.09-3.05 5.23-6.39 11.33-7.12 13.66-2.61 7.4-4.07 2.32-4.94-17.72-1.01-21.79 0.87-43.86 5.38-64.63 3.05-13.8 10.31-36.31 14.09-43.57l2.18-4.36 1.89 9.3c1.16 5.23 3.63 12.92 5.66 17.13zm-189.72 0.15c0.14 8.42 3.77 25.12 8.13 38.05 2.91 8.57 3.34 11.62 2.18 16.56-0.73 3.19-2.03 13.07-2.91 21.64-2.76 27.74 1.75 54.17 13.66 78.71 3.63 7.12 6.83 14.67 7.41 16.56l1.02 3.49-4.07-3.05c-12.06-8.57-24.7-25.42-31.67-42.12-4.36-10.31-4.65-11.91-1.6-11.91 1.89 0 2.18-3.05 2.18-18.15v-18.16h-4.36c-3.78 0-4.5-0.73-6.1-6.24-1.16-3.64-1.89-13.95-1.89-25.71 0-21.5 2.04-30.5 11.33-51.27 4.94-11.04 6.54-10.6 6.69 1.6zm311.02 26.72c1.89 13.36 7.56 42.12 10.76 54.32 1.88 7.41 1.88 8.71-0.73 16.27-1.6 4.5-2.47 9-2.18 9.87 0.44 1.02-2.47 5.23-6.25 9.44-6.82 7.55-6.97 7.7-8.71 4.5-6.98-13.21-9.59-46.76-5.23-69.56 1.89-10.02 9.29-36.75 10.17-36.75 0.29 0 1.16 5.38 2.17 11.91zm-413.3 26.87l2.04 8.86-12.06 44.15-12.2 44.01-4.65-0.44c-6.1-0.73-49.39-20.62-49.39-22.8 0-5.52 41.4-58.82 64.64-83.36l8.72-9.15 0.43 4.79c0.29 2.76 1.46 9 2.47 13.94zm45.76-1.45c0 0.72-1.88 7.41-4.06 14.96l-4.07 13.79-9.88 0.44c-5.52 0.29-10.6-0.14-11.48-1.02-2.03-2.03 0.15-12.49 3.78-17.86 3.78-5.66 14.24-11.33 20.92-11.33 2.62 0 4.79 0.44 4.79 1.02zm31.38 20.48c2.76 3.63 4.94 7.11 4.94 7.69 0 0.73-5.95 1.31-13.22 1.31h-13.22l0.87-4.07c0.59-2.17 2.04-7.4 3.2-11.61l2.18-7.56 5.08 3.92c2.91 2.18 7.41 6.83 10.17 10.32zm-67.98 7.98c2.61 6.1 3.19 10.46 3.19 22.52v14.81h4.8 4.64l0.3 12.78c0.14 6.97 1.59 17.86 3.19 24.11 2.91 12.34 2.33 18.3-2.32 18.3-1.31 0-9.01-3.92-17.15-8.72-7.99-4.79-16.56-9.29-19.03-10.16l-4.35-1.6 10.89-39.79c5.96-21.93 11.33-39.94 11.77-39.94 0.58 0 2.32 3.48 4.07 7.69zm275.72 49.38c3.35 16.85 9.45 32.68 18.89 49.24 4.5 7.84 7.99 14.52 7.7 14.81-1.45 1.31-16.27 3.63-17.58 2.91-2.03-1.31-10.17-18.88-15.69-33.99-6.25-16.99-11.91-40.52-10.89-44.88 0.43-2.03 3.63-9.29 6.97-16.12l5.96-12.34 1.16 14.23c0.58 7.84 2.03 19.61 3.48 26.14zm108.81-4.79c5.67 2.91 7.27 4.36 6.98 6.83-0.29 2.61 0.43 3.19 4.35 3.63 7.7 0.72 6.4 4.21-5.66 14.67-6.25 5.37-11.91 9.73-12.79 9.73-3.34 0-17.57-17.29-22.22-26.87l-4.8-10.17 3.93-1.01c8.42-2.04 22.66-0.59 30.21 3.19zm-19.61 30.06l8.43 8.43-3.78 2.61c-5.08 3.49-38.5 19.9-39.22 19.32-0.29-0.29 3.34-13.36 7.84-29.05l8.43-28.61 4.94 9.44c2.76 5.23 8.71 13.22 13.36 17.86zm-49.39 9.44c-4.21 12.93-8.14 24.26-8.72 24.98-1.89 1.89-3.34-8.56-2.32-16.26 1.74-11.77 5.23-20.19 11.33-27.16 3.2-3.63 6.1-6.39 6.54-5.95 0.29 0.29-2.76 11.32-6.83 24.39zm-160.09-21.78c-0.44 1.02-3.49 10.31-6.98 20.77-3.34 10.31-6.68 19.46-7.26 20.04-0.58 0.73-3.63 0-6.83-1.6-4.79-2.47-5.95-3.92-7.55-10.31-1.74-7.12-1.74-7.7 1.89-13.94 4.65-7.84 11.47-13.22 19.17-15.11 7.85-1.88 8.28-1.88 7.56 0.15zm24.55 2.03c2.61 0.73 3.63 2.91 5.66 12.78 1.75 7.56 5.38 17.14 10.32 26.87l7.55 14.96-7.55-0.87c-4.21-0.44-14.24-2.32-22.23-3.92l-14.82-3.05 3.49-11.19c1.89-6.09 5.23-16.7 7.41-23.81 3.78-12.64 4.36-13.36 10.17-11.77zm32.1 12.2l15.11 7.26-6.68 7.56c-3.78 4.21-7.84 10.6-9.15 14.23s-2.76 7.12-3.34 7.7c-2.62 2.9-18.89-34.86-18.89-43.72 0-3.05 5.38-1.31 22.95 6.97zm30.51 16.12c15.98 9.73 37.34 25.85 34.43 26.15-0.73 0-9.01 0.58-18.16 1.3-9.15 0.58-23.39 0.87-31.52 0.44l-14.82-0.87 0.87-4.51c1.31-6.97 5.81-15.1 12.35-22.07 3.2-3.49 6.1-6.39 6.39-6.39 0.44 0 5.09 2.61 10.46 5.95z" stroke="#000" stroke-width="1.151" fill="#ffcf00"/>
<g>
<path d="m694.42 57.298c-2.03 2.178-2.91 4.647-2.47 7.407l0.58 3.921-7.41-1.017c-12.64-1.888-29.92-1.016-42.13 2.324-14.23 3.776-24.84 3.921-37.62 0.29-5.38-1.452-9.74-2.033-9.74-1.307 0 2.469 4.07 9.15 7.7 12.49 1.89 1.889 6.69 4.503 10.46 5.955l7.12 2.759-8.71 2.469c-4.65 1.308-10.75 2.76-13.37 3.196-7.12 1.161-6.83 2.614 1.31 5.375 10.46 3.34 17.72 2.9 40.82-2.18 15.69-3.486 22.81-4.357 31.67-3.922 6.25 0.146 11.91 1.017 12.64 1.743 0.58 0.581-2.76 4.649-7.56 9.009-6.39 5.81-9.87 7.84-13.07 7.84-2.33 0-6.83 0.43-9.73 0.87l-5.52 1.02v8.27 8.43l-33.13 31.08c-18.16 17.14-35.73 32.97-39.22 35-4.94 3.19-6.1 4.79-6.1 8.28 0 2.76 1.02 4.79 2.9 5.81 2.62 1.45 2.33 2.18-5.37 12.78-9.59 13.36-13.66 21.2-20.92 39.5l-5.38 13.8-3.05-10.17c-4.06-13.8-5.95-26.58-5.95-41.24 0-12.06 0-12.2 6.39-21.06 19.47-27.02 47.36-52.14 65.08-58.39 7.7-2.61 11.33-5.95 11.33-10.16 0-4.07-4.5-6.83-9.29-5.52-2.62 0.58-70.17-11.62-71.62-13.07-0.29-0.15 1.3-6.54 3.34-14.09 2.32-8.715 5.08-14.96 7.26-17.429 4.36-4.647 4.5-10.021 0.15-14.088-7.27-6.826-18.16-0.581-16.42 9.295l0.87 4.503-12.06 1.742c-6.53 0.872-18.88 3.631-27.16 6.1-18.16 5.377-34.87 6.247-44.16 2.324-7.12-3.05-6.69-3.195-6.69 1.743 0 5.52 4.94 11.47 12.21 14.81l5.81 2.62-4.07 1.01c-2.18 0.44-9.15 0.59-15.55 0.29-6.24-0.43-11.47-0.14-11.47 0.44 0 2.61 9.59 12.05 14.09 13.8 9.73 4.06 31.52 1.45 54.77-6.54 9.73-3.48 24.69-4.21 23.82-1.3-0.43 1.01-15.69 12.78-33.99 25.99-18.31 13.36-35.01 25.85-37.19 27.89-4.5 4.06-5.23 8.57-2.04 11.47 1.75 1.6 1.6 2.47-0.87 5.81-9.44 13.36-21.5 48.8-21.5 63.18 0 6.1-0.72 7.26-12.78 20.47-24.26 26.58-53.46 63.18-61.89 77.56l-3.92 6.68-3.49-3.49c-4.21-4.21-9.88-4.5-13.8-0.58-6.39 6.39-1.45 15.98 7.99 15.98 3.34 0 11.48 3.19 24.12 9.44l18.88 9.58-4.35 5.09c-10.46 11.76-5.82 22.65 8.57 20.19 12.93-2.18 32.83 9.87 53.31 32.38 32.54 35.58 50.56 51.56 76.71 67.68 7.26 4.5 13.8 8.57 14.52 9.3 3.05 2.47 35.45 17.57 45.47 21.2 45.33 16.27 95.45 19.32 142.52 8.71 21.79-4.93 37.77-10.6 58.69-21.05 11.62-5.96 17.28-7.99 17.57-6.83 0.44 1.02 1.75 5.23 3.05 9.29 2.47 7.99 9.74 20.19 12.79 21.35 1.02 0.29 24.26-2.9 51.86-7.11s50.56-7.7 51.14-7.85c2.76-0.14 6.1-15.97 6.1-28.32 0-12.63-0.29-13.5-6.39-25.27-7.85-14.96-19.32-27.16-30.95-32.82-7.55-3.63-8.13-4.21-6.53-6.68 1.01-1.45 6.1-8.42 11.18-15.39 11.04-15.4 27.75-43.14 33.56-56.21l4.36-9.59h7.99c7.55 0 7.99-0.14 7.26-3.34-1.01-4.79-3.63-20.18-3.63-21.64 0-0.58 2.76-1.16 6.1-1.16h5.96l-0.87-15.39-0.88-15.54 25.57-48.8c14.09-26.87 27.02-50.4 28.91-52.58 5.99-6.24 3.79-13.79-4.65-16.41-4.65-1.45-10.75 4.07-10.75 9.59 0 2.47-1.45 6.68-3.05 9.44-2.61 4.07-3.77 4.79-6.97 4.21-14.96-3.19-67.41-11.18-68.86-10.6-1.89 0.72-31.52 53.3-31.52 56.06 0 0.87 2.17 1.6 4.79 1.6 2.47 0 17.72 1.01 33.7 2.17 15.98 1.17 30.8 2.18 32.98 2.18 3.78 0 3.78 0.15-7.84 20.34l-11.77 20.33h-33.71c-33.7 0-33.84 0-34.57 3.19-0.58 1.75-1.16 2.91-1.6 2.47-1.31-1.16-9.44-43.28-11.62-60.12l-2.18-15.98 8.57-17.57c17.43-36.02 49.98-77.27 62.47-79.59 8.43-1.45 14.53-5.96 14.53-10.75 0-4.94-2.33-7.55-6.83-7.55-3.34 0-56.66-20.91-58.98-23.09-1.45-1.46 5.37-25.273 8.42-29.63 3.05-4.503 2.76-8.714-1.16-12.345-4.36-4.067-9.88-4.067-13.8 0.145-3.34 3.486-4.36 10.312-1.74 11.909 3.34 2.033 1.01 3.195-3.92 2.033-9.88-2.323-32.26-1.597-44.75 1.598-14.67 3.631-28.47 3.631-39.8 0.145-4.94-1.452-8.87-2.469-8.87-2.178 0 0.435 0.88 2.759 2.04 5.373 2.9 6.826 9.3 12.055 17.43 14.378l6.97 2.034-10.6 3.048c-5.96 1.74-12.64 3.63-15.11 4.07l-4.36 1.16 5.09 2.18c9.59 4.21 22.66 3.92 44.74-1.02 19.32-4.21 33.12-5.37 40.68-3.34 2.9 0.87-2.91 5.81-41.4 35.29-24.7 18.88-48.09 36.46-52.01 39.07-9.01 5.96-12.21 9.88-12.35 14.67 0 3.92 3.92 8.57 7.12 8.57 1.16 0 0.72 1.45-1.16 4.07-3.78 5.37-16.13 29.91-16.13 32.09 0 0.87-0.58 1.6-1.31 1.6-2.32 0-7.12-13.65-8.86-24.98l-1.6-11.33 7.41-12.49c7.99-13.65 22.81-33.26 31.09-41.1 6.25-6.1 6.68-9.73 1.31-12.05-5.52-2.33-54.33-36.31-55.21-38.201-0.87-2.614 6.25-23.383 9.59-27.74 3.78-4.938 3.92-9.876 0.15-13.652-3.92-3.921-10.75-3.776-14.53 0.291zm11.62 3.34c2.76 3.34 0.44 8.278-3.92 7.697-4.94-0.58-7.41-4.502-4.94-7.552 2.47-2.904 6.54-3.05 8.86-0.145zm159.8 4.357c2.04 2.469 0.73 7.407-2.32 8.569-3.2 1.162-7.85-1.598-7.85-4.648 0-5.519 6.69-8.133 10.17-3.921zm-176.07 8.278c4.94 0.872 9.3 2.034 9.73 2.615 0.3 0.581-0.72 5.083-2.32 10.021-2.47 7.261-3.49 8.859-5.52 7.988-1.31-0.581-6.25-1.888-11.04-2.905-10.02-2.324-19.76-1.307-45.04 4.502-8.71 1.888-18.59 3.631-21.79 3.486l-5.81-0.145 4.36-1.453c14.38-4.793 19.61-7.407 19.61-10.021 0-2.324-1.16-2.759-6.83-2.759-7.69 0-17.28-3.776-20.77-7.988-2.03-2.469-1.89-2.614 0.73-1.598 6.39 2.614 26 2.76 35.59 0.145 17.43-4.647 30.07-5.228 49.1-1.888zm-145.85 4.357c1.89 3.05-0.29 7.407-3.78 8.133-2.32 0.436-6.97-3.34-6.97-5.518 0-2.179 4.65-5.955 6.97-5.519 1.16 0.29 2.91 1.597 3.78 2.904zm305.36 2.76c4.65 1.016 9.15 2.178 9.73 2.759 1.31 1.162-3.05 18.881-4.64 18.881-0.44 0-4.07-1.02-7.99-2.179-10.75-3.34-23.83-2.614-45.47 2.179-10.61 2.32-22.23 4.36-25.57 4.21h-6.1l8.71-3.34c13.66-5.227 13.95-5.518 13.51-7.987-0.29-1.597-2.76-2.614-8.42-3.195-7.99-0.871-16.42-4.212-18.16-7.262-0.73-1.016 1.01-1.161 5.95-0.29 10.32 1.597 21.65 0.871 34-2.324 12.49-3.195 31.67-3.921 44.45-1.452zm-313.21 13.652c0 0.435-1.3 6.248-3.05 12.928l-3.05 12.05-12.49-0.72c-11.19-0.59-14.24-0.15-26.44 3.77-26.44 8.43-43.15 9.73-51.86 3.78l-4.07-2.76 11.62-0.87c6.39-0.44 15.11-1.89 19.47-3.34l7.99-2.76-11.92-3.78c-10.6-3.48-18.01-7.7-16.12-9.29 0.29-0.29 5.23 0.14 10.75 0.87 11.04 1.6 14.82 1.01 43.58-6.828 11.91-3.341 35.59-5.229 35.59-3.05zm156.46 7.118c-0.43 1.16-1.6 4.65-2.61 7.99-1.02 3.34-2.62 5.95-3.64 5.95-1.88 0-1.45-1.6 3.06-14.23 0.29-0.874 1.3-1.745 2.32-1.745 0.87 0 1.31 0.871 0.87 2.035zm27.6 18.44c12.64 8.72 23.1 16.56 23.39 17.14 0.44 1.16-37.48 15.1-38.49 14.09-0.3-0.29 1.88-5.52 4.93-11.77l5.52-11.18-3.34-2.61c-1.74-1.46-6.39-3.78-10.17-5.23-3.77-1.31-7.4-3.05-7.99-3.49-1.01-0.87 1.6-13.07 2.76-13.07 0.3 0 10.75 7.26 23.39 16.12zm132.64-11.18c0 1.16-1.31 6.1-2.76 11.18-1.6 5.09-4.22 13.95-5.81 19.61-2.33 7.84-3.78 10.6-6.1 11.18-2.04 0.58-2.77 0.15-2.33-1.01 0.44-1.02 3.49-10.61 6.83-21.35 3.34-10.75 6.39-19.9 6.83-20.63 1.01-1.74 3.34-1.16 3.34 1.02zm53.75 19.9c0 0.87-58.26 19.17-58.98 18.3-0.44-0.44 7.99-30.94 10.17-36.89 0.58-1.16 8.42 1.3 24.69 7.98 13.22 5.38 24.12 10.03 24.12 10.61zm-226.05-15.54c-0.43 1.3-1.45 1.88-2.32 1.45-0.73-0.44-0.58-1.74 0.44-2.91 2.17-2.61 3.19-1.88 1.88 1.46zm156.17 19.17c-3.19 10.31-6.68 19.46-7.55 20.33-1.6 1.45-17.58 6.54-51.57 16.7-7.56 2.18-13.22 3.63-12.79 3.2 1.89-1.89 77.14-59.55 77.43-59.26 0.29 0-2.32 8.57-5.52 19.03zm-166.92-5.96c-1.16 10.75-2.9 11.77-2.9 1.75 0-6.39-0.44-8.28-2.18-8.28-1.6 0-1.39 1.77-1.68 8.01l-1.08 8.69-1.75-4.91c-0.43-3.92 0.01-10.34-0.87-11.36-1.16-1.45-0.14-1.88 4.94-1.88h6.4l-0.88 7.98zm7.7-6.97c0.29 0.73-0.29 5.09-1.16 9.88l-1.74 8.71-0.58-9.87c-0.44-6.83-0.15-9.73 1.16-9.73 0.87 0 1.89 0.43 2.32 1.01zm-20.77 9.15c0 4.79-0.58 8.72-1.45 8.72-0.88 0-1.46-3.93-1.46-8.72s0.58-8.71 1.46-8.71c0.87 0 1.45 3.92 1.45 8.71zm29.34-6.24c-0.87 1.45-1.88 5.37-2.47 8.71-0.58 3.49-1.59 6.25-2.46 6.25-0.88 0-1.17-1.75-0.59-4.51 0.44-2.47 0.88-6.39 0.88-8.71 0-3.2 0.72-4.21 2.9-4.21 2.47 0 2.76 0.58 1.74 2.47zm16.86 3.34c3.34 1.45 6.1 3.48 6.1 4.35 0 0.88-1.75 4.94-3.78 9.01-2.47 4.94-4.21 6.82-5.23 5.81-0.87-0.87-0.44-3.34 1.6-7.26 1.74-3.34 3.05-6.98 3.05-8.28 0-4.36-3.05-2.04-6.1 4.65-4.07 8.56-3.92 8.27-4.8 7.4-0.43-0.43 0.29-3.48 1.46-6.97 2.61-7.55 2.76-10.17 0.29-10.17-1.02 0-3.2 3.78-4.65 8.28-3.05 9.3-4.65 7.56-2.33-2.47 0.73-3.48 1.02-6.97 0.59-7.69-1.17-1.89 5.81-0.15 13.8 3.34zm-175.49 1.16c0 4.79-7.12 28.32-9.01 29.48-2.91 1.89-3.05 0.58-0.58-7.99 1.31-4.5 3.34-11.76 4.65-16.12 2.18-7.69 4.94-10.74 4.94-5.37zm34.14 2.47c14.38 2.9 27.16 5.52 28.32 6.1 1.17 0.43-12.49 4.79-30.5 9.87-18.02 4.94-32.98 8.86-33.27 8.57s0.43-4.21 1.74-8.86c1.31-4.64 3.05-11.18 3.92-14.67 0.88-3.34 2.04-6.1 2.62-6.1s12.78 2.33 27.17 5.09zm361 4.21c0 3.05-3.34 5.23-12.64 7.99-4.65 1.45-28.04 9.58-52.01 18.15s-57.24 20.48-73.94 26.43c-22.81 8.14-31.82 10.75-36.32 10.46-4.36-0.29-6.1-1.16-6.39-3.05-1.02-5.23 5.52-9.58 22.08-14.81 69.73-22.08 151.95-47.06 155.3-47.06 2.32-0.14 3.92 0.58 3.92 1.89zm-408.51 12.05c-1.6 6.25-3.49 11.77-3.92 12.35-0.87 1.02-13.51 4.79-37.05 11.18-3.19 0.87-5.08 0.87-4.35 0.29 2.03-1.89 47.21-35 47.79-35 0.29 0-0.87 5.08-2.47 11.18zm97.62-6.82c0 2.32-4.79 4.06-48.81 17.28-93.84 28.03-109.53 32.39-111.71 31.66-1.75-0.72-1.89-1.6-0.44-4.5 1.75-4.07 2.47-4.36 35.3-13.07 10.46-2.76 40.1-10.89 66.1-18.16 58.69-16.26 57.09-15.83 58.55-15.1 0.58 0.29 1.01 1.16 1.01 1.89zm43.44 3.34c2.62-0.58 0.29 3.19-10.6 18.01l-13.95 18.88-18.45 6.68c-10.17 3.63-18.59 6.53-18.89 6.39-0.14-0.29 12.21-11.91 27.46-26.14 19.76-18.3 28.18-25.42 29.35-24.4 1.01 0.87 3.19 1.01 5.08 0.58zm11.62 12.49l-4.36 12.92-10.89 3.93c-5.96 2.17-11.19 3.77-11.33 3.48-0.29-0.29 4.79-7.84 11.33-16.85 9.88-13.65 12.35-16.26 15.69-16.41h3.92l-4.36 12.93zm12.5-11.18c-5.52 18-6.98 21.49-9.01 21.49-1.16 0-1.89-0.87-1.6-1.89 0.44-0.87 2.18-6.1 3.92-11.62 2.04-5.81 4.07-9.73 5.38-9.73 1.02 0 1.74 0.87 1.31 1.75zm74.09-0.44c-0.88 0.73-18.45 7.99-39.23 16.12-20.77 8.13-57.09 22.37-80.62 31.52-23.54 9.29-45.18 17.42-47.94 18.01-5.96 1.45-10.17 0.43-10.17-2.18 0-2.47 5.66-4.8 50.84-21.06 20.34-7.26 55.64-20.04 78.45-28.32 37.19-13.65 52.73-18.01 48.67-14.09zm-54.05 7.26l4.07 2.62-12.06 4.35c-6.68 2.47-12.2 4.36-12.34 4.21-0.29-0.29 0.58-3.63 1.88-7.55 1.31-3.92 2.47-7.99 2.91-9 0.58-2.04 7.7 0.43 15.54 5.37zm190.46 7.7c-44.02 46.18-75.25 125.05-69.01 173.99 0.87 6.97 2.91 16.41 4.51 21.06 1.59 4.65 2.9 8.57 2.9 8.86 0 0.14-3.19-1.02-6.97-2.76l-6.98-3.2-6.53-22.07c-3.49-12.06-6.54-21.79-6.83-21.5-0.44 0.44 6.1 33.55 7.84 40.23 0.59 2.18-0.14 2.62-4.35 2.62-5.67 0-4.36 2.9-13.51-29.63-2.18-7.84-4.22-13.65-4.36-12.93-0.29 0.73 1.45 10.46 3.77 21.64 2.33 11.04 4.22 20.19 4.07 20.48-0.14 0.15-2.03 0.58-4.07 1.16-3.77 0.87-3.77 0.73-10.02-21.06-3.49-11.91-6.39-21.64-6.68-21.35-0.44 0.44 5.37 32.83 7.41 41.25 0.58 2.32-0.15 3.63-2.33 4.94-4.06 2.18-4.36 1.74-10.02-18.59-2.62-9.01-5.09-16.12-5.38-15.83-0.43 0.29 1.02 9 3.05 19.31l3.93 18.59-3.34 2.62c-3.78 3.19-3.93 3.05-8.43-13.07-1.89-6.68-3.63-11.77-3.92-11.48s0.43 6.39 1.6 13.37c2.9 16.41 2.9 17.57-0.44 19.46-2.61 1.3-3.05 0.72-5.38-7.27-3.05-11.18-4.21-10.31-1.88 1.46 1.3 7.11 1.3 9.58-0.15 12.49-2.61 4.79-3.78 4.35-5.52-2.04-1.45-5.08-1.45-4.79-0.87 2.62 0.73 8.86-1.16 13.94-3.92 10.16-1.17-1.59-1.31-1.01-0.73 2.91 0.44 2.76 0 9-1.02 13.8l-1.89 8.57-5.22-10.75c-12.06-24.69-16.13-43.57-16.28-75.52 0-18.74 0.73-27.74 3.2-40.96 8.57-46.04 30.22-91.21 43.58-91.21 1.31 0 1.6 1.02 1.02 3.2-0.73 2.76-0.44 2.47 2.03-1.02 1.6-2.32 4.22-4.79 5.96-5.37 2.9-1.02 2.9-1.02 0.58 3.34-1.16 2.47-1.89 4.79-1.45 5.23 0.29 0.43 1.74-1.31 2.9-3.63 5.38-10.31 10.75-12.06 6.54-2.18-3.34 7.99-2.76 7.55 3.63-1.89 2.47-3.78 5.96-7.41 7.7-7.99 3.2-1.16 3.05-0.72-1.74 8.86-2.76 5.67-4.94 10.17-4.51 10.17 0.3 0 3.93-5.23 7.99-11.48 4.22-6.24 8.87-11.76 10.32-12.2 2.32-0.58 1.89 1.02-3.05 10.75-3.05 6.25-5.38 11.48-5.09 11.48s3.93-5.23 8.14-11.77c6.97-10.6 11.91-15.83 14.82-15.83 0.58 0-2.33 5.67-6.25 12.64-13.66 23.67-13.22 23.96 2.32 1.16 6.25-9.15 12.35-16.7 13.37-16.7 1.74 0 1.45 1.01-0.73 4.64-9.29 15.69-17.57 30.21-16.99 30.21 0.29 0 6.53-8.71 13.8-19.46 8.13-11.76 14.52-19.75 16.41-20.33 1.75-0.44 3.2-0.58 3.49-0.44 0.15 0.29-5.08 8.86-11.62 19.32-19.47 30.35-18.74 30.21 3.34-0.58 12.93-18.01 19.32-24.98 21.06-23.24 0.29 0.29-4.79 8.57-11.04 18.59-13.51 21.06-15.11 23.82-13.36 22.8 0.58-0.43 7.99-10.6 16.41-22.65 11.19-15.98 16.42-22.23 19.47-23.39 2.32-0.72 4.5-1.16 4.94-0.87 0.29 0.44-7.7 12.78-17.72 27.6-10.17 14.81-18.16 27.01-17.73 27.01 0.29 0 10.46-13.22 22.52-29.48l21.79-29.49 9.15-3.05c5.09-1.74 9.45-3.19 9.74-3.19 0.29-0.15-3.34 3.92-7.99 8.86zm-154.14 4.36c-23.39 29.48-40.24 67.09-47.94 107.61-3.63 19.47-3.63 67.54 0.15 87.43 3.34 18.16 10.75 42.7 17.43 58.39 2.76 6.68 4.79 12.05 4.5 12.05-1.3 0-14.52-10.45-15.4-12.2-0.58-0.87-6.39-20.33-13.07-43.28-6.68-22.94-12.35-41.53-12.64-41.24-0.14 0.29 4.07 18.59 9.59 40.66 5.52 22.08 9.73 40.09 9.44 40.09-0.43 0-2.47-1.02-4.65-2.33-3.48-2.03-5.08-6.1-14.67-38.48-5.96-19.76-10.89-35.88-11.18-35.59-0.3 0.15 3.19 15.25 7.55 33.26 4.36 18.16 7.99 33.26 7.99 33.7 0 0.43-1.89-0.15-4.21-1.46-4.65-2.32-4.65-2.17-17-44.58-3.05-10.31-5.67-18.3-5.96-18.01s2.33 12.78 5.96 27.88c3.49 15.11 6.25 27.6 6.1 27.89-0.29 0.14-2.61-0.58-5.37-1.74-4.94-2.04-5.09-2.33-12.06-27.6-3.92-14.09-7.41-25.27-7.7-24.98-0.29 0.15 1.74 11.04 4.5 23.82 5.09 24.25 4.94 25.27-1.74 21.49-2.62-1.45-4.8-5.8-9.01-18.44-6.24-18.59-7.12-18.45-2.9 0.73 1.59 7.11 2.61 13.21 2.32 13.5s-2.76 0-5.37-0.58c-4.51-1.16-5.38-2.32-9.01-12.2-2.18-6.1-3.63-8.57-3.2-5.66 0.58 2.76 1.31 7.26 1.75 9.73 0.72 4.36 0.43 4.79-2.62 4.79-4.94 0-6.25-1.31-9.88-8.71-2.9-6.25-3.05-5.81-1.01 3.19 0.87 3.78 0.58 4.07-4.07 4.07-3.49 0-5.23-0.73-5.67-2.62-0.58-1.88-0.72-1.88-0.87 0.59-0.14 3.63-7.41 5.81-9.15 3.05-0.73-1.17-1.16-1.02-1.16 0.43 0 1.16-2.18 3.63-4.8 5.37-2.61 1.89-6.39 5.96-8.28 9.15-2.03 3.2-4.21 5.81-4.79 5.81-1.75 0-9.44-18.15-12.79-30.35-4.35-15.98-5.37-46.04-2.03-65.5 4.65-28.18 16.71-56.64 32.25-76.83 7.55-9.73 9.44-11.18 18.6-14.96 5.52-2.32 10.89-3.77 11.91-3.48 1.01 0.43 1.89 0.14 1.89-0.73 0-1.31 5.95-4.36 6.97-3.49 0.14 0.15-0.29 2.18-1.16 4.51l-1.46 4.21 2.62-3.49c7.12-10.16 10.6-11.91 7.55-3.77-2.47 6.39-0.58 5.95 2.76-0.58 1.75-3.2 4.36-6.54 5.96-7.41 2.76-1.45 2.76-1.45-0.15 5.23-4.06 9.58-2.46 9.44 2.91 0 2.47-4.36 5.81-8.72 7.41-9.59 3.78-2.03 3.78-1.74-1.45 10.31-2.33 5.52-3.93 10.02-3.64 10.02 0.3 0 3.78-5.51 7.85-12.19 4.07-6.69 8.43-12.49 9.59-13.08 2.9-1.01 2.9-1.16-3.49 12.93-3.2 6.83-5.52 12.34-5.37 12.34 0.29 0 3.92-5.66 8.28-12.63 4.21-6.97 8.86-13.8 10.31-15.25 6.1-6.1 5.23-1.6-2.32 12.64-4.51 8.42-7.85 15.24-7.56 15.24s5.67-7.84 11.77-17.42c9.73-15.11 13.8-19.9 13.8-16.56 0 0.58-3.92 8.42-8.86 17.43-4.8 9.15-8.43 16.55-8.14 16.55 0.44 0 6.1-8.56 12.64-19.02 10.17-16.12 16.27-22.95 18.6-20.91 0.43 0.43-12.79 23.67-22.67 39.93-5.81 9.45 2.18-1.45 15.55-21.34 12.78-18.88 18.01-25.13 19.9-23.39 0.15 0.29-4.21 8.28-9.88 17.87-16.7 28.75-17.29 29.77-16.56 29.77 0.29 0 8.14-11.62 17.29-25.85 13.65-20.92 17.72-26.14 21.5-27.45 2.61-1.02 4.94-1.74 5.08-1.45 0.15 0.14-5.08 8.86-11.62 19.17-20.92 33.26-24.11 38.48-23.53 38.48 0.29 0 10.02-13.65 21.5-30.49 16.99-24.84 21.64-30.79 25.86-32.54 9-3.77 9-2.61 0.43 8.14zm-158.05-2.91c-23.97 19.75-45.62 46.91-58.26 73.05-10.02 20.77-14.09 37.18-14.09 57.81 0 12.92-0.29 15.25-1.89 13.94-1.16-0.87-2.03-4.65-2.18-8.42 0-3.64-0.58-10.03-1.31-13.95-1.01-6.97-1.01-6.97-1.3 3.92 0 6.25-0.44 11.33-0.73 11.33-4.5 0-5.23-2.18-5.37-15.83-0.15-11.76-0.44-12.92-1.46-7.4-0.58 3.63-1.16 9.29-1.16 12.63-0.14 4.65-0.58 5.96-2.18 5.37-1.31-0.58-2.32-5.22-3.19-15.54l-1.31-14.81-0.44 13.36c-0.14 7.41-0.58 13.51-1.01 13.51-3.93 0-5.09-2.47-5.23-10.75-0.15-12.63-2.47-18.88-2.62-7.41-0.29 10.9-1.31 15.25-3.92 15.25-1.45 0-2.04-1.88-2.18-6.24 0-3.34-0.58-8.72-1.16-11.91-1.17-4.94-1.31-4.07-1.46 6.1-0.14 9.29-0.58 12.05-2.17 12.05-2.47 0-3.64-4.35-3.93-14.52-0.29-7.84-0.29-7.84-1.45 2.91-1.45 12.34-2.03 14.52-4.21 14.52-0.73 0-1.46-3.34-1.46-7.7 0-5.37-0.43-6.97-1.45-5.37-0.72 1.16-1.45 5.52-1.45 9.73 0 4.06-0.58 7.99-1.45 8.42-0.88 0.58-1.46-1.01-1.46-3.92 0-3.63-0.43-4.21-1.45-2.61-0.73 1.16-1.45 3.92-1.45 6.1 0 5.81-1.6 9.15-3.05 6.68-0.87-1.16-1.31 0.29-1.31 4.21 0 3.48-0.58 6.24-1.16 6.24-3.2 0-7.85-21.35-8.57-38.48-0.58-15.4-0.29-19.17 3.05-31.66 3.77-14.96 14.23-38.35 20.05-44.88 1.74-2.03 4.93-4.21 6.82-4.79 3.05-0.88 3.34-0.73 2.47 1.59-0.72 2.04 0 1.75 3.05-1.3 4.94-4.51 9.3-5.67 6.1-1.46-1.16 1.6-0.43 1.31 1.6-0.58 4.22-3.63 11.62-6.82 11.62-4.79 0 0.73-0.58 1.74-1.45 2.18-0.72 0.43-2.18 2.32-3.05 4.07-1.02 1.88 1.45 0.29 5.67-3.78 10.89-10.17 12.93-9.44 4.79 1.89-2.76 3.92-1.74 3.34 5.09-3.05 7.69-7.41 13.65-11.33 13.65-9.15 0 0.58-2.47 3.92-5.52 7.7-10.17 12.34-9.44 12.49 2.32 0.43 6.54-6.53 12.5-11.91 13.37-11.91 2.03 0 1.31 1.31-8.43 13.8l-7.7 10.17 12.79-13.37c10.89-11.32 19.32-17.57 19.32-14.23 0 0.44-5.23 6.97-11.62 14.38-6.39 7.55-11.62 13.94-11.62 14.38 0 0.43 5.37-4.94 11.91-11.77 18.3-19.46 19.03-20.33 22.81-21.35 2.76-0.87 1.59 1.31-5.96 10.32-17.43 21.34-20.92 26.43-9.73 14.37 21.21-22.94 26.73-28.17 31.09-29.19 4.06-1.01 4.21-1.01 2.17 1.89-1.16 1.74-9.29 11.47-18.01 21.78-27.17 31.96-26.44 31.52 4.79-2.46 20.2-22.08 26.3-27.16 32.84-27.45 0.87-0.15-1.75 2.61-5.81 5.95zm419.83 46.33c2.04 6.1-6.53 9.59-8.86 3.49-1.45-3.63 0.58-6.54 4.36-6.54 2.32 0 3.92 1.02 4.5 3.05zm-278.77 32.1l4.06 8.28-3.92 12.78c-4.94 16.12-7.84 30.35-9.73 47.34-1.31 10.46-2.47 14.67-5.81 19.9-2.18 3.63-5.67 9.58-7.41 13.36-1.89 3.92-3.78 6.97-4.36 6.97-1.74 0-3.2-27.74-2.32-45.75 1.45-28.32 7.26-54.89 17.28-79l4.65-11.04 1.74 9.44c0.88 5.23 3.49 13.22 5.82 17.72zm227.06-16.99c21.06 3.48 38.49 6.68 38.93 6.97 0.58 0.72-19.18 38.63-20.92 40.37-0.87 0.73-68.86-3.19-81.35-4.79-2.76-0.44-2.04-2.33 9.44-22.95 12.78-22.65 14.82-26.14 15.25-26.14 0.15 0 17.58 2.9 38.65 6.54zm44.16-4.22c1.45 1.46-1.74 6.39-4.07 6.39-2.61 0-2.61-0.72-0.72-4.5 1.59-2.76 3.19-3.48 4.79-1.89zm-460.95 18.59c0 10.46 3.63 29.34 8.13 41.69 3.64 9.87 3.64 10.16 1.31 21.78-2.76 14.81-2.9 45.46-0.14 59.69s5.66 22.51 13.51 38.49c3.63 7.41 6.24 14.23 5.95 15.1-0.72 2.04-11.76-7.11-19.03-15.83-6.39-7.55-14.09-21.06-18.3-31.95-3.05-7.55-3.05-7.55-0.15-7.55 2.76 0 2.91-1.02 2.91-18.16v-18.15h-4.36c-3.63 0-4.5-0.73-5.96-5.52-0.87-2.9-2.03-12.92-2.32-22.07-0.58-13.51-0.15-19.03 2.32-29.34 3.05-12.93 12.64-36.02 14.82-36.02 0.73 0 1.31 3.49 1.31 7.84zm312.92 41.54c2.03 12.34 5.37 29.19 7.41 37.33l3.48 14.81-2.76 8.28c-1.6 4.5-2.47 8.71-2.03 9.44 0.43 0.72-2.47 4.79-6.54 9l-7.26 7.55-2.76-6.68c-9.45-21.78-8.43-57.65 2.76-93.53 1.6-5.37 3.19-9.44 3.48-9.15 0.29 0.15 2.18 10.61 4.22 22.95zm-415.34 14.52l2.04 10.9-12.06 43.57-12.06 43.57-4.94-0.44c-5.96-0.44-49.25-20.48-49.25-22.8 0-5.67 35.74-52.14 64.65-83.8 8.28-9.15 8.72-9.44 9.15-5.81 0.15 2.18 1.31 8.86 2.47 14.81zm533.88-16.26c0 0.29-4.36 9.15-9.73 19.31-9.59 18.16-10.03 18.74-14.53 18.74-2.62 0-4.8-0.44-4.8-0.87 0-0.58 4.94-9.59 11.05-20.05 10.02-17.28 11.47-19.17 14.52-18.59 1.89 0.3 3.49 1.02 3.49 1.46zm-488.84 19.02c-0.44 2.33-2.33 9.01-4.07 14.96l-3.34 10.6-11.19 0.44c-10.75 0.44-11.18 0.29-11.18-2.91 0-14.81 11.47-27.15 25.13-27.3 5.37 0 5.52 0.15 4.65 4.21zm11.33 4.36c-4.94 20.04-5.38 21.2-9.74 21.64-3.48 0.44-4.06 0-3.48-2.18 7.84-28.32 7.12-26.43 10.75-24.83 2.76 1.3 3.19 2.32 2.47 5.37zm21.5 13.65c2.32 3.2 4.21 6.39 4.21 7.12 0 0.58-5.81 1.16-13.07 1.16-7.12 0-13.08-0.44-13.08-0.87 0-1.02 4.21-17.87 5.09-20.62 1.01-2.62 11.33 5.51 16.85 13.21zm-69.15 5.67c3.05 6.68 3.63 9.87 3.63 23.23v15.69h4.79 4.94v11.18c0.15 6.25 1.6 17.28 3.34 24.69 3.35 14.23 2.62 19.32-2.61 19.32-1.45 0-8.86-3.63-16.42-8.14-7.41-4.5-15.98-9.29-18.88-10.6l-5.23-2.32 11.04-40.23c6.1-22.22 11.19-40.38 11.48-40.38s2.03 3.49 3.92 7.56zm504.82 4.35c0 2.62 0.44 8.28 0.87 12.35l1.02 7.7h-44.45-44.46l3.63-10.61c1.89-5.66 3.78-11.33 4.22-12.34 0.43-1.31 9.88-1.74 39.95-1.74h39.22v4.64zm-421.29 15.69v13.07h-37.77-37.77v-13.07-13.07h37.77 37.77v13.07zm190.45 15.68c2.76 23.53 10.17 46.33 21.36 64.49 9 14.96 9 15.1 0.29 16.99-4.07 0.87-8.28 1.6-9.3 1.6-4.07 0-22.52-46.91-27.02-68.7-1.89-9.73-1.02-13.65 7.12-29.34l5.23-10.16 0.29 5.81c0.29 3.19 1.16 11.91 2.03 19.31zm221.98 3.34c0.87 5.81 1.45 10.61 1.16 10.9-0.29 0.43-21.93 0.43-47.94 0.29l-47.5-0.44 9.15-10.46 9.01-10.45h37.19l37.19-0.15 1.74 10.31zm-424.92 11.77c12.49 38.34 44.74 66.08 90.21 78.13 28.91 7.56 60 9.88 95.88 7.41 73.51-5.08 107.36-19.17 149.92-62.16l19.18-19.32h27.6c18.01 0 27.75 0.59 27.75 1.46 0 4.21-19.03 37.61-32.83 57.51-10.61 15.25-13.37 17.28-38.5 27.3-30.94 12.35-75.69 22.08-121.89 26.44-30.07 2.9-100.81 2.03-125.66-1.46-32.54-4.79-57.23-10.45-82.22-19.17-20.34-7.11-29.06-11.18-52.88-24.83-25.71-14.82-40.68-22.22-54.48-27.31-13.22-4.79-25.42-5.37-30.94-1.74-4.36 2.91-4.94 1.45-1.74-4.79 3.63-6.97 11.76-11.62 20.48-11.62 9.88 0 16.42 2.47 34.14 12.93 16.71 9.87 21.35 10.74 25.86 5.08 3.77-4.79 3.77-6.1 0.14-21.21-1.6-6.68-2.9-17.13-2.9-23.38v-11.18h24.4 24.55l3.93 11.91zm10.17-2.04c8.57 22.23 25.42 43.28 43.29 53.74 24.55 14.52 58.25 22.37 104.59 24.4 69.15 3.05 135.4-20.33 174.48-61.72 5.81-6.1 10.89-10.32 12.63-10.32 1.6 0 2.91 0.59 2.91 1.46 0 2.61-29.78 31.51-41.4 40.08-35.74 26.29-79.03 37.33-147.45 37.33-27.9 0-42.57-1.6-64.65-7.12-49.1-12.2-80.63-39.5-92.83-80.17l-2.18-7.55h3.49c2.9 0 3.92 1.6 7.12 9.87zm305.65-2.03c6.25 3.2 7.41 4.36 6.1 5.96-1.31 1.59-0.87 2.03 2.33 2.46 2.17 0.3 4.64 1.6 5.52 2.91 1.74 2.9-2.33 7.84-14.68 17.28-8.86 6.97-9.88 6.68-20.04-4.79-5.38-6.25-15.26-23.09-15.26-26.29 0-1.6 6.68-2.18 17.43-1.89 8.43 0.29 12.64 1.31 18.6 4.36zm-483.76-1.74c2.76 2.76 2.03 6.68-1.16 7.7-3.2 1.01-7.26-1.31-7.26-4.22 0-2.17 2.9-5.22 5.08-5.22 0.87 0 2.32 0.72 3.34 1.74zm430.15 34.27l-9 30.5-5.52 1.45c-3.2 0.73-5.67 1.02-5.67 0.44 0-0.44 4.07-13.8 9.01-29.63 8.86-28.17 9.15-28.9 14.23-31.51 2.76-1.46 5.23-2.47 5.53-2.18 0.29 0.14-3.64 14.09-8.58 30.93zm18.31-22.07c2.18 4.5 8.13 12.63 13.22 18.01l9.3 9.87-10.46 6.1c-12.21 7.41-32.25 16.27-32.84 14.67-0.14-0.58 3.2-13.21 7.7-28.17 4.36-14.96 7.99-27.45 7.99-27.89 0-2.18 1.46 0.15 5.09 7.41zm-399.65 13.36c2.47 0.73 2.47 0.87-0.72 2.47-3.05 1.74-5.38 0.87-23.39-8.13-14.38-7.27-19.76-10.61-19.18-12.06 0.58-1.6 5.23 0 20.63 7.41 10.9 5.23 21.06 9.87 22.66 10.31zm364.2 14.81c-4.36 14.38-8.57 26.15-9.15 26.15-1.74 0-3.05-10.03-2.03-17.14 1.59-11.91 5.23-20.33 12.05-27.89 3.64-3.92 6.69-7.26 6.98-7.26 0.14 0-3.34 11.77-7.85 26.14zm-160.23-21.49c-0.44 1.02-3.49 10.31-6.98 20.77-3.34 10.31-6.68 19.46-7.26 20.04-0.58 0.73-3.78-0.15-6.97-1.74-4.94-2.62-5.96-3.92-7.56-10.17-1.45-6.24-1.31-7.7 1.16-12.64 4.07-7.84 10.46-13.5 17.87-15.83 8.14-2.46 10.46-2.61 9.74-0.43zm13.07 0.43c0.29 0.29-2.76 10.9-6.97 23.68l-7.27 23.38-4.35-1.45c-2.33-0.87-3.93-2.33-3.64-3.2 0.29-1.01 3.34-10.31 6.69-20.62 7.55-23.67 7.84-24.4 11.91-23.09 1.74 0.43 3.34 1.16 3.63 1.3zm15.11 4.07c0.58 0.87 1.16 3.34 1.16 5.37 0 5.81 7.99 26.87 13.66 36.46 2.9 4.94 4.94 9.29 4.5 9.73-0.87 1.02-20.63-1.89-33.99-4.94-7.12-1.45-10.32-2.9-9.88-4.07 0.43-1.01 3.92-11.76 7.7-23.96l6.97-22.22 4.36 0.87c2.47 0.58 4.94 1.74 5.52 2.76zm24.26 7.55c21.5 9.15 20.48 7.99 13.51 15.98-6.25 7.12-11.91 17.28-11.91 21.49 0 4.8-2.76 2.33-7.85-6.68-5.37-9.44-12.49-29.19-12.49-34.27 0-1.75 0.73-3.05 1.6-3.05s8.57 2.9 17.14 6.53zm36.32 19.17c6.1 3.78 16.12 10.75 22.51 15.54l11.34 8.72-4.07 1.31c-4.94 1.59-59.42 2.17-60.87 0.72-0.58-0.43 0-4.5 1.31-9 1.74-5.67 4.5-10.31 9.73-15.98 4.07-4.5 7.84-8.13 8.28-8.13s5.67 3.05 11.77 6.82zm-272.68 4.22c13.37 4.79 28.47 12.34 54.04 27.01 30.8 17.72 51.43 26.14 84.99 34.56 39.07 9.74 73.94 13.51 122.9 13.51 76.12 0 137.86-11.47 195.39-36.31 1.16-0.58-0.15 1.89-3.05 5.52-3.05 3.78-8.43 7.99-13.08 10.31-11.62 5.81-37.19 13.8-59.41 18.59-17.29 3.78-18.45 4.22-9.45 3.49 19.04-1.45 41.84-7.12 65.38-15.83 1.74-0.73 0.58 1.31-3.49 5.52-5.52 5.66-8.42 7.26-20.34 11.18-7.7 2.47-27.02 6.68-43 9.3-15.98 2.75-27.6 5.08-26 5.08 6.97 0.29 47.65-5.96 60.87-9.3 7.84-2.03 14.52-3.34 14.82-3.05 0.43 0.29-3.06 3.49-7.41 7.12-8.43 6.83-15.69 9.3-39.52 13.36-6.97 1.16-9.44 1.89-6.39 2.04 2.76 0 11.04-1.17 18.16-2.62 7.26-1.45 13.22-2.47 13.51-2.32 0.87 0.72-18.6 12.34-33.12 19.6-17.58 8.86-42.42 17.43-63.92 22.08-22.37 4.79-73.51 4.79-95.88 0-45.33-9.88-100.97-37.33-131.47-64.92l-7.27-6.54 9.44 4.36c10.61 4.79 30.8 10.75 40.68 12.2 4.07 0.58 1.02-0.73-7.99-3.48-21.94-6.69-48.08-20.05-58.69-29.92-4.94-4.51-8.86-8.72-8.86-9.3s7.41 2.62 16.41 7.26c20.34 10.61 39.37 17.58 64.36 24.11 23.68 5.96 31.67 6.39 11.48 0.58-48.38-14.08-92.11-35.14-114.62-55.04-14.82-13.07-27.75-19.61-38.94-19.75-4.5 0-7.84-0.44-7.41-1.16 1.46-2.47 16.71-0.88 26.88 2.76zm460.66 45.89c-0.73 1.02-3.92 5.08-6.97 9.15l-5.67 7.26 9.01-8.57c10.02-9.73 13.22-10.02 5.96-0.58l-4.8 6.25 6.54-5.96c7.12-6.82 11.47-7.26 7.55-0.87-2.47 3.92-2.47 3.92 0.44 1.31 1.6-1.31 3.48-2.47 4.07-2.47 0.58 0 4.64 3.34 9 7.41 9.3 9 17.44 23.96 19.32 35.87 1.31 8.42 1.17 11.62-1.45 23.67l-1.45 6.54-47.94 7.55c-35.16 5.52-48.81 7.12-50.7 6.1-3.78-2.03-9.44-12.06-12.06-21.35l-2.18-7.41 13.22-9.73c7.85-5.66 22.81-19.31 35.88-32.68 20.92-21.49 25.72-25.99 22.23-21.49z"/>
<path d="m865.59 330.77v6.54h6.54 6.54v-6.54-6.53h-6.54-6.54v6.53z"/>
<path d="m891.74 330.77v6.54h6.54 6.54v-6.54-6.53h-6.54-6.54v6.53z"/>
<path d="m917.89 330.77v6.54h6.54 6.54v-6.54-6.53h-6.54-6.54v6.53z"/>
<path d="m861.24 358.37v6.53h6.53 6.54v-6.53-6.54h-6.54-6.53v6.54z"/>
<path d="m903.36 358.37v6.53h6.54 6.54v-6.53-6.54h-6.54-6.54v6.54z"/>
<path d="m855.42 390.32c0 5.08 0 5.08 6.54 5.08s6.54 0 6.54-5.08 0-5.08-6.54-5.08-6.54 0-6.54 5.08z"/>
<path d="m885.93 390.32c0 5.08 0 5.08 6.54 5.08s6.54 0 6.54-5.08 0-5.08-6.54-5.08-6.54 0-6.54 5.08z"/>
<path d="m550.35 452.77v9.44h6.54 6.54v-9.44-9.44h-6.54-6.54v9.44z"/>
<path d="m771.17 458.58v9.44h6.53 6.54v-9.44-9.44h-6.54-6.53v9.44z"/>
<path d="m662.21 471.65v9.44h6.54 6.54v-9.44-9.44h-6.54-6.54v9.44z"/>
<path d="m451.57 338.03v6.54h6.53 6.54v-6.54-6.53h-6.54-6.53v6.53z"/>
<path d="m477.71 338.03v6.54h6.54 6.54v-6.54-6.53h-6.54-6.54v6.53z"/>
<path d="m503.86 338.03v6.54h6.54 6.54v-6.54-6.53h-6.54-6.54v6.53z"/>
<path d="m781.32 522.85c0.97 0.32 2.91 0.32 4.04 0 0.97-0.48 0.16-0.81-2.1-0.81s-3.07 0.33-1.94 0.81z"/>
<path d="m232.29 276.27c-0.7 0.86-1.5 2.47-1.66 3.5-0.22 1.07-0.87 2.96-1.4 4.19-1.4 3.12-1.35 5.76 0.16 8.02 1.88 2.86 5.06 2.8 6.56-0.05 1.4-2.64 1.03-6.35-0.86-9.15-1.67-2.42-1.88-4.63-0.8-7.16 0.7-1.45-0.54-1.08-2 0.65z"/>
<path d="m238.97 293.33c-1.02 0.43-2.15 1.18-2.53 1.72-3.02 3.93 3.82 8.23 8.77 5.6 5.33-2.91 5.5-2.96 8.03-2.1 2.15 0.7 2.26 0.7 1.83-0.16-0.86-1.62-2.21-2.37-7.43-4.15-5.98-1.99-6.19-1.99-8.67-0.91z"/>
<path d="m218.4 294.62c-2.47 1.67-5.11 2.04-7.05 1.02-1.51-0.8-1.67-0.32-0.43 1.29 0.65 0.81 2.1 1.67 3.39 2 1.24 0.32 3.39 1.07 4.79 1.61 3.23 1.35 6.14 1.35 8.35 0 4.47-2.69 1.67-7.53-4.31-7.53-1.72 0-3.01 0.43-4.74 1.61z"/>
<path d="m231.38 300.49c-0.27 0.59-0.54 2.2-0.54 3.66-0.11 9.63-3.93 18.73-11.14 26.58-1.56 1.67-2.86 3.18-2.86 3.39 0 0.54 8.08 0.38 9.16-0.21 0.96-0.49 1.07-0.32 1.4 1.56 0.43 2.58 1.88 5.06 3.66 6.24 1.13 0.76 1.56 0.81 2.8 0.16 2.15-1.02 3.55-3.22 3.82-6.02 0.27-2.1 0.48-2.48 1.18-2.1 0.49 0.21 2.91 0.48 5.39 0.59l4.52 0.21-2.37-2.79c-4.47-5.28-5.92-7.27-7.7-10.77-2.48-4.79-3.5-8.56-3.93-14.26-0.16-2.69-0.54-5.38-0.75-6.08-0.54-1.46-1.89-1.56-2.64-0.16z"/>
<path d="m48.365 276.63c-0.7 0.86-1.508 2.48-1.669 3.5-0.215 1.08-0.861 2.96-1.4 4.2-1.399 3.12-1.346 5.76 0.162 8.02 1.884 2.85 5.06 2.8 6.568-0.06 1.399-2.63 1.023-6.35-0.862-9.14-1.669-2.43-1.884-4.63-0.807-7.16 0.7-1.46-0.539-1.08-1.992 0.64z"/>
<path d="m55.041 293.69c-1.023 0.43-2.154 1.19-2.531 1.73-3.015 3.93 3.823 8.23 8.775 5.59 5.33-2.9 5.492-2.96 8.022-2.1 2.153 0.7 2.261 0.7 1.83-0.16-0.861-1.61-2.207-2.36-7.429-4.14-5.976-1.99-6.191-1.99-8.667-0.92z"/>
<path d="m34.475 294.99c-2.476 1.66-5.114 2.04-7.052 1.02-1.508-0.81-1.669-0.32-0.431 1.29 0.646 0.81 2.1 1.67 3.392 1.99 1.238 0.32 3.391 1.08 4.791 1.62 3.23 1.34 6.137 1.34 8.345 0 4.468-2.69 1.669-7.54-4.307-7.54-1.723 0-3.015 0.43-4.738 1.62z"/>
<path d="m47.45 300.85c-0.269 0.59-0.539 2.21-0.539 3.66-0.107 9.64-3.93 18.73-11.144 26.59-1.561 1.67-2.853 3.18-2.853 3.39 0 0.54 8.075 0.38 9.152-0.21 0.969-0.49 1.077-0.33 1.4 1.56 0.431 2.58 1.884 5.06 3.661 6.24 1.13 0.75 1.561 0.81 2.799 0.16 2.154-1.02 3.553-3.23 3.822-6.03 0.27-2.1 0.485-2.47 1.185-2.1 0.484 0.22 2.907 0.49 5.383 0.6l4.523 0.21-2.369-2.8c-4.469-5.27-5.922-7.26-7.699-10.76-2.476-4.79-3.499-8.56-3.93-14.26-0.161-2.7-0.538-5.39-0.753-6.09-0.539-1.45-1.885-1.56-2.638-0.16z"/>
<path d="m139.38 276.42c-0.7 0.86-1.51 2.47-1.67 3.49-0.22 1.08-0.86 2.96-1.4 4.2-1.4 3.12-1.35 5.76 0.16 8.02 1.88 2.85 5.06 2.8 6.57-0.05 1.4-2.64 1.02-6.35-0.86-9.15-1.67-2.42-1.89-4.63-0.81-7.16 0.7-1.45-0.54-1.08-1.99 0.65z"/>
<path d="m146.05 293.48c-1.02 0.43-2.15 1.18-2.53 1.72-3.01 3.93 3.83 8.23 8.78 5.6 5.33-2.91 5.49-2.96 8.02-2.1 2.15 0.7 2.26 0.7 1.83-0.16-0.86-1.62-2.21-2.37-7.43-4.15-5.98-1.99-6.19-1.99-8.67-0.91z"/>
<path d="m125.49 294.77c-2.48 1.67-5.12 2.04-7.05 1.02-1.51-0.81-1.67-0.32-0.44 1.29 0.65 0.81 2.1 1.67 3.4 1.99 1.23 0.33 3.39 1.08 4.79 1.62 3.23 1.34 6.14 1.34 8.34 0 4.47-2.69 1.67-7.54-4.3-7.54-1.73 0-3.02 0.43-4.74 1.62z"/>
<path d="m138.46 300.64c-0.27 0.59-0.54 2.2-0.54 3.66-0.1 9.63-3.93 18.73-11.14 26.58-1.56 1.67-2.85 3.18-2.85 3.39 0 0.54 8.07 0.38 9.15-0.21 0.97-0.49 1.08-0.32 1.4 1.56 0.43 2.58 1.88 5.06 3.66 6.24 1.13 0.76 1.56 0.81 2.8 0.16 2.15-1.02 3.55-3.23 3.82-6.02 0.27-2.1 0.49-2.48 1.19-2.1 0.48 0.21 2.9 0.48 5.38 0.59l4.52 0.21-2.37-2.79c-4.47-5.28-5.92-7.27-7.7-10.77-2.47-4.79-3.5-8.56-3.93-14.26-0.16-2.69-0.53-5.38-0.75-6.08-0.54-1.46-1.88-1.56-2.64-0.16z"/>
<path d="m4.2875 375.78c-0.2692 0.59-0.5384 2.2-0.5384 3.66-0.0538 4.81-1.4369 10.3-3.3077 14.76 0.13229 6.86 0.34047 9.87-0.13776 16.56 0.43068 2.58 1.8843 5.06 3.6609 6.24 1.1305 0.76 1.5612 0.81 2.7994 0.17 2.1534-1.03 3.5531-3.23 3.8221-6.03 0.269-2.1 0.485-2.48 1.185-2.1 0.484 0.21 2.907 0.48 5.383 0.59l4.522 0.22-2.368-2.8c-4.469-5.28-5.922-7.27-7.699-10.77-2.4763-4.79-3.4992-8.55-3.9299-14.26-0.1615-2.69-0.5383-5.38-0.7537-6.08-0.5383-1.45-1.8842-1.56-2.6379-0.16z"/>
</g>
<path fill="#0091c8" d="m1050 523.04v176.96h-763.94v-187.82c0.75 3 12.45 6.69 20.73 9.69 15.05 5.24 16.18 5.24 30.86-4.5 19.95-13.11 32.37-12.74 54.95 1.5 33.87 21.36 42.9 21.73 53.06 3 7.53-14.61 24.46-14.61 53.44 0.37 12.42 6.37 25.22 11.24 28.98 11.24 3.39 0 11.66-5.99 18.06-13.11 14.3-16.49 22.58-15.36 59.46 6 29.73 17.61 39.9 18.73 42.91 4.12 4.14-18.36 7.52-21.36 24.84-21.36 10.53 0.37 26.34 4.87 42.52 12.36 13.93 6.75 28.23 11.99 30.86 11.99 3.01 0 6.4-5.24 7.9-11.61 1.13-6.37 6.03-13.86 10.17-16.86 10.16-6.37 20.69-3.75 53.81 13.11 33.12 16.49 42.53 14.99 42.53-7.12 0-6.74 7.15-11.24 18.06-11.24 3.39 0 17.31 6.75 31.24 15.36 30.11 17.99 38.39 17.99 41.02-0.37 2.63-18.73 15.05-19.11 47.42-2.25 24.12 13.12 51.12 18.41 51.12 10.54z"/>
<path stroke-linejoin="round" d="m293.07 522.59c0.76 3 8.66 7.5 16.94 10.49 15.05 5.25 16.18 5.25 30.86-4.49 19.94-13.12 32.36-12.74 54.94 1.5 33.87 21.35 42.91 21.73 53.07 2.99 7.53-14.61 24.46-14.61 53.44 0.38 12.42 6.37 25.21 11.24 28.98 11.24 3.38 0 11.66-6 18.06-13.11 14.3-16.49 22.58-15.37 59.46 5.99 29.73 17.61 39.89 18.74 42.91 4.12 4.13-18.36 7.52-21.36 24.83-21.36 10.54 0.38 26.35 4.88 42.53 12.37 13.92 6.74 28.23 11.99 30.86 11.99 3.01 0 6.4-5.25 7.9-11.62 1.13-6.37 6.02-13.86 10.16-16.86 10.17-6.37 20.7-3.74 53.82 13.12 33.12 16.48 42.53 14.99 42.53-7.12 0-6.75 7.15-11.24 18.06-11.24 3.39 0 17.31 6.74 31.24 15.36 30.1 17.99 38.38 17.99 41.02-0.37 2.63-18.74 15.05-19.11 47.42-2.25 24.1 13.11 46.7 17.61 46.7 9.74" stroke="#fff" stroke-linecap="round" stroke-width="8.762" fill="none"/>
<path stroke-linejoin="round" d="m289.92 513.3c0.75 3 8.66 7.49 16.94 10.49 15.05 5.24 16.18 5.24 30.86-4.5 19.94-13.11 32.36-12.74 54.94 1.5 33.87 21.36 42.9 21.73 53.07 3 7.52-14.61 24.46-14.61 53.44 0.37 12.41 6.37 25.21 11.24 28.97 11.24 3.39 0 11.67-5.99 18.07-13.11 14.3-16.49 22.58-15.36 59.46 6 29.73 17.61 39.89 18.73 42.9 4.12 4.14-18.36 7.53-21.36 24.84-21.36 10.54 0.37 26.34 4.87 42.53 12.36 13.92 6.75 28.22 11.99 30.86 11.99 3.01 0 6.39-5.24 7.9-11.61 1.13-6.37 6.02-13.86 10.16-16.86 10.16-6.37 20.7-3.75 53.82 13.11 33.12 16.49 42.52 14.99 42.52-7.12 0-6.74 7.15-11.24 18.07-11.24 3.39 0 17.31 6.75 31.23 15.36 30.11 17.99 38.39 17.99 41.03-0.37 2.63-18.73 15.05-19.11 47.41-2.25 24.06 13.12 46.66 17.61 46.66 9.74" stroke="#000" stroke-linecap="round" stroke-width="8.762" fill="none"/>
<g fill="#fff">
<path d="m359.15 574.34c-6.45 4.12-5.74 4.44 5.73 2.85 9.67-1.27 16.11 0.32 29.01 7.62 24.72 14.29 35.1 15.24 51.58 5.08 19.7-11.74 27.58-13.97 42.98-10.79 11.82 2.22 12.9 2.22 8.24-1.91-10.03-9.2-29.73-9.2-47.28 0-20.06 10.16-29.73 10.48-52.3 0.32-20.41-9.2-27.94-9.84-37.96-3.17z"/>
<path d="m728.8 583.86c-13.61 7.93-28.65 14.28-33.67 14.28-5.01 0-20.42-6.03-34.03-13.33-23.28-12.38-25.43-13.01-36.17-9.2-29.73 10.79-49.08 14.28-63.4 10.79-16.48-3.81-17.91-1.27-3.59 6.35 13.97 7.3 26.15 6.98 53.37-1.59 22.57-6.98 22.93-6.98 34.03-0.95 44.78 23.8 57.67 25.07 80.95 8.57 26.87-19.05 37.97-20.63 76.3-9.52 22.92 6.66 24.72 6.66 35.82 1.9l11.82-5.4h-14.69c-8.23-0.31-25.79-3.81-38.68-8.25-13.25-4.44-28.3-7.93-33.67-7.93-5.73 0-20.42 6.03-34.39 14.28z"/>
<path d="m939.42 582.27c-4.3 1.59-8.95 4.13-10.39 6.03-2.86 4.45-21.49 4.45-31.52 0-6.09-2.54-5.73-1.58 2.15 4.76 12.18 9.84 21.13 10.48 36.9 1.91 11.1-6.35 12.53-6.35 25.07-1.59 21.13 7.62 25.07 5.4 8.24-4.76-16.84-10.16-18.99-10.47-30.45-6.35z"/>
<path d="m826.95 623.54c-10.39 6.98-22.93 12.69-27.58 12.69-4.3 0-17.91-4.44-29.38-9.84l-21.49-10.15-13.61 6.98c-7.52 3.81-17.91 8.57-23.28 10.47-5.73 2.23-10.03 5.08-10.03 6.35 0 4.76 11.46 2.54 27.22-5.71 17.55-9.21 27.58-8.57 44.78 1.9 23.64 15.24 31.16 14.6 57.31-3.81 16.47-11.74 27.94-12.06 55.88-1.27 20.77 7.62 23.28 7.94 34.02 3.81l11.83-4.44-12.54-0.32c-6.81-0.32-22.93-4.76-35.1-9.84-12.54-5.39-26.51-9.52-30.81-9.52s-16.83 5.71-27.22 12.7z"/>
<path d="m533.59 625.12c-16.84 13.65-27.58 13.97-45.14 1.59-16.12-11.43-26.86-11.74-48.35-1.59-12.18 5.72-14.69 7.94-10.03 9.53 3.22 1.27 10.74-0.32 16.83-2.86 15.76-7.3 23.64-6.35 43.7 6.03 10.03 6.03 19.7 11.11 21.14 11.11 1.43 0 9.31-4.44 17.55-9.52 25.07-16.19 30.09-16.83 54.44-7.94 22.21 8.57 28.66 7.94 39.4-3.49 4.66-5.08 4.3-5.08-2.86-1.9-11.46 5.39-19.7 4.76-41.19-4.13-24.72-10.16-29.02-10.16-45.49 3.17z"/>
<path d="m338.01 646.07c-4.3 1.91-9.67 6.03-11.82 9.53-4.3 5.71-3.94 6.03 2.51 3.17 8.95-4.44 24.36-4.44 27.22 0 1.43 1.9 8.96 7.62 16.84 12.7 18.62 11.74 34.03 12.06 53.01 0.95 14.33-8.25 24-8.89 44.77-2.86 5.02 1.59 4.3-0.32-3.58-6.03-13.61-10.47-27.58-10.47-48.35 0-18.99 9.52-25.44 8.57-49.08-8.25-19.7-13.65-20.41-13.97-31.52-9.21z"/>
<path d="m594.12 660.36c-6.8 4.44-15.04 9.2-17.91 10.79-2.86 1.59-4.3 3.49-3.22 4.44 1.07 1.27 9.67-1.58 18.98-6.03 9.31-4.44 19.7-7.93 22.93-7.93 3.58 0 13.97 5.71 24 13.01 19.7 14.28 25.79 14.6 47.99 0.95 16.48-9.84 20.06-9.52 39.76 1.91 20.42 12.06 28.66 12.06 53.02-0.32 21.85-10.79 29.73-10.48 51.58 2.22 7.52 4.13 16.11 7.62 18.98 7.62 8.24 0 24-7.94 32.24-15.87l7.16-6.98-12.53 6.66c-16.84 8.89-27.23 8.25-48.36-2.86-22.57-11.74-29.02-11.74-48.72 0-20.05 11.75-30.44 12.07-50.14 0-20.06-11.74-30.45-12.06-48.36 0-17.55 11.75-21.85 11.75-37.25 0.64-14.69-10.79-26.51-16.51-32.96-16.51-2.5 0.32-10.38 3.81-17.19 8.26z"/>
</g>
<g transform="matrix(1 0 0 1.0074 2.777e-8 -2.5413)" fill-rule="evenodd">
<g>
<rect height="231.53" width="286" y="2.6223" x="0.248" fill="#dc241f"/>
<path d="m286.3 31.572l-0.26-29.049-34.74 0.3569-250.87 201.6-0.13274 29.67 35.003-0.15 251-202.43v0.002z" fill="#009543"/>
<path d="m0.29726 31.572l0.2532-29.049 34.742 0.3569 250.88 201.6 0.13 29.67-35.01-0.15-250.99-202.43-0.00274 0.002z" fill="#009543"/>
</g>
<rect transform="matrix(-.00077577 -1 1 -.00086824 0 0)" height="286.3" width="46.342" y="-.073923" x="-141.63" stroke-width="1.1977" fill="#fff"/>
<rect transform="matrix(1 -.00061331 .0010982 1 0 0)" height="231.89" width="47.48" y="2.6254" x="119.85" stroke-width="1.1977" fill="#fff"/>
</g>
</svg>
