<svg xmlns:rdf="http://www.w3.org/1999/02/22-rdf-syntax-ns#" xmlns="http://www.w3.org/2000/svg" height="480" width="640" version="1" y="0" x="0" xmlns:cc="http://creativecommons.org/ns#" xmlns:xlink="http://www.w3.org/1999/xlink" xmlns:dc="http://purl.org/dc/elements/1.1/">
<defs>
<linearGradient id="a" x1="359.59" gradientUnits="userSpaceOnUse" x2="4203.4" gradientTransform="matrix(.085350 0 0 .14208 -225.71 715.44)" y1="-5035.4" y2="-5035.4">
<stop offset="0"/>
<stop stop-color="#fff" offset="1"/>
</linearGradient>
<clipPath id="b" clipPathUnits="userSpaceOnUse">
<rect fill-opacity=".67" height="512" width="682.67" y=".0000053048" x="-72.352"/>
</clipPath>
</defs>
<g transform="matrix(.9375 0 0 .9375 67.83 -.0000049733)" clip-path="url(#b)">
<rect height="511.87" width="307.43" stroke="url(#a)" y=".064535" x="-114.94" stroke-width=".11012pt" fill="#090"/>
<rect fill-rule="evenodd" height="512" width="461.15" y="-.0000025034" x="191.82" stroke-width="1pt" fill="#f00"/>
<g stroke-width="1pt" transform="matrix(.10329 0 0 .10306 23.562 74.592)" fill-rule="evenodd">
<g transform="matrix(-.053403 1.0792 .43966 -.043588 1384.9 -475.58)">
<rect y="376.91" width="171.54" x="1528.3" height="2824.2"/>
<rect height="2768.8" width="131.37" y="404.6" x="1548.3" fill="#efef00"/>
<g transform="translate(9.3838 -.000030518)">
<rect y="357.96" width="56.303" x="1482.6" height="2852.7"/>
<rect height="2802" width="15.952" y="383.29" x="1502.8" fill="#efef00"/>
</g>
<g transform="translate(197.06 -.000030518)">
<rect y="357.96" width="56.303" x="1482.6" height="2852.7"/>
<rect height="2802" width="15.952" y="383.29" x="1502.8" fill="#efef00"/>
</g>
</g>
<g transform="matrix(-.053403 1.0792 .43966 -.043588 1572.6 115.61)">
<rect y="376.91" width="171.54" x="1528.3" height="2824.2"/>
<rect height="2768.8" width="131.37" y="404.6" x="1548.3" fill="#efef00"/>
<g transform="translate(9.3838 -.000030518)">
<rect y="357.96" width="56.303" x="1482.6" height="2852.7"/>
<rect height="2802" width="15.952" y="383.29" x="1502.8" fill="#efef00"/>
</g>
<g transform="translate(197.06 -.000030518)">
<rect y="357.96" width="56.303" x="1482.6" height="2852.7"/>
<rect height="2802" width="15.952" y="383.29" x="1502.8" fill="#efef00"/>
</g>
</g>
<g transform="matrix(-.053403 1.0792 .43966 -.043588 1497.5 781.86)">
<rect y="376.91" width="171.54" x="1528.3" height="2824.2"/>
<rect height="2768.8" width="131.37" y="404.6" x="1548.3" fill="#efef00"/>
<g transform="translate(9.3838 -.000030518)">
<rect y="357.96" width="56.303" x="1482.6" height="2852.7"/>
<rect height="2802" width="15.952" y="383.29" x="1502.8" fill="#efef00"/>
</g>
<g transform="translate(197.06 -.000030518)">
<rect y="357.96" width="56.303" x="1482.6" height="2852.7"/>
<rect height="2802" width="15.952" y="383.29" x="1502.8" fill="#efef00"/>
</g>
</g>
<g transform="matrix(.053403 1.0792 -.43966 -.043588 1815 734.94)">
<rect y="376.91" width="171.54" x="1528.3" height="2824.2"/>
<rect height="2768.8" width="131.37" y="404.6" x="1548.3" fill="#efef00"/>
<g transform="translate(9.3838 -.000030518)">
<rect y="357.96" width="56.303" x="1482.6" height="2852.7"/>
<rect height="2802" width="15.952" y="383.29" x="1502.8" fill="#efef00"/>
</g>
<g transform="translate(197.06 -.000030518)">
<rect y="357.96" width="56.303" x="1482.6" height="2852.7"/>
<rect height="2802" width="15.952" y="383.29" x="1502.8" fill="#efef00"/>
</g>
</g>
<g transform="matrix(-.31852 .97312 -.46881 -.050001 2307.7 363.88)">
<rect y="376.91" width="171.54" x="1528.3" height="2824.2"/>
<rect height="2768.8" width="131.37" y="404.6" x="1548.3" fill="#efef00"/>
<g transform="translate(9.3838 -.000030518)">
<rect y="357.96" width="56.303" x="1482.6" height="2852.7"/>
<rect height="2802" width="15.952" y="383.29" x="1502.8" fill="#efef00"/>
</g>
<g transform="translate(197.06 -.000030518)">
<rect y="357.96" width="56.303" x="1482.6" height="2852.7"/>
<rect height="2802" width="15.952" y="383.29" x="1502.8" fill="#efef00"/>
</g>
</g>
<g transform="matrix(-.78495 .83247 -.34476 -.23585 2811.1 622.21)">
<rect y="376.91" width="171.54" x="1528.3" height="2824.2"/>
<rect height="2768.8" width="131.37" y="404.6" x="1548.3" fill="#efef00"/>
<g transform="translate(9.3838 -.000030518)">
<rect y="357.96" width="56.303" x="1482.6" height="2852.7"/>
<rect height="2802" width="15.952" y="383.29" x="1502.8" fill="#efef00"/>
</g>
<g transform="translate(197.06 -.000030518)">
<rect y="357.96" width="56.303" x="1482.6" height="2852.7"/>
<rect height="2802" width="15.952" y="383.29" x="1502.8" fill="#efef00"/>
</g>
</g>
<g transform="translate(3443.9 797.63)">
<path fill-opacity=".99967" fill="#efef00" transform="translate(-149.86 1690.5)" d="m-576.02-680.03c0.472 617.58-500.34 1118.8-1117.9 1118.8-617.58 0.981-1119.2-499.44-1119.7-1117-1.49-617.6 498.53-1119.6 1116.1-1120.6 617.58-1.96 1120 497.67 1121.5 1115.2 0.026 1.253 0.026 2.31 0.026 3.564zm262.44-0.001c0.582 762.45-617.7 1381.2-1380.1 1381.2-762.44 1.211-1381.8-616.6-1382.3-1379-1.85-762.47 615.47-1382.2 1377.9-1383.4 762.45-2.42 1382.7 614.41 1384.5 1376.8 0.032 1.547 0.032 2.852 0.032 4.399z"/>
<path transform="matrix(.98 0 0 .98 -781.88 -1562.1)" d="m296.75 2625.1c0.582 762.45-617.7 1381.2-1380.1 1381.2-762.45 1.21-1381.8-616.6-1382.4-1379-1.84-762.46 615.48-1382.2 1378-1383.4 762.45-2.42 1382.7 614.41 1384.5 1376.8 0.032 1.55 0.032 2.86 0.032 4.4zm-27.624 0c0.57 747.2-605.35 1353.6-1352.5 1353.6-747.2 1.18-1354.1-604.27-1354.7-1351.5-1.81-747.21 603.16-1354.6 1350.4-1355.8 747.2-2.38 1355 602.11 1356.8 1349.3 0.032 1.52 0.032 2.8 0.032 4.31z"/>
<path transform="matrix(.85016 0 0 .85016 -922.69 -1221.3)" d="m296.75 2625.1c0.582 762.45-617.7 1381.2-1380.1 1381.2-762.45 1.21-1381.8-616.6-1382.4-1379-1.84-762.46 615.48-1382.2 1378-1383.4 762.45-2.42 1382.7 614.41 1384.5 1376.8 0.032 1.55 0.032 2.86 0.032 4.4zm-27.624 0c0.57 747.2-605.35 1353.6-1352.5 1353.6-747.2 1.18-1354.1-604.27-1354.7-1351.5-1.81-747.21 603.16-1354.6 1350.4-1355.8 747.2-2.38 1355 602.11 1356.8 1349.3 0.032 1.52 0.032 2.8 0.032 4.31z"/>
</g>
<g transform="matrix(1 0 0 .98355 9.3838 52.807)">
<rect y="376.91" width="171.54" x="1528.3" height="2824.2"/>
<rect height="2768.8" width="131.37" y="404.6" x="1548.3" fill="#efef00"/>
<g transform="translate(9.3838 -.000030518)">
<rect y="357.96" width="56.303" x="1482.6" height="2852.7"/>
<rect height="2802" width="15.952" y="383.29" x="1502.8" fill="#efef00"/>
</g>
<g transform="translate(197.06 -.000030518)">
<rect y="357.96" width="56.303" x="1482.6" height="2852.7"/>
<rect height="2802" width="15.952" y="383.29" x="1502.8" fill="#efef00"/>
</g>
</g>
<g transform="matrix(.37140 1.0146 -.43278 .088917 1148.7 461.89)">
<rect y="376.91" width="171.54" x="1528.3" height="2824.2"/>
<rect height="2768.8" width="131.37" y="404.6" x="1548.3" fill="#efef00"/>
<g transform="translate(9.3838 -.000030518)">
<rect y="357.96" width="56.303" x="1482.6" height="2852.7"/>
<rect height="2802" width="15.952" y="383.29" x="1502.8" fill="#efef00"/>
</g>
<g transform="translate(197.06 -.000030518)">
<rect y="357.96" width="56.303" x="1482.6" height="2852.7"/>
<rect height="2802" width="15.952" y="383.29" x="1502.8" fill="#efef00"/>
</g>
</g>
<g transform="matrix(.048179 1.0353 -.45375 .049280 1585.8 -73.118)">
<rect y="376.91" width="171.54" x="1528.3" height="2824.2"/>
<rect height="2768.8" width="131.37" y="404.6" x="1548.3" fill="#efef00"/>
<g transform="translate(9.3838 -.000030518)">
<rect y="357.96" width="56.303" x="1482.6" height="2852.7"/>
<rect height="2802" width="15.952" y="383.29" x="1502.8" fill="#efef00"/>
</g>
<g transform="translate(197.06 -.000030518)">
<rect y="357.96" width="56.303" x="1482.6" height="2852.7"/>
<rect height="2802" width="15.952" y="383.29" x="1502.8" fill="#efef00"/>
</g>
</g>
<g transform="matrix(-.61913 .96221 -.38214 -.16868 2610.1 86.531)">
<rect y="376.91" width="171.54" x="1528.3" height="2824.2"/>
<rect height="2768.8" width="131.37" y="404.6" x="1548.3" fill="#efef00"/>
<g transform="translate(9.3838 -.000030518)">
<rect y="357.96" width="56.303" x="1482.6" height="2852.7"/>
<rect height="2802" width="15.952" y="383.29" x="1502.8" fill="#efef00"/>
</g>
<g transform="translate(197.06 -.000030518)">
<rect y="357.96" width="56.303" x="1482.6" height="2852.7"/>
<rect height="2802" width="15.952" y="383.29" x="1502.8" fill="#efef00"/>
</g>
</g>
<g transform="matrix(-.013401 1.0347 -.45603 -.022150 3190.7 -29.14)">
<rect y="376.91" width="171.54" x="1528.3" height="2824.2"/>
<rect height="2768.8" width="131.37" y="404.6" x="1548.3" fill="#efef00"/>
<g transform="translate(9.3838 -.000030518)">
<rect y="357.96" width="56.303" x="1482.6" height="2852.7"/>
<rect height="2802" width="15.952" y="383.29" x="1502.8" fill="#efef00"/>
</g>
<g transform="translate(197.06 -.000030518)">
<rect y="357.96" width="56.303" x="1482.6" height="2852.7"/>
<rect height="2802" width="15.952" y="383.29" x="1502.8" fill="#efef00"/>
</g>
</g>
<g transform="matrix(.29417 .92656 -.37653 -.011881 2458.6 -379.7)">
<rect y="376.91" width="171.54" x="1528.3" height="2824.2"/>
<rect height="2768.8" width="131.37" y="404.6" x="1548.3" fill="#efef00"/>
<g transform="translate(9.3838 -.000030518)">
<rect y="357.96" width="56.303" x="1482.6" height="2852.7"/>
<rect height="2802" width="15.952" y="383.29" x="1502.8" fill="#efef00"/>
</g>
<g transform="translate(197.06 -.000030518)">
<rect y="357.96" width="56.303" x="1482.6" height="2852.7"/>
<rect height="2802" width="15.952" y="383.29" x="1502.8" fill="#efef00"/>
</g>
</g>
<g transform="matrix(-.44645 .96157 -.41974 -.15349 3749.8 876.84)">
<rect y="376.91" width="171.54" x="1528.3" height="2824.2"/>
<rect height="2768.8" width="131.37" y="404.6" x="1548.3" fill="#efef00"/>
<g transform="translate(9.3838 -.000030518)">
<rect y="357.96" width="56.303" x="1482.6" height="2852.7"/>
<rect height="2802" width="15.952" y="383.29" x="1502.8" fill="#efef00"/>
</g>
<g transform="translate(197.06 -.000030518)">
<rect y="357.96" width="56.303" x="1482.6" height="2852.7"/>
<rect height="2802" width="15.952" y="383.29" x="1502.8" fill="#efef00"/>
</g>
</g>
<g transform="translate(388.6 -627.37)">
<g fill="#f6f6fb" transform="translate(1261.6 8670.4)">
<rect y="-7147" width="1590.9" x="-850.89" height="1171.1"/>
<ellipse d="m 3601.6224,4267.3076 c 0,384.4008 -331.4036,696.0192 -740.2108,696.0192 -408.8071,0 -740.2108,-311.6184 -740.2108,-696.0192 0,-384.4008 331.4037,-696.0191 740.2108,-696.0191 408.8072,0 740.2108,311.6183 740.2108,696.0191 z" rx="740.21" ry="696.02" transform="matrix(1.0746 0 0 1.0635 -3130.4 -10547)" cy="4267.3" cx="2861.4"/>
<g transform="translate(-5963.8 -3463.6)">
<rect y="-3340.7" width="859.09" x="5478.8" height="632.38"/>
<ellipse d="m 3601.6224,4267.3076 c 0,384.4008 -331.4036,696.0192 -740.2108,696.0192 -408.8071,0 -740.2108,-311.6184 -740.2108,-696.0192 0,-384.4008 331.4037,-696.0191 740.2108,-696.0191 408.8072,0 740.2108,311.6183 740.2108,696.0191 z" rx="740.21" ry="696.02" transform="matrix(.58030 0 0 .57429 4247.9 -5088.5)" cy="4267.3" cx="2861.4"/>
</g>
</g>
<g transform="translate(-4610.5 4587.5)">
<g fill="#f00" transform="matrix(.95 0 0 .95 5869.2 3772.5)">
<rect y="-7147" width="1590.9" x="-850.89" height="1171.1"/>
<ellipse d="m 3601.6224,4267.3076 c 0,384.4008 -331.4036,696.0192 -740.2108,696.0192 -408.8071,0 -740.2108,-311.6184 -740.2108,-696.0192 0,-384.4008 331.4037,-696.0191 740.2108,-696.0191 408.8072,0 740.2108,311.6183 740.2108,696.0191 z" rx="740.21" ry="696.02" transform="matrix(1.0746 0 0 1.0635 -3130.4 -10547)" cy="4267.3" cx="2861.4"/>
<g transform="translate(-5963.8 -3463.6)">
<rect y="-3340.7" width="859.09" x="5478.8" height="632.38"/>
<ellipse d="m 3601.6224,4267.3076 c 0,384.4008 -331.4036,696.0192 -740.2108,696.0192 -408.8071,0 -740.2108,-311.6184 -740.2108,-696.0192 0,-384.4008 331.4037,-696.0191 740.2108,-696.0191 408.8072,0 740.2108,311.6183 740.2108,696.0191 z" rx="740.21" ry="696.02" transform="matrix(.58030 0 0 .57429 4247.9 -5088.5)" cy="4267.3" cx="2861.4"/>
</g>
</g>
<g fill="#400" transform="matrix(.567 0 0 .567 5848 1394.8)">
<rect y="-7147" width="1590.9" x="-850.89" height="1171.1"/>
<ellipse d="m 3601.6224,4267.3076 c 0,384.4008 -331.4036,696.0192 -740.2108,696.0192 -408.8071,0 -740.2108,-311.6184 -740.2108,-696.0192 0,-384.4008 331.4037,-696.0191 740.2108,-696.0191 408.8072,0 740.2108,311.6183 740.2108,696.0191 z" rx="740.21" ry="696.02" transform="matrix(1.0746 0 0 1.0635 -3130.4 -10547)" cy="4267.3" cx="2861.4"/>
<g transform="translate(-5963.8 -3463.6)">
<rect y="-3340.7" width="859.09" x="5478.8" height="632.38"/>
<ellipse d="m 3601.6224,4267.3076 c 0,384.4008 -331.4036,696.0192 -740.2108,696.0192 -408.8071,0 -740.2108,-311.6184 -740.2108,-696.0192 0,-384.4008 331.4037,-696.0191 740.2108,-696.0191 408.8072,0 740.2108,311.6183 740.2108,696.0191 z" rx="740.21" ry="696.02" transform="matrix(.58030 0 0 .57429 4247.9 -5088.5)" cy="4267.3" cx="2861.4"/>
</g>
</g>
<g fill="#fff" transform="matrix(.51172 0 0 .51172 5844.9 1051.6)">
<rect y="-7147" width="1590.9" x="-850.89" height="1171.1"/>
<ellipse d="m 3601.6224,4267.3076 c 0,384.4008 -331.4036,696.0192 -740.2108,696.0192 -408.8071,0 -740.2108,-311.6184 -740.2108,-696.0192 0,-384.4008 331.4037,-696.0191 740.2108,-696.0191 408.8072,0 740.2108,311.6183 740.2108,696.0191 z" rx="740.21" ry="696.02" transform="matrix(1.0746 0 0 1.0635 -3130.4 -10547)" cy="4267.3" cx="2861.4"/>
<g transform="translate(-5963.8 -3463.6)">
<rect y="-3340.7" width="859.09" x="5478.8" height="632.38"/>
<ellipse d="m 3601.6224,4267.3076 c 0,384.4008 -331.4036,696.0192 -740.2108,696.0192 -408.8071,0 -740.2108,-311.6184 -740.2108,-696.0192 0,-384.4008 331.4037,-696.0191 740.2108,-696.0191 408.8072,0 740.2108,311.6183 740.2108,696.0191 z" rx="740.21" ry="696.02" transform="matrix(.58030 0 0 .57429 4247.9 -5088.5)" cy="4267.3" cx="2861.4"/>
</g>
</g>
</g>
</g>
<g transform="translate(-1370 3907.3)">
<g fill="#3b3bff" transform="matrix(.15 0 0 .15 2790 -2140.7)">
<g transform="translate(1261.6 8670.4)">
<rect y="-7147" width="1590.9" x="-850.89" height="1171.1"/>
<ellipse d="m 3601.6224,4267.3076 c 0,384.4008 -331.4036,696.0192 -740.2108,696.0192 -408.8071,0 -740.2108,-311.6184 -740.2108,-696.0192 0,-384.4008 331.4037,-696.0191 740.2108,-696.0191 408.8072,0 740.2108,311.6183 740.2108,696.0191 z" rx="740.21" ry="696.02" transform="matrix(1.0746 0 0 1.0635 -3130.4 -10547)" cy="4267.3" cx="2861.4"/>
<g transform="translate(-5963.8 -3463.6)">
<rect y="-3340.7" width="859.09" x="5478.8" height="632.38"/>
<ellipse d="m 3601.6224,4267.3076 c 0,384.4008 -331.4036,696.0192 -740.2108,696.0192 -408.8071,0 -740.2108,-311.6184 -740.2108,-696.0192 0,-384.4008 331.4037,-696.0191 740.2108,-696.0191 408.8072,0 740.2108,311.6183 740.2108,696.0191 z" rx="740.21" ry="696.02" transform="matrix(.58030 0 0 .57429 4247.9 -5088.5)" cy="4267.3" cx="2861.4"/>
</g>
</g>
<g transform="translate(-4610.5 4587.5)">
<g transform="matrix(.95 0 0 .95 5869.2 3772.5)">
<rect y="-7147" width="1590.9" x="-850.89" height="1171.1"/>
<ellipse d="m 3601.6224,4267.3076 c 0,384.4008 -331.4036,696.0192 -740.2108,696.0192 -408.8071,0 -740.2108,-311.6184 -740.2108,-696.0192 0,-384.4008 331.4037,-696.0191 740.2108,-696.0191 408.8072,0 740.2108,311.6183 740.2108,696.0191 z" rx="740.21" ry="696.02" transform="matrix(1.0746 0 0 1.0635 -3130.4 -10547)" cy="4267.3" cx="2861.4"/>
<g transform="translate(-5963.8 -3463.6)">
<rect y="-3340.7" width="859.09" x="5478.8" height="632.38"/>
<ellipse d="m 3601.6224,4267.3076 c 0,384.4008 -331.4036,696.0192 -740.2108,696.0192 -408.8071,0 -740.2108,-311.6184 -740.2108,-696.0192 0,-384.4008 331.4037,-696.0191 740.2108,-696.0191 408.8072,0 740.2108,311.6183 740.2108,696.0191 z" rx="740.21" ry="696.02" transform="matrix(.58030 0 0 .57429 4247.9 -5088.5)" cy="4267.3" cx="2861.4"/>
</g>
</g>
<g transform="matrix(.567 0 0 .567 5848 1394.8)">
<rect y="-7147" width="1590.9" x="-850.89" height="1171.1"/>
<ellipse d="m 3601.6224,4267.3076 c 0,384.4008 -331.4036,696.0192 -740.2108,696.0192 -408.8071,0 -740.2108,-311.6184 -740.2108,-696.0192 0,-384.4008 331.4037,-696.0191 740.2108,-696.0191 408.8072,0 740.2108,311.6183 740.2108,696.0191 z" rx="740.21" ry="696.02" transform="matrix(1.0746 0 0 1.0635 -3130.4 -10547)" cy="4267.3" cx="2861.4"/>
<g transform="translate(-5963.8 -3463.6)">
<rect y="-3340.7" width="859.09" x="5478.8" height="632.38"/>
<ellipse d="m 3601.6224,4267.3076 c 0,384.4008 -331.4036,696.0192 -740.2108,696.0192 -408.8071,0 -740.2108,-311.6184 -740.2108,-696.0192 0,-384.4008 331.4037,-696.0191 740.2108,-696.0191 408.8072,0 740.2108,311.6183 740.2108,696.0191 z" rx="740.21" ry="696.02" transform="matrix(.58030 0 0 .57429 4247.9 -5088.5)" cy="4267.3" cx="2861.4"/>
</g>
</g>
<g transform="matrix(.51172 0 0 .51172 5844.9 1051.6)">
<rect y="-7147" width="1590.9" x="-850.89" height="1171.1"/>
<ellipse d="m 3601.6224,4267.3076 c 0,384.4008 -331.4036,696.0192 -740.2108,696.0192 -408.8071,0 -740.2108,-311.6184 -740.2108,-696.0192 0,-384.4008 331.4037,-696.0191 740.2108,-696.0191 408.8072,0 740.2108,311.6183 740.2108,696.0191 z" rx="740.21" ry="696.02" transform="matrix(1.0746 0 0 1.0635 -3130.4 -10547)" cy="4267.3" cx="2861.4"/>
<g transform="translate(-5963.8 -3463.6)">
<rect y="-3340.7" width="859.09" x="5478.8" height="632.38"/>
<ellipse d="m 3601.6224,4267.3076 c 0,384.4008 -331.4036,696.0192 -740.2108,696.0192 -408.8071,0 -740.2108,-311.6184 -740.2108,-696.0192 0,-384.4008 331.4037,-696.0191 740.2108,-696.0191 408.8072,0 740.2108,311.6183 740.2108,696.0191 z" rx="740.21" ry="696.02" transform="matrix(.58030 0 0 .57429 4247.9 -5088.5)" cy="4267.3" cx="2861.4"/>
</g>
</g>
</g>
</g>
<g fill="#fff">
<ellipse d="m 2938.7051,-1854.9092 c 0,19.71 -15.9781,35.6881 -35.688,35.6881 -19.7099,0 -35.688,-15.9781 -35.688,-35.6881 0,-19.7099 15.9781,-35.688 35.688,-35.688 19.7099,0 35.688,15.9781 35.688,35.688 z" rx="35.688" transform="translate(-3.7817 -7.5629)" ry="35.688" cy="-1854.9" cx="2903"/>
<ellipse d="m 2938.7051,-1854.9092 c 0,19.71 -15.9781,35.6881 -35.688,35.6881 -19.7099,0 -35.688,-15.9781 -35.688,-35.6881 0,-19.7099 15.9781,-35.688 35.688,-35.688 19.7099,0 35.688,15.9781 35.688,35.688 z" rx="35.688" transform="translate(129.99 -7.5629)" ry="35.688" cy="-1854.9" cx="2903"/>
<ellipse d="m 2938.7051,-1854.9092 c 0,19.71 -15.9781,35.6881 -35.688,35.6881 -19.7099,0 -35.688,-15.9781 -35.688,-35.6881 0,-19.7099 15.9781,-35.688 35.688,-35.688 19.7099,0 35.688,15.9781 35.688,35.688 z" rx="35.688" transform="translate(61.922 67.595)" ry="35.688" cy="-1854.9" cx="2903"/>
<ellipse d="m 2938.7051,-1854.9092 c 0,19.71 -15.9781,35.6881 -35.688,35.6881 -19.7099,0 -35.688,-15.9781 -35.688,-35.6881 0,-19.7099 15.9781,-35.688 35.688,-35.688 19.7099,0 35.688,15.9781 35.688,35.688 z" rx="35.688" transform="translate(1.4179 140.39)" ry="35.688" cy="-1854.9" cx="2903"/>
<ellipse d="m 2938.7051,-1854.9092 c 0,19.71 -15.9781,35.6881 -35.688,35.6881 -19.7099,0 -35.688,-15.9781 -35.688,-35.6881 0,-19.7099 15.9781,-35.688 35.688,-35.688 19.7099,0 35.688,15.9781 35.688,35.688 z" rx="35.688" transform="translate(128.57 142.75)" ry="35.688" cy="-1854.9" cx="2903"/>
</g>
</g>
<path transform="translate(1296.7 561.41)" fill="#ff0" d="m-433.9 545.04v22.689h302.52v-22.689h-302.52zm26.249-62.601v63.152h257.14v-63.152h-257.14zm-22.688 207.62v22.692h302.52v-22.692h-302.52zm81.069-7.017c-0.031-41.191 31.622-74.621 70.654-74.621 39.033-0.066 70.737 33.311 70.768 74.502 0 0.327-0.001 0.602-0.004 0.928m-149.28 3.292c-0.034-45.769 35.136-82.913 78.505-82.913 43.37-0.073 78.596 37.012 78.63 82.78 0.001 0.363 0 0.669-0.004 1.031m-207.65-114.09v113.44h257.14v-113.44h-257.14zm-26.26-113.15v21.46h302.52v-21.46h-302.52zm-0.027-30.268v30.484h23.308v-30.484h-23.308zm279.36 0v30.484h23.308v-30.484h-23.308zm-232.9 0.612v30.484h23.308v-30.484h-23.308zm185.22-0.618v30.484h23.308v-30.484h-23.308zm-139.99-28.725v30.484h23.308v-30.484h-23.308zm92.917-0.006v30.484h23.308v-30.484h-23.308zm-45.236-0.612v30.484h23.308v-30.484h-23.308zm-47.745 31.32v29.144h116.15v-29.144h-116.15z"/>
<g transform="translate(1302.4 561.96)" fill="#f00">
<rect y="477.6" width="23.308" x="-348.96" height="30.484"/>
<rect y="476.98" width="23.308" x="-244.43" height="30.484"/>
</g>
<path transform="translate(2457.9 565.04)" fill="#ff0" d="m-433.9 545.04v22.689h302.52v-22.689h-302.52zm26.249-62.601v63.152h257.14v-63.152h-257.14zm-22.688 207.62v22.692h302.52v-22.692h-302.52zm81.069-7.017c-0.031-41.191 31.622-74.621 70.654-74.621 39.033-0.066 70.737 33.311 70.768 74.502 0 0.327-0.001 0.602-0.004 0.928m-149.28 3.292c-0.034-45.769 35.136-82.913 78.505-82.913 43.37-0.073 78.596 37.012 78.63 82.78 0.001 0.363 0 0.669-0.004 1.031m-207.65-114.09v113.44h257.14v-113.44h-257.14zm-26.26-113.15v21.46h302.52v-21.46h-302.52zm-0.027-30.268v30.484h23.308v-30.484h-23.308zm279.36 0v30.484h23.308v-30.484h-23.308zm-232.9 0.612v30.484h23.308v-30.484h-23.308zm185.22-0.618v30.484h23.308v-30.484h-23.308zm-139.99-28.725v30.484h23.308v-30.484h-23.308zm92.917-0.006v30.484h23.308v-30.484h-23.308zm-45.236-0.612v30.484h23.308v-30.484h-23.308zm-47.745 31.32v29.144h116.15v-29.144h-116.15z"/>
<g transform="translate(2463.5 565.59)" fill="#f00">
<rect y="477.6" width="23.308" x="-348.96" height="30.484"/>
<rect y="476.98" width="23.308" x="-244.43" height="30.484"/>
</g>
<path transform="translate(1888.2 565.04)" fill="#ff0" d="m-433.9 545.04v22.689h302.52v-22.689h-302.52zm26.249-62.601v63.152h257.14v-63.152h-257.14zm-22.688 207.62v22.692h302.52v-22.692h-302.52zm81.069-7.017c-0.031-41.191 31.622-74.621 70.654-74.621 39.033-0.066 70.737 33.311 70.768 74.502 0 0.327-0.001 0.602-0.004 0.928m-149.28 3.292c-0.034-45.769 35.136-82.913 78.505-82.913 43.37-0.073 78.596 37.012 78.63 82.78 0.001 0.363 0 0.669-0.004 1.031m-207.65-114.09v113.44h257.14v-113.44h-257.14zm-26.26-113.15v21.46h302.52v-21.46h-302.52zm-0.027-30.268v30.484h23.308v-30.484h-23.308zm279.36 0v30.484h23.308v-30.484h-23.308zm-232.9 0.612v30.484h23.308v-30.484h-23.308zm185.22-0.618v30.484h23.308v-30.484h-23.308zm-139.99-28.725v30.484h23.308v-30.484h-23.308zm92.917-0.006v30.484h23.308v-30.484h-23.308zm-45.236-0.612v30.484h23.308v-30.484h-23.308zm-47.745 31.32v29.144h116.15v-29.144h-116.15z"/>
<g transform="translate(1893.8 565.59)" fill="#f00">
<rect y="477.6" width="23.308" x="-348.96" height="30.484"/>
<rect y="476.98" width="23.308" x="-244.43" height="30.484"/>
</g>
<path transform="translate(1271.3 1272.6)" fill="#ff0" d="m-433.9 545.04v22.689h302.52v-22.689h-302.52zm26.249-62.601v63.152h257.14v-63.152h-257.14zm-22.688 207.62v22.692h302.52v-22.692h-302.52zm81.069-7.017c-0.031-41.191 31.622-74.621 70.654-74.621 39.033-0.066 70.737 33.311 70.768 74.502 0 0.327-0.001 0.602-0.004 0.928m-149.28 3.292c-0.034-45.769 35.136-82.913 78.505-82.913 43.37-0.073 78.596 37.012 78.63 82.78 0.001 0.363 0 0.669-0.004 1.031m-207.65-114.09v113.44h257.14v-113.44h-257.14zm-26.26-113.15v21.46h302.52v-21.46h-302.52zm-0.027-30.268v30.484h23.308v-30.484h-23.308zm279.36 0v30.484h23.308v-30.484h-23.308zm-232.9 0.612v30.484h23.308v-30.484h-23.308zm185.22-0.618v30.484h23.308v-30.484h-23.308zm-139.99-28.725v30.484h23.308v-30.484h-23.308zm92.917-0.006v30.484h23.308v-30.484h-23.308zm-45.236-0.612v30.484h23.308v-30.484h-23.308zm-47.745 31.32v29.144h116.15v-29.144h-116.15z"/>
<g transform="translate(1277 1273.2)" fill="#f00">
<rect y="477.6" width="23.308" x="-348.96" height="30.484"/>
<rect y="476.98" width="23.308" x="-244.43" height="30.484"/>
</g>
<path transform="translate(2479.7 1265.4)" fill="#ff0" d="m-433.9 545.04v22.689h302.52v-22.689h-302.52zm26.249-62.601v63.152h257.14v-63.152h-257.14zm-22.688 207.62v22.692h302.52v-22.692h-302.52zm81.069-7.017c-0.031-41.191 31.622-74.621 70.654-74.621 39.033-0.066 70.737 33.311 70.768 74.502 0 0.327-0.001 0.602-0.004 0.928m-149.28 3.292c-0.034-45.769 35.136-82.913 78.505-82.913 43.37-0.073 78.596 37.012 78.63 82.78 0.001 0.363 0 0.669-0.004 1.031m-207.65-114.09v113.44h257.14v-113.44h-257.14zm-26.26-113.15v21.46h302.52v-21.46h-302.52zm-0.027-30.268v30.484h23.308v-30.484h-23.308zm279.36 0v30.484h23.308v-30.484h-23.308zm-232.9 0.612v30.484h23.308v-30.484h-23.308zm185.22-0.618v30.484h23.308v-30.484h-23.308zm-139.99-28.725v30.484h23.308v-30.484h-23.308zm92.917-0.006v30.484h23.308v-30.484h-23.308zm-45.236-0.612v30.484h23.308v-30.484h-23.308zm-47.745 31.32v29.144h116.15v-29.144h-116.15z"/>
<g transform="translate(2485.3 1265.9)" fill="#f00">
<rect y="477.6" width="23.308" x="-348.96" height="30.484"/>
<rect y="476.98" width="23.308" x="-244.43" height="30.484"/>
</g>
<path transform="matrix(.65276 -.75757 .75757 .65276 969.57 1819.3)" fill="#ff0" d="m-433.9 545.04v22.689h302.52v-22.689h-302.52zm26.249-62.601v63.152h257.14v-63.152h-257.14zm-22.688 207.62v22.692h302.52v-22.692h-302.52zm81.069-7.017c-0.031-41.191 31.622-74.621 70.654-74.621 39.033-0.066 70.737 33.311 70.768 74.502 0 0.327-0.001 0.602-0.004 0.928m-149.28 3.292c-0.034-45.769 35.136-82.913 78.505-82.913 43.37-0.073 78.596 37.012 78.63 82.78 0.001 0.363 0 0.669-0.004 1.031m-207.65-114.09v113.44h257.14v-113.44h-257.14zm-26.26-113.15v21.46h302.52v-21.46h-302.52zm-0.027-30.268v30.484h23.308v-30.484h-23.308zm279.36 0v30.484h23.308v-30.484h-23.308zm-232.9 0.612v30.484h23.308v-30.484h-23.308zm185.22-0.618v30.484h23.308v-30.484h-23.308zm-139.99-28.725v30.484h23.308v-30.484h-23.308zm92.917-0.006v30.484h23.308v-30.484h-23.308zm-45.236-0.612v30.484h23.308v-30.484h-23.308zm-47.745 31.32v29.144h116.15v-29.144h-116.15z"/>
<g transform="matrix(.65276 -.75757 .75757 .65276 973.66 1815.4)" fill="#f00">
<rect y="477.6" width="23.308" x="-348.96" height="30.484"/>
<rect y="476.98" width="23.308" x="-244.43" height="30.484"/>
</g>
<path transform="matrix(-.65276 -.75757 -.75757 .65276 2231 1815.7)" fill="#ff0" d="m-433.9 545.04v22.689h302.52v-22.689h-302.52zm26.249-62.601v63.152h257.14v-63.152h-257.14zm-22.688 207.62v22.692h302.52v-22.692h-302.52zm81.069-7.017c-0.031-41.191 31.622-74.621 70.654-74.621 39.033-0.066 70.737 33.311 70.768 74.502 0 0.327-0.001 0.602-0.004 0.928m-149.28 3.292c-0.034-45.769 35.136-82.913 78.505-82.913 43.37-0.073 78.596 37.012 78.63 82.78 0.001 0.363 0 0.669-0.004 1.031m-207.65-114.09v113.44h257.14v-113.44h-257.14zm-26.26-113.15v21.46h302.52v-21.46h-302.52zm-0.027-30.268v30.484h23.308v-30.484h-23.308zm279.36 0v30.484h23.308v-30.484h-23.308zm-232.9 0.612v30.484h23.308v-30.484h-23.308zm185.22-0.618v30.484h23.308v-30.484h-23.308zm-139.99-28.725v30.484h23.308v-30.484h-23.308zm92.917-0.006v30.484h23.308v-30.484h-23.308zm-45.236-0.612v30.484h23.308v-30.484h-23.308zm-47.745 31.32v29.144h116.15v-29.144h-116.15z"/>
<g transform="matrix(-.65276 -.75757 -.75757 .65276 2226.9 1811.8)" fill="#f00">
<rect y="477.6" width="23.308" x="-348.96" height="30.484"/>
<rect y="476.98" width="23.308" x="-244.43" height="30.484"/>
</g>
<g transform="translate(-1377.6 3272)">
<g transform="translate(3.7814 11.344)">
<g fill="#3b3bff" transform="matrix(.15 0 0 .15 2790 -2140.7)">
<g transform="translate(1261.6 8670.4)">
<rect y="-7147" width="1590.9" x="-850.89" height="1171.1"/>
<ellipse d="m 3601.6224,4267.3076 c 0,384.4008 -331.4036,696.0192 -740.2108,696.0192 -408.8071,0 -740.2108,-311.6184 -740.2108,-696.0192 0,-384.4008 331.4037,-696.0191 740.2108,-696.0191 408.8072,0 740.2108,311.6183 740.2108,696.0191 z" rx="740.21" ry="696.02" transform="matrix(1.0746 0 0 1.0635 -3130.4 -10547)" cy="4267.3" cx="2861.4"/>
<g transform="translate(-5963.8 -3463.6)">
<rect y="-3340.7" width="859.09" x="5478.8" height="632.38"/>
<ellipse d="m 3601.6224,4267.3076 c 0,384.4008 -331.4036,696.0192 -740.2108,696.0192 -408.8071,0 -740.2108,-311.6184 -740.2108,-696.0192 0,-384.4008 331.4037,-696.0191 740.2108,-696.0191 408.8072,0 740.2108,311.6183 740.2108,696.0191 z" rx="740.21" ry="696.02" transform="matrix(.58030 0 0 .57429 4247.9 -5088.5)" cy="4267.3" cx="2861.4"/>
</g>
</g>
<g transform="translate(-4610.5 4587.5)">
<g transform="matrix(.95 0 0 .95 5869.2 3772.5)">
<rect y="-7147" width="1590.9" x="-850.89" height="1171.1"/>
<ellipse d="m 3601.6224,4267.3076 c 0,384.4008 -331.4036,696.0192 -740.2108,696.0192 -408.8071,0 -740.2108,-311.6184 -740.2108,-696.0192 0,-384.4008 331.4037,-696.0191 740.2108,-696.0191 408.8072,0 740.2108,311.6183 740.2108,696.0191 z" rx="740.21" ry="696.02" transform="matrix(1.0746 0 0 1.0635 -3130.4 -10547)" cy="4267.3" cx="2861.4"/>
<g transform="translate(-5963.8 -3463.6)">
<rect y="-3340.7" width="859.09" x="5478.8" height="632.38"/>
<ellipse d="m 3601.6224,4267.3076 c 0,384.4008 -331.4036,696.0192 -740.2108,696.0192 -408.8071,0 -740.2108,-311.6184 -740.2108,-696.0192 0,-384.4008 331.4037,-696.0191 740.2108,-696.0191 408.8072,0 740.2108,311.6183 740.2108,696.0191 z" rx="740.21" ry="696.02" transform="matrix(.58030 0 0 .57429 4247.9 -5088.5)" cy="4267.3" cx="2861.4"/>
</g>
</g>
<g transform="matrix(.567 0 0 .567 5848 1394.8)">
<rect y="-7147" width="1590.9" x="-850.89" height="1171.1"/>
<ellipse d="m 3601.6224,4267.3076 c 0,384.4008 -331.4036,696.0192 -740.2108,696.0192 -408.8071,0 -740.2108,-311.6184 -740.2108,-696.0192 0,-384.4008 331.4037,-696.0191 740.2108,-696.0191 408.8072,0 740.2108,311.6183 740.2108,696.0191 z" rx="740.21" ry="696.02" transform="matrix(1.0746 0 0 1.0635 -3130.4 -10547)" cy="4267.3" cx="2861.4"/>
<g transform="translate(-5963.8 -3463.6)">
<rect y="-3340.7" width="859.09" x="5478.8" height="632.38"/>
<ellipse d="m 3601.6224,4267.3076 c 0,384.4008 -331.4036,696.0192 -740.2108,696.0192 -408.8071,0 -740.2108,-311.6184 -740.2108,-696.0192 0,-384.4008 331.4037,-696.0191 740.2108,-696.0191 408.8072,0 740.2108,311.6183 740.2108,696.0191 z" rx="740.21" ry="696.02" transform="matrix(.58030 0 0 .57429 4247.9 -5088.5)" cy="4267.3" cx="2861.4"/>
</g>
</g>
<g transform="matrix(.51172 0 0 .51172 5844.9 1051.6)">
<rect y="-7147" width="1590.9" x="-850.89" height="1171.1"/>
<ellipse d="m 3601.6224,4267.3076 c 0,384.4008 -331.4036,696.0192 -740.2108,696.0192 -408.8071,0 -740.2108,-311.6184 -740.2108,-696.0192 0,-384.4008 331.4037,-696.0191 740.2108,-696.0191 408.8072,0 740.2108,311.6183 740.2108,696.0191 z" rx="740.21" ry="696.02" transform="matrix(1.0746 0 0 1.0635 -3130.4 -10547)" cy="4267.3" cx="2861.4"/>
<g transform="translate(-5963.8 -3463.6)">
<rect y="-3340.7" width="859.09" x="5478.8" height="632.38"/>
<ellipse d="m 3601.6224,4267.3076 c 0,384.4008 -331.4036,696.0192 -740.2108,696.0192 -408.8071,0 -740.2108,-311.6184 -740.2108,-696.0192 0,-384.4008 331.4037,-696.0191 740.2108,-696.0191 408.8072,0 740.2108,311.6183 740.2108,696.0191 z" rx="740.21" ry="696.02" transform="matrix(.58030 0 0 .57429 4247.9 -5088.5)" cy="4267.3" cx="2861.4"/>
</g>
</g>
</g>
</g>
<g fill="#fff">
<ellipse d="m 2938.7051,-1854.9092 c 0,19.71 -15.9781,35.6881 -35.688,35.6881 -19.7099,0 -35.688,-15.9781 -35.688,-35.6881 0,-19.7099 15.9781,-35.688 35.688,-35.688 19.7099,0 35.688,15.9781 35.688,35.688 z" rx="35.688" transform="translate(-3.7817 -7.5629)" ry="35.688" cy="-1854.9" cx="2903"/>
<ellipse d="m 2938.7051,-1854.9092 c 0,19.71 -15.9781,35.6881 -35.688,35.6881 -19.7099,0 -35.688,-15.9781 -35.688,-35.6881 0,-19.7099 15.9781,-35.688 35.688,-35.688 19.7099,0 35.688,15.9781 35.688,35.688 z" rx="35.688" transform="translate(129.99 -7.5629)" ry="35.688" cy="-1854.9" cx="2903"/>
<ellipse d="m 2938.7051,-1854.9092 c 0,19.71 -15.9781,35.6881 -35.688,35.6881 -19.7099,0 -35.688,-15.9781 -35.688,-35.6881 0,-19.7099 15.9781,-35.688 35.688,-35.688 19.7099,0 35.688,15.9781 35.688,35.688 z" rx="35.688" transform="translate(61.922 67.595)" ry="35.688" cy="-1854.9" cx="2903"/>
<ellipse d="m 2938.7051,-1854.9092 c 0,19.71 -15.9781,35.6881 -35.688,35.6881 -19.7099,0 -35.688,-15.9781 -35.688,-35.6881 0,-19.7099 15.9781,-35.688 35.688,-35.688 19.7099,0 35.688,15.9781 35.688,35.688 z" rx="35.688" transform="translate(1.4179 140.39)" ry="35.688" cy="-1854.9" cx="2903"/>
<ellipse d="m 2938.7051,-1854.9092 c 0,19.71 -15.9781,35.6881 -35.688,35.6881 -19.7099,0 -35.688,-15.9781 -35.688,-35.6881 0,-19.7099 15.9781,-35.688 35.688,-35.688 19.7099,0 35.688,15.9781 35.688,35.688 z" rx="35.688" transform="translate(128.57 142.75)" ry="35.688" cy="-1854.9" cx="2903"/>
</g>
</g>
<g transform="translate(3.7817 321.43)">
<g fill="#3b3bff" transform="matrix(.15 0 0 .15 2790 -2140.7)">
<g transform="translate(1261.6 8670.4)">
<rect y="-7147" width="1590.9" x="-850.89" height="1171.1"/>
<ellipse d="m 3601.6224,4267.3076 c 0,384.4008 -331.4036,696.0192 -740.2108,696.0192 -408.8071,0 -740.2108,-311.6184 -740.2108,-696.0192 0,-384.4008 331.4037,-696.0191 740.2108,-696.0191 408.8072,0 740.2108,311.6183 740.2108,696.0191 z" rx="740.21" ry="696.02" transform="matrix(1.0746 0 0 1.0635 -3130.4 -10547)" cy="4267.3" cx="2861.4"/>
<g transform="translate(-5963.8 -3463.6)">
<rect y="-3340.7" width="859.09" x="5478.8" height="632.38"/>
<ellipse d="m 3601.6224,4267.3076 c 0,384.4008 -331.4036,696.0192 -740.2108,696.0192 -408.8071,0 -740.2108,-311.6184 -740.2108,-696.0192 0,-384.4008 331.4037,-696.0191 740.2108,-696.0191 408.8072,0 740.2108,311.6183 740.2108,696.0191 z" rx="740.21" ry="696.02" transform="matrix(.58030 0 0 .57429 4247.9 -5088.5)" cy="4267.3" cx="2861.4"/>
</g>
</g>
<g transform="translate(-4610.5 4587.5)">
<g transform="matrix(.95 0 0 .95 5869.2 3772.5)">
<rect y="-7147" width="1590.9" x="-850.89" height="1171.1"/>
<ellipse d="m 3601.6224,4267.3076 c 0,384.4008 -331.4036,696.0192 -740.2108,696.0192 -408.8071,0 -740.2108,-311.6184 -740.2108,-696.0192 0,-384.4008 331.4037,-696.0191 740.2108,-696.0191 408.8072,0 740.2108,311.6183 740.2108,696.0191 z" rx="740.21" ry="696.02" transform="matrix(1.0746 0 0 1.0635 -3130.4 -10547)" cy="4267.3" cx="2861.4"/>
<g transform="translate(-5963.8 -3463.6)">
<rect y="-3340.7" width="859.09" x="5478.8" height="632.38"/>
<ellipse d="m 3601.6224,4267.3076 c 0,384.4008 -331.4036,696.0192 -740.2108,696.0192 -408.8071,0 -740.2108,-311.6184 -740.2108,-696.0192 0,-384.4008 331.4037,-696.0191 740.2108,-696.0191 408.8072,0 740.2108,311.6183 740.2108,696.0191 z" rx="740.21" ry="696.02" transform="matrix(.58030 0 0 .57429 4247.9 -5088.5)" cy="4267.3" cx="2861.4"/>
</g>
</g>
<g transform="matrix(.567 0 0 .567 5848 1394.8)">
<rect y="-7147" width="1590.9" x="-850.89" height="1171.1"/>
<ellipse d="m 3601.6224,4267.3076 c 0,384.4008 -331.4036,696.0192 -740.2108,696.0192 -408.8071,0 -740.2108,-311.6184 -740.2108,-696.0192 0,-384.4008 331.4037,-696.0191 740.2108,-696.0191 408.8072,0 740.2108,311.6183 740.2108,696.0191 z" rx="740.21" ry="696.02" transform="matrix(1.0746 0 0 1.0635 -3130.4 -10547)" cy="4267.3" cx="2861.4"/>
<g transform="translate(-5963.8 -3463.6)">
<rect y="-3340.7" width="859.09" x="5478.8" height="632.38"/>
<ellipse d="m 3601.6224,4267.3076 c 0,384.4008 -331.4036,696.0192 -740.2108,696.0192 -408.8071,0 -740.2108,-311.6184 -740.2108,-696.0192 0,-384.4008 331.4037,-696.0191 740.2108,-696.0191 408.8072,0 740.2108,311.6183 740.2108,696.0191 z" rx="740.21" ry="696.02" transform="matrix(.58030 0 0 .57429 4247.9 -5088.5)" cy="4267.3" cx="2861.4"/>
</g>
</g>
<g transform="matrix(.51172 0 0 .51172 5844.9 1051.6)">
<rect y="-7147" width="1590.9" x="-850.89" height="1171.1"/>
<ellipse d="m 3601.6224,4267.3076 c 0,384.4008 -331.4036,696.0192 -740.2108,696.0192 -408.8071,0 -740.2108,-311.6184 -740.2108,-696.0192 0,-384.4008 331.4037,-696.0191 740.2108,-696.0191 408.8072,0 740.2108,311.6183 740.2108,696.0191 z" rx="740.21" ry="696.02" transform="matrix(1.0746 0 0 1.0635 -3130.4 -10547)" cy="4267.3" cx="2861.4"/>
<g transform="translate(-5963.8 -3463.6)">
<rect y="-3340.7" width="859.09" x="5478.8" height="632.38"/>
<ellipse d="m 3601.6224,4267.3076 c 0,384.4008 -331.4036,696.0192 -740.2108,696.0192 -408.8071,0 -740.2108,-311.6184 -740.2108,-696.0192 0,-384.4008 331.4037,-696.0191 740.2108,-696.0191 408.8072,0 740.2108,311.6183 740.2108,696.0191 z" rx="740.21" ry="696.02" transform="matrix(.58030 0 0 .57429 4247.9 -5088.5)" cy="4267.3" cx="2861.4"/>
</g>
</g>
</g>
</g>
<g fill="#fff">
<ellipse d="m 2938.7051,-1854.9092 c 0,19.71 -15.9781,35.6881 -35.688,35.6881 -19.7099,0 -35.688,-15.9781 -35.688,-35.6881 0,-19.7099 15.9781,-35.688 35.688,-35.688 19.7099,0 35.688,15.9781 35.688,35.688 z" rx="35.688" transform="translate(-3.7817 -7.5629)" ry="35.688" cy="-1854.9" cx="2903"/>
<ellipse d="m 2938.7051,-1854.9092 c 0,19.71 -15.9781,35.6881 -35.688,35.6881 -19.7099,0 -35.688,-15.9781 -35.688,-35.6881 0,-19.7099 15.9781,-35.688 35.688,-35.688 19.7099,0 35.688,15.9781 35.688,35.688 z" rx="35.688" transform="translate(129.99 -7.5629)" ry="35.688" cy="-1854.9" cx="2903"/>
<ellipse d="m 2938.7051,-1854.9092 c 0,19.71 -15.9781,35.6881 -35.688,35.6881 -19.7099,0 -35.688,-15.9781 -35.688,-35.6881 0,-19.7099 15.9781,-35.688 35.688,-35.688 19.7099,0 35.688,15.9781 35.688,35.688 z" rx="35.688" transform="translate(61.922 67.595)" ry="35.688" cy="-1854.9" cx="2903"/>
<ellipse d="m 2938.7051,-1854.9092 c 0,19.71 -15.9781,35.6881 -35.688,35.6881 -19.7099,0 -35.688,-15.9781 -35.688,-35.6881 0,-19.7099 15.9781,-35.688 35.688,-35.688 19.7099,0 35.688,15.9781 35.688,35.688 z" rx="35.688" transform="translate(1.4179 140.39)" ry="35.688" cy="-1854.9" cx="2903"/>
<ellipse d="m 2938.7051,-1854.9092 c 0,19.71 -15.9781,35.6881 -35.688,35.6881 -19.7099,0 -35.688,-15.9781 -35.688,-35.6881 0,-19.7099 15.9781,-35.688 35.688,-35.688 19.7099,0 35.688,15.9781 35.688,35.688 z" rx="35.688" transform="translate(128.57 142.75)" ry="35.688" cy="-1854.9" cx="2903"/>
</g>
</g>
<g transform="translate(268.49 321.43)">
<g fill="#3b3bff" transform="matrix(.15 0 0 .15 2790 -2140.7)">
<g transform="translate(1261.6 8670.4)">
<rect y="-7147" width="1590.9" x="-850.89" height="1171.1"/>
<ellipse d="m 3601.6224,4267.3076 c 0,384.4008 -331.4036,696.0192 -740.2108,696.0192 -408.8071,0 -740.2108,-311.6184 -740.2108,-696.0192 0,-384.4008 331.4037,-696.0191 740.2108,-696.0191 408.8072,0 740.2108,311.6183 740.2108,696.0191 z" rx="740.21" ry="696.02" transform="matrix(1.0746 0 0 1.0635 -3130.4 -10547)" cy="4267.3" cx="2861.4"/>
<g transform="translate(-5963.8 -3463.6)">
<rect y="-3340.7" width="859.09" x="5478.8" height="632.38"/>
<ellipse d="m 3601.6224,4267.3076 c 0,384.4008 -331.4036,696.0192 -740.2108,696.0192 -408.8071,0 -740.2108,-311.6184 -740.2108,-696.0192 0,-384.4008 331.4037,-696.0191 740.2108,-696.0191 408.8072,0 740.2108,311.6183 740.2108,696.0191 z" rx="740.21" ry="696.02" transform="matrix(.58030 0 0 .57429 4247.9 -5088.5)" cy="4267.3" cx="2861.4"/>
</g>
</g>
<g transform="translate(-4610.5 4587.5)">
<g transform="matrix(.95 0 0 .95 5869.2 3772.5)">
<rect y="-7147" width="1590.9" x="-850.89" height="1171.1"/>
<ellipse d="m 3601.6224,4267.3076 c 0,384.4008 -331.4036,696.0192 -740.2108,696.0192 -408.8071,0 -740.2108,-311.6184 -740.2108,-696.0192 0,-384.4008 331.4037,-696.0191 740.2108,-696.0191 408.8072,0 740.2108,311.6183 740.2108,696.0191 z" rx="740.21" ry="696.02" transform="matrix(1.0746 0 0 1.0635 -3130.4 -10547)" cy="4267.3" cx="2861.4"/>
<g transform="translate(-5963.8 -3463.6)">
<rect y="-3340.7" width="859.09" x="5478.8" height="632.38"/>
<ellipse d="m 3601.6224,4267.3076 c 0,384.4008 -331.4036,696.0192 -740.2108,696.0192 -408.8071,0 -740.2108,-311.6184 -740.2108,-696.0192 0,-384.4008 331.4037,-696.0191 740.2108,-696.0191 408.8072,0 740.2108,311.6183 740.2108,696.0191 z" rx="740.21" ry="696.02" transform="matrix(.58030 0 0 .57429 4247.9 -5088.5)" cy="4267.3" cx="2861.4"/>
</g>
</g>
<g transform="matrix(.567 0 0 .567 5848 1394.8)">
<rect y="-7147" width="1590.9" x="-850.89" height="1171.1"/>
<ellipse d="m 3601.6224,4267.3076 c 0,384.4008 -331.4036,696.0192 -740.2108,696.0192 -408.8071,0 -740.2108,-311.6184 -740.2108,-696.0192 0,-384.4008 331.4037,-696.0191 740.2108,-696.0191 408.8072,0 740.2108,311.6183 740.2108,696.0191 z" rx="740.21" ry="696.02" transform="matrix(1.0746 0 0 1.0635 -3130.4 -10547)" cy="4267.3" cx="2861.4"/>
<g transform="translate(-5963.8 -3463.6)">
<rect y="-3340.7" width="859.09" x="5478.8" height="632.38"/>
<ellipse d="m 3601.6224,4267.3076 c 0,384.4008 -331.4036,696.0192 -740.2108,696.0192 -408.8071,0 -740.2108,-311.6184 -740.2108,-696.0192 0,-384.4008 331.4037,-696.0191 740.2108,-696.0191 408.8072,0 740.2108,311.6183 740.2108,696.0191 z" rx="740.21" ry="696.02" transform="matrix(.58030 0 0 .57429 4247.9 -5088.5)" cy="4267.3" cx="2861.4"/>
</g>
</g>
<g transform="matrix(.51172 0 0 .51172 5844.9 1051.6)">
<rect y="-7147" width="1590.9" x="-850.89" height="1171.1"/>
<ellipse d="m 3601.6224,4267.3076 c 0,384.4008 -331.4036,696.0192 -740.2108,696.0192 -408.8071,0 -740.2108,-311.6184 -740.2108,-696.0192 0,-384.4008 331.4037,-696.0191 740.2108,-696.0191 408.8072,0 740.2108,311.6183 740.2108,696.0191 z" rx="740.21" ry="696.02" transform="matrix(1.0746 0 0 1.0635 -3130.4 -10547)" cy="4267.3" cx="2861.4"/>
<g transform="translate(-5963.8 -3463.6)">
<rect y="-3340.7" width="859.09" x="5478.8" height="632.38"/>
<ellipse d="m 3601.6224,4267.3076 c 0,384.4008 -331.4036,696.0192 -740.2108,696.0192 -408.8071,0 -740.2108,-311.6184 -740.2108,-696.0192 0,-384.4008 331.4037,-696.0191 740.2108,-696.0191 408.8072,0 740.2108,311.6183 740.2108,696.0191 z" rx="740.21" ry="696.02" transform="matrix(.58030 0 0 .57429 4247.9 -5088.5)" cy="4267.3" cx="2861.4"/>
</g>
</g>
</g>
</g>
<g fill="#fff">
<ellipse d="m 2938.7051,-1854.9092 c 0,19.71 -15.9781,35.6881 -35.688,35.6881 -19.7099,0 -35.688,-15.9781 -35.688,-35.6881 0,-19.7099 15.9781,-35.688 35.688,-35.688 19.7099,0 35.688,15.9781 35.688,35.688 z" rx="35.688" transform="translate(-3.7817 -7.5629)" ry="35.688" cy="-1854.9" cx="2903"/>
<ellipse d="m 2938.7051,-1854.9092 c 0,19.71 -15.9781,35.6881 -35.688,35.6881 -19.7099,0 -35.688,-15.9781 -35.688,-35.6881 0,-19.7099 15.9781,-35.688 35.688,-35.688 19.7099,0 35.688,15.9781 35.688,35.688 z" rx="35.688" transform="translate(129.99 -7.5629)" ry="35.688" cy="-1854.9" cx="2903"/>
<ellipse d="m 2938.7051,-1854.9092 c 0,19.71 -15.9781,35.6881 -35.688,35.6881 -19.7099,0 -35.688,-15.9781 -35.688,-35.6881 0,-19.7099 15.9781,-35.688 35.688,-35.688 19.7099,0 35.688,15.9781 35.688,35.688 z" rx="35.688" transform="translate(61.922 67.595)" ry="35.688" cy="-1854.9" cx="2903"/>
<ellipse d="m 2938.7051,-1854.9092 c 0,19.71 -15.9781,35.6881 -35.688,35.6881 -19.7099,0 -35.688,-15.9781 -35.688,-35.6881 0,-19.7099 15.9781,-35.688 35.688,-35.688 19.7099,0 35.688,15.9781 35.688,35.688 z" rx="35.688" transform="translate(1.4179 140.39)" ry="35.688" cy="-1854.9" cx="2903"/>
<ellipse d="m 2938.7051,-1854.9092 c 0,19.71 -15.9781,35.6881 -35.688,35.6881 -19.7099,0 -35.688,-15.9781 -35.688,-35.6881 0,-19.7099 15.9781,-35.688 35.688,-35.688 19.7099,0 35.688,15.9781 35.688,35.688 z" rx="35.688" transform="translate(128.57 142.75)" ry="35.688" cy="-1854.9" cx="2903"/>
</g>
</g>
<g transform="translate(-260.92 321.43)">
<g fill="#3b3bff" transform="matrix(.15 0 0 .15 2790 -2140.7)">
<g transform="translate(1261.6 8670.4)">
<rect y="-7147" width="1590.9" x="-850.89" height="1171.1"/>
<ellipse d="m 3601.6224,4267.3076 c 0,384.4008 -331.4036,696.0192 -740.2108,696.0192 -408.8071,0 -740.2108,-311.6184 -740.2108,-696.0192 0,-384.4008 331.4037,-696.0191 740.2108,-696.0191 408.8072,0 740.2108,311.6183 740.2108,696.0191 z" rx="740.21" ry="696.02" transform="matrix(1.0746 0 0 1.0635 -3130.4 -10547)" cy="4267.3" cx="2861.4"/>
<g transform="translate(-5963.8 -3463.6)">
<rect y="-3340.7" width="859.09" x="5478.8" height="632.38"/>
<ellipse d="m 3601.6224,4267.3076 c 0,384.4008 -331.4036,696.0192 -740.2108,696.0192 -408.8071,0 -740.2108,-311.6184 -740.2108,-696.0192 0,-384.4008 331.4037,-696.0191 740.2108,-696.0191 408.8072,0 740.2108,311.6183 740.2108,696.0191 z" rx="740.21" ry="696.02" transform="matrix(.58030 0 0 .57429 4247.9 -5088.5)" cy="4267.3" cx="2861.4"/>
</g>
</g>
<g transform="translate(-4610.5 4587.5)">
<g transform="matrix(.95 0 0 .95 5869.2 3772.5)">
<rect y="-7147" width="1590.9" x="-850.89" height="1171.1"/>
<ellipse d="m 3601.6224,4267.3076 c 0,384.4008 -331.4036,696.0192 -740.2108,696.0192 -408.8071,0 -740.2108,-311.6184 -740.2108,-696.0192 0,-384.4008 331.4037,-696.0191 740.2108,-696.0191 408.8072,0 740.2108,311.6183 740.2108,696.0191 z" rx="740.21" ry="696.02" transform="matrix(1.0746 0 0 1.0635 -3130.4 -10547)" cy="4267.3" cx="2861.4"/>
<g transform="translate(-5963.8 -3463.6)">
<rect y="-3340.7" width="859.09" x="5478.8" height="632.38"/>
<ellipse d="m 3601.6224,4267.3076 c 0,384.4008 -331.4036,696.0192 -740.2108,696.0192 -408.8071,0 -740.2108,-311.6184 -740.2108,-696.0192 0,-384.4008 331.4037,-696.0191 740.2108,-696.0191 408.8072,0 740.2108,311.6183 740.2108,696.0191 z" rx="740.21" ry="696.02" transform="matrix(.58030 0 0 .57429 4247.9 -5088.5)" cy="4267.3" cx="2861.4"/>
</g>
</g>
<g transform="matrix(.567 0 0 .567 5848 1394.8)">
<rect y="-7147" width="1590.9" x="-850.89" height="1171.1"/>
<ellipse d="m 3601.6224,4267.3076 c 0,384.4008 -331.4036,696.0192 -740.2108,696.0192 -408.8071,0 -740.2108,-311.6184 -740.2108,-696.0192 0,-384.4008 331.4037,-696.0191 740.2108,-696.0191 408.8072,0 740.2108,311.6183 740.2108,696.0191 z" rx="740.21" ry="696.02" transform="matrix(1.0746 0 0 1.0635 -3130.4 -10547)" cy="4267.3" cx="2861.4"/>
<g transform="translate(-5963.8 -3463.6)">
<rect y="-3340.7" width="859.09" x="5478.8" height="632.38"/>
<ellipse d="m 3601.6224,4267.3076 c 0,384.4008 -331.4036,696.0192 -740.2108,696.0192 -408.8071,0 -740.2108,-311.6184 -740.2108,-696.0192 0,-384.4008 331.4037,-696.0191 740.2108,-696.0191 408.8072,0 740.2108,311.6183 740.2108,696.0191 z" rx="740.21" ry="696.02" transform="matrix(.58030 0 0 .57429 4247.9 -5088.5)" cy="4267.3" cx="2861.4"/>
</g>
</g>
<g transform="matrix(.51172 0 0 .51172 5844.9 1051.6)">
<rect y="-7147" width="1590.9" x="-850.89" height="1171.1"/>
<ellipse d="m 3601.6224,4267.3076 c 0,384.4008 -331.4036,696.0192 -740.2108,696.0192 -408.8071,0 -740.2108,-311.6184 -740.2108,-696.0192 0,-384.4008 331.4037,-696.0191 740.2108,-696.0191 408.8072,0 740.2108,311.6183 740.2108,696.0191 z" rx="740.21" ry="696.02" transform="matrix(1.0746 0 0 1.0635 -3130.4 -10547)" cy="4267.3" cx="2861.4"/>
<g transform="translate(-5963.8 -3463.6)">
<rect y="-3340.7" width="859.09" x="5478.8" height="632.38"/>
<ellipse d="m 3601.6224,4267.3076 c 0,384.4008 -331.4036,696.0192 -740.2108,696.0192 -408.8071,0 -740.2108,-311.6184 -740.2108,-696.0192 0,-384.4008 331.4037,-696.0191 740.2108,-696.0191 408.8072,0 740.2108,311.6183 740.2108,696.0191 z" rx="740.21" ry="696.02" transform="matrix(.58030 0 0 .57429 4247.9 -5088.5)" cy="4267.3" cx="2861.4"/>
</g>
</g>
</g>
</g>
<g fill="#fff">
<ellipse d="m 2938.7051,-1854.9092 c 0,19.71 -15.9781,35.6881 -35.688,35.6881 -19.7099,0 -35.688,-15.9781 -35.688,-35.6881 0,-19.7099 15.9781,-35.688 35.688,-35.688 19.7099,0 35.688,15.9781 35.688,35.688 z" rx="35.688" transform="translate(-3.7817 -7.5629)" ry="35.688" cy="-1854.9" cx="2903"/>
<ellipse d="m 2938.7051,-1854.9092 c 0,19.71 -15.9781,35.6881 -35.688,35.6881 -19.7099,0 -35.688,-15.9781 -35.688,-35.6881 0,-19.7099 15.9781,-35.688 35.688,-35.688 19.7099,0 35.688,15.9781 35.688,35.688 z" rx="35.688" transform="translate(129.99 -7.5629)" ry="35.688" cy="-1854.9" cx="2903"/>
<ellipse d="m 2938.7051,-1854.9092 c 0,19.71 -15.9781,35.6881 -35.688,35.6881 -19.7099,0 -35.688,-15.9781 -35.688,-35.6881 0,-19.7099 15.9781,-35.688 35.688,-35.688 19.7099,0 35.688,15.9781 35.688,35.688 z" rx="35.688" transform="translate(61.922 67.595)" ry="35.688" cy="-1854.9" cx="2903"/>
<ellipse d="m 2938.7051,-1854.9092 c 0,19.71 -15.9781,35.6881 -35.688,35.6881 -19.7099,0 -35.688,-15.9781 -35.688,-35.6881 0,-19.7099 15.9781,-35.688 35.688,-35.688 19.7099,0 35.688,15.9781 35.688,35.688 z" rx="35.688" transform="translate(1.4179 140.39)" ry="35.688" cy="-1854.9" cx="2903"/>
<ellipse d="m 2938.7051,-1854.9092 c 0,19.71 -15.9781,35.6881 -35.688,35.6881 -19.7099,0 -35.688,-15.9781 -35.688,-35.6881 0,-19.7099 15.9781,-35.688 35.688,-35.688 19.7099,0 35.688,15.9781 35.688,35.688 z" rx="35.688" transform="translate(128.57 142.75)" ry="35.688" cy="-1854.9" cx="2903"/>
</g>
</g>
</g>
</g>
</g>
</svg>
