<svg xmlns:rdf="http://www.w3.org/1999/02/22-rdf-syntax-ns#" xmlns="http://www.w3.org/2000/svg" height="480" width="640" version="1" y="0" x="0" xmlns:cc="http://creativecommons.org/ns#" xmlns:dc="http://purl.org/dc/elements/1.1/">
<defs>
<clipPath id="a" clipPathUnits="userSpaceOnUse">
<rect fill-opacity=".67" height="480" width="640" y="0" x="0"/>
</clipPath>
</defs>
<g clip-path="url(#a)">
<g transform="matrix(.9375 0 0 .9375 -1.2495 -.0000022609)" fill-rule="evenodd">
<rect height="512" width="768" y=".0000024116" x="-20" stroke-width="1pt" fill="#fff"/>
<rect height="256" width="768" y=".0000024116" x="-20" stroke-width="1pt" fill="#df0000"/>
<g stroke-width=".52437" fill="#fff">
<path d="m157.12 42.909c-35.46 8.13-61.807 34.386-69.256 70.081-10.121 48.5 21.466 95.99 70.066 106.12-49.1 14-99.829-14.22-113.7-62.86-13.863-48.64 14.358-99.372 63-113.24 17.075-4.8694 32.795-4.9 49.892-0.10094z"/>
<polygon points="262.25 522.28 266.19 534.45 266.19 534.45 255.78 527.02 245.42 534.52 249.27 522.33 238.94 514.8 251.72 514.69 255.69 502.53 259.74 514.66 272.53 514.68" transform="matrix(1.3251 0 0 1.3251 -204.33 -574.79)"/>
<polygon points="262.25 522.28 266.19 534.45 266.19 534.45 255.78 527.02 245.42 534.52 249.27 522.33 238.94 514.8 251.72 514.69 255.69 502.53 259.74 514.66 272.53 514.68" transform="matrix(1.3251 0 0 1.3251 -185.6 -519.26)"/>
<polygon points="262.25 522.28 266.19 534.45 266.19 534.45 255.78 527.02 245.42 534.52 249.27 522.33 238.94 514.8 251.72 514.69 255.69 502.53 259.74 514.66 272.53 514.68" transform="matrix(1.3251 0 0 1.3251 -123.28 -519.66)"/>
<polygon points="262.25 522.28 266.19 534.45 266.19 534.45 255.78 527.02 245.42 534.52 249.27 522.33 238.94 514.8 251.72 514.69 255.69 502.53 259.74 514.66 272.53 514.68" transform="matrix(1.3251 0 0 1.3251 -104.69 -574.74)"/>
<polygon points="262.25 522.28 266.19 534.45 266.19 534.45 255.78 527.02 245.42 534.52 249.27 522.33 238.94 514.8 251.72 514.69 255.69 502.53 259.74 514.66 272.53 514.68" transform="matrix(1.3251 0 0 1.3251 -154.03 -611.28)"/>
</g>
</g>
</g>
</svg>
