<svg xmlns:rdf="http://www.w3.org/1999/02/22-rdf-syntax-ns#" xmlns="http://www.w3.org/2000/svg" height="480" width="640" version="1" y="0" x="0" xmlns:cc="http://creativecommons.org/ns#" xmlns:dc="http://purl.org/dc/elements/1.1/">
<g fill-rule="evenodd">
<g fill="#fff">
<rect rx="0" ry="0" height="480" width="640" y=".0000010549" x="-2.1606e-8"/>
<rect rx="0" ry="0" height="159.3" width="480" y="320.7" x="-3.457e-7"/>
<rect height="159.3" width="480" y=".000033733" x="-3.457e-7"/>
<path d="m201.9 281-28.822-20.867-28.68 21.072 10.667-34.242-28.628-21.145 35.418-0.2948 10.985-34.138 11.221 34.06 35.418 0.0449-28.481 21.344 10.902 34.166z"/>
<path d="m509.54 281-28.822-20.867-28.68 21.072 10.667-34.242-28.628-21.145 35.418-0.2948 10.985-34.138 11.221 34.06 35.418 0.0449-28.481 21.344 10.902 34.166z"/>
</g>
<rect rx="0" ry="0" height="159.3" width="640" y="320.7" x="-3.457e-7" stroke-width="1pt"/>
<rect height="159.3" width="640" y=".000033733" x="-3.457e-7" stroke-width="1pt" fill="#f00"/>
<path stroke-width=".11287" fill="#090" d="m201.9 281-28.822-20.867-28.68 21.072 10.667-34.242-28.628-21.145 35.418-0.2948 10.985-34.138 11.221 34.06 35.418 0.0449-28.481 21.344 10.902 34.166z"/>
<path stroke-width=".11287" fill="#090" d="m509.54 281-28.822-20.867-28.68 21.072 10.667-34.242-28.628-21.145 35.418-0.2948 10.985-34.138 11.221 34.06 35.418 0.0449-28.481 21.344 10.902 34.166z"/>
</g>
</svg>
