<svg xmlns:rdf="http://www.w3.org/1999/02/22-rdf-syntax-ns#" xmlns="http://www.w3.org/2000/svg" height="900" width="1800" xmlns:cc="http://creativecommons.org/ns#" xmlns:xlink="http://www.w3.org/1999/xlink" xmlns:dc="http://purl.org/dc/elements/1.1/">
<defs>
<g id="a">
<g id="b" transform="translate(0 -.32492)">
<path d="m0 0v0.5l1-0.5z"/>
<path d="m0 0v-0.5l1 0.5z" transform="matrix(.80902 -.58779 .58779 .80902 .19098 .58779)"/>
</g>
<use xlink:href="#b" transform="scale(-1,1)" height="600" width="1200" y="0" x="0"/>
<use xlink:href="#b" transform="rotate(72.001)" height="600" width="1200" y="0" x="0"/>
<use xlink:href="#b" transform="rotate(-72.001)" height="600" width="1200" y="0" x="0"/>
<use xlink:href="#b" transform="matrix(-.30902 .95106 .95106 .30902 0 0)" height="600" width="1200" y="0" x="0"/>
</g>
</defs>
<rect height="900" width="1800" y="0" x="0" fill="#00247d"/>
<path fill="#fed100" d="m329.38 777.27c-17.94-0.15 168.62-99.44 324.77-226.6 204.64-166.67 645.35-433.51 774.95-476.88 13.543-4.5322-27.776 23.073-33.14 32.015-138.34 163.74-27.925 472.72 144.97 628.05 51.99 39.763 49.327 41.851 145.71 45.746v9l-1357.3-11.34z"/>
<path fill="#fed100" d="m318.13 795.32s-13.163 9.4029-13.125 16.406c0.043 7.7725 14.766 18.047 14.766 18.047l1338.7 14.766 24.609-16.406-34.453-21.328-1330.5-11.484z"/>
<g fill="#ffffff">
<use xlink:href="#a" transform="matrix(45 0 0 45 342.96 112.58)" height="600" width="1200" y="0" x="0"/>
<use xlink:href="#a" transform="matrix(37.5 .0000011682 -.0000011682 37.5 521.2 267.53)" height="600" width="1200" y="0" x="0"/>
<use xlink:href="#a" transform="matrix(45 .0000014854 -.0000014854 45 135 321.81)" height="600" width="1200" y="0" x="0"/>
<use xlink:href="#a" transform="matrix(52.5 0 0 52.5 342.96 652.58)" height="600" width="1200" y="0" x="0"/>
</g>
</svg>
