<svg xmlns:rdf="http://www.w3.org/1999/02/22-rdf-syntax-ns#" xmlns="http://www.w3.org/2000/svg" height="480" width="640" xmlns:cc="http://creativecommons.org/ns#" xmlns:dc="http://purl.org/dc/elements/1.1/">
<defs>
<clipPath id="a" clipPathUnits="userSpaceOnUse">
<rect fill-opacity=".67" height="512" width="682.67" y=".00001712" x="0"/>
</clipPath>
</defs>
<g fill-rule="evenodd" transform="matrix(.93750 0 0 .93750 0 -.000016050)" clip-path="url(#a)">
<rect height="512" width="1031.2" y=".000017855" x="0" stroke-width="1pt" fill="#cb000f"/>
<path fill="#f8c00c" d="m0 0.000033605c3.2337 0 512 256.72 512 256.72l-512 255.28v-512z"/>
<path d="m0 0.000033605c2.1513 0 340.62 256.72 340.62 256.72l-340.62 255.28v-512z"/>
<path fill="#fff" d="m187.71 298.16-60.813-13.478-31.072 52.839-4.8613-59.677-60.753-13.372 54.84-24.817-3.2916-59.385 40.235 43.39 55.341-25.232-28.827 53.899 39.203 45.835z"/>
</g>
</svg>
