<!-- /Creative Commons Public Domain -->
<svg xmlns:rdf="http://www.w3.org/1999/02/22-rdf-syntax-ns#" xmlns="http://www.w3.org/2000/svg" height="480" width="640" xmlns:cc="http://creativecommons.org/ns#" xmlns:dc="http://purl.org/dc/elements/1.1/">
<desc>The United States of America flag, produced by Daniel McRae</desc>
<defs>
<clipPath id="a" clipPathUnits="userSpaceOnUse">
<rect fill-opacity=".67" height="512" width="682.67" y=".0000054613" x="0"/>
</clipPath>
</defs>
<g clip-path="url(#a)" transform="matrix(.93750 0 0 .93750 0 -.00000512)" fill-rule="evenodd">
<g stroke-width="1pt" transform="matrix(3.9385 0 0 3.9385 0 .000005)">
<g fill="#bd3d44">
<rect y="0" width="247" x="0" height="10"/>
<rect y="20" width="247" x="0" height="10"/>
<rect y="40" width="247" x="0" height="10"/>
<rect y="60" width="247" x="0" height="10"/>
<rect y="80" width="247" x="0" height="10"/>
<rect y="100" width="247" x="0" height="10"/>
<rect y="120" width="247" x="0" height="10"/>
</g>
<g fill="#fff">
<rect y="10" width="247" x="0" height="10"/>
<rect y="30" width="247" x="0" height="10"/>
<rect y="50" width="247" x="0" height="10"/>
<rect y="70" width="247" x="0" height="10"/>
<rect y="90" width="247" x="0" height="10"/>
<rect y="110" width="247" x="0" height="10"/>
</g>
</g>
<rect height="275.69" width="389.12" y=".000005" x="0" stroke-width="1pt" fill="#192f5d"/>
<g transform="matrix(3.9385 0 0 3.9385 0 .000005)" fill="#fff">
<polygon d="M 1.3084868e-6,-4.0040002 0.89895399,-1.237304 3.8080309,-1.2373029 1.4545381,0.47260808 2.3534912,3.239305 0,1.5293919 l -2.3534933,1.7099115 0.8989552,-2.76669531 -2.353492,-1.70991339 2.9090761,1.3e-6 z" points="0 -4.004 0.89895 -1.2373 3.808 -1.2373 1.4545 0.47261 2.3535 3.2393 0 1.5294 -2.3535 3.2393 -1.4545 0.47261 -3.808 -1.2373 -0.89895 -1.2373" transform="translate(8.2333 7)"/>
<polygon d="M 1.3084868e-6,-4.0040002 0.89895399,-1.237304 3.8080309,-1.2373029 1.4545381,0.47260808 2.3534912,3.239305 0,1.5293919 l -2.3534933,1.7099115 0.8989552,-2.76669531 -2.353492,-1.70991339 2.9090761,1.3e-6 z" points="0 -4.004 0.89895 -1.2373 3.808 -1.2373 1.4545 0.47261 2.3535 3.2393 0 1.5294 -2.3535 3.2393 -1.4545 0.47261 -3.808 -1.2373 -0.89895 -1.2373" transform="translate(24.7,7)"/>
<polygon d="M 1.3084868e-6,-4.0040002 0.89895399,-1.237304 3.8080309,-1.2373029 1.4545381,0.47260808 2.3534912,3.239305 0,1.5293919 l -2.3534933,1.7099115 0.8989552,-2.76669531 -2.353492,-1.70991339 2.9090761,1.3e-6 z" points="0 -4.004 0.89895 -1.2373 3.808 -1.2373 1.4545 0.47261 2.3535 3.2393 0 1.5294 -2.3535 3.2393 -1.4545 0.47261 -3.808 -1.2373 -0.89895 -1.2373" transform="translate(41.167 7)"/>
<polygon d="M 1.3084868e-6,-4.0040002 0.89895399,-1.237304 3.8080309,-1.2373029 1.4545381,0.47260808 2.3534912,3.239305 0,1.5293919 l -2.3534933,1.7099115 0.8989552,-2.76669531 -2.353492,-1.70991339 2.9090761,1.3e-6 z" points="0 -4.004 0.89895 -1.2373 3.808 -1.2373 1.4545 0.47261 2.3535 3.2393 0 1.5294 -2.3535 3.2393 -1.4545 0.47261 -3.808 -1.2373 -0.89895 -1.2373" transform="translate(57.633 7)"/>
<polygon d="M 1.3084868e-6,-4.0040002 0.89895399,-1.237304 3.8080309,-1.2373029 1.4545381,0.47260808 2.3534912,3.239305 0,1.5293919 l -2.3534933,1.7099115 0.8989552,-2.76669531 -2.353492,-1.70991339 2.9090761,1.3e-6 z" points="0 -4.004 0.89895 -1.2373 3.808 -1.2373 1.4545 0.47261 2.3535 3.2393 0 1.5294 -2.3535 3.2393 -1.4545 0.47261 -3.808 -1.2373 -0.89895 -1.2373" transform="translate(74.1,7)"/>
<polygon d="M 1.3084868e-6,-4.0040002 0.89895399,-1.237304 3.8080309,-1.2373029 1.4545381,0.47260808 2.3534912,3.239305 0,1.5293919 l -2.3534933,1.7099115 0.8989552,-2.76669531 -2.353492,-1.70991339 2.9090761,1.3e-6 z" points="0 -4.004 0.89895 -1.2373 3.808 -1.2373 1.4545 0.47261 2.3535 3.2393 0 1.5294 -2.3535 3.2393 -1.4545 0.47261 -3.808 -1.2373 -0.89895 -1.2373" transform="translate(90.567 7)"/>
<polygon d="M 1.3084868e-6,-4.0040002 0.89895399,-1.237304 3.8080309,-1.2373029 1.4545381,0.47260808 2.3534912,3.239305 0,1.5293919 l -2.3534933,1.7099115 0.8989552,-2.76669531 -2.353492,-1.70991339 2.9090761,1.3e-6 z" points="0 -4.004 0.89895 -1.2373 3.808 -1.2373 1.4545 0.47261 2.3535 3.2393 0 1.5294 -2.3535 3.2393 -1.4545 0.47261 -3.808 -1.2373 -0.89895 -1.2373" transform="translate(16.467 14)"/>
<polygon d="M 1.3084868e-6,-4.0040002 0.89895399,-1.237304 3.8080309,-1.2373029 1.4545381,0.47260808 2.3534912,3.239305 0,1.5293919 l -2.3534933,1.7099115 0.8989552,-2.76669531 -2.353492,-1.70991339 2.9090761,1.3e-6 z" points="0 -4.004 0.89895 -1.2373 3.808 -1.2373 1.4545 0.47261 2.3535 3.2393 0 1.5294 -2.3535 3.2393 -1.4545 0.47261 -3.808 -1.2373 -0.89895 -1.2373" transform="translate(32.933 14)"/>
<polygon d="M 1.3084868e-6,-4.0040002 0.89895399,-1.237304 3.8080309,-1.2373029 1.4545381,0.47260808 2.3534912,3.239305 0,1.5293919 l -2.3534933,1.7099115 0.8989552,-2.76669531 -2.353492,-1.70991339 2.9090761,1.3e-6 z" points="0 -4.004 0.89895 -1.2373 3.808 -1.2373 1.4545 0.47261 2.3535 3.2393 0 1.5294 -2.3535 3.2393 -1.4545 0.47261 -3.808 -1.2373 -0.89895 -1.2373" transform="translate(49.4,14)"/>
<polygon d="M 1.3084868e-6,-4.0040002 0.89895399,-1.237304 3.8080309,-1.2373029 1.4545381,0.47260808 2.3534912,3.239305 0,1.5293919 l -2.3534933,1.7099115 0.8989552,-2.76669531 -2.353492,-1.70991339 2.9090761,1.3e-6 z" points="0 -4.004 0.89895 -1.2373 3.808 -1.2373 1.4545 0.47261 2.3535 3.2393 0 1.5294 -2.3535 3.2393 -1.4545 0.47261 -3.808 -1.2373 -0.89895 -1.2373" transform="translate(65.867 14)"/>
<polygon d="M 1.3084868e-6,-4.0040002 0.89895399,-1.237304 3.8080309,-1.2373029 1.4545381,0.47260808 2.3534912,3.239305 0,1.5293919 l -2.3534933,1.7099115 0.8989552,-2.76669531 -2.353492,-1.70991339 2.9090761,1.3e-6 z" points="0 -4.004 0.89895 -1.2373 3.808 -1.2373 1.4545 0.47261 2.3535 3.2393 0 1.5294 -2.3535 3.2393 -1.4545 0.47261 -3.808 -1.2373 -0.89895 -1.2373" transform="translate(82.333 14)"/>
<g transform="translate(0,14)">
<polygon d="M 1.3084868e-6,-4.0040002 0.89895399,-1.237304 3.8080309,-1.2373029 1.4545381,0.47260808 2.3534912,3.239305 0,1.5293919 l -2.3534933,1.7099115 0.8989552,-2.76669531 -2.353492,-1.70991339 2.9090761,1.3e-6 z" points="0 -4.004 0.89895 -1.2373 3.808 -1.2373 1.4545 0.47261 2.3535 3.2393 0 1.5294 -2.3535 3.2393 -1.4545 0.47261 -3.808 -1.2373 -0.89895 -1.2373" transform="translate(8.2333 7)"/>
<polygon d="M 1.3084868e-6,-4.0040002 0.89895399,-1.237304 3.8080309,-1.2373029 1.4545381,0.47260808 2.3534912,3.239305 0,1.5293919 l -2.3534933,1.7099115 0.8989552,-2.76669531 -2.353492,-1.70991339 2.9090761,1.3e-6 z" points="0 -4.004 0.89895 -1.2373 3.808 -1.2373 1.4545 0.47261 2.3535 3.2393 0 1.5294 -2.3535 3.2393 -1.4545 0.47261 -3.808 -1.2373 -0.89895 -1.2373" transform="translate(24.7,7)"/>
<polygon d="M 1.3084868e-6,-4.0040002 0.89895399,-1.237304 3.8080309,-1.2373029 1.4545381,0.47260808 2.3534912,3.239305 0,1.5293919 l -2.3534933,1.7099115 0.8989552,-2.76669531 -2.353492,-1.70991339 2.9090761,1.3e-6 z" points="0 -4.004 0.89895 -1.2373 3.808 -1.2373 1.4545 0.47261 2.3535 3.2393 0 1.5294 -2.3535 3.2393 -1.4545 0.47261 -3.808 -1.2373 -0.89895 -1.2373" transform="translate(41.167 7)"/>
<polygon d="M 1.3084868e-6,-4.0040002 0.89895399,-1.237304 3.8080309,-1.2373029 1.4545381,0.47260808 2.3534912,3.239305 0,1.5293919 l -2.3534933,1.7099115 0.8989552,-2.76669531 -2.353492,-1.70991339 2.9090761,1.3e-6 z" points="0 -4.004 0.89895 -1.2373 3.808 -1.2373 1.4545 0.47261 2.3535 3.2393 0 1.5294 -2.3535 3.2393 -1.4545 0.47261 -3.808 -1.2373 -0.89895 -1.2373" transform="translate(57.633 7)"/>
<polygon d="M 1.3084868e-6,-4.0040002 0.89895399,-1.237304 3.8080309,-1.2373029 1.4545381,0.47260808 2.3534912,3.239305 0,1.5293919 l -2.3534933,1.7099115 0.8989552,-2.76669531 -2.353492,-1.70991339 2.9090761,1.3e-6 z" points="0 -4.004 0.89895 -1.2373 3.808 -1.2373 1.4545 0.47261 2.3535 3.2393 0 1.5294 -2.3535 3.2393 -1.4545 0.47261 -3.808 -1.2373 -0.89895 -1.2373" transform="translate(74.1,7)"/>
<polygon d="M 1.3084868e-6,-4.0040002 0.89895399,-1.237304 3.8080309,-1.2373029 1.4545381,0.47260808 2.3534912,3.239305 0,1.5293919 l -2.3534933,1.7099115 0.8989552,-2.76669531 -2.353492,-1.70991339 2.9090761,1.3e-6 z" points="0 -4.004 0.89895 -1.2373 3.808 -1.2373 1.4545 0.47261 2.3535 3.2393 0 1.5294 -2.3535 3.2393 -1.4545 0.47261 -3.808 -1.2373 -0.89895 -1.2373" transform="translate(90.567 7)"/>
<polygon d="M 1.3084868e-6,-4.0040002 0.89895399,-1.237304 3.8080309,-1.2373029 1.4545381,0.47260808 2.3534912,3.239305 0,1.5293919 l -2.3534933,1.7099115 0.8989552,-2.76669531 -2.353492,-1.70991339 2.9090761,1.3e-6 z" points="0 -4.004 0.89895 -1.2373 3.808 -1.2373 1.4545 0.47261 2.3535 3.2393 0 1.5294 -2.3535 3.2393 -1.4545 0.47261 -3.808 -1.2373 -0.89895 -1.2373" transform="translate(16.467 14)"/>
<polygon d="M 1.3084868e-6,-4.0040002 0.89895399,-1.237304 3.8080309,-1.2373029 1.4545381,0.47260808 2.3534912,3.239305 0,1.5293919 l -2.3534933,1.7099115 0.8989552,-2.76669531 -2.353492,-1.70991339 2.9090761,1.3e-6 z" points="0 -4.004 0.89895 -1.2373 3.808 -1.2373 1.4545 0.47261 2.3535 3.2393 0 1.5294 -2.3535 3.2393 -1.4545 0.47261 -3.808 -1.2373 -0.89895 -1.2373" transform="translate(32.933 14)"/>
<polygon d="M 1.3084868e-6,-4.0040002 0.89895399,-1.237304 3.8080309,-1.2373029 1.4545381,0.47260808 2.3534912,3.239305 0,1.5293919 l -2.3534933,1.7099115 0.8989552,-2.76669531 -2.353492,-1.70991339 2.9090761,1.3e-6 z" points="0 -4.004 0.89895 -1.2373 3.808 -1.2373 1.4545 0.47261 2.3535 3.2393 0 1.5294 -2.3535 3.2393 -1.4545 0.47261 -3.808 -1.2373 -0.89895 -1.2373" transform="translate(49.4,14)"/>
<polygon d="M 1.3084868e-6,-4.0040002 0.89895399,-1.237304 3.8080309,-1.2373029 1.4545381,0.47260808 2.3534912,3.239305 0,1.5293919 l -2.3534933,1.7099115 0.8989552,-2.76669531 -2.353492,-1.70991339 2.9090761,1.3e-6 z" points="0 -4.004 0.89895 -1.2373 3.808 -1.2373 1.4545 0.47261 2.3535 3.2393 0 1.5294 -2.3535 3.2393 -1.4545 0.47261 -3.808 -1.2373 -0.89895 -1.2373" transform="translate(65.867 14)"/>
<polygon d="M 1.3084868e-6,-4.0040002 0.89895399,-1.237304 3.8080309,-1.2373029 1.4545381,0.47260808 2.3534912,3.239305 0,1.5293919 l -2.3534933,1.7099115 0.8989552,-2.76669531 -2.353492,-1.70991339 2.9090761,1.3e-6 z" points="0 -4.004 0.89895 -1.2373 3.808 -1.2373 1.4545 0.47261 2.3535 3.2393 0 1.5294 -2.3535 3.2393 -1.4545 0.47261 -3.808 -1.2373 -0.89895 -1.2373" transform="translate(82.333 14)"/>
</g>
<g transform="translate(0,28)">
<polygon d="M 1.3084868e-6,-4.0040002 0.89895399,-1.237304 3.8080309,-1.2373029 1.4545381,0.47260808 2.3534912,3.239305 0,1.5293919 l -2.3534933,1.7099115 0.8989552,-2.76669531 -2.353492,-1.70991339 2.9090761,1.3e-6 z" points="0 -4.004 0.89895 -1.2373 3.808 -1.2373 1.4545 0.47261 2.3535 3.2393 0 1.5294 -2.3535 3.2393 -1.4545 0.47261 -3.808 -1.2373 -0.89895 -1.2373" transform="translate(8.2333 7)"/>
<polygon d="M 1.3084868e-6,-4.0040002 0.89895399,-1.237304 3.8080309,-1.2373029 1.4545381,0.47260808 2.3534912,3.239305 0,1.5293919 l -2.3534933,1.7099115 0.8989552,-2.76669531 -2.353492,-1.70991339 2.9090761,1.3e-6 z" points="0 -4.004 0.89895 -1.2373 3.808 -1.2373 1.4545 0.47261 2.3535 3.2393 0 1.5294 -2.3535 3.2393 -1.4545 0.47261 -3.808 -1.2373 -0.89895 -1.2373" transform="translate(24.7,7)"/>
<polygon d="M 1.3084868e-6,-4.0040002 0.89895399,-1.237304 3.8080309,-1.2373029 1.4545381,0.47260808 2.3534912,3.239305 0,1.5293919 l -2.3534933,1.7099115 0.8989552,-2.76669531 -2.353492,-1.70991339 2.9090761,1.3e-6 z" points="0 -4.004 0.89895 -1.2373 3.808 -1.2373 1.4545 0.47261 2.3535 3.2393 0 1.5294 -2.3535 3.2393 -1.4545 0.47261 -3.808 -1.2373 -0.89895 -1.2373" transform="translate(41.167 7)"/>
<polygon d="M 1.3084868e-6,-4.0040002 0.89895399,-1.237304 3.8080309,-1.2373029 1.4545381,0.47260808 2.3534912,3.239305 0,1.5293919 l -2.3534933,1.7099115 0.8989552,-2.76669531 -2.353492,-1.70991339 2.9090761,1.3e-6 z" points="0 -4.004 0.89895 -1.2373 3.808 -1.2373 1.4545 0.47261 2.3535 3.2393 0 1.5294 -2.3535 3.2393 -1.4545 0.47261 -3.808 -1.2373 -0.89895 -1.2373" transform="translate(57.633 7)"/>
<polygon d="M 1.3084868e-6,-4.0040002 0.89895399,-1.237304 3.8080309,-1.2373029 1.4545381,0.47260808 2.3534912,3.239305 0,1.5293919 l -2.3534933,1.7099115 0.8989552,-2.76669531 -2.353492,-1.70991339 2.9090761,1.3e-6 z" points="0 -4.004 0.89895 -1.2373 3.808 -1.2373 1.4545 0.47261 2.3535 3.2393 0 1.5294 -2.3535 3.2393 -1.4545 0.47261 -3.808 -1.2373 -0.89895 -1.2373" transform="translate(74.1,7)"/>
<polygon d="M 1.3084868e-6,-4.0040002 0.89895399,-1.237304 3.8080309,-1.2373029 1.4545381,0.47260808 2.3534912,3.239305 0,1.5293919 l -2.3534933,1.7099115 0.8989552,-2.76669531 -2.353492,-1.70991339 2.9090761,1.3e-6 z" points="0 -4.004 0.89895 -1.2373 3.808 -1.2373 1.4545 0.47261 2.3535 3.2393 0 1.5294 -2.3535 3.2393 -1.4545 0.47261 -3.808 -1.2373 -0.89895 -1.2373" transform="translate(90.567 7)"/>
<polygon d="M 1.3084868e-6,-4.0040002 0.89895399,-1.237304 3.8080309,-1.2373029 1.4545381,0.47260808 2.3534912,3.239305 0,1.5293919 l -2.3534933,1.7099115 0.8989552,-2.76669531 -2.353492,-1.70991339 2.9090761,1.3e-6 z" points="0 -4.004 0.89895 -1.2373 3.808 -1.2373 1.4545 0.47261 2.3535 3.2393 0 1.5294 -2.3535 3.2393 -1.4545 0.47261 -3.808 -1.2373 -0.89895 -1.2373" transform="translate(16.467 14)"/>
<polygon d="M 1.3084868e-6,-4.0040002 0.89895399,-1.237304 3.8080309,-1.2373029 1.4545381,0.47260808 2.3534912,3.239305 0,1.5293919 l -2.3534933,1.7099115 0.8989552,-2.76669531 -2.353492,-1.70991339 2.9090761,1.3e-6 z" points="0 -4.004 0.89895 -1.2373 3.808 -1.2373 1.4545 0.47261 2.3535 3.2393 0 1.5294 -2.3535 3.2393 -1.4545 0.47261 -3.808 -1.2373 -0.89895 -1.2373" transform="translate(32.933 14)"/>
<polygon d="M 1.3084868e-6,-4.0040002 0.89895399,-1.237304 3.8080309,-1.2373029 1.4545381,0.47260808 2.3534912,3.239305 0,1.5293919 l -2.3534933,1.7099115 0.8989552,-2.76669531 -2.353492,-1.70991339 2.9090761,1.3e-6 z" points="0 -4.004 0.89895 -1.2373 3.808 -1.2373 1.4545 0.47261 2.3535 3.2393 0 1.5294 -2.3535 3.2393 -1.4545 0.47261 -3.808 -1.2373 -0.89895 -1.2373" transform="translate(49.4,14)"/>
<polygon d="M 1.3084868e-6,-4.0040002 0.89895399,-1.237304 3.8080309,-1.2373029 1.4545381,0.47260808 2.3534912,3.239305 0,1.5293919 l -2.3534933,1.7099115 0.8989552,-2.76669531 -2.353492,-1.70991339 2.9090761,1.3e-6 z" points="0 -4.004 0.89895 -1.2373 3.808 -1.2373 1.4545 0.47261 2.3535 3.2393 0 1.5294 -2.3535 3.2393 -1.4545 0.47261 -3.808 -1.2373 -0.89895 -1.2373" transform="translate(65.867 14)"/>
<polygon d="M 1.3084868e-6,-4.0040002 0.89895399,-1.237304 3.8080309,-1.2373029 1.4545381,0.47260808 2.3534912,3.239305 0,1.5293919 l -2.3534933,1.7099115 0.8989552,-2.76669531 -2.353492,-1.70991339 2.9090761,1.3e-6 z" points="0 -4.004 0.89895 -1.2373 3.808 -1.2373 1.4545 0.47261 2.3535 3.2393 0 1.5294 -2.3535 3.2393 -1.4545 0.47261 -3.808 -1.2373 -0.89895 -1.2373" transform="translate(82.333 14)"/>
</g>
<g transform="translate(0,42)">
<polygon d="M 1.3084868e-6,-4.0040002 0.89895399,-1.237304 3.8080309,-1.2373029 1.4545381,0.47260808 2.3534912,3.239305 0,1.5293919 l -2.3534933,1.7099115 0.8989552,-2.76669531 -2.353492,-1.70991339 2.9090761,1.3e-6 z" points="0 -4.004 0.89895 -1.2373 3.808 -1.2373 1.4545 0.47261 2.3535 3.2393 0 1.5294 -2.3535 3.2393 -1.4545 0.47261 -3.808 -1.2373 -0.89895 -1.2373" transform="translate(8.2333 7)"/>
<polygon d="M 1.3084868e-6,-4.0040002 0.89895399,-1.237304 3.8080309,-1.2373029 1.4545381,0.47260808 2.3534912,3.239305 0,1.5293919 l -2.3534933,1.7099115 0.8989552,-2.76669531 -2.353492,-1.70991339 2.9090761,1.3e-6 z" points="0 -4.004 0.89895 -1.2373 3.808 -1.2373 1.4545 0.47261 2.3535 3.2393 0 1.5294 -2.3535 3.2393 -1.4545 0.47261 -3.808 -1.2373 -0.89895 -1.2373" transform="translate(24.7,7)"/>
<polygon d="M 1.3084868e-6,-4.0040002 0.89895399,-1.237304 3.8080309,-1.2373029 1.4545381,0.47260808 2.3534912,3.239305 0,1.5293919 l -2.3534933,1.7099115 0.8989552,-2.76669531 -2.353492,-1.70991339 2.9090761,1.3e-6 z" points="0 -4.004 0.89895 -1.2373 3.808 -1.2373 1.4545 0.47261 2.3535 3.2393 0 1.5294 -2.3535 3.2393 -1.4545 0.47261 -3.808 -1.2373 -0.89895 -1.2373" transform="translate(41.167 7)"/>
<polygon d="M 1.3084868e-6,-4.0040002 0.89895399,-1.237304 3.8080309,-1.2373029 1.4545381,0.47260808 2.3534912,3.239305 0,1.5293919 l -2.3534933,1.7099115 0.8989552,-2.76669531 -2.353492,-1.70991339 2.9090761,1.3e-6 z" points="0 -4.004 0.89895 -1.2373 3.808 -1.2373 1.4545 0.47261 2.3535 3.2393 0 1.5294 -2.3535 3.2393 -1.4545 0.47261 -3.808 -1.2373 -0.89895 -1.2373" transform="translate(57.633 7)"/>
<polygon d="M 1.3084868e-6,-4.0040002 0.89895399,-1.237304 3.8080309,-1.2373029 1.4545381,0.47260808 2.3534912,3.239305 0,1.5293919 l -2.3534933,1.7099115 0.8989552,-2.76669531 -2.353492,-1.70991339 2.9090761,1.3e-6 z" points="0 -4.004 0.89895 -1.2373 3.808 -1.2373 1.4545 0.47261 2.3535 3.2393 0 1.5294 -2.3535 3.2393 -1.4545 0.47261 -3.808 -1.2373 -0.89895 -1.2373" transform="translate(74.1,7)"/>
<polygon d="M 1.3084868e-6,-4.0040002 0.89895399,-1.237304 3.8080309,-1.2373029 1.4545381,0.47260808 2.3534912,3.239305 0,1.5293919 l -2.3534933,1.7099115 0.8989552,-2.76669531 -2.353492,-1.70991339 2.9090761,1.3e-6 z" points="0 -4.004 0.89895 -1.2373 3.808 -1.2373 1.4545 0.47261 2.3535 3.2393 0 1.5294 -2.3535 3.2393 -1.4545 0.47261 -3.808 -1.2373 -0.89895 -1.2373" transform="translate(90.567 7)"/>
<polygon d="M 1.3084868e-6,-4.0040002 0.89895399,-1.237304 3.8080309,-1.2373029 1.4545381,0.47260808 2.3534912,3.239305 0,1.5293919 l -2.3534933,1.7099115 0.8989552,-2.76669531 -2.353492,-1.70991339 2.9090761,1.3e-6 z" points="0 -4.004 0.89895 -1.2373 3.808 -1.2373 1.4545 0.47261 2.3535 3.2393 0 1.5294 -2.3535 3.2393 -1.4545 0.47261 -3.808 -1.2373 -0.89895 -1.2373" transform="translate(16.467 14)"/>
<polygon d="M 1.3084868e-6,-4.0040002 0.89895399,-1.237304 3.8080309,-1.2373029 1.4545381,0.47260808 2.3534912,3.239305 0,1.5293919 l -2.3534933,1.7099115 0.8989552,-2.76669531 -2.353492,-1.70991339 2.9090761,1.3e-6 z" points="0 -4.004 0.89895 -1.2373 3.808 -1.2373 1.4545 0.47261 2.3535 3.2393 0 1.5294 -2.3535 3.2393 -1.4545 0.47261 -3.808 -1.2373 -0.89895 -1.2373" transform="translate(32.933 14)"/>
<polygon d="M 1.3084868e-6,-4.0040002 0.89895399,-1.237304 3.8080309,-1.2373029 1.4545381,0.47260808 2.3534912,3.239305 0,1.5293919 l -2.3534933,1.7099115 0.8989552,-2.76669531 -2.353492,-1.70991339 2.9090761,1.3e-6 z" points="0 -4.004 0.89895 -1.2373 3.808 -1.2373 1.4545 0.47261 2.3535 3.2393 0 1.5294 -2.3535 3.2393 -1.4545 0.47261 -3.808 -1.2373 -0.89895 -1.2373" transform="translate(49.4,14)"/>
<polygon d="M 1.3084868e-6,-4.0040002 0.89895399,-1.237304 3.8080309,-1.2373029 1.4545381,0.47260808 2.3534912,3.239305 0,1.5293919 l -2.3534933,1.7099115 0.8989552,-2.76669531 -2.353492,-1.70991339 2.9090761,1.3e-6 z" points="0 -4.004 0.89895 -1.2373 3.808 -1.2373 1.4545 0.47261 2.3535 3.2393 0 1.5294 -2.3535 3.2393 -1.4545 0.47261 -3.808 -1.2373 -0.89895 -1.2373" transform="translate(65.867 14)"/>
<polygon d="M 1.3084868e-6,-4.0040002 0.89895399,-1.237304 3.8080309,-1.2373029 1.4545381,0.47260808 2.3534912,3.239305 0,1.5293919 l -2.3534933,1.7099115 0.8989552,-2.76669531 -2.353492,-1.70991339 2.9090761,1.3e-6 z" points="0 -4.004 0.89895 -1.2373 3.808 -1.2373 1.4545 0.47261 2.3535 3.2393 0 1.5294 -2.3535 3.2393 -1.4545 0.47261 -3.808 -1.2373 -0.89895 -1.2373" transform="translate(82.333 14)"/>
</g>
<g transform="translate(0,56)">
<polygon d="M 1.3084868e-6,-4.0040002 0.89895399,-1.237304 3.8080309,-1.2373029 1.4545381,0.47260808 2.3534912,3.239305 0,1.5293919 l -2.3534933,1.7099115 0.8989552,-2.76669531 -2.353492,-1.70991339 2.9090761,1.3e-6 z" points="0 -4.004 0.89895 -1.2373 3.808 -1.2373 1.4545 0.47261 2.3535 3.2393 0 1.5294 -2.3535 3.2393 -1.4545 0.47261 -3.808 -1.2373 -0.89895 -1.2373" transform="translate(8.2333 7)"/>
<polygon d="M 1.3084868e-6,-4.0040002 0.89895399,-1.237304 3.8080309,-1.2373029 1.4545381,0.47260808 2.3534912,3.239305 0,1.5293919 l -2.3534933,1.7099115 0.8989552,-2.76669531 -2.353492,-1.70991339 2.9090761,1.3e-6 z" points="0 -4.004 0.89895 -1.2373 3.808 -1.2373 1.4545 0.47261 2.3535 3.2393 0 1.5294 -2.3535 3.2393 -1.4545 0.47261 -3.808 -1.2373 -0.89895 -1.2373" transform="translate(24.7,7)"/>
<polygon d="M 1.3084868e-6,-4.0040002 0.89895399,-1.237304 3.8080309,-1.2373029 1.4545381,0.47260808 2.3534912,3.239305 0,1.5293919 l -2.3534933,1.7099115 0.8989552,-2.76669531 -2.353492,-1.70991339 2.9090761,1.3e-6 z" points="0 -4.004 0.89895 -1.2373 3.808 -1.2373 1.4545 0.47261 2.3535 3.2393 0 1.5294 -2.3535 3.2393 -1.4545 0.47261 -3.808 -1.2373 -0.89895 -1.2373" transform="translate(41.167 7)"/>
<polygon d="M 1.3084868e-6,-4.0040002 0.89895399,-1.237304 3.8080309,-1.2373029 1.4545381,0.47260808 2.3534912,3.239305 0,1.5293919 l -2.3534933,1.7099115 0.8989552,-2.76669531 -2.353492,-1.70991339 2.9090761,1.3e-6 z" points="0 -4.004 0.89895 -1.2373 3.808 -1.2373 1.4545 0.47261 2.3535 3.2393 0 1.5294 -2.3535 3.2393 -1.4545 0.47261 -3.808 -1.2373 -0.89895 -1.2373" transform="translate(57.633 7)"/>
<polygon d="M 1.3084868e-6,-4.0040002 0.89895399,-1.237304 3.8080309,-1.2373029 1.4545381,0.47260808 2.3534912,3.239305 0,1.5293919 l -2.3534933,1.7099115 0.8989552,-2.76669531 -2.353492,-1.70991339 2.9090761,1.3e-6 z" points="0 -4.004 0.89895 -1.2373 3.808 -1.2373 1.4545 0.47261 2.3535 3.2393 0 1.5294 -2.3535 3.2393 -1.4545 0.47261 -3.808 -1.2373 -0.89895 -1.2373" transform="translate(74.1,7)"/>
<polygon d="M 1.3084868e-6,-4.0040002 0.89895399,-1.237304 3.8080309,-1.2373029 1.4545381,0.47260808 2.3534912,3.239305 0,1.5293919 l -2.3534933,1.7099115 0.8989552,-2.76669531 -2.353492,-1.70991339 2.9090761,1.3e-6 z" points="0 -4.004 0.89895 -1.2373 3.808 -1.2373 1.4545 0.47261 2.3535 3.2393 0 1.5294 -2.3535 3.2393 -1.4545 0.47261 -3.808 -1.2373 -0.89895 -1.2373" transform="translate(90.567 7)"/>
</g>
</g>
</g>
</svg>
