<svg viewBox="0 0 128 96" width="640" xmlns="http://www.w3.org/2000/svg" xmlns:xlink="http://www.w3.org/1999/xlink" height="480">
<defs>
<g id="g" transform="translate(0 -36)">
<g id="i">
<g id="h">
<path id="j" fill="#fff" d="m0-5l-1.545 4.755 2.853 0.927z"/>
<use width="180" xlink:href="#j" transform="scale(-1 1)" height="120"/>
</g>
<use width="180" xlink:href="#h" transform="rotate(72)" height="120"/>
</g>
<use width="180" xlink:href="#h" transform="rotate(-72)" height="120"/>
<use width="180" xlink:href="#i" transform="matrix(-.809 .588 -.588 -.809 0 0)" height="120"/>
</g>
</defs>
<path d="m0 0h128v96h-128z" fill="#cf142b"/>
<path d="m0 0h128v64h-128z" fill="#00247d"/>
<path d="m0 0h128v32h-128z" fill="#fc0"/>
<g transform="matrix(.8 0 0 .8 64 67.2)">
<g id="k">
<g id="l">
<use width="180" xlink:href="#g" transform="rotate(10)" height="120"/>
<use width="180" xlink:href="#g" transform="rotate(30)" height="120"/>
</g>
<use width="180" xlink:href="#l" transform="rotate(40)" height="120"/>
</g>
<use width="180" xlink:href="#k" transform="rotate(-80)" height="120"/>
</g>
</svg>
