<svg xmlns:rdf="http://www.w3.org/1999/02/22-rdf-syntax-ns#" style="enable-background:new 0 0 744 496" xmlns="http://www.w3.org/2000/svg" xml:space="preserve" height="496px" viewBox="0 0 744 496" width="744px" xmlns:cc="http://creativecommons.org/ns#" xmlns:dc="http://purl.org/dc/elements/1.1/">
<rect width="744" fill="#fff" height="496"/>
<path d="m437.96 178.59c0-3.42-1.111-10.061-4.726-12.36-4.642-2.414-4.642-3.899-5.013-7.055s7.797-9.096 7.797-9.096-7.426-3.342-10.21-2.971c-2.784 0.372-8.168 0.928-8.91 1.671-0.743 0.743-4.827-13.366-2.228-15.594s7.981 5.198 7.981 5.198 3.527-8.168-8.91-23.762c4.27-30.445-24.133-37.5-30.63-37.314-5.383-0.742-19.306 4.27-21.533 10.953-7.055 2.413-7.426 8.54-7.426 8.54s-14.479 2.599-16.336 15.223c8.539-7.054 14.108 0.743 14.108 0.743s7.426 5.198 11.324 5.384c3.897 0.186-3.713 12.995-5.94 15.223-2.228 2.228-11.51 10.768-11.139 11.324s7.24 2.599 6.869 5.755c-0.372 3.156-21.163 12.81-20.049 15.223 5.384-1.671 9.581-0.384 9.581-0.384 0.75 5.271-1.35 11.34-4.932 13.305l100.33 0.01z" stroke="#000" stroke-width="1.4835" fill="#FFD600"/>
<path stroke-linejoin="round" d="m432.46 317.7s0.945 11.16-3.783 15.889c20.995 1.324 32.344 22.699 32.533 27.807 0.188 5.106-6.432 9.078-6.432 9.078s2.271 9.08-6.431 10.593c0.189 8.701-5.863 8.701-5.863 8.701s-2.27 7.188-9.268 6.81c-2.081 10.403-12.862 10.214-12.862 10.214s-6.242 15.133-15.51 9.269c-5.863 12.862-21.373 12.295-27.237 0-3.215-0.188-10.402 4.161-14.753-8.701-9.646 1.703-13.429-10.592-13.429-10.592s-6.432-0.568-8.891-6.999c-7.565-1.513-6.241-9.079-6.241-9.079s-7.565-2.08-7.377-10.403c-6.053-3.595-5.485-10.025-5.485-10.025s4.729-22.319 32.155-27.049c-4.351-6.241-3.783-15.321-3.783-15.321l82.64-0.19z" stroke="#000" stroke-linecap="round" stroke-width="1.4835" fill="#FFD600"/>
<g stroke-linejoin="round" stroke="#000" transform="matrix(-1.4835 0 0 1.4836 758.85 27.398)"><g fill="#FFD600">
	<path d="m308.58 109.38s10.077 10.841 15.116 2.749-7.023-10.383-7.176-10.536c-0.153-0.152-7.024-2.29-7.634-14.963-0.611-12.673 15.116-20.918 19.544-21.987s17.406-1.069 17.406-1.069 47.485-11.451 52.371-14.963c4.886-3.512 49.776-11.757 49.776-11.757s7.176-0.916 6.565 5.497c-0.611 6.413-6.565 7.176-6.565 7.176s5.039 3.97 4.428 7.482c-0.611 3.512-4.428 9.161-12.368 8.245 0.916 12.52-16.49 14.505-16.49 14.505s-1.832 18.017-17.865 17.101c-3.817 12.367-18.169 12.826-18.169 12.826s-6.718 8.398-16.49 9.008c-5.649 14.047-17.864 10.077-17.864 10.077s0.916 8.856-4.733 8.856c2.901 10.077-7.939 11.451-12.062 9.466-1.069 2.137-4.733 8.703-13.131 4.581-5.038 7.482-13.284 3.97-13.284 3.97s-1.832 5.955-9.008 3.664c-7.2-2.3 7.76-49.63 7.61-49.93z"/><g stroke-linecap="round">
	<path d="m339.73 72.426s-11.146 1.222-9.772 18.475"/>
	<path d="m382.17 54.562s21.376 14.658-18.628 19.238"/>
	<path d="m376.06 71.815c0.152 0.305 10.077 12.062-8.245 15.574 8.703 8.245-7.634 10.993-7.634 10.993s3.359 8.703-6.413 10.993c3.206 9.009-7.329 8.551-7.329 8.551s-0.305 10.993-12.826 10.841c0.153 7.482-8.55 7.94-8.55 7.94s-2.596 8.092-10.993 5.649c-0.916 5.649-6.718 4.428-6.718 4.428"/></g></g><g stroke-linecap="round" fill="#F7F308">
	<path d="m309.8 155.79s-0.458-7.787 1.374-9.314"/>
	<path d="m323.69 151.52c-0.153-0.153-3.665-7.176-2.443-8.398"/>
	<path d="m336.52 147.09l-9.467-9.314"/>
	<path d="m348.43 137.93c-0.153-0.153-14.352-9.008-14.352-9.008"/>
	<path d="m353.47 128.92c-0.153-0.153-8.092-3.512-8.398-6.413"/></g><g stroke-linecap="round" fill="#FFD600">
	<path d="m371.03 118.69s-19.238 4.123-22.598-0.305"/>
	<path d="m387.06 109.53c-0.763 0-28.857 3.054-31.453-0.458"/>
	<path d="m405.69 96.855c-0.458-0.153-33.285 6.108-42.599 1.374"/>
	<path d="m421.41 79.907c-0.764 0-43.668 10.383-50.081 7.176"/>
	<path d="m437.75 64.944c-0.305 0-51.15 11.91-57.562 7.023"/>
	<path d="m444.32 50.439c-0.152 0-48.707 15.879-52.829 11.909"/>
</g></g>
<g stroke-linejoin="round" stroke="#000" transform="matrix(1.4835 0 0 1.4836 24.096 27.918)"><g fill="#FFD600">
	<path d="m308.58 109.38s10.078 10.841 15.116 2.749c5.039-8.092-7.023-10.383-7.176-10.536-0.153-0.152-7.024-2.29-7.635-14.963-0.61-12.673 15.116-20.918 19.544-21.987s17.406-1.069 17.406-1.069 47.485-11.451 52.371-14.963c4.886-3.512 49.775-11.757 49.775-11.757s7.177-0.916 6.566 5.497c-0.611 6.413-6.566 7.176-6.566 7.176s5.039 3.97 4.428 7.482c-0.611 3.512-4.428 9.161-12.368 8.245 0.916 12.52-16.49 14.505-16.49 14.505s-1.833 18.017-17.864 17.101c-3.817 12.367-18.17 12.826-18.17 12.826s-6.718 8.398-16.49 9.008c-5.649 14.047-17.864 10.077-17.864 10.077s0.916 8.856-4.733 8.856c2.901 10.077-7.939 11.451-12.062 9.466-1.068 2.137-4.734 8.703-13.131 4.581-5.038 7.482-13.283 3.97-13.283 3.97s-1.832 5.955-9.008 3.664c-7.19-2.3 7.77-49.63 7.62-49.93z"/><g stroke-linecap="round">
	<path d="m339.73 72.426s-11.146 1.222-9.772 18.475"/>
	<path d="m382.17 54.562s21.375 14.658-18.628 19.238"/>
	<path d="m376.06 71.815c0.153 0.305 10.077 12.062-8.246 15.574 8.703 8.245-7.634 10.993-7.634 10.993s3.359 8.703-6.413 10.993c3.206 9.009-7.329 8.551-7.329 8.551s-0.305 10.993-12.826 10.841c0.153 7.482-8.55 7.94-8.55 7.94s-2.596 8.092-10.994 5.649c-0.916 5.649-6.718 4.428-6.718 4.428"/></g></g><g stroke-linecap="round" fill="#F7F308">
	<path d="m309.8 155.79s-0.458-7.787 1.374-9.314"/>
	<path d="m323.69 151.52c-0.153-0.153-3.664-7.176-2.443-8.398"/>
	<path d="m336.52 147.09l-9.467-9.314"/>
	</g><path d="m348.43 137.93c-0.153-0.153-14.352-9.008-14.352-9.008" stroke-linecap="round" fill="#FFD600"/>
	<path d="m353.47 128.92c-0.153-0.153-8.092-3.512-8.398-6.413" stroke-linecap="round" fill="#F7F308"/><g stroke-linecap="round" fill="#FFD600">
	<path d="m371.03 118.69s-19.238 4.123-22.597-0.305"/>
	<path d="m387.06 109.53c-0.764 0-28.857 3.054-31.453-0.458"/>
	<path d="m405.69 96.855c-0.458-0.153-33.286 6.108-42.6 1.374"/>
	<path d="m421.41 79.907c-0.763 0-43.668 10.382-50.081 7.176"/>
	<path d="m437.75 64.944c-0.305 0-51.15 11.91-57.563 7.023"/>
	<path d="m444.32 50.439c-0.153 0-48.707 15.879-52.83 11.909"/>
</g></g><g stroke="#000">
<path d="m568.43 217.64s-4.429 63.296-4.644 63.152c-0.214-0.145-9.237-11.057-9.237-11.057l-27.847 87.303 6.509 19.044-16.213 53.163-13.371-16.961-21.601 8.686 17.339-55.992 16.019-11.51 28.844-86.007-16.008 2.004 40.21-51.81z" stroke-width="1.4835" fill="#00CEDE"/>
<path d="m629.97 243.75s-33.681 53.773-33.802 53.545c-0.122-0.229-2.951-14.104-2.951-14.104l-55.345 51.34-59.098 57.025-0.163-11.745-20.222-2.497 26.747-20.465 13.697-2.257 86.345-78.263-15.07-5.762 59.84-26.83z" stroke-width="1.4835" fill="#00CEDE"/>
<path d="m478.82 379.72c0.366-0.764 30.729-26.707 30.729-26.707" stroke-width="1.515" fill="none"/><g stroke-width="1.4835">
<path d="m611.98 198.26s-16.462 61.278-16.645 61.095c-0.183-0.182-6.95-12.621-6.95-12.621l-66.764 114.69 2.743 19.938-23.961 43.901-9.878-19.207-22.863 4.391 25.607-46.462 17.926-8.231 67.494-113.23-16.096-1.097 49.38-43.17z" fill="#00CEDE"/>
<path d="m490.89 405.32c0-0.365 23.047-40.608 23.047-40.608" fill="none"/>
<path d="m37.632 186.74l40.241 0.183-4.024 9.695 17.56 69.51 21.218-69.327-7.5-10.061h41.887l-8.963 9.695-34.57 99.326 8.962 12.987h-40.248l8.963-12.987-33.839-98.96-9.694-10.07z" fill="#00CEDE"/>
<path d="m654.96 189.11h38.229l-6.219 8.597-0.184 101.16 8.598 9.512h-40.424l8.048-10.243-0.183-100.24-7.88-8.79z" fill="#00CEDE"/>
<path d="m353.59 97.64s4.902 6.157 6.727 6.727c1.824 0.57 12.085 5.587 11.516 9.007-0.57 3.42-7.297 5.131-7.297 5.131" fill="none"/>
<path d="m361.68 88.519l10.261 9.805s1.824 8.437 9.121 7.753 6.271-3.763 6.271-3.763-8.778-6.157-15.733-4.675" fill="none"/>
<path stroke-linejoin="round" d="m299.12 397.54l13.705-11.383s-3.02-6.272-13.938-6.04c-10.22-7.2-27.873-24.158-27.873-24.158l-8.827-23.926s7.201-2.09 8.827-7.897c1.625-5.808-0.465-13.009-1.162-13.705-0.697-0.697-7.897 1.161-9.988 4.181-2.091 3.021-5.343 14.635-10.221 10.686s0.697-8.362 0.697-8.362 4.878-6.039 4.646-9.292c-0.232-3.252-6.503-13.008-7.201-13.24-0.697-0.232-2.09 12.776-3.949 14.17-1.858 1.395-4.413 7.201-8.13 3.949-3.716-3.252 1.858-8.131 1.858-8.131s10.453-5.574 0.232-23.926c-3.02 7.898-8.826 13.008-8.826 13.008s-2.788 4.879-5.343 0.697c-2.555-4.181 3.02-8.13 3.02-8.13s9.059-5.343 9.292-13.241c0.232-7.897-10.917-16.957-10.917-16.957s-0.696 14.635-4.181 16.493-4.878 4.878-8.827 1.626 3.02-10.453 3.02-10.453 12.079-12.079 11.382-19.048-1.394-8.13-1.394-8.13-9.059 5.575-10.22 8.362c-1.162 2.788-4.878 12.776-9.524 9.756-3.252-3.716 2.788-10.917 2.788-10.917s4.413-4.878 4.181-6.969c-0.232-2.091-3.716-8.362-10.453-14.402-0.929-1.858-1.394-9.292-1.394-9.292s-5.11 6.04-4.877 9.292c0.232 3.252-0.465 9.756 0.232 16.957s-5.575-2.323-5.575-2.323l1.162-23.229s-8.827-10.686-19.512-14.634c3.949 5.807 3.716 11.382 3.716 11.382s-4.413 9.524-4.413 12.079 5.11 13.705 14.634 21.138c-14.402-15.563-32.287-10.453-37.63-13.473 2.555 3.02 10.221 14.402 9.292 17.422s13.705 9.292 13.705 9.292l15.563 0.232s7.665 5.342 8.362 8.826c0.697 3.485-11.149-6.504-15.795-6.271-4.646 0.232-16.957-1.625-16.957-1.625s7.433 6.968 7.665 9.988c0.232 3.02 3.484 9.988 7.898 11.847 4.413 1.858 16.259 2.556 16.259 2.556s5.11-3.021 6.04 0.231c0.929 3.252-6.736 5.808-6.736 5.808s-7.897 0-10.453-2.091-3.02-5.575-14.401-6.969c-1.162 9.524 6.271 19.28 6.271 19.28s31.358-2.555 31.125 4.182c-0.232 6.736-26.015 0.696-26.944-1.395-0.929-2.09 1.162 13.24 7.201 16.492s19.512 1.627 21.138 0.93 7.665-1.394 7.665 2.091-30.661 6.272-31.125 5.343c-0.465-0.93 4.646 11.847 16.957 11.15s17.653-4.414 17.653-4.414 7.433-1.395 8.129 1.626c0.697 3.02-7.433 4.413-7.433 4.413s-19.512 0.465-20.208-0.465c-0.697-0.929 4.414 12.312 18.118 12.08 10.221-0.93 10.917-5.344 13.008-6.04 3.02-0.696 9.524-0.696 10.453-0.464s17.189 11.613 17.189 11.613l41.35 41.81z" fill="#188400"/></g></g><g stroke-linejoin="round" stroke="#000" stroke-linecap="round" stroke-width="1.4835" fill="none">
<path d="m179.26 214.03s-0.465 22.3 10.685 29.037"/>
<path d="m202.72 231.68s7.433 11.382-5.11 15.563"/>
<path d="m164.16 239.35s-0.929 12.775 21.603 11.847"/>
<path d="m219.91 250.5s-3.716 9.059-12.775 8.594"/>
<path d="m228.27 270.94c0 1.161 1.626 13.473-10.22 13.24"/>
<path d="m171.59 265.83s14.866 9.293 21.602 8.596"/>
<path d="m174.85 288.36s6.968 7.434 19.744 5.574"/>
<path d="m236.17 293.47c0 0.93-2.322 8.131-7.433 9.061"/>
<path d="m186.46 309.96s5.575 7.2 20.208 3.252"/>
<path d="m250.1 306.94s-2.323 11.382-8.362 11.614"/>
<path d="m264.27 319.26s-4.646 13.705-16.492 11.614"/>
<path d="m209.69 343.65s4.646 4.182 16.027-0.93"/>
<path d="m196.91 329.71c0.929 0 6.736 4.878 20.673-2.555"/>
<path d="m299.09 380.47s-8.679 3.886-0.259 16.969"/></g><g stroke="#000" stroke-width="1.4835" fill="#FFD600">
<path d="m469.59 266.32s9.121 8.757 9.304 10.582c0.183 1.824 2.372 10.398 4.743 11.676s11.676 8.757 12.953 11.676c1.276 2.92 9.486 15.325 9.486 15.325s7.662 15.689 12.77 16.967c5.108 1.276 19.521-0.912 22.439 6.021s2.189 16.967 2.189 16.967-3.467 3.102-5.108 1.277-4.561 9.121-9.669 6.02c-6.958-14.815-25.168-12.397-25.168-12.397s4.006-6.211-12.23-11.685c-25.358 4.379-32.838-22.074-32.838-22.074l-14.434-12.52 25.57-37.85z"/>
<path d="m455 303.91l11.311 5.291-0.912-9.669"/>
<path d="m471.05 302.45l10.398 5.108-4.195-8.392"/>
<path d="m470.5 288.76l10.216 5.473-4.743-10.581"/>
<path d="m486.74 338.94s-11.676-15.325-11.493-15.325 19.885 3.831 19.885 3.831l-7.297-15.689 18.061 4.743"/>
<path d="m520.31 341.31s11.493 2.555 11.128 21.711"/>
<path d="m526.33 338.39s12.406-0.729 11.676 18.608"/>
<path d="m312.38 268.7s-9.122 8.757-9.304 10.581c-0.183 1.824-3.885 9.264-6.256 10.541-2.372 1.277-10.541 9.514-11.818 12.434-1.277 2.919-9.108 15.703-9.108 15.703s-8.986 13.041-14.094 14.318c-6.243 0.521-18.196 1.736-21.115 8.668-2.919 6.934 1.594 17.535 4.999 17.535 5.107 2.27 7.438 4.614 9.08 2.79 2.776 0.823 1.188 3.2 6.297 0.099-3.883-4.976-3.468-9.784 0.424-11.045 3.882-1.328 10.205 4.58 10.205 4.58s2.302-10.743 18.539-16.217c25.358 4.379 32.172-16.084 33.947-20.965 3.998-5.442 10.216-6.891 15.324-10.336l-27.11-38.68z"/></g><g stroke="#000" fill="none"><g stroke-linejoin="round" stroke-linecap="round" stroke-width="1.4835">
<path d="m327.42 304.06l-11.755 6.178 0.912-8.338"/>
<path d="m311.81 302.38l-11.064 5.107 5.083-8.613"/>
<path d="m312.13 288.92l-9.55 4.142 3.412-7.032"/>
<path d="m295.68 338.87c1.775-3.55 10.788-14.659 10.605-14.659-0.182 0-18.554 3.832-18.554 3.832l5.966-15.469-16.064 3.19"/>
<path d="m262.42 341.22s-13.952 2.554-8.48 19.818"/>
</g><path d="m256.4 338.87s-15.242 0.405-9.973 19.365" stroke-width="1.4835"/><g stroke-linejoin="round" stroke-linecap="round">
<path d="m424.32 324.89c0-0.189 5.107 12.862-5.863 15.132 28.183-2.08 36.127 30.075 36.127 30.075" stroke-width="1.8544"/><g stroke-width="1.4835">
<path d="m417.9 329.62s2.459 9.458-5.674 14.187c29.506 6.432 36.315 37.074 36.315 37.074"/>
<path d="m411.65 333.97c0 0.379 2.838 12.295-6.431 14.187 18.348-4.919 37.451 41.613 37.451 41.613"/>
<path d="m402.76 339.27s4.729 9.078-3.972 11.916c16.455 1.702 21.752 55.8 21.752 55.8"/>
<path d="m397.09 342.48s2.647 10.025-5.863 13.051c17.212-9.078 13.996 60.908 13.996 60.908"/>
<path d="m385.74 343.05s-3.594 10.593 4.351 12.673c-15.699-4.35-12.673 60.719-12.673 60.719"/>
<path d="m378.36 338.89s-2.459 9.646 7.188 14.564c-16.077-10.214-22.697 54.287-22.697 54.287"/>
<path d="m403.9 347.78s29.316 28.184 29.128 48.99"/>
<path d="m357.56 325.08c0 0.189-3.594 15.133 6.81 15.511"/>
<path d="m364.94 330.57c0 0.378-2.838 12.672 5.484 13.24"/>
<path d="m371.56 334.16s-5.107 12.295 7.376 13.997"/>
<path d="m377.98 348.35c-0.189 0-24.399 22.51-28.183 48.612"/>
<path d="m373.44 346.08c-0.188 0-30.83 19.104-32.911 43.505"/>
<path d="m366.64 342.86s-34.046 19.86-32.533 37.83"/>
<path d="m358.5 338.51s-25.345 4.729-31.587 31.967"/>
</g></g><path d="m305.05 164.24s24.51 13.536 42.07 12.804 43.899-12.073 43.899-12.073 23.412 13.17 42.436 11.341c19.022-1.829 45.362-12.072 45.362-12.072 15.73 78.534-20.12 149.02-87.798 180.73-71.82-32.81-106.7-111.71-85.97-180.73z" stroke-width="1.4835"/>
</g><g transform="matrix(1.4835 0 0 1.4836 24.096 27.918)">
	<path fill="#fff" stroke="#000" d="m189.38 91.884s16.522 9.124 28.358 8.631c11.837-0.493 29.591-8.138 29.591-8.138s15.782 8.877 28.605 7.645c12.823-1.233 30.577-8.138 30.577-8.138 10.603 52.935-13.562 100.44-59.182 121.82-48.42-22.12-71.93-75.3-57.96-121.83z"/><g fill="#be0a2f">
	<path d="m195.47 130.35v33.097l9.387 15.827v-48.924h-9.39z"/>
	<path d="m214.25 130.35v59.927l9.387 8.737v-68.664h-9.39z"/>
	<path d="m233.02 130.35v75.757l9.387 5.212v-80.969h-9.39z"/>
	<path d="m298.73 130.35v33.106l-9.387 15.964v-49.07h9.39z"/>
	<path d="m279.96 130.35v60.222l-9.387 8.56v-68.783h9.39z"/>
	<path d="m261.18 130.35v75.613l-9.387 5.592v-81.205h9.39z"/>
	</g><path d="m189.38 91.884s4.131 2.281 9.74 4.5c5.61 2.22 12.699 4.377 18.617 4.13 11.837-0.493 29.591-8.138 29.591-8.138s15.782 8.877 28.605 7.645c12.823-1.233 30.577-8.138 30.577-8.138 2.59 15.371 3.884 23.221 1.603 38.469h-122.04c-1.55-15.21-1.46-22.11 3.3-38.466z" stroke="#000" fill="#002768"/>
</g>
<path d="m305.05 164.24s24.51 13.536 42.07 12.804 43.899-12.073 43.899-12.073 23.412 13.17 42.436 11.341c19.022-1.829 45.362-12.072 45.362-12.072 15.73 78.534-20.12 149.02-87.798 180.73-71.82-32.81-106.7-111.71-85.97-180.73z" stroke="#000" stroke-width="1.4835" fill="none"/>
</svg>
