<svg width="826.76" xmlns="http://www.w3.org/2000/svg" height="496.06">
<g fill-rule="evenodd">
<rect height="248.03" width="826.76" y=".000008" x="0" stroke-width="1pt" fill="#fff"/>
<rect height="248.03" width="826.76" y="248.03" x="0" stroke-width="1pt" fill="#00ab39"/>
<path stroke-linejoin="round" d="m541.62 28.562c-52.282 28.904-99.066 58.983-145.06 97.312-22.061 19.27-15.834 34.632-16.688 51.938 0.711 11.618-2.5112 22.426-9.6562 28.938-16.35 3.306-32.714 6.6315-49.062 9.9375-1.566-4.523-3.1215-9.0405-4.6875-13.562 1.495-6.94 7.2315-10.352 19.312-6 0.952-8.923-6.227-12.555-14.625-15.656-2.885-2.246-6.468-3.9715-6-11.688-1.412-17.467 26.615 1.25 26.875 1.25 0.261 0-0.9335-17.627-13.812-21.156-7.022-2.485-9.9935-9.892-7.3125-15.375 5.618-11.209 16.193 0.8785 24.281 1.3125-0.303-7.317-2.3865-12.532-8.6875-18.438-3.392-2.087-11.722-3.6572-11.938-7.1562-0.177-4.752 7.8072-6.7838 18.781-5.4688-2.288-6.6597-9.6675-10.968-19.812-14.094-2-3.4787-4-6.9588-6-10.438-2.841-5.26-4.1152-5.4017 2.4688-15.375 5.915-3.8266 13.774-9.2361 19.688-13.062-2.175-0.261-4.3562-0.52035-6.5312-0.78125 0.869-7.1313 0.969-9.5307 2.625-21.375-6.346 8.6716-14.275 7.1218-21.406 10.688 0 0-20.33 3.6092-26.875 12.25-0.261 0-51.125-2.5938-51.125-2.5938-10.84 1.5095-20.099 4.5822-21.906 15.125-24.792 2.5024-50.755 0.2888-69.656 24 12.87-0.6087 24.136-3.6737 38.594-1.8125 0 0 12.321 0.23265 14.875 13.281 0.261 0.521 4.1875 0.53125 4.1875 0.53125 1.566 1.217 3.1215 2.4392 4.6875 3.6562 0.609-1.652 1.2035-3.3168 1.8125-4.9688 1.392 0.957 2.7955 1.918 4.1875 2.875 0.434-1.826 0.8785-3.6426 1.3125-5.4688 1.392 0.9565 2.7642 1.9184 4.1562 2.875 0.087-2.1741 0.19525-4.3572 0.28125-6.5312 1.827 1.3044 3.6428 2.6018 5.4688 3.9062v-8.5938s20.192-0.04735 26.344 12.781c0.262 0.261-56.669 10.463-111.66 5.75 5.306-2.609 10.601-5.2348 15.906-7.8438-20.05-4.0763-38.901-7.761-56.594-21.656 6.6772 25.137 41.181 54.663 48.25 54.531 0 0.261-6.7812-12.25-6.7812-12.25 19.916 0.87 39.835 1.7248 59.75 2.5938 2.175 6.61 1.2132 14.02 6.5312 19.844 0 0-3.2988 10.925 4.0312 15.375 0.262 0.521 8.75-22.156 8.75-22.156s2.5998 6.1002 5.2188 10.156c3.795-19.508 25.031-22.688 25.031-22.688s4.4375 10.176 4.4375 10.438c-6.636 0.96-14.89 14.486-10.438 21.906-4.45 0.085-12.351 13.186-9.9062 20.344-3.741 3.723-13.058 8.6862-10.688 24.281-7.334 1.572-11.676 14.991-9.4062 29.219-11.349 10.564-8.5635 29.956 1.5625 37.812-4.203 3.74-6.7902 6.6158-6.7812 11.219-3.996-1.485-7.6792-0.244-9.4062 2.375-4.898-5.021-11.932-9.4178-16.938-4.7188-1.296-5.94-9.032-12.475-17.5-11.719 0.496-6.264-2.7548-14.018-11.719-16.719 0 0-1.8138-29.358-10.719-38.875-0.873-5.326 0.50975-8.9475 7.8438-13.312 7.323-3.906 8.8788-6.935 8.3438-18 2.887-7.396 5.0808-14.936-3.9062-20.062 0.271 8.795-2.429 13.032-6 16.938-4.266-0.621-5.755 4.3572-8.625 6.5312-4.016-5.413 8.4718-13.799-0.78125-25.844-0.521-0.523-6.459-15.723-21.125-15.375 6.971 4.082 9.9192 10.951 9.9062 18-4.624 13.045-6.9738 23.127-2.3438 38.094-6.093-9.129-9.5488-26.482-14.594-29.5-4.422-0.863-6.5822-11.322-23.75-8.3438 7.4057 1.992 9.7571 7.6472 11.75 12.781-4.541 2.342-2.285 8.5192 1.0312 12.781-0.6297 10.015 5.3698 15.866 14.344 19.594-1.478 13.653-2.9595 27.284-4.4375 40.938-3.565-0.455-9.0506 13.425-11.219 13.844-3.4888 2.171-9.5812 8.0092-2.5938 9.6562-2.0758 7.491-4.001 12.008-15.156 13.562 0 0 11.787 6.9912 21.562-4.9688 10.474-0.262 7.0298-12.752 12.094-18.25 0-0.26 2.8745-2.0655 7.0625-13.062 1.832 9.819 11.908 39.888 34.688 54.812 19.856 21.256 36.175 41.33 36 69.656 7.75-7.209 12.378-18.625 15.938-29.5 10.777-3.748 26.192-5.1795 39.938-4.5625-2.358 4.961-4.9968 9.7215-1.5938 12.938-9.593 3.295-11.695 10.257-7.8438 17.219-10.112 6.867-10.778 11.28-10.938 22.688-18.708 23.985-30.249 23.189-48.781 16.969-6.086-3.572-15.505-8.714-19.844-6-8.004-5.334-19.512-6.127-21.406 6 6.006-4.978 9.592-4.0188 14.375 0.78125-0.962 2.436-1.7655 4.862 1.8125 6.25-1.566 1.739-3.1215 3.4798-4.6875 5.2188-8.613-1.324-20.194-1.2502-23.219 11.219 4.424-3.665 14.24-4.5252 22.156-1.0312 1.479 0.522 2.9585 1.0395 4.4375 1.5625 0.174 2 0.35825 4 0.53125 6 0 0-11.732-1.8112-14.875 17.219 11-11.702 18.781-8.625 18.781-8.625 4.239 6.205 19.84 5.2705 31.062-4.9375 15.762-8.812 20.357 3.8515 30.531-4.4375 8.436-6.292 18.417-2.1082 25.281 5.2188 7.915 2.969 16.2 5.413 22.719 0 0 0 7.9632-5.081 15.906 3.125 0.087-9.253-6.47-14.169-15.375-14.344-0.87-0.87-0.359 0.34-2.625-2.625-8.349-1.74-17.73-1.0338-25.031-5.2188 3.442-13.065 8.457-24.904 18.25-34.969 12.088-12.958 20.987-18.85 36.25-38.688-0.589 11.211 8.0032 23.676 12.531 35.062 0 0 9.1165-14.555 10.438-26.375 0.26 0 11.424-5.81 16.188-10.75 10.056 6.237 26.446-4.9932 37.031-14.281 6.525 2.47 11.478 2.293 19.062 0-6.088 12.39 3.5212 23.884 18.781 28.688 1.411 10.938 12.459 13.228 29.219 13.312 0.706 6.436 10.688 7.3125 10.688 7.3125-6.307 2.94-9.595 5.8862-9.375 12.531-6.465 0.044-11.36 1.671-13.062 9.125-8.876 0.152-17.922 0.83275-25.562 5.2188-8.175-1.269-18.121-4.6568-24.531-11.219-3.306-2.783-4.1312-6.7958-9.9062-8.3438-3.66-4.326-8.0392-3.3608-9.4062 0.78125-3.783-2.955-17.972-4.328-20.344 9.125 6.624-4.848 12.564-6.6962 16.719-0.78125-2.264 4.107 5.516 6.4558 12.25 8.0938 4.776 0.296 13.247 4.647 15.906 12-6.16 1.869-15.496 1.2528-21.656-3.4062-5.476-4.582-12.872-4.0362-16.938-1.0312-5.64-3.596-19.071 3.1925-19.594 14.062 5.658-5.184 10.808-7.6912 15.938-4.4062-2.553 0.606-1.5825 0.85475-1.3125 2.3438 4.348 2.522 8.6832 5.0405 13.031 7.5625-6.394 1.687-12.405 4.2372-9.625 16.156 0 0 5.2085-10.296 16.938-6.5 0.261-0.261 1.6168 3.6772 4.9688 1.0312 5.076-5.776 16.682-8.362 26.875-9.375 8.18-0.977 16.347-3.3868 23.469 1.2812 6.341-3.262 13.401-5.456 20.625-0.25 8.523 2.696 14.746 12.631 25.562 8.0938 5.379-3.723 11.99-3.9118 18.781 3.6562 0.083-9.543-7.0688-12.742-17.219-14.875-2.349-1.393-4.6822-2.7955-7.0312-4.1875-6.522-0.957-13.072 0.199-19.594-2.875 34.134-8.824 58.062-27.859 74.906-55.031 5.392 1.913 10.764 3.8048 16.156 5.7188 3.825 0.245 4.117 1.5745 12 3.9375 0.297-11.614-4.6885-23.577-25.562-24.781l-27.406-10.438c-5.817-6.135-8.4462-19.152-1.0312-26.875 7.258-6.463 8.5245-5.6885 13.312-13.562 5.822-0.53 11.31 5.4688 16.688 5.4688 2.554 7.587 17.274 14.294 26.625 12 5.859 5.187 17.008 8.0702 29.219 3.9062 6.93 6.067 15.959 8.6002 26.594 3.9062 2.823 2.823 8.7832 5.0682 15.656 3.6562 0.522 0 3.4728 7.5415 10.969 10.188-3.268 3.176-1.2582 16.966 2.0938 21.906-2.288 5.302-3.0085 10.958-1.0625 16.438-7.559 4.86-9.0978 8.4755-5.7188 16.688-9.899 15.906-21.741 17.724-32.875 12.812-4.002-2.522-7.998-5.0708-12-7.5938-4.261-4.175-8.5202-8.325-12.781-12.5-2.17-2.037-6.6598-2.6775-7.5938 1.8125 0 0-16.4-3.6575-17.719 10.188 6.797-6.62 16.438-0.79225 16.438-0.53125s-2.2962 1.8228-0.53125 4.4688c0.39718-0.33099 11.973 4.3202 22.281 8.75 5.6004 2.1226 6.8307 2.7859 9.2812 4.0938-2.6848-1.2291-5.858-2.6226-9.2812-4.0938-6.2751-2.3783-12.388-4.2792-14.188-3.8125-5.84-0.545-12.035-1.27-14.875 3.125-6.277 2.656-16.083 4.7835-15.656 16.438 4.239-6.94 10.055-6.647 17.469-6-0.174 0.522-0.326 1.0405-0.5 1.5625 8.0496 3.6663 6.5232-0.99842 14.031-1.6875 6.277-0.5761 15.174 1.6726 19.875 3.25-5.913 1.739-13.954 1.0098-17.75 5.2188-0.696 1.392-3.1315 0.82325-2.0625 4.1562 0 0-11.534-0.29775-14.625 15.656 11.728-7.509 20.615-7.2812 20.875-7.2812 0.261 0 3.6562 0.78125 3.6562 0.78125s14.084-9.4062 14.344-9.4062c0.262 0 13.638-5.9228 19.812 0.78125 5.389 2.649 11.153 2.8178 16.719-0.53125 10.966-4.77 21.23-5.1042 31.312 1.5938l9.125 5.4688c1.304-0.869 2.6022-1.755 3.9062-2.625 0 0 10.329-2.9168 17.906 6.2812-3.132-15.915-14.5-16.438-14.5-16.438-0.87-0.783-1.756-1.5608-2.625-2.3438-5.392-2.087-10.764-4.1942-16.156-6.2812-2.354-5.826-8.268-10.465-2.375-17.469 6.02-29.926 13.218-52.401 1.5625-82.719 10.871 4.696 19.005 19.217 32.625 14.094 0-12.176-44.822-35.294-79.062-53.875 56.094-2.87 123.51-44.277 97.594-96.906 4.088-12.697 8.162-25.397 12.25-38.094 5.77 11.623 17.454 20.483 27.938 24.25-8.641-16.496-13.6-66.93-8.625-101.75-22.603 27.922-47.563 52.702-74.094 77.875 13.05 3.05 24.452 0.90375 37.062-0.65625-3.566 7.305-7.0288 14.632-10.594 21.938-34.473-20.188-74.947-5.0378-75.25 21.906 1.179 31.42 40.028 35.886 62.438 24.938-4.443 28.647-70.281 18.094-70.281 18.094-23.394-8.064-45.614-6.683-70.188-6.5 5.106-15.71 33.46-29.652 55.062-23.5-30.243-33.909 4.2742-76.008 45.906-88.969-45.376-14.966-6.3048-49.558 27.656-74.344 0 0-97.66 41.101-106.56 40.969-27.75-2.084-20.13-35.033-9.53-52.708zm-311.26 39.975c1.0059-0.54512 7.4782-0.74093 11.714 0.29118 4.4039 1.0731 9.7463 1.6917 9.6717 3.003-2.0387 3.4124-7.0325 7.5269-11.954 7.2793-4.9216-0.24762-7.7917-3.1777-9.4315-10.573z" stroke="#000" stroke-width="1.7229" fill="#d21034"/>
<path d="m667.73 194.66c-3.6 10.371-34.84 15.678-36.935 0.32544-1.0657-7.8158 18.503-19.872 36.935-0.32544z" stroke="#000" stroke-width="1.5255pt" fill="#fff"/>
</g>
<g stroke="#000" fill="none">
<path d="m715.96 116.25s-2.14 25.92-5.27 31.19" stroke-linecap="round" stroke-width="1.3783pt"/>
<path d="m703.85 117.68c0 0.14-10.82 29.19-10.82 29.19" stroke-linecap="round" stroke-width="1.725"/>
<g stroke-width="1.3783pt">
<path d="m682.47 168.84c2.17 1.68 10.54 6.15 16.07 16.49"/>
<path d="m668.03 195s7.7898 6.7994 0.9361 23.205"/>
<path d="m552.06 243.41c15.38-1.85 37.45 32.32 48.7 39.01"/>
<path d="m666.12 430.37s-6.41 4.7-2.99 10.82"/>
<path d="m558.47 436.07s7.69 2.13 6.83 8.54"/>
<path d="m542.95 413.71s5.55 5.84 1.85 10.68"/>
<path d="m551.78 391.21s7.4 3.56-1.43 9.69"/>
<path d="m458.79 430.09s-6.41 5.41-1.71 11.53"/>
<path d="m349.58 431.65s11.67 0.57 7.54 9.4"/>
<path d="m340.89 412s3.9 7.23-3.65 9.23"/>
<path d="m355.56 387.94s3.84 7.69-3.56 8.68"/>
<path d="m347.16 429.94s11.24-9.68 16.51-4.55c5.27 5.12 27.63-4.41 27.63-4.41"/>
<path d="m398.99 406.59l-18.51 9.68"/>
<path d="m425.05 401.32s13.67 14.67 23.63-3.13"/>
<path d="m438.29 392.07c9.25 7.4 5.46 11.84 34.51-7.67"/>
<path d="m447.12 379.68s24.77 2.56 25.91 4.41c2.85-2.99 24.97-20.91-2.22-23.47-4.56 18.66-23.27 19.34-23.69 19.06z"/>
<path d="m152.43 435.12s9.12 1.33 3.78 8.67"/>
<path d="m148.42 417.76s6.68 4.23-0.89 9.79"/>
<path d="m158.88 399.29s3.12 8.01-7.34 6.9"/>
<path d="m152.2 429.11s12.69-10.46 19.36-4.01c6.46 2.23 10.02 1.78 10.02 1.78"/>
<path d="m266.36 428.44c-0.22 0-3.78 7.57-0.67 11.35"/>
<path d="m153.32 411.97c8.01-0.44 9.73 3.18 17.02 3.18 8.4 0.25 16.58-3.18 27.26-6.07"/>
<path d="m99.022 171.2s5.118 2.45 10.018-5.11"/>
<path d="m95.907 267.33s8.233 2.45 6.893 8.68"/>
<path d="m127.73 157.41s0 4.89 10.23-2.67"/>
<path d="m138.85 180.55s-7.79 20.92 1.56 25.81"/>
<path d="m148.2 174.77s4 8.67 9.57 3.78"/>
<path d="m139.74 119.8l-6.45-10.46 5.79-2"/>
<path d="m204.05 66.62s6.23 7.789 6.45 12.239c0.23 4.451-4.67 7.789-4.67 7.789"/>
<path d="m199.6 76.189s-1.33 4.673-1.78 7.788c0 2.225-7.12 5.118-7.12 5.118"/>
<path d="m284.83 53.047c0.22 0.222-0.89 6.23-4.23 9.791"/>
<path d="m223.86 69.736s9.7742-2.6898 17.088-1.165c7.245 1.4888 16.958 4.0578 16.958 4.0578s11.57-1.5576 15.354-4.2279"/>
</g>
</g>
<path stroke-linejoin="round" d="m234.76 68.178l12.02 2.225s-8.46 11.349-12.02-2.225z" fill-rule="evenodd" stroke="#000" stroke-width="1.3783pt"/>
<g stroke="#000" fill="none">
<path stroke-linejoin="round" d="m251 101.78l15.8 30.26 7.57-11.35 4.01 7.79 6.45-11.35 11.12 7.12-4.22-13.79 9.34-0.67s-2.45-6.68-10.9-8.01c2.22-1.781 10.01-6.899 10.01-6.899s-4.45-5.118-11.35-5.341c2.23-2.448 5.34-8.456 5.12-8.456s-6.9-1.557-6.9-1.557 15.8 5.118 28.04-2.003" stroke-linecap="round" stroke-width="1.7229"/>
<g stroke-width="1.3783pt">
<path d="m199.36 122.83l24.27-0.36c7.73-0.11 20.45-10.82 34.69-7.48"/>
<path stroke-linejoin="round" d="m202.94 122.25c0-0.223 1.78-4.673 1.78-4.673l1.9836 5.1444 3.1933-0.0834 2.1072-5.1575 1.7301 5.1769h3.1729l1.9573-5.7483 2.9571 5.4428 2.5111 0.12743 1.9776-6.6295 4.0772 4.7487 1.4806-0.57339 1.2699-6.6313 4.0277 4.6378 1.1554-0.67754 1.8676-6.5354 3.3459 4.8596 1.6845-0.54918 1.5632-5.4927 3.1098 5.0477"/>
<path d="m304.19 73.741s-12.47-0.445-11.57-5.34c0.89-5.563 13.12-9.569 13.12-9.569s16.25-10.458 18.7-14.019"/>
<path d="m307.08 52.602s4-4.006 10.68-2.003"/>
<path d="m207.61 278.68s-1.55 7.79 9.35 23.37c-3.12 17.35 13.19 30.99 19.65 33.22"/>
<path d="m151.92 247.55c-12.24 6.9 6.96 50.49 65.04 54.72"/>
<path d="m198.44 280.79s4.05 12.8 0.72 18.81"/>
<path d="m181.73 276.2s-4.83 9.38-5.94 13.83"/>
<path d="m164.28 264.53s-3.62 7.7-8.07 9.93"/>
<path d="m370.28 206.36s15.57-0.22 31.15-42.5c15.35-57.85 137.07-122.38 139.52-134.4"/>
<path d="m414.62 138.14c22.86-12.7 93.47-38.577 140.57-57.563" stroke-linecap="round"/>
<path stroke-linejoin="round" d="m651.73 42.86s-216.19 101.02-219.34 106.37c36.5-11.02 191.33-36.82 195.11-34.62-9.13 2.2-197 45.31-205.81 55.7 46.89-1.57 145.07 15.11 160.49 31.15-33.36-7.55-133.11-22.34-163.64-15.73 22.35 5.35 107.94 60.74 107.94 69.55-12.9-12.27-115.81-54.76-119.9-50.67 23.6 14.16 56.96 66.72 56.96 79.62-6.92-11.01-66.4-74.9-69.86-70.81 6.3 8.82 18.77 84.22 12.39 87.72 0-9.13-23.09-75.13-24.98-77.02-4.72 1.26-34.15 80.53-28.32 87.9-3.77-26.43 0.63-81.6 7.87-79.4-12.9 1.89-54.08 56.18-49.68 64.68 1.26-13.54 3.1-22.51 26.39-67.51-25.8 1.57-79.3 35.24-88.43 47.2 7.24-21.4 52.56-57.59 72.38-60.11"/>
<path d="m249.28 123.21l12.98 0.16"/>
<path d="m198.02 99.519s8.73 3.341 26.82-10.983"/>
<path d="m256.28 264.06c-5.17-6.68 3.88-109.19 23.04-135.9-6.67 48.24 15.51 97.56 21.11 97.34"/>
<path d="m253.26 133.12s9.05 9.9 19.39 8.18"/>
<path d="m243.14 155.73s4.53 7.75 21.76 9.04"/>
<path d="m233.19 176.12s11.68 14.28 27.4 12.13"/>
<path d="m222.68 200.52s3.23 10.56 34.25 11.2"/>
<path d="m213.64 230.24s14.43 12.92 41.56 8.83"/>
<path d="m215.15 267.5s18.52 10.34 41.35-3.66"/>
<path d="m528.5 227.01s-12.92 10.99-0.86 28.65c-40.06-0.65-61.6 17.87-63.32 30.36-51.04-3.66-41.78 11.42-58.36 16.37-22.19-18.52-54.71-8.18-52.55 10.34-14.86-20.89-37.69-10.77-40.49-5.6s-1.72-25.63-1.72-25.63-14.86 6.68-25.2 18.95c0.22-8.18 0-21.53 0-25.84-12.42 2.51-24.41 2.65-37.26 2.37"/>
<path d="m259.99 277.09c-0.21 0-21.37 33.27 11.8 42.1"/>
<path d="m310.77 296.79s-5.39 2.58-7.33 2.15c-6.46 1.51-5.16 16.59 3.02 15.72 2.8-3.22 5.81-7.75 5.81-7.75"/>
<path d="m299.14 305.84s-2.37 3.23-6.03-0.22c-1.94-3.44-8.83 15.51 3.23 16.15 2.15-5.6 8.83-7.11 8.83-7.11"/>
<path d="m289.23 312.94c-9.48-0.64-14.64 20.25 3.66 7.11"/>
<path d="m282.55 315.96s-10.55-8.19-10.12 3.23c-0.21 7.1 3.23 8.83 3.23 8.83 0.43 5.17 4.96 12.49 8.62 5.81 1.5-6.46-1.08-9.26-1.08-9.26"/>
<path d="m227.21 388.32c-0.22 0 1.72 14.21 11.63 3.44 6.89-14.42 28.64-55.13 33.59-69.13"/>
<path d="m257.36 311.44s-15.29 4.3-9.48 22.39c8.83 7.11 17.44 6.03 17.44 6.03"/>
<path d="m246.16 348.05s10.34 4.52 13.78 2.8"/>
<path d="m238.3 365.78s4.63 8.11 11.09 5.31"/>
<path d="m320.46 301.96s1.29 21.75-5.17 29.5c-6.46 7.76 1.51 23.86 1.51 23.86"/>
<path d="m336.83 300.88c0.21 0.43 4.09 34.68-4.53 44.37"/>
<path d="m369.78 293.99s12.63 24.45-0.08 36.51"/>
<path d="m405.96 301.53s-7.33 21.75-17.66 29.07"/>
<path d="m441.92 302.39s-34.03 58.15 28.86 58.15"/>
<path d="m395.62 323.06c0-0.21 34.84 0.1 37.21 6.56"/>
<path d="m407.03 359.25c0.43-0.44 24.99-2.81 29.51-11.63"/>
<path d="m436.56 372.46c0.22 0 15.05-8.91 12.04-15.15"/>
<path d="m435.25 285.81c1.72 22.61-26.06 35.53-37.05 33.38"/>
<path d="m433.09 299.37s19.39 9.48 35.97-5.81"/>
<path d="m464.54 286.24s7.32 13.13 16.15 12.27c11.63-3.44 15.93 3.66 15.93 3.66"/>
<path d="m513.42 256.09s-0.86 32.73 45.23 39.41c51.47 14.21 75.8 6.67 78.82 64.39-1.94 21.97-4.67 46.78-20.6 37.3"/>
<path d="m622.61 380.56s7.61 6.4 12.78-2"/>
<path d="m623.62 363.63s9.4 1.69 13.7-7.35"/>
<path d="m620.98 341.69s10.17 2.53 13.4-4.15"/>
<path d="m621.32 314.88s-7.73 15.13-10.53 16.63"/>
<path d="m601.29 305.19s0.43 16.15-6.46 22.61"/>
<path d="m579.54 301.31s-0.22 13.35-11.2 22.61"/>
<path d="m539.05 319.83c0.21-0.21 17.66-19.38 13.14-25.19"/>
<path d="m533.24 286.88s-2.3 18.46-20.82 21.26"/>
<path d="m254.87 250.98s35.65-21.38 37.59-37.1"/>
<path d="m256.06 232.4c0-0.22 22.34-5.7 31.6-30.25"/>
<path d="m256.71 218.83c1.94 0.86 26.37-16.73 27.01-29.65"/>
<path d="m258.22 203.11c7.1-1.94 20.18-17.75 22.76-26.15"/>
<path d="m261.45 186.09s10.12-7.1 17.87-17.87"/>
<path d="m265.37 165.91c0.21 5.81 9.44-2.05 13.1-7.01"/>
<path d="m285.35 227.66l4.31 5.38"/>
<path d="m276.25 236.05l2.86 4.53"/>
<path d="m266.4 244.24c0 0.22 3.45 4.96 3.45 4.96"/>
<path d="m260.37 247.69s0.22 6.89 3.66 7.32"/>
<path d="m261.88 230.24s3.88 13.14 7.32 10.99"/>
<path d="m271.79 224c0.21 0.43 4.3 12.27 4.3 12.27"/>
<path d="m280.4 216.03l5.17 10.34"/>
<path d="m274.58 206.12c0.22 0.21 5.61 7.97 7.11 6.9"/>
<path d="m266.83 213.23s3.02 11.85 5.39 10.77"/>
<path d="m256.54 222.12l5.56 8.34"/>
<path d="m264.68 199.23s1.94 12.49 3.66 12.06"/>
<path d="m271.88 192.11c0 0.22 5.5 10.57 5.94 10.57"/>
<path d="m260.8 190.62c0.22 0 6.03 6.67 6.03 6.67"/>
<path d="m269.42 180.28c0.21 0.22 4.95 8.18 4.95 8.18"/>
<path d="m271.79 165.85s0 9.26 1.93 9.48"/>
<path d="m267.26 158.74l4.74 6.89"/>
</g>
</g>
</svg>
