<svg width="750" xmlns="http://www.w3.org/2000/svg" xmlns:xlink="http://www.w3.org/1999/xlink" height="500">
<rect width="750" fill="#fff" height="500"/>
<path d="m184.01 105.04v-54.439h17.751l11.61 41.43 11.451-41.43h17.831v54.439h-11.253v-43.906l-11.848 43.906h-12.283l-12.006-43.906v43.906h-11.253m92.561-43.536-8.0832 23.172h16.206l-8.1228-23.172m-6.9738-10.902h13.868l21.04 54.439h-12.6l-3.9624-11.198h-22.625l-3.8435 11.198h-12.64l20.763-54.439m67.004 54.439h-12.006v-20.29l-21.199-34.149h14.7l12.481 23.468 11.53-23.468h13.71l-19.218 34.149v20.29m34.156-27.164c-0.00002 5.9872 1.4264 10.644 4.2794 13.97 2.8529 3.3016 6.8416 4.9523 11.966 4.9523 5.1775 0.000007 9.2058-1.6508 12.085-4.9523 2.8793-3.3262 4.3189-7.9828 4.319-13.97-0.00005-5.9871-1.4397-10.631-4.319-13.933-2.8794-3.3261-6.9078-4.9892-12.085-4.9893-5.1247 0.000046-9.1134 1.6508-11.966 4.9523-2.8529 3.3016-4.2794 7.9582-4.2794 13.97m-12.244 0c0-8.7959 2.5623-15.769 7.687-20.918 5.151-5.174 12.085-7.761 20.802-7.7611 8.7172 0.000055 15.651 2.5871 20.802 7.7611 5.1774 5.1741 7.7662 12.147 7.7662 20.918-0.00006 8.7713-2.5888 15.744-7.7662 20.918-5.1511 5.1741-12.085 7.7611-20.802 7.7611-8.7172 0-15.651-2.587-20.802-7.7611-5.1247-5.1741-7.687-12.147-7.687-20.918m78.653 27.164v-44.719h-17.316v-9.7199h46.518v9.7199h-17.197v44.719h-12.006m48.182 0v-44.719h-17.316v-9.7199h46.518v9.7199h-17.197v44.719h-12.006m36.097 0v-54.439h42.358v9.4612h-30.51v11.605h27.895v9.3133h-27.895v14.007h31.937v10.052h-43.784" fill="#d42e12"/>
<g id="a" transform="translate(-98.734 -81.609)">
<path transform="matrix(.035738 0 0 -.035738 167.23 527.09)" d="m4255 8413c-142-20-249-59-392-145-46-28-89-48-97-45s-17 27-21 56c-4 27-13 58-20 67-20 28-39 5-76-89-17-45-36-88-41-94-18-22-42-14-71 22-29 37-73 48-83 21-3-8-1-40 5-72 18-94-11-108-93-45-71 55-98 66-125 52-28-15-27-36 9-119 31-72 33-124 3-82-8 11-45 36-83 54-38 19-97 50-132 70-35 19-83 42-107 51-44 15-282 50-302 43-6-2 27-29 72-61 99-68 289-242 289-264 0-13-11-15-80-9-91 8-89 11-69-84 7-33 8-55 2-61s-37-4-84 6c-41 8-77 15-81 15-15 0-8-79 13-146 20-63 20-69 4-80-20-15-43-8-195 62-90 42-113 49-162 47-31-1-68-8-83-16l-28-14 65-70c77-84 155-196 167-241 22-75-52-88-301-56-136 18-228 15-273-9-35-18-155-130-155-145 0-5 58-12 129-15 149-6 257-32 346-81 84-46 82-56-9-56-76 0-120-12-160-44-19-15-19-16 0-37 29-32 85-57 154-68 35-6 65-12 67-15 2-2-29-9-69-15-104-17-250-60-321-96-64-32-67-36-80-129l-6-38 32 7c50 11 308 17 350 8 64-14 46-28-53-40-124-15-194-29-227-46l-26-14 54-26c30-15 99-36 154-47 234-48 263-75 67-65-161 8-225 2-220-23 5-28 104-76 207-102 63-16 39-28-64-32-93-3-163-27-192-66-23-29-9-161 18-178 6-3 18 1 27 9 9 9 50 31 91 51 77 37 78 37 188 20 47-7 88-46 123-118 17-34 52-88 78-120s56-69 66-82c19-23 19-24-2-66-11-24-23-51-26-60-18-62-324-41-565 39-96 32-238 102-302 149l-49 36v-39c0-96 75-259 150-326l48-43-49-94c-61-117-65-162-18-209 17-18 29-38 25-46-3-8-29-28-58-44-90-51-86-46-49-65 18-10 67-20 107-23 44-4 79-11 85-19 25-30-27-96-117-150-15-9-4-13 61-23 44-6 108-12 142-13l62-2-21-38c-25-45-72-94-111-118l-28-18 31-4c17-3 52-1 78 3 75 12 166 10 186-4 31-23 5-75-73-150l-68-66 44-7c83-12 188 1 244 30 29 14 54 25 56 23 14-15-40-160-75-200-8-9-12-20-8-25 4-4 58-7 119-7 87 0 120 4 146 18 19 9 36 17 38 17 1 0 3-21 3-47 0-34-7-55-26-80l-25-33h28c65 1 219 51 274 91 36 25 39 24 39-13-1-42-23-103-46-129-21-24-16-24 82 1 88 22 166 53 206 81 37 27 41 24 33-18-9-50-28-79-66-99-17-8-29-18-26-20 8-9 219 24 267 41 24 8 52 23 62 32 17 15 18 15 18-9 0-14-11-46-25-72s-25-49-25-52c0-8 55 9 119 37 35 16 76 29 91 29 34 0 74-31 105-80 17-27 43-47 93-72l70-35 4 41c5 37 170 471 186 488 7 7 208-131 402-275 117-87 386-354 465-462 217-296 288-500 289-830 0-182-12-279-54-454-92-374-306-730-549-910-160-119-349-159-701-148-426 13-692 102-889 295-146 144-242 332-282 552-6 36-11 124-11 195 0 244 55 413 175 542 104 111 215 172 357 194 135 21 289-24 384-111 66-61 69-90 17-194-46-93-50-117-21-146 27-27 83-26 147 5 93 43 139 148 131 294-8 131-69 216-207 286-134 67-202 80-411 79-173 0-191-2-275-28-168-51-270-119-349-229-180-254-279-690-221-972 45-215 165-448 332-640 282-326 656-475 1193-475 398 0 680 76 960 258 312 202 514 464 685 887 46 116 64 188 72 288 3 49 11 89 20 99 40 46 54 177 29 262l-15 48 31 27c55 49 49 155-13 226l-29 33 33 33c43 44 62 127 54 237-5 76-39 182-58 182-20 0-7 27 22 44 45 27 69 72 69 132 0 121-50 307-87 321-15 6-18 33-4 33 23 0 54 94 59 179 6 107-15 189-59 233l-29 30 31 64c27 55 31 71 26 117-11 106-128 302-216 360-32 21-41 33-41 56 0 67-55 166-147 265-96 102-127 148-147 220-14 46-29 70-71 112-49 49-153 111-215 127-13 3-20 13-20 29-1 64-80 171-150 203-35 16-40 22-40 51 0 41-34 82-114 137-76 51-196 82-381 98-389 32-562 97-745 279-111 110-154 184-194 330-33 121-35 234-5 322 21 62 88 188 100 188 4 0-2-33-13-72-26-95-29-251-5-327 33-106 98-185 189-232 62-32 92-39 198-49 110-10 184-32 220-65 54-50 175-56 291-16 30 11 86 23 125 26l72 7 93-65c96-66 511-300 584-329 133-53 283-16 346 85 51 81 5 157-212 353-176 158-218 212-241 304-10 39-42 124-73 188-73 157-74 184-5 256 27 29 57 69 65 90 16 37 23 121 12 133-6 5-73-9-108-22-11-4-13 11-10 80 2 54-2 97-9 116l-13 30-36-35c-37-36-64-45-76-26-3 5-10 34-15 64-10 63-50 161-60 149-4-4-13-25-20-45-6-21-15-38-20-38-4 0-11 24-15 53-11 86-23 122-50 147-22 21-28 22-35 10-5-8-10-26-10-40 0-44-28-133-65-208-72-144-140-130-280 55-80 106-92 139-70 187 53 112 275 263 484 328 39 12 71 25 71 29 0 19-50 64-94 85-50 23-108 28-191 17z" fill="#dfdfdf"/>
<path d="m245.47 297.45c2.2694-1.2614-8.7411-1.0627-11.069-1.0383-1.5762 0.4752-3.0237 1.1621-3.5081 0.93772-0.48435-0.22435-0.0948-1.9849 0.39632-4.976 1.7329-1.4221 3.5271-2.185 5.4375-2.7418 1.8211-0.64607 3.4281-1.0697 5.5061-1.7325 1.9922-0.23793 2.6372-0.14694 5.4723-0.76524-3.3256-0.52902-5.6866-0.12334-8.993-3.6055 1.3364-0.80358 1.8628-1.8207 3.47-2.2064 1.6071-0.34428 2.1714-0.28999 3.4914-0.28999 2.53 0 3.2698 0.46249 1.5768-0.75787s-4.9261-2.6057-8.5561-3.2657c-3.19-0.55-8.0301-0.56713-10.363-0.66107 1.0707-2.1161 3.0629-3.3532 4.2729-4.6732 1.98-2.42 6.53-2.3657 13.35-1.2657 10.78 1.32 11.44 0 4.62-8.58l-4.3349-4.771 2.75-1.0915 3.0025-0.0813c2.86 0.66 6.5024 2.8639 8.7024 3.7439 3.52 1.54 3.3286 0.0898 2.2286-2.7702-0.88-2.42-0.24166-2.4071-0.58309-5.0856 1.76 0 6.4007 1.7609 6.4007 0.66087 0-1.32-0.60848-2.2037-0.9499-5.2394 1.54 0 4.9927 0.41359 5.7522 0.24968s-1.0567-1.9141-2.9071-3.5725l-4.7621-4.2679-6.7264-4.5357 9.9807 1.25c3.08 0 7.9529 3.3457 10.538 4.6932 1.2925 0.67375 2.5188 0.88242 3.2956 1.6971 1.7774 0.65988-0.35841 2.4213 0.92956 0.79918 0.65663-1.1801-2.3852-4.6692-1.9719-6.4923 2.1811-4.1591 7.0691 3.4554 8.1327 2.2252 2.035-0.22-0.9961-4.9586 0.61776-5.9192 2.3034-1.3711 3.6147 3.3383 4.8545 2.5055s2.0429-6.8689 4.0026-7.6272c1.9596-0.75833 1.1614 6.1602 2.4814 5.2252 2.86-1.98 9.0502-5.8651 14.142-6.5698 2.5457-0.35237 5.5115-1.0844 8.0228-0.63188 2.5113 0.45248 4.8806 2.1788 5.5637 4.2876-3.3819 0.98642-3.9161 1.0774-7.4361 2.6174-3.52 1.32-8.14 4.62-10.34 6.82-3.74 4.18-3.74 4.62 0.44 9.9 5.28 7.26 7.92 6.82 10.78-1.54 1.21-3.3 0.83286-5.3964 1.4071-6.5196 0.33178 0.24196 1.5359 0.74073 2.2606 1.8734 0.63387 0.99077 1.1993 5.3707 1.1932 6.5139 0.52949-0.32213 1.024-1.7605 1.519-4.0677 1.3232 2.5493 1.7018 3.3886 2.1418 4.5986s0.0582 4.4214 1.3782 4.4214c0.77 0 1.705-1.4866 3.344-2.9352 1.4158 2.6585 1.2142 5.98 0.64848 8.4981 1.1084-0.36143 3.3817-1.1357 4.485-1.2391 0.34443 1.3252 0.32246 2.9195 0.0546 4.1255-0.80357 1.725-1.0521 3.2107-2.8121 4.5307-2.64 2.2-2.64 3.52 0 8.58 1.76 3.3 3.08 7.04 3.08 8.58 0 1.32 3.96 5.72 9.02 9.9 6.16 5.28 8.36 8.58 7.48 11-2.2 5.28-9.02 6.82-15.18 3.52-2.86-1.54-9.24-5.06-14.3-7.92-3.41-1.87-5.6549-3.9089-7.7348-5.2165-3.3426-0.0449-5.8889 0.26262-8.7652 1.6965-4.4 0.66-7.92 0.22-8.8-1.1s-4.4-2.42-7.7-2.42c-8.8 0-14.561-5.82-14.906-14.341-0.1324-3.7032 0.36743-6.043 1.5965-10.212-4.8566 7.6701-5.1422 11.207-3.398 17.974 2.1014 9.4457 11.867 21.54 33.427 21.76 4.07 0.11 7.4793 1.2643 11.329 2.0354 2.4604 1.457 7.7093 4.2467 6.6433 7.7443 3.9918 1.0647 6.7317 5.2032 6.7896 8.5989 9.8014 2.9329 11.099 8.6814 11.099 9.7814s2.42 4.4 5.5 7.26 5.1212 7.4839 4.7424 10.034c3.4093 1.76 4.6316 4.331 6.7054 7.126 1.7581 3.5688 4.6851 8.0098 0.36722 13.348 4.521 1.6763 4.3225 14.477 0.71336 16.331 2.6555 1.8251 3.2257 6.2785 3.792 12.341 0.025 2.0398-0.63467 3.8657-3.8738 5.4796 0.86328 0.43504 1.5496 1.6302 2.0194 3.193 0.46982 1.5628 0.72316 3.4931 0.72056 5.3984-0.003 1.9053-0.26115 3.7856-0.81511 5.2482s-1.4033 2.5077-2.5876 2.7425c4.0367 2.6363 3.9395 9.6093 0.45949 10.328 1.9496 3.5598 1.3372 10.556-1.1492 11.93 0.54411 7.1817-2.301 12.276-3.8066 16.071-3.0112 7.59-6.9781 14.025-11.952 19.429-4.9741 5.4038-10.955 9.7762-17.995 13.241-15.4 7.48-41.58 7.26-56.54-0.44-13.2-6.82-23.98-21.56-26.18-35.86-1.98-12.76 4.18-31.46 12.1-37.4 12.54-9.24 36.96-6.16 40.48 5.06 1.76 5.72-0.44 12.54-4.62 14.08-5.5 1.98-7.7-0.66-4.62-5.5 2.2-3.74 1.98-4.84-1.54-7.7-10.56-7.7-26.4-0.88-30.14 12.76-4.62 17.6 2.64 35.42 17.38 42.68 12.32 6.16 37.18 6.6 45.98 1.1 17.16-10.78 27.94-40.04 22.66-62.04-2.86-12.1-14.74-27.06-30.14-37.4l-9.68-6.82-3.52 9.02c-1.87 4.73-3.52 7.3564-3.075 10.345-2.8586-1.7436-3.89-1.4286-5.8621-3.2857-0.88-1.98-2.5029-4.1993-4.9229-3.5393-0.55 0.165-3.8847 2.1282-7.205 2.5802 1.144-2.6729 2.3025-2.7497 2.1673-5.4147-1.78 2.2696-6.8799 2.5518-13.492 3.2514 5.1733-2.9611 4.1914-3.5405 4.5758-6.0297-1.98 2.2398-6.9223 3.6358-12.637 4.6641 2.9464-3.0789 2.4423-4.0257 2.7315-6.8288-2.8977 2.8511-9.9564 4.4441-12.574 4.2762 2.293-2.6679 2.3305-2.6324 2.2857-5.9319-2.5736 2.0201-7.3288 1.7356-11.582 0.9828 2.6219-2.8063 3.4246-5.9023 3.5741-8.255-3.448 3.2052-9.0951 2.5147-12.784 1.9026 2.8896-2.5636 4.6411-4.0072 5.5386-5.6157 1.0457-2.0214 0.34107-2.6814-3.1789-2.6814-2.42 0-4.0946 1.5516-7.666 0.18375 5.1786-2.0471 6.5854-8.665 7.7478-8.7985 4.6326-0.53202-6.4453 8.4319 3.4721 6.5442 2.4772-0.35578 3.6037-0.31242 5.4411-0.20728-1.2876 1.8909-1.5072 1.9685-2.6151 3.3778-1.245 1.835-1.4928 4.2264-4.4386 5.7732 2.5004 0.0145 4.5443 0.24281 6.2-1.0713s1.6732-1.8491 5.1639-4.362c0.47571 2.6314 0.2408 3.158-0.0172 4.9017-0.44658 3.0185-1.0293 3.8126-1.9375 6.199 3.7894 0.87879 6.119-0.31642 6.7811-1.952 0.9894-1.0333 2.4036-3.6654 4.3462-4.1979 0.78897 2.3715-0.0508 2.4635-0.34081 4.4721-0.82571 2.2589-1.0314 3.8675-1.7391 5.9872 3.8459-1.0946 6.2077-2.4815 8.642-5.4101 4.18-3.52 4.18-3.52 2.86 1.1-0.54357 3.08-0.41214 3.7686-1.53 6.4268 3.7036-0.64536 7.14-2.3568 9.01-5.3268 2.2-3.3 2.42-3.08 1.54 1.1-0.12429 2.8121 0.36429 3.2671-0.32786 5.9871 3.362-0.71111 5.8279-2.0271 7.5879-4.8871 2.2-3.3 2.42-3.08 1.54 1.1-0.55 2.64 0.46 3.1843-1.0982 5.9389 3.7989-1.6204 3.9582-1.2089 5.2782-3.2989 0.88-1.76 2.3307 0.59 4.0907 3.89 1.43 2.53 2.5914 2.7236 3.6568 2.8468 0.26179-1.9304 1.0525-3.2168 2.8125-7.3968 1.98-4.84 3.3-8.8 3.08-9.24-0.44-0.22-5.94-3.08-12.1-6.38-6.38-3.08-11.66-6.6-11.66-7.92 0-1.1-1.1-1.98-2.64-1.98-3.52 0-12.76-8.8-12.76-12.1 0-1.54-1.98-5.28-4.4-8.14-3.3-4.4-7.04-5.94-16.94-7.04-6.9986-1.2371-12.871-3.08-16.5-5.06-1.8157-0.95-2.0643-1.7536-3.4586-2.295-0.055 1.155 0.70857 4.715 3.2386 7.135 1.43 1.54 2.8945 1.8742 4.1959 2.6779-1.224 1.2456-2.1059 3.5921-3.0959 5.2421-2.2 3.52-2.2 4.62 0.88 5.72 2.86 1.1 2.86 1.76 0.44 3.3-0.99 0.77-2.4807 1.2993-3.5243 1.9725 1.635 0.40536 2.9136 0.50822 6.0336-0.28893 3.96-2.3979 4.2628-1.69 2.5507 0.73643-1.4029 2.1171-2.3514 4.4814-4.3911 6.1239 2.3354 0.12464 3.4011-0.29393 5.4911-1.0639 2.2-0.88 4.0621-1.47 2.5507 1.945-1.4364 2.387-0.64336-1.2839-2.0065 1.8656-2.3488 0.45366-7.6833-0.10631-11.584-1.0495 3.5101-1.9254 4.7933-3.4304 5.2333-4.4204 0.66-1.98-1.2336-1.8607-2.9936-1.8607-0.77 0-3.3152 0.3077-5.2171-1.8025 1.5802-0.86018 3.9823-1.6382 5.4281-3.4526-4.5102-2.6007-1.8896-6.5416-0.83846-8.4136 0.87021-1.4961 0.94148-2.2886 1.9524-3.8415-1.3882-0.10082-3.415-2.7299-4.405-4.4899-2.09-3.74-2.9971-7.2936-2.6943-10.351 2.9814 2.2996 4.1371 3.0418 5.9943 3.9646 3.1518 1.8843 9.9168 4.2557 15.894 5.1596 5.977 0.90393 11.166 0.78679 11.166-1.4132s2.392-2.0174 0.66202-3.7763c-3.239-3.2933-4.9825-6.251-5.9911-9.1648-1.8856-2.2825-4.2667-2.4509-7.4227-2.4841-1.6746 0.89571-4.9408 1.6752-6.4482 3.8537-1.4181-0.67863-2.1487-5.0475-1.4306-7.127 0.30842-0.89311 3.9519-2.6041 6.0064-2.6762s3.145 0.5125 4.9545-0.25375c-2.1298-0.6136-3.2941-0.57767-5.5132-1.6836-1.9733-0.98345-3.8858-1.568-3.6275-2.8205 0.31955-1.5497 11.233-0.49288 12.773-0.43788 1.265 0.055-2.3856-1.4598-5.0759-1.8001-1.765-0.6326-5.6996-0.38542-9.6799-3.3393 2.937-1.8875 4.4843-1.0935 6.8926-1.9818m9.0647 0.36128c-0.88579 1.8659-11.493 1.3581-8.5436 2.1289 0 0 8.193 1.5097 10.905 3.8374 0.47956 2.0598-2.3794 2.9733-2.3794 2.9733l-10.39-1.1071c-0.11143 1.4221 10.1 1.9586 9.7486 4.0954-0.11389 0.69248 0.56527 1.9979-2.8328 1.6106-3.0945 0.14162-6.8911-0.17311-9.1886 1.0155-1.6693 0.83215-1.8705 2.683-1.3461 4.2671 1.5113-1.2315 3.9161-2.2457 5.2361-2.6857 2.8186-0.365 4.8575 0.21375 6.7621 1.0288s3.2286 1.6877 4.885 4.9462c1.1 2.86 4.62 6.16 7.92 7.48 3.52 1.1 9.1439 4.1132 11.66 7.48 2.7892 3.7323 4.8707 6.7569 11.589 10.638 6.6 5.94 0.89996 3.8283 3.7268 4.2623 7.5754 1.1631 11.744 2.9192 13.064 4.6792 1.54 1.76 5.06 3.74 7.92 4.4 3.08 0.88 5.5 2.42 5.5 3.52 0 1.32 1.54 2.2 3.52 2.2 4.84 0 26.4 22.66 30.36 31.68 7.48 16.94 8.8 23.1 8.8 39.6-0.22 11-1.54 20.9-3.52 25.52-4.4 10.34-23.163 31.116-28.223 31.116-0.89433 0.25254-0.53323 0.16047-1.5936 0.33216-0.48651 0.72589-0.76437 0.79656-2.4833 1.5991-2.4981 1.2487-5.7005 1.8584-9.606 1.9699-3.9055 0.11146-8.5141-0.27533-13.825-1.0196-5.3105-0.7443-10.518-1.8461-14.398-3.1331-3.8797-1.287-5.3069-1.9835-6.4318-3.1708-0.33609-0.35473-1.2292-0.81638-1.0802-2.362-0.79798 0.72727-2.6532 0.55516-4.8696-1.4509-1.8003-1.6294-3.5324-2.3878-2.6303-4.0254-2.3809-0.24865-2.7865-1.2596-4.6622-3.8965-1.2336-1.7341-2.6361-3.2675-2.0354-5.72-1.6396 0.32538-2.4525-1.9684-3.3918-4.1416-0.82338-1.9052-2.2918-4.4996-0.46477-5.4388-2.1007 0.0517-1.7061-2.5157-1.9615-4.302-0.25539-1.7864-0.78196-4.5594 1.336-5.0453-2.1694-0.68478-1.2412-2.9254-0.91447-4.9357 0.4583-2.8199 0.71731-4.3446 2.5176-4.7176-1.609-0.71925-0.62824-3.3648 0.43223-6.9749 0.85022-2.8943 2.7988-3.9503 5.0411-3.47-2.1446-1.6357 1.7716-4.3041 2.6133-5.0066 2.3384-1.9516 4.9969-2.6764 5.519-1.4079-0.22509-2.3751 8.0678-2.5845 11.24-2.2265 3.1728 0.35798 5.9605 1.7885 8.9305 4.2085 4.62 3.74 4.84 4.84 2.42 8.8-2.86 5.06-0.66 6.16 3.52 1.98 4.4-4.4 3.08-9.9-3.3-14.96-4.84-3.96-8.14-4.62-16.5-3.96-14.74 1.54-20.68 6.16-24.86 19.8-6.6 22.66 2.42 45.1 22.22 54.78 8.8 4.18 14.08 5.28 28.38 5.28 20.9-0.22 33.88-5.28 45.98-18.7 7.48-8.14 15.84-29.405 13.2-33.365-4.2947-1.8269 0-1.8346 1.32-1.8346 1.76 0 2.42-9.1155-0.85697-10.772 6.5386 0.0247 3.0764-8.1464-0.86077-9.7546 3.5251-0.0841 5.2688-3.5304 5.3734-7.1762 0.10459-3.6458-1.4299-7.4911-4.4611-8.373-2.2849-0.6648-0.18062-1.2722 1.9646-1.76 2.5577-0.58155 3.5412-0.96412 3.2255-5.521-0.37881-2.9863-1.4302-7.9786-3.5945-8.8985-2.2286-0.94717-5.6985-1.2226-7.6336-1.3958 2.3496-0.75761 4.5899-1.1976 6.4033-1.3486 3.96-1.65 5.2953-9.6587 1.7347-11.901-3.5606-2.2425-12.522 2.1651-12.994 0.34662 1.7469-1.9122 7.1602-2.3828 9.5639-4.1305 2.9421-2.8925 5.6549-5.6549 0.81492-12.475-2.42-3.74-2.0352-4.667-4.837-5.7006-3.7143-0.15-11.68 4.85-17.774 4.6557 2.7914-2.3228 12.284-4.1875 15.313-6.3839 3.0289-2.1964 0.73066-5.6086-2.3819-9.5113-3.74-3.3-5.28-3.52-10.12-1.32-3.3 1.32-8.5229 2.6943-14.183 3.6414 2.1972-2.2671 12.203-4.7414 14.403-6.5014 4.18-3.08 4.18-4.3714 0.22-8.7714l-5.9243-2.4357-6.6157 3.5071c-4.84 2.2-12.33 4.8114-12.33 4.1514 0-0.44 6.83-3.4914 10.35-5.4714 3.74-1.98 6.0184-4.84 6.0184-6.38 0-5.5-5.0754-6.2308-12.854-0.80923-3.96 2.31-13.846 5.3246-14.436 4.2125-0.73229-1.3791 6.6288-2.729 10.272-4.5032 3.6157-2.0629 10.407-5.4457 10.407-7.2057-0.89285-2.9843-4.9071-5.1143-22.287-7.0943-12.98-1.54-19.8-5.72-25.52-15.18-7.04-11.44-5.72-21.34 3.74-30.36l7.92-7.48-4.62 7.04c-8.58 12.32-4.4 27.06 7.7 27.06 2.86 0 7.04 1.1 9.24 2.64 3.08 1.76 5.7613 1.3799 8.3471 0.61857l4.2048-1.238 1.4575-0.31452-6.0894-4.126c-6.82-3.3-9.68-9.68-5.94-13.42 1.32-1.32 1.76 0 1.1 3.52-0.88 4.18 0 6.16 3.08 7.26 2.2 1.1 6.6 3.52 9.46 5.72 9.46 6.82 22.22 14.74 23.54 14.74 0.66 0-0.44-2.2-2.86-5.06-2.42-2.64-1.1-2.2 2.86 1.54 5.94 5.28 7.7 5.94 10.56 3.52 4.84-3.96 4.18-5.72-4.18-11-5.06-2.86-8.58-7.48-10.34-12.76-1.32-4.4-3.52-9.24-4.4-10.56-1.32-1.54-0.66-3.52 1.32-5.28 1.87-1.54 3.7393-5.1168 3.5404-6.4264-0.86857 0.16357-1.5286 0.40679-2.4404 0.92643-1.1 0.66-2.2-0.22-2.2-2.2 0-0.99 0.76214-4.7407 0.55571-5.6614-0.51892 0.95429-2.0957 3.1314-2.7557 3.4614-1.1 0.66-2.42 0-2.42-1.54-0.33-3.19-0.73973-4.1233-1.0127-5.6243-0.45157 0.82045-2.7307 4.1089-3.7637 4.8982 0.87857-2.4282 0.18429-10.222-0.19312-10.947-0.0649 2.0882-1.2415 5.7998-1.5954 7.1421-2.3357 3.2936-2.9039 4.0132-5.5332 4.81-2.2275 0.0825-3.3018-0.82929-6.3818-4.4593-3.08-3.74-4.9643-6.5425-5.1429-8.4493 0-1.98 6.5264-9.8107 14.255-12.757 3.2746-1.1893 3.7186-1.5264 5.7272-2.0625-0.54673-0.12327-1.35-0.88747-3.7378-1.3333-1.2509-0.23354-6.3156-0.21603-9.5847 1.3361-2.9236 0.9375-9.6804 3.8236-12.76 6.9036-1.6702 0.28119 0.22525-5.3387-1.7245-4.5275-1.9497 0.81121-1.1785 6.6645-2.8243 7.5424-2.4677 1.3163-2.8662-3.0057-3.9662-3.0057-1.1 0.11 0.88643 5.1272-1.1565 6.2964-1.3372 0.76527-5.9687-4.9191-6.5187-4.0391-0.40552 0.68671 3.5758 5.3873 2.5025 6.0857-1.3258 1.0446-1.1976 2.4433-4.1304 1.2821-2.4034-1.2124-13.02-7.8774-15.754-7.6866 2.5376 1.6647 4.5095 3.6871 7.2615 6.2009 4.4 4.62 5.6436 5.1956 2.1236 5.7314-3.27-0.53571-4.0781-1.5243-5.6917-0.43299-0.80678 0.54567 0.73794 4.7107-0.35509 5.3771-1.093 0.66638-4.8455-0.79863-5.2648-0.36551-1.6775 1.7325 1.3065 4.0542 0.31652 6.5842-1.32 3.74-1.98 3.74-6.38 0.66-3.52-2.53-8.0189-4.3402-8.154-3.3825-0.17739 1.2576 0.89396 1.8425 2.874 4.7025 6.38 9.02 4.62 10.78-7.92 9.46 0 0-10.211-2.9787-13.27 1.6894 3.0212-0.56689 10.259 0.87294 12.19 1.7102 1.0456 0.45352 3.3096 1.8095 5.2646 3.3634 0.97746 0.77696 0.41201 1.3874-0.17995 3.1052-2.2884 0.82491-4.7818 1.3286-7.4818 1.1777 8.1652 3.2873 7.4343 0.5699 10.395 2.2206-2.1264 3.5076-3.8187 3.2481-11.091 4.2662-1.8012 0.8607-3.5419 1.2679-5.5219 1.8179-2.035 0.55-3.2938 2.1282-2.7914 2.3081 0.50246 0.17993 2.4984-0.32406 4.7407-0.54549 2.6296 0.034 1.2682 0.0113 7.1615 0.61785 2.7549 0.67225 3.9885 2.6948 3.4554 3.7978z"/>
<path d="m323.9 276.31c0 1.2854-0.7467 2.3274-1.6678 2.3274s-1.6678-1.042-1.6678-2.3274 0.7467-2.3274 1.6678-2.3274c0.89819 0 1.6351 0.9926 1.6668 2.2452"/>
<path stroke="#000" stroke-width="1.7" d="m327.25 278.03c-1.0558 2.6716-4.1567 4.0117-6.9261 2.9932s-4.1585-4.01-3.1027-6.6816 4.1567-4.0117 6.9261-2.9932c2.7657 1.0172 4.1555 4.0026 3.1063 6.6725" fill="none"/>
<path stroke="#000" stroke-width="1.7" d="m307.84 269.37c6.9448-3.6618 16.541 2.0203 16.541 2.0203" fill="none"/>
<g fill="#dfdfdf">
<path d="m255.78 332.44c-0.2479-1.1805 0.28963-1.7666 2.2005-2.9921 2.3573 0.29241 6.4532 1.9701 9.0489 4.2688 4.4224 3.9163 5.0936 5.3758 7.5862 8.7273-1.0169 2.0133-1.6779 2.4482-3.6065 4.3248-1.958 1.2823-3.1175 2.0609-4.4475 2.6969-1.0621-3.2926-2.3534-4.9205-5.2864-8.7038-1.3717-2.0922-5.426-3.6853-7.4823-5.2342 0.44374-1.6382 1.2567-1.7666 1.987-3.0877z"/>
<path d="m272.32 347.97c2.0249-1.3068 2.5625-3.1556 3.9683-4.0022 1.8522 0.79749 1.3705 1.026 4.377 2.501 3.2322 2.043 2.0631 1.5877 4.5558 4.9392-1.0169 2.0133-1.5516 2.9532-3.1014 5.0824-1.7054 1.5348-1.7285 2.6923-3.311 4.5909-2.9562-0.76722-4.8787-1.89-7.1804-4.5369-1.6242-1.966-3.532-2.0438-4.3255-5.3604 2.0852-1.3856 3.7821-2.0191 5.0175-3.214z"/>
<path d="m283.81 357.31c1.5199-2.0644 1.8049-3.5344 3.0844-5.0124 2.231 0.29241 4.0221 0.64715 6.6498 1.4908 3.611 0.78027 4.0834 1.9665 5.9447 3.9291-1.0169 2.0133-1.1728 4.5947-1.965 8.2391-0.56898 2.545-1.0972 3.955-2.1746 6.2324-2.9562-1.2723-5.1313-2.3951-7.6855-4.0318-2.6344-1.5872-5.1735-3.1802-6.3458-6.4969 1.3276-2.3958 1.2567-3.1555 2.4921-4.3504z"/>
<path d="m299.6 367.16c0.63598-2.822 0.54217-5.8072 1.948-8.0429 2.231 0.29241 1.8756 1.026 4.5032 1.8696 2.7272 1.1591 4.5885 1.4614 6.071 4.4342-2.4059 2.2658-2.9406 1.9431-3.7328 5.5874-0.56898 2.545 0.54433 6.1015-0.53312 8.379-2.9562-1.2723-3.2372-2.0163-5.7915-3.653-2.6344-1.5872-2.9006-0.9074-4.5781-2.5825 0.94882-2.9008 1.5093-4.292 2.1133-5.9919z"/>
<path d="m310.46 371.2c1.2673-2.5695 1.8049-3.1556 3.2106-4.3811 2.6098 1.05 3.7696 0.39461 6.271 2.6273 2.3484 1.6642 7.2401 5.7546 9.1014 7.7172-1.7746 0.87684-3.431 1.4826-5.5005 4.1985-2.0696 2.7159-1.476 3.4499-2.6797 6.485-2.1986-1.3986-3.2372-2.1426-5.2864-3.4004-2.1293-1.966-3.0269-2.5489-5.462-4.224 0.94883-2.7746-0.006-6.8173 0.34551-9.0223z"/>
<path d="m324.98 383.07c1.2673-2.5695 3.0676-3.0293 4.4733-4.2548 2.6098 1.05 3.6433 3.2988 6.1447 5.5314 3.106 3.4319 3.5783 3.9868 5.0608 6.0757-2.2796 1.1294-2.9259 1.2301-4.9955 3.0621-2.1412 1.8955-2.7387 1.9347-4.1949 3.5808-1.5672-1.7774-1.3432-1.6375-3.3924-3.653-2.1293-1.966-2.3956-1.9176-5.2094-4.4766 0.82256-2.9008 1.2567-3.9131 2.1133-5.8656z"/>
<path d="m337.1 395.32c1.5199-1.1805 2.9413-2.0192 4.2208-2.8658 1.2209 1.4288 2.3806 2.5412 3.1143 4.1425 1.2119 1.5379 1.3055 1.8402 2.2829 3.9291-2.2796 1.1294-2.042 0.85127-3.7328 1.6731-1.6443 0.79925-2.3599 1.6821-4.3212 2.9494-1.5672-1.7774-0.45932-1.1324-2.5085-3.1479-0.9929-1.2084-1.5117-2.1701-3.0629-3.719 2.2115-1.8907 2.5194-2.1454 4.0073-2.9614z"/>
<path d="m343.1 404.22c1.8355-0.86486 2.6256-1.3247 4.1577-1.9819 1.0315 1.9339 1.3074 2.2255 2.041 3.8268 0.45433 1.3485 0.80042 2.0296 1.5884 4.2448-1.7114 0.6243-2.2314 0.78813-3.354 1.2943-1.1474 0.51737-2.3599 1.2402-3.6899 2.0024-1.2515-2.3456-1.2169-1.8269-1.9403-3.211-0.67723-1.3346-1.1329-1.7281-2.3684-3.5296 1.8327-1.3856 2.3932-1.8928 3.5654-2.6457z"/>
<path d="m347.65 413.33c1.8355-0.86486 1.822-0.65507 3.3541-1.3123 1.0315 1.9339 1.7538 5.3505 2.3089 7.4429 0.40968 2.3753 0.75577 5.0207 0.87414 7.9055-1.6221 0.3118-0.95256 0.11998-2.3718 0.40144-1.4114 0.27989-1.4877 0.33426-2.9963 0.96255-0.44795-3.1492-0.83588-4.8856-1.6517-7.0373-0.54331-1.5132-1.6686-4.9424-2.9041-6.7438 1.5648-0.84989 2.2146-0.86604 3.3868-1.619z"/>
<path d="m351.62 429.62c0.56705-0.13209 1.1741-0.23256 2.372-0.33016 0.22791 4.1214 0.23592 5.1273 0.12136 9.2286-0.30461 4.2949-0.36031 7.7886-1.0455 12.147-0.77524-0.22392-0.95257-0.46038-2.3718-0.53606-1.4173-0.0756-1.3331-0.0991-2.797-0.007 1.0253-4.0866 1.0599-5.4876 1.3633-10.354 0.12633-3.79 0.11712-5.0155-0.18855-9.2831 1.1184-0.35882 1.5972-0.6036 2.5462-0.86544z"/>
<path d="m349.66 452.12c0.56705-0.13209 1.9776 0.0353 3.1755-0.0623-1.29 7.2464-2.3534 9.9487-4.7894 14.407-2.8939 4.2056-5.7175 8.1457-9.4384 12.147-0.45957-0.31862-0.7735-0.73903-1.2111-1.1611-0.42154-0.40653-0.77662-0.53021-1.2792-0.98866 4.2396-5.6045 4.9884-7.2733 7.524-12.408 2.0906-5.1293 2.4385-6.5333 3.8293-12.14 1.1184 0.44475 1.2401 0.46783 2.1891 0.20599z"/>
<path d="m336.36 478.64c0.72489 0.46769 0.37049 0.30316 1.4791 1.0091-1.7364 2.0678-2.9784 3.2523-6.2179 6.4607-2.4475 1.7949-3.1795 3.3612-8.1893 5.3816-0.59667-0.67035-0.6219-0.75817-0.9117-1.1872-0.27955-0.41385-0.39781-0.51938-0.71187-1.3241 2.5431-0.78308 5.5512-2.5574 7.4618-4.4773 3.162-2.7186 3.9564-3.944 6.0614-6.6045 0.48707 0.31848 0.71073 0.43533 1.0284 0.7417z"/>
<path d="m320.54 491.05c0.39838 0.63094 0.24739 0.81272 0.62137 1.5557-2.2721 1.3536-2.7795 1.4684-8.3533 2.5554-6.8495 0.23132-9.735 0.0676-12.952-0.36529 0.11629-0.85658 0.12665-0.93576 0.16476-1.7459 0.036-0.76561-0.0636-0.51621-0.003-1.3363 6.4052 0.42522 8.3504-0.004 10.884-0.16721 4.5584-0.42535 7.9952-1.4971 9.078-1.7725 0.48707 0.88669 0.43203 0.65406 0.56029 1.2761z"/>
<path d="m298.17 493.19c-0.13734 0.67558-0.10976 0.45557-0.31614 1.4217-5.3078-0.92322-5.4135-0.80834-11.836-2.1321-4.8405-1.3758-6.4378-2.4202-9.4312-4.0138-0.21787-1.0568-0.15754-0.92988 0.0831-1.3703 0.31705-0.58017 0.0779-0.39442 0.79571-0.8312 3.5589 2.137 7.3714 2.7636 9.4138 3.4489 4.8709 1.0032 7.281 1.2707 11.399 1.7097-0.0487 0.93133-0.059 1.1451-0.10935 1.7672z"/>
<path d="m275.23 485.74c-0.80574 0.60913-0.86634 0.89287-1.8786 0.7521-1.6535-0.22994-1.8663-0.69779-3.4541-1.9942-0.77856-0.63563-1.9879-1.8674-1.7472-2.3078 0.31705-0.58017 0.85218-2.3244 1.5546-1.1883 0.61444 0.99377 3.2339 2.53 4.7865 3.596 1.235 0.84794 1.0522 0.9053 0.73886 1.1422z"/>
<path d="m267.28 480.29c-0.93967 0.29663-0.70409 0.48348-1.4768-0.1854-0.62669-0.54244-1.0627-1.4567-2.2041-2.7978-0.65146-0.76536-1.9544-2.9703-2.0151-3.4685-0.17402-1.4284 0.62219-2.3715 1.2421-1.1883 1.1055 2.1098 2.5196 4.3157 4.474 6.096 1.1074 1.0088 0.35451 1.4257-0.0201 1.544z"/>
<path d="m261.57 471.09c-0.93967 0.29663-0.83802 0.48348-1.6108-0.1854-0.62669-0.54244-1.2533-1.953-1.9809-3.5567-0.42824-0.94393-1.3798-2.3571-1.0329-3.2899 0.38528-1.036 1.7383-1.7465 2.0904-0.47405 0.63522 2.2957 0.84421 2.3259 1.9294 5.0246 0.41815 1.0399 0.97951 2.3632 0.60493 2.4815z"/>
<path d="m258.49 461.32c-0.36793 0.70743-1.0459 0.62168-2.1465 0.12709-0.88687-0.39855-0.55401-1.8006-0.68628-3.5567-0.0711-0.94393-0.26376-1.8214-0.006-3.0667 0.22391-1.0824 2.2662-1.4747 2.4028-0.16155 0.0995 0.95638-0.0418 1.5139 0.14365 3.1496 0.29986 2.6445 0.57959 2.9561 0.29243 3.5083z"/>
<path d="m257.68 452.08c-0.21388 0.59738-1.0905 0.39847-1.6108-0.23005-0.61998-0.74901 0.11563-2.0685 0.16193-3.5567 0.0294-0.94615 0.29326-1.8992 0.79742-3.0667 0.3132-0.72528 1.4444-0.81198 1.4654 0.50809 0.0102 0.64388-0.17211 1.4813-0.34742 2.8818-0.19247 1.5376-0.12493 2.5096-0.4665 3.4636z"/>
<path d="m259.24 442.74c-0.21388 0.59738-1.1677 0.0311-1.3429-0.76576-0.26284-1.1954 0.5667-2.5123 0.92086-3.9585 0.2973-1.214 0.84425-2.658 1.8242-3.4685 0.71498-0.59135 2.008-0.91717 1.7332 0.37417-0.21298 1.001-1.6453 2.9098-2.1331 4.5335-0.44587 1.4841-0.66065 2.331-1.0022 3.285z"/>
<path d="m265.09 432.08c-0.63405 0.0243-1.3701 0.20233-1.1644-0.58719 0.18359-0.70436 0.86724-1.0516 2.1709-2.0835 0.66604-0.52723 1.8376-1.4918 2.4938-1.8167 0.75658-0.37462 2.242-0.84409 1.7332 0.37417-0.21298 0.50995-0.88639 0.72233-2.0885 1.5425-1.2801 0.87333-2.7142 2.5542-3.1451 2.5708z"/>
</g>
</g>
<use xlink:href="#a" transform="matrix(-1,0,0,1,750,0)"/>
<path d="m278.86 412.41c-12.98 4.4-31.68 13.42-39.16 18.48-2.42 1.76-2.2 3.74 1.54 11.22 2.64 4.84 5.28 9.02 5.72 9.02 0.66001 0 7.92-3.3 16.06-7.48 8.14-3.96 18.541-9.1848 23.32-10.12 3.6548-0.71515 6.9928-1.3923 9.0586-2.2501 0.83213 2.0207 0.32067 0.89461 1.8365 4.0677 2.1789 4.5611 0.82243 4.4576 4.5912 5.7056 3.9736 1.3158 13.774-4.0032 13.774-4.0032 11.44-3.96 17.82-4.4 58.96-4.4s47.52 0.44 58.96 4.62 9.2061 3.132 10.389 3.5108c1.1756 0.37629 1.7964 0.67333 3.0389 0.37523 1.1332-0.27187 2.3131-2.0047 2.8353-3.0512 0 0 2.53-6.0788 3.1795-8.2115 2.1915 1.0543 6.187 2.4267 10.037 3.6367 4.62 1.54 14.96 6.16 23.1 10.12 8.14 4.18 15.4 7.48 16.06 7.48 0.44 0 3.08-4.18 5.72-9.02 5.28-10.34 5.72-9.46-13.42-19.36-25.52-13.2-51.04-19.14-53.46-12.76-0.44 1.21-0.8132 1.9178-1.4174 3.4874-2.5575-0.58931-9.2526-2.1674-15.963-3.2674-20.68-3.74-77.44-3.74-98.12 0-6.71 1.1-11.246 2.935-15.037 3.987-2.1463-4.2938-1.697-2.5858-2.137-3.7958-1.76-4.4-13.406-3.7112-29.466 2.0088z"/>
<g fill="#dfdfdf">
<path d="m299.75 409.25c-9.4465 0.29739-27.166 6.3473-45.094 15.469-15.4 7.7-15.836 8.1412-11.656 16.281 1.76 3.74 3.7488 7.06 3.9688 7.5 0.005 0.003 0.0254 0.0291 0.0312 0.0312 0.82066 0.21541 7.6769-2.8256 15.562-6.875 8.36-4.18 18.942-8.7738 23.562-10.094 3.41-1.21 5.888-1.3204 8.9375-1.9688-0.55664-3.241 0.13292-0.44574-2.0312-6.625 2.4962-6.2583 7.3167-11.666 12-12.844-1.204-0.6433-2.9893-0.94715-5.2812-0.875z"/>
<path d="m372.03 409.41c-18.237 0.17382-36.17 1.065-44.375 2.3438-13.97 2.31-21.503 6.7382-26.688 9.4375-1.8969 1.4159-3.5602 1.7591-5.625 3 1.6362 3.7082 1.5728 5.9397 2.9688 9.1875 1.4686 3.4169 0.735 5.5775 4.75 5.6875s12.75-4.2188 12.75-4.2188c11.22-3.96 17.83-4.4063 58.75-4.4062 41.14 0 49.429 1.3089 58.938 4.625 6.8931 2.3732 9.7357 4.2461 12.5 3.75 1.421-0.25504 2.1596-2.3059 3.1562-4.7812 1.3574-3.3716 2.9938-7.9009 3.8125-13.562-2.1626-0.31581-1.2075 0.79042-4.1562-0.53125-6.3675-2.854-7.5787-3.071-11.781-4.8438-4.988-2.1041-9.6538-2.1081-16.969-3.4688-8.58-1.32-27.649-1.8368-46.281-2.2188-0.58867 0.004-1.1617-0.006-1.75 0z"/>
<path d="m448.47 409.44c-1.2415 0.01-2.2971 0.14367-3.1875 0.40625 1.919 1.207 4.161 3.2227 5.4062 3.875 4.62 2.42 4.6012 4.6563 4.1562 8.8125-0.20561 1.9204-0.38173 2.6523-1.125 5.2812 1.724 0.77849 5.98 2.54 9.5 3.75 4.4 1.32 14.952 5.9137 23.312 10.094 7.7584 3.9841 14.534 6.9849 15.531 6.875 0.0185-0.003 0.0489-0.0253 0.0625-0.0312 0.002-0.001 0.0291 0.001 0.0312 0 0.22001-0.44 2.2088-3.76 3.9688-7.5 2.86-5.5 3.075-7.4588 0.875-9.2188-4.84-3.96-24.42-13.004-38.5-17.844-9.0131-3.0044-15.643-4.535-20.031-4.5z"/>
<path d="m442.94 411.22c-0.15364 0.16615-0.28336 0.34133-0.40625 0.53125-0.6672 0.81319-0.76107 1.6831-0.96875 2.6875 1.4579 0.51546 6.3763 3.5788 8.9062 3.4688 0.54141 0 0.96989-0.0232 1.2188-0.125 0.0136-0.006 0.0501-0.0247 0.0625-0.0312 0.006-0.003 0.0257-0.0278 0.0312-0.0312 0.0209-0.0145 0.0469-0.046 0.0625-0.0625 0.007-0.008 0.0255-0.0222 0.0312-0.0312 0.003-0.005 0.0291-0.0265 0.0312-0.0312 0.002-0.005-0.001-0.0262 0-0.0312s-0.00069-0.0259 0-0.0312c0.00031-0.005 0.00006-0.0256 0-0.0312-0.00045-0.006 0.00083-0.0253 0-0.0312-0.005-0.0244-0.02-0.0669-0.0312-0.0937-0.006-0.0138-0.0232-0.0481-0.0312-0.0625-0.0134-0.0221-0.0453-0.0701-0.0625-0.0937-0.35223-0.45851-1.4249-1.1994-3.5312-2.375-1.4867-0.82976-3.8928-2.4666-5.3125-3.625z"/>
<path d="m306.34 411.28c-1.4446 1.1008-3.8946 2.6181-5.4688 3.6875-2.8276 1.921-3.2487 3.4113-4.4688 6.0938-0.0252 0.0554-0.0548 0.12573-0.0625 0.15625-0.00011 0.003-0.00018 0.0289 0 0.0312 0.002 0.00057 0.0293-0.00023 0.0312 0 0.003-0.00078 0.028 0.001 0.0312 0 0.39924-0.18277 2.5382-2.1096 7.6562-3.8438 4.3898-1.6383 2.0544-0.83729 4.7812-1.9688-1.7965-2.7763-2.03-2.965-2.25-3.625-0.0636-0.19078-0.14941-0.3626-0.25-0.53125z"/>
</g>
<path d="m325.41 417.81 0.50387 4.3567 2.986-0.34534c1.0768-0.12453 1.8162-0.38699 2.2182-0.7874 0.40779-0.40106 0.56456-1.009 0.47033-1.8239-0.0882-0.76249-0.36001-1.2766-0.81543-1.5425-0.45544-0.26583-1.2478-0.33345-2.3769-0.20287l-2.986 0.34534m-1.8859-1.3125 4.9853-0.57657c0.80906-0.0936 1.4068-0.1273 1.7932-0.10122 0.39222 0.0254 0.7491 0.10212 1.0706 0.23008 0.57563 0.23426 1.0338 0.60006 1.3744 1.0974 0.34645 0.4967 0.56109 1.103 0.6439 1.8189 0.0801 0.69265 0.00033 1.3035-0.23929 1.8326-0.24031 0.52327-0.63824 0.95859-1.1938 1.306 0.51672 0.0818 0.89903 0.27648 1.147 0.58401 0.25372 0.30687 0.45255 0.85307 0.5965 1.6386l0.39379 2.1044c0.0816 0.45064 0.17919 0.78441 0.29276 1.0013 0.1187 0.21041 0.27366 0.35174 0.46488 0.424l0.0414 0.35797-2.0168 0.23325c-0.19395-0.24889-0.37376-0.80909-0.53943-1.6806-0.003-0.0233-0.005-0.0407-0.006-0.0524l-0.29864-1.6642c-0.15784-0.85471-0.40581-1.3923-0.74392-1.6127-0.33811-0.22042-1.1242-0.25928-2.3581-0.11657l-2.8288 0.32716 0.63716 5.5092-1.7287 0.19994-1.4874-12.861m15.272 6.0365 4.0234-0.29539-2.4168-5.5508-1.6065 5.8462m-3.3402 5.6386 3.8468-13.264 1.9372-0.14222 5.7602 12.558-1.9021 0.13965-1.6506-3.7564-5.084 0.37326-1.093 3.9578-1.8144 0.13321m17.79-1.1266-0.37961-12.941 1.7571-0.0515 0.15592 5.3151 6.712-0.19689-0.15591-5.3151 1.7658-0.0518 0.37961 12.941-1.7658 0.0518-0.17782-6.0618-6.712 0.19689 0.17782 6.0618-1.7571 0.0515m15.28-5.7221 4.0341-0.0208-2.0333-5.7025-2.0008 5.7233m-3.7164 5.3981 4.7409-12.971 1.9424-0.01 4.8918 12.921-1.9072 0.01-1.391-3.8601-5.0976 0.0262-1.36 3.8742-1.8193 0.009m22.046-4.6969 1.7048 0.0294c-0.10339 1.5746-0.66408 2.822-1.6821 3.742-1.012 0.9143-2.309 1.3578-3.8907 1.3305-1.822-0.0315-3.2408-0.67715-4.2562-1.9371-1.0096-1.2598-1.4955-2.9882-1.4576-5.1851 0.035-2.027 0.60469-3.6258 1.7091-4.7964 1.1045-1.1764 2.5765-1.7487 4.416-1.717 1.4646 0.0253 2.6562 0.42387 3.5746 1.1957 0.9243 0.77195 1.4484 1.8124 1.5723 3.1214l-1.7224-0.0298c-0.14928-0.85816-0.52753-1.521-1.1348-1.9886-0.60716-0.47343-1.4028-0.71866-2.3871-0.73567-1.3123-0.0226-2.3396 0.41964-3.082 1.3269-0.73648 0.90735-1.1192 2.1988-1.1481 3.8743-0.0273 1.5818 0.32571 2.8566 1.0591 3.8245 0.73925 0.96799 1.7299 1.4627 2.9719 1.4842 1.0604 0.0183 1.9331-0.29478 2.6182-0.9393 0.69101-0.65027 1.0693-1.5169 1.1349-2.5999m3.6965 4.9002 0.59249-12.933 1.756 0.0804-0.24335 5.3118 6.7078 0.30731 0.24336-5.3118 1.7648 0.0808-0.59249 12.933-1.7648-0.0808 0.27754-6.0581-6.7078-0.30731-0.27754 6.0581-1.756-0.0804m13.02 0.6741 0.89614-12.915 1.7536 0.12168-0.89614 12.915-1.7536-0.12168m7.4206-10.905-0.42454 4.3652 2.9917 0.29096c1.0789 0.10494 1.857 0.004 2.3342-0.30281 0.48307-0.30623 0.76432-0.86758 0.84374-1.684 0.0743-0.76396-0.0832-1.3238-0.47245-1.6796-0.38928-0.35574-1.1496-0.58864-2.281-0.69868l-2.9917-0.29097m-1.5674-1.6801 4.995 0.4858c0.81062 0.0788 1.4021 0.17169 1.7743 0.27853 0.37809 0.10743 0.71082 0.25753 0.99821 0.4503 0.51342 0.35019 0.8843 0.80423 1.1126 1.3622 0.23413 0.5585 0.31632 1.1964 0.24657 1.9137-0.0675 0.694-0.27407 1.2744-0.6197 1.7412-0.34507 0.46096-0.82573 0.80275-1.442 1.0254 0.48792 0.18875 0.82069 0.45954 0.99832 0.81237 0.18343 0.3534 0.26283 0.92922 0.23819 1.7274l-0.058 2.1402c-0.0151 0.45772 0.01 0.80456 0.0754 1.0405 0.0718 0.23068 0.19348 0.40147 0.36521 0.51236l-0.0349 0.35866-2.0207-0.19653c-0.13721-0.28414-0.19506-0.86964-0.17356-1.7565 0.002-0.0233 0.004-0.0408 0.005-0.0525l0.0584-1.6898c0.0256-0.86879-0.10363-1.4465-0.38776-1.7332-0.28414-0.28665-1.0444-0.49011-2.2807-0.61036l-2.8343-0.27565-0.53684 5.5199-1.7321-0.16846 1.2532-12.886m10.669 14.146 1.6867-12.836 1.7428 0.22902-1.6867 12.836-1.7428-0.22902"/>
<path stroke="#000" stroke-width="2" d="m299.72 160.55c-5.9555 3.1001-9.0556 7.6687-9.5451 13.869-0.48947 6.6897 0.97901 11.422 4.8133 15.011 1.7132 1.7132 3.1817 3.3449 3.1817 3.7528 0 0.32633-1.3053 1.958-2.937 3.508-3.8344 3.5896-6.0371 8.3213-6.0371 13.216 0 5.0581 1.55 8.5661 5.7107 13.135l3.4264 3.7528-3.7528 4.1607c-7.5055 8.3214-7.2608 17.866 0.57108 25.78l3.3448 3.508h153.62l3.7528-3.9975c7.2608-7.7503 7.2608-16.153 0.0816-25.046l-3.6712-4.487 3.4264-4.0791c7.5055-8.974 7.3424-17.214-0.4079-25.862-3.508-3.8344-3.5896-4.5686-0.81583-6.3634 4.487-3.0185 7.2608-13.216 5.2212-19.416-3.0185-9.3003-15.99-15.501-23.904-11.422-1.4685 0.73423-4.4054 2.7738-6.6081 4.487-2.2027 1.7948-4.2423 3.1817-4.6502 3.1817-0.32632 0-2.2843-1.4685-4.3238-3.2633-7.9134-6.7713-17.214-6.2818-25.127 1.3869l-3.0185 2.937-3.9975-3.6712c-8.0766-7.5871-18.193-7.2608-26.432 0.73425l-3.0185 2.937-3.2633-2.937c-4.8133-4.4054-7.995-5.7107-13.543-5.7923-5.3028-0.0816-10.279 2.1211-14.195 6.3634l-1.958 2.0396-4.2423-3.5896c-7.8319-6.6897-14.114-7.8319-21.701-3.8344z" fill="#171796"/>
<path stroke="#000" stroke-width="2" d="m295.75 265.03c-7.995 8.8924-7.9134 17.948 0.16317 26.922l3.0185 3.3448-3.4264 3.7528c-1.8764 2.0396-3.9159 4.9765-4.5686 6.445-2.6106 6.2818-0.65265 14.685 4.487 19.498 3.1001 3.0185 3.1817 4.2422 0.24475 7.8318-1.3053 1.55-2.8554 3.7528-3.4264 4.8949-6.1186 11.585 3.0185 26.106 16.561 26.106 5.3844 0 9.4635-1.7132 13.135-5.6291 2.937-3.1001 4.487-3.1817 7.0976-0.40792 3.8344 4.2423 8.8924 6.8529 13.135 6.8529 4.9765 0 8.0766-1.55 13.135-6.3634l3.8343-3.7528 3.508 3.8343c7.5871 8.1582 15.256 8.4029 25.454 0.65265l4.1607-3.1001 3.5896 3.2633c4.487 3.9159 7.8319 5.466 12.237 5.466 4.4054 0 7.6687-1.7132 12.808-6.7713l4.2423-4.0791 3.2633 2.937c6.2818 5.6291 9.7082 7.4239 14.277 7.4239 4.7317 0 8.0766-1.55 12.808-5.7923 4.4054-3.9975 6.7713-8.6477 6.2002-12.482-0.57108-4.1607-4.3238-11.748-7.0976-14.358l-2.3659-2.2843 3.6712-4.1607c7.9951-9.3819 8.0766-16.643 0.16318-25.943l-3.2633-3.9159 3.4264-4.1607c7.6687-9.0556 7.5871-17.458-0.16316-25.698l-4.1607-4.3239-76.361 0.0816-76.361 0.0816-3.4264 3.8344z" fill="#d42e12"/>
<path d="m278.86 254.45s0.0499 76.333 0.20562 105.48c-0.25963 4.3134 2.2673 5.3584 5.9688 8.2305 5.9861 4.6448 12.371 9.5073 46.626 6.8488 31.46 0.22 38.06 2.64 41.36 15.18l1.76 7.04 1.54-7.04c2.42-12.1 9.8856-14.96 40.246-15.18 39.084 0.58804 42.33-1.8649 47.931-6.6432 0 0 4.0917-3.1499 5.1464-6.1744 1.1838-3.3946 0.61683-6.1703 0.61683-6.1703v-208.49h-191.4v106.92zm189.2 0.88 0.41121 88.069c0 11.856 0.85379 15.492-0.41121 17.751-1.265 2.2588-3.8264 5.2656-3.8264 5.2656-5.94 5.94-10.969 7.1552-38.06 6.8056-17.499 0.0473-26.954 0.53146-40.739 2.7078-2.1648 1.9429-8.1102 1.7703-10.875 13.079-3.5868-11.308-6.1456-10.817-6.1456-10.817-14.648-6.1456-21.198-4.9222-44.674-5.1607-15.18 2.2-31.46-0.66-37.62-6.82 0 0-0.9165 0.24878-5.06-4.6488 0.0405-21.454 0-106.23 0-106.23v-105.6h187v105.6z"/>
<path d="m348.09 195.61c-5.7912 11.982-6.0359 17.359-1.2235 26.96 3.752 7.3736 8.1566 12.059 14.192 15.054 15.742 7.9112 35.889 2.0737 43.801-12.673 4.8939-9.0633 4.323-24.194-1.0603-30.8l-1.4682-1.7666-1.3866 5.2229c-1.9576 7.4504-3.9152 11.214-7.8303 15.208-7.3409 7.4504-17.455 9.1401-27.895 4.5316-8.075-3.61-11.338-8.6025-14.356-22.505l-0.7341-3.4564-2.0391 4.2244z" fill="#fff"/>
<path d="m346.18 196.37c-4.84 11-4.4 16.5 1.54 28.16 15.4 30.36 61.16 18.92 60.94-15.4-0.21999-5.5-0.0494-9.0817-3.08-15.18-1.43-2.53-2.0422-3.281-3.062-4.811-0.403 1.6569-1.008 4.591-2.218 9.431-4.4 16.94-18.92 24.86-34.1 18.48-8.58-3.52-12.54-9.24-14.74-21.12l-1.54-7.7-3.74 8.14zm14.96 21.78c10.56 6.82 26.62 4.62 34.76-4.4 3.3-3.74 5.3265-9.5749 6.16-12.54 0.82241-2.9258 0.9828-3.3637 1.4804-6.2875 1.2758 2.8333 1.9776 4.3222 2.5801 8.7044 0.88995 6.4732-0.54049 11.883-2.0805 15.843-7.7 20.24-32.34 26.4-47.74 11.88-7.48-6.82-13.421-20.222-10.171-28.869 1.1523-3.0666 1.4156-4.8148 2.9219-8.0518 0.27269 2.2116 0.42946 5.2412 1.9695 9.8612 1.98 6.38 5.5 11 10.12 13.86z"/>
<g id="b" stroke="#000" transform="translate(310.26 43.566)">
<path stroke-width="1.625" d="m27.16 254.01c-0.14705 4.7589 0.08261 6.9363 0.83465 10.464-2.3958-2.312-4.8086-3.9266-8.1271-5.8529-4.227-2.4537-9.5654-4.7954-11.378-1.8021-1.745 2.8817 3.2598 6.8271 7.178 9.038 4.2842 2.4175 6.7536 2.7479 9.5411 3.8415-2.3603 1.2473-5.5794 2.0858-9.1477 4.3747-3.5008 2.2456-8.7349 6.8931-6.7494 9.8599 2.0209 3.0197 7.8595-0.3737 11.152-2.5774 2.7416-1.8349 6.3694-4.7314 7.7809-6.214-0.27887 2.1286-1.122 6.3698-1.0594 10.426 0.07602 4.9257 0.75765 10.437 4.4258 10.428 3.745-0.009 4.541-6.5004 4.4819-10.889-0.06174-4.5864-0.58494-7.8283-1.0367-10.091 1.6228 1.6554 4.0704 4.0273 7.2972 6.5711 2.664 2.1001 9.1867 5.2095 11.141 2.2304 1.989-3.0326-1.1072-6.047-6.7961-9.6573-3.9871-2.5303-6.8107-3.3963-9.4084-4.4725 2.6269-1.0762 5.4986-1.3522 9.6971-3.9043 6.2289-3.7863 8.8681-6.3186 6.9591-9.5782-1.8559-3.169-5.6068-1.4376-11.304 2.1862-3.052 1.9414-5.9077 4.515-7.8425 6.3659 0.44241-2.9127 0.91774-7.2058 0.88216-10.387-0.05558-4.7282-1.0908-10.84-4.3104-10.859-3.2196-0.0186-4.0503 5.2942-4.2111 10.499z" fill="#e9d315"/>
<path stroke-width="2.7931" d="m41.49 195.12c0 4.1373-3.3539 7.4912-7.4912 7.4912s-7.4912-3.354-7.4912-7.4912 3.3539-7.4912 7.4912-7.4912c4.1338 0 7.4863 3.3485 7.4912 7.4823" transform="matrix(.66897 0 0 .66897 8.6491 139.21)" fill="#fff"/>
</g>
<use x="65.63" xlink:href="#b"/>
</svg>
